%TF.GenerationSoftware,KiCad,Pcbnew,8.0.6*%
%TF.CreationDate,2025-01-23T10:29:06+01:00*%
%TF.ProjectId,Pcb pami 2025,50636220-7061-46d6-9920-323032352e6b,rev?*%
%TF.SameCoordinates,Original*%
%TF.FileFunction,Copper,L1,Top*%
%TF.FilePolarity,Positive*%
%FSLAX46Y46*%
G04 Gerber Fmt 4.6, Leading zero omitted, Abs format (unit mm)*
G04 Created by KiCad (PCBNEW 8.0.6) date 2025-01-23 10:29:06*
%MOMM*%
%LPD*%
G01*
G04 APERTURE LIST*
%TA.AperFunction,ComponentPad*%
%ADD10R,1.700000X1.700000*%
%TD*%
%TA.AperFunction,ComponentPad*%
%ADD11O,1.700000X1.700000*%
%TD*%
%TA.AperFunction,ViaPad*%
%ADD12C,0.600000*%
%TD*%
%TA.AperFunction,Conductor*%
%ADD13C,0.200000*%
%TD*%
G04 APERTURE END LIST*
D10*
%TO.P,J10,1,Pin_1*%
%TO.N,VCC*%
X129760000Y-78470000D03*
D11*
%TO.P,J10,2,Pin_2*%
%TO.N,/D2*%
X129760000Y-81010000D03*
%TO.P,J10,3,Pin_3*%
%TO.N,/D15*%
X129760000Y-83550000D03*
%TO.P,J10,4,Pin_4*%
%TO.N,GND*%
X129760000Y-86090000D03*
%TD*%
%TO.P,U1,1,VIN*%
%TO.N,VCC*%
X97622000Y-77781200D03*
%TO.P,U1,2,GND*%
%TO.N,GND*%
X97622000Y-75241200D03*
%TO.P,U1,3,D13*%
%TO.N,/D13*%
X97622000Y-72701200D03*
%TO.P,U1,4,D12*%
%TO.N,/D12*%
X97622000Y-70161200D03*
%TO.P,U1,5,D14*%
%TO.N,/D14*%
X97622000Y-67621200D03*
%TO.P,U1,6,D27*%
%TO.N,/D27*%
X97622000Y-65081200D03*
%TO.P,U1,7,D26*%
%TO.N,/D26*%
X97622000Y-62541200D03*
%TO.P,U1,8,D25*%
%TO.N,/D25*%
X97622000Y-60001200D03*
%TO.P,U1,9,D33*%
%TO.N,/D33*%
X97622000Y-57461200D03*
%TO.P,U1,10,D32*%
%TO.N,/D32*%
X97622000Y-54921200D03*
%TO.P,U1,11,D35*%
%TO.N,/D35*%
X97622000Y-52381200D03*
%TO.P,U1,12,D34*%
%TO.N,/D34*%
X97622000Y-49841200D03*
%TO.P,U1,13,UN*%
%TO.N,unconnected-(U1-UN-Pad13)*%
X97622000Y-47301200D03*
%TO.P,U1,14,UP*%
%TO.N,unconnected-(U1-UP-Pad14)*%
X97622000Y-44761200D03*
D10*
%TO.P,U1,15,EN*%
%TO.N,unconnected-(U1-EN-Pad15)*%
X97622000Y-42221200D03*
D11*
%TO.P,U1,16,3V3*%
%TO.N,/3V*%
X123122000Y-77781200D03*
%TO.P,U1,17,GND*%
%TO.N,GND*%
X123122000Y-75241200D03*
%TO.P,U1,18,D15*%
%TO.N,/D15*%
X123122000Y-72701200D03*
%TO.P,U1,19,D2*%
%TO.N,/D2*%
X123122000Y-70161200D03*
%TO.P,U1,20,D4*%
%TO.N,/D4*%
X123122000Y-67621200D03*
%TO.P,U1,21,RX2*%
%TO.N,unconnected-(U1-RX2-Pad21)*%
X123122000Y-65081200D03*
%TO.P,U1,22,TX2*%
%TO.N,unconnected-(U1-TX2-Pad22)*%
X123122000Y-62541200D03*
%TO.P,U1,23,D5*%
%TO.N,/D5*%
X123122000Y-60001200D03*
%TO.P,U1,24,D18*%
%TO.N,/D18*%
X123122000Y-57461200D03*
%TO.P,U1,25,D19*%
%TO.N,/D19*%
X123122000Y-54921200D03*
%TO.P,U1,26,D21*%
%TO.N,/SDA*%
X123122000Y-52381200D03*
%TO.P,U1,27,RXD*%
%TO.N,unconnected-(U1-RXD-Pad27)*%
X123122000Y-49841200D03*
%TO.P,U1,28,TXD*%
%TO.N,unconnected-(U1-TXD-Pad28)*%
X123122000Y-47301200D03*
%TO.P,U1,29,D22*%
%TO.N,/SCL*%
X123122000Y-44761200D03*
D10*
%TO.P,U1,30,D23*%
%TO.N,/D23*%
X123122000Y-42221200D03*
%TD*%
%TO.P,J8,1,Pin_1*%
%TO.N,/BOUT1*%
X77200000Y-27110000D03*
D11*
%TO.P,J8,2,Pin_2*%
%TO.N,VCC*%
X77200000Y-29650000D03*
%TO.P,J8,3,Pin_3*%
%TO.N,/D34*%
X77200000Y-32190000D03*
%TO.P,J8,4,Pin_4*%
%TO.N,/D35*%
X77200000Y-34730000D03*
%TO.P,J8,5,Pin_5*%
%TO.N,GND*%
X77200000Y-37270000D03*
%TO.P,J8,6,Pin_6*%
%TO.N,/BOUT2*%
X77200000Y-39810000D03*
%TD*%
D10*
%TO.P,J4,1,Pin_1*%
%TO.N,VCC*%
X133550000Y-74970000D03*
D11*
%TO.P,J4,2,Pin_2*%
%TO.N,/D5*%
X133550000Y-77510000D03*
%TO.P,J4,3,Pin_3*%
%TO.N,/D4*%
X133550000Y-80050000D03*
%TO.P,J4,4,Pin_4*%
%TO.N,GND*%
X133550000Y-82590000D03*
%TD*%
D10*
%TO.P,J14,1,Pin_1*%
%TO.N,VCC*%
X103850000Y-29950000D03*
D11*
%TO.P,J14,2,Pin_2*%
%TO.N,GND*%
X106390000Y-29950000D03*
%TO.P,J14,3,Pin_3*%
%TO.N,/SCL*%
X108930000Y-29950000D03*
%TO.P,J14,4,Pin_4*%
%TO.N,/SDA*%
X111470000Y-29950000D03*
%TD*%
D10*
%TO.P,J12,1,Pin_1*%
%TO.N,/D18*%
X135350000Y-53020000D03*
D11*
%TO.P,J12,2,Pin_2*%
%TO.N,VCC*%
X135350000Y-55560000D03*
%TO.P,J12,3,Pin_3*%
%TO.N,GND*%
X135350000Y-58100000D03*
%TD*%
D10*
%TO.P,J11,1,Pin_1*%
%TO.N,/SDA*%
X127220000Y-28010000D03*
D11*
%TO.P,J11,2,Pin_2*%
%TO.N,/SCL*%
X127220000Y-30550000D03*
%TO.P,J11,3,Pin_3*%
%TO.N,unconnected-(J11-Pin_3-Pad3)*%
X127220000Y-33090000D03*
%TO.P,J11,4,Pin_4*%
%TO.N,unconnected-(J11-Pin_4-Pad4)*%
X127220000Y-35630000D03*
%TO.P,J11,5,Pin_5*%
%TO.N,VCC*%
X127220000Y-38170000D03*
%TO.P,J11,6,Pin_6*%
%TO.N,/3V*%
X127220000Y-40710000D03*
%TO.P,J11,7,Pin_7*%
%TO.N,GND*%
X127220000Y-43250000D03*
%TD*%
D10*
%TO.P,J1,1,Pin_1*%
%TO.N,/D19*%
X129970000Y-64400000D03*
D11*
%TO.P,J1,2,Pin_2*%
%TO.N,VCC*%
X129970000Y-66940000D03*
%TO.P,J1,3,Pin_3*%
%TO.N,GND*%
X129970000Y-69480000D03*
%TD*%
D10*
%TO.P,J6,1,Pin_1*%
%TO.N,Net-(J5-Pin_2)*%
X87084000Y-85052000D03*
D11*
%TO.P,J6,2,Pin_2*%
%TO.N,unconnected-(J6-Pin_2-Pad2)*%
X89624000Y-85052000D03*
%TO.P,J6,3,Pin_3*%
%TO.N,VCC*%
X92164000Y-85052000D03*
%TD*%
D10*
%TO.P,J7,1,Pin_1*%
%TO.N,/D12*%
X91915000Y-29934000D03*
D11*
%TO.P,J7,2,Pin_2*%
%TO.N,GND*%
X89375000Y-29934000D03*
%TD*%
D10*
%TO.P,J5,1,Pin_1*%
%TO.N,GND*%
X91148000Y-94196000D03*
D11*
%TO.P,J5,2,Pin_2*%
%TO.N,Net-(J5-Pin_2)*%
X93688000Y-94196000D03*
%TD*%
D10*
%TO.P,J13,1,Pin_1*%
%TO.N,/D13*%
X78850000Y-74505000D03*
D11*
%TO.P,J13,2,Pin_2*%
%TO.N,GND*%
X78850000Y-77045000D03*
%TD*%
D10*
%TO.P,J2,1,Pin_1*%
%TO.N,/D18*%
X129420000Y-53050000D03*
D11*
%TO.P,J2,2,Pin_2*%
%TO.N,VCC*%
X129420000Y-55590000D03*
%TO.P,J2,3,Pin_3*%
%TO.N,GND*%
X129420000Y-58130000D03*
%TD*%
D10*
%TO.P,U2,1,GND*%
%TO.N,GND*%
X81486000Y-49442000D03*
D11*
%TO.P,U2,2,VIN*%
%TO.N,VCC*%
X81486000Y-51982000D03*
%TO.P,U2,3,BOUT1*%
%TO.N,/BOUT1*%
X81486000Y-54522000D03*
%TO.P,U2,4,BOUT2*%
%TO.N,/BOUT2*%
X81486000Y-57062000D03*
%TO.P,U2,5,AOUT2*%
%TO.N,/AOUT2*%
X81486000Y-59602000D03*
%TO.P,U2,6,AOUT1*%
%TO.N,/AOUT1*%
X81486000Y-62142000D03*
%TO.P,U2,7,AISEN*%
%TO.N,unconnected-(U2-AISEN-Pad7)*%
X81486000Y-64682000D03*
%TO.P,U2,8,BISEN*%
%TO.N,unconnected-(U2-BISEN-Pad8)*%
X81486000Y-67222000D03*
D10*
%TO.P,U2,9,GND*%
%TO.N,GND*%
X91666000Y-49492000D03*
D11*
%TO.P,U2,10,VMM*%
%TO.N,unconnected-(U2-VMM-Pad10)*%
X91666000Y-52032000D03*
%TO.P,U2,11,BIN1*%
%TO.N,/D32*%
X91666000Y-54572000D03*
%TO.P,U2,12,BIN2*%
%TO.N,/D33*%
X91666000Y-57112000D03*
%TO.P,U2,13,AIN2*%
%TO.N,/D25*%
X91666000Y-59652000D03*
%TO.P,U2,14,AIN1*%
%TO.N,/D26*%
X91666000Y-62192000D03*
%TO.P,U2,15,SLP*%
%TO.N,unconnected-(U2-SLP-Pad15)*%
X91666000Y-64732000D03*
%TO.P,U2,16,FLT*%
%TO.N,unconnected-(U2-FLT-Pad16)*%
X91666000Y-67272000D03*
%TD*%
D10*
%TO.P,J3,1,Pin_1*%
%TO.N,/D23*%
X135980000Y-64290000D03*
D11*
%TO.P,J3,2,Pin_2*%
%TO.N,VCC*%
X135980000Y-66830000D03*
%TO.P,J3,3,Pin_3*%
%TO.N,GND*%
X135980000Y-69370000D03*
%TD*%
D10*
%TO.P,J9,1,Pin_1*%
%TO.N,/AOUT1*%
X75400000Y-54064000D03*
D11*
%TO.P,J9,2,Pin_2*%
%TO.N,VCC*%
X75400000Y-56604000D03*
%TO.P,J9,3,Pin_3*%
%TO.N,/D27*%
X75400000Y-59144000D03*
%TO.P,J9,4,Pin_4*%
%TO.N,/D14*%
X75400000Y-61684000D03*
%TO.P,J9,5,Pin_5*%
%TO.N,GND*%
X75400000Y-64224000D03*
%TO.P,J9,6,Pin_6*%
%TO.N,/AOUT2*%
X75400000Y-66764000D03*
%TD*%
D12*
%TO.N,/D14*%
X79010000Y-70320000D03*
X95720000Y-70320000D03*
%TO.N,/BOUT1*%
X74892000Y-36840000D03*
X74892000Y-40602000D03*
%TO.N,/BOUT2*%
X78690000Y-42170000D03*
%TO.N,/D18*%
X126451600Y-54131600D03*
X124951600Y-55631600D03*
%TO.N,/SDA*%
X125220000Y-29970000D03*
%TO.N,/D27*%
X94180000Y-69558000D03*
X79730000Y-69558000D03*
%TD*%
D13*
%TO.N,Net-(J5-Pin_2)*%
X87084000Y-85052000D02*
X87084000Y-87592000D01*
X87084000Y-87592000D02*
X93688000Y-94196000D01*
%TO.N,/D14*%
X78956000Y-61938000D02*
X78956000Y-70320000D01*
X95720000Y-67621200D02*
X97622000Y-67621200D01*
X78702000Y-61684000D02*
X78956000Y-61938000D01*
X95720000Y-70320000D02*
X95720000Y-67621200D01*
X78956000Y-70320000D02*
X79010000Y-70320000D01*
X75400000Y-61684000D02*
X78702000Y-61684000D01*
%TO.N,/D25*%
X91666000Y-59652000D02*
X97272800Y-59652000D01*
X97272800Y-59652000D02*
X97622000Y-60001200D01*
%TO.N,/D26*%
X91666000Y-62192000D02*
X97272800Y-62192000D01*
X97272800Y-62192000D02*
X97622000Y-62541200D01*
%TO.N,/D32*%
X91666000Y-54572000D02*
X97272800Y-54572000D01*
X97272800Y-54572000D02*
X97622000Y-54921200D01*
%TO.N,/D33*%
X97272800Y-57112000D02*
X97622000Y-57461200D01*
X91666000Y-57112000D02*
X97272800Y-57112000D01*
%TO.N,/D2*%
X123122000Y-70161200D02*
X126454000Y-73493200D01*
X126454000Y-73493200D02*
X126454000Y-77940000D01*
X126454000Y-77940000D02*
X129524000Y-81010000D01*
X129524000Y-81010000D02*
X129760000Y-81010000D01*
%TO.N,/BOUT1*%
X79768000Y-54522000D02*
X79718000Y-54472000D01*
X74892000Y-29418000D02*
X77200000Y-27110000D01*
X75654000Y-41364000D02*
X74892000Y-40602000D01*
X81486000Y-54522000D02*
X79768000Y-54522000D01*
X79718000Y-54472000D02*
X79718000Y-41364000D01*
X74892000Y-36840000D02*
X74892000Y-29418000D01*
X79718000Y-41364000D02*
X75654000Y-41364000D01*
%TO.N,/BOUT2*%
X79210000Y-56858000D02*
X79414000Y-57062000D01*
X79414000Y-57062000D02*
X81486000Y-57062000D01*
X78690000Y-42170000D02*
X79210000Y-42690000D01*
X79210000Y-42690000D02*
X79210000Y-56858000D01*
%TO.N,/AOUT1*%
X84798000Y-58382000D02*
X77940000Y-58382000D01*
X77940000Y-56604000D02*
X75400000Y-54064000D01*
X81486000Y-62142000D02*
X83070000Y-62142000D01*
X77940000Y-58382000D02*
X77940000Y-56604000D01*
X84798000Y-60414000D02*
X84798000Y-58382000D01*
X83070000Y-62142000D02*
X84798000Y-60414000D01*
%TO.N,/D18*%
X127530000Y-53053200D02*
X127713200Y-53053200D01*
X135320000Y-53050000D02*
X135350000Y-53020000D01*
X127713200Y-53053200D02*
X127716400Y-53050000D01*
X126451600Y-54131600D02*
X127530000Y-53053200D01*
X127716400Y-53050000D02*
X129420000Y-53050000D01*
X123122000Y-57461200D02*
X124951600Y-55631600D01*
X129420000Y-53050000D02*
X135320000Y-53050000D01*
%TO.N,/D5*%
X128280000Y-73110000D02*
X128280000Y-71084314D01*
X125220000Y-62099200D02*
X123122000Y-60001200D01*
X132680000Y-77510000D02*
X128280000Y-73110000D01*
X125220000Y-68024314D02*
X125220000Y-62099200D01*
X128280000Y-71084314D02*
X125220000Y-68024314D01*
X133550000Y-77510000D02*
X132680000Y-77510000D01*
%TO.N,/D4*%
X124251200Y-67621200D02*
X127500000Y-70870000D01*
X131830000Y-78330000D02*
X133550000Y-80050000D01*
X131830000Y-77580000D02*
X131830000Y-78330000D01*
X127500000Y-70870000D02*
X127500000Y-73250000D01*
X127500000Y-73250000D02*
X131830000Y-77580000D01*
X123122000Y-67621200D02*
X124251200Y-67621200D01*
%TO.N,/SDA*%
X125220000Y-29970000D02*
X125260000Y-29970000D01*
X123122000Y-52178000D02*
X125170000Y-50130000D01*
X125260000Y-29970000D02*
X127220000Y-28010000D01*
X125170000Y-50130000D02*
X125170000Y-30060000D01*
X123122000Y-52381200D02*
X123122000Y-52178000D01*
%TO.N,/SCL*%
X129390000Y-25870000D02*
X129390000Y-28380000D01*
X109460000Y-32440000D02*
X124620000Y-32440000D01*
X124620000Y-43263200D02*
X124620000Y-32440000D01*
X108930000Y-31910000D02*
X109460000Y-32440000D01*
X124620000Y-32440000D02*
X124620000Y-31680000D01*
X123122000Y-44761200D02*
X124620000Y-43263200D01*
X108930000Y-29950000D02*
X108930000Y-31910000D01*
X124620000Y-25870000D02*
X129390000Y-25870000D01*
X129390000Y-28380000D02*
X127220000Y-30550000D01*
X124620000Y-31680000D02*
X124620000Y-25870000D01*
%TO.N,/D27*%
X76924000Y-60668000D02*
X78702000Y-60668000D01*
X94196000Y-69558000D02*
X94196000Y-65240000D01*
X94196000Y-65240000D02*
X94354800Y-65081200D01*
X79718000Y-69558000D02*
X79730000Y-69558000D01*
X79718000Y-61684000D02*
X79718000Y-69558000D01*
X94180000Y-69558000D02*
X94196000Y-69558000D01*
X78702000Y-60668000D02*
X79718000Y-61684000D01*
X94354800Y-65081200D02*
X97622000Y-65081200D01*
X75400000Y-59144000D02*
X76924000Y-60668000D01*
%TO.N,/D34*%
X81624000Y-35014000D02*
X99276000Y-35014000D01*
X99276000Y-35014000D02*
X99276000Y-48187200D01*
X99276000Y-48187200D02*
X97622000Y-49841200D01*
X78800000Y-32190000D02*
X81624000Y-35014000D01*
X77200000Y-32190000D02*
X78800000Y-32190000D01*
%TO.N,/D13*%
X95723200Y-74600000D02*
X97622000Y-72701200D01*
X78994000Y-74600000D02*
X95723200Y-74600000D01*
X78956000Y-74638000D02*
X78994000Y-74600000D01*
%TO.N,/D12*%
X100038000Y-33998000D02*
X100038000Y-67745200D01*
X100038000Y-67745200D02*
X97622000Y-70161200D01*
X91915000Y-29934000D02*
X91915000Y-33998000D01*
X91915000Y-33998000D02*
X100038000Y-33998000D01*
%TO.N,/D35*%
X81910000Y-36480000D02*
X94020000Y-36480000D01*
X97463200Y-52540000D02*
X97622000Y-52381200D01*
X77200000Y-34730000D02*
X80160000Y-34730000D01*
X95010000Y-52540000D02*
X97463200Y-52540000D01*
X80160000Y-34730000D02*
X81910000Y-36480000D01*
X94020000Y-36480000D02*
X94020000Y-51550000D01*
X94020000Y-51550000D02*
X95010000Y-52540000D01*
%TO.N,/D15*%
X125946000Y-79736000D02*
X129760000Y-83550000D01*
X125946000Y-73876000D02*
X125946000Y-79736000D01*
X124771200Y-72701200D02*
X125946000Y-73876000D01*
X123122000Y-72701200D02*
X124771200Y-72701200D01*
%TD*%
%TA.AperFunction,Conductor*%
%TO.N,GND*%
G36*
X139612539Y-24866185D02*
G01*
X139658294Y-24918989D01*
X139669500Y-24970500D01*
X139669500Y-81203910D01*
X139649815Y-81270949D01*
X139624986Y-81299084D01*
X116909003Y-100270674D01*
X116844930Y-100298538D01*
X116829517Y-100299500D01*
X92648359Y-100299500D01*
X92581320Y-100279815D01*
X92567836Y-100269797D01*
X86733990Y-95288086D01*
X83891674Y-92860939D01*
X73695549Y-84154135D01*
X85733500Y-84154135D01*
X85733500Y-85949870D01*
X85733501Y-85949876D01*
X85739908Y-86009483D01*
X85790202Y-86144328D01*
X85790206Y-86144335D01*
X85876452Y-86259544D01*
X85876455Y-86259547D01*
X85991664Y-86345793D01*
X85991671Y-86345797D01*
X86036618Y-86362561D01*
X86126517Y-86396091D01*
X86186127Y-86402500D01*
X86359500Y-86402499D01*
X86426539Y-86422183D01*
X86472294Y-86474987D01*
X86483500Y-86526499D01*
X86483500Y-87505330D01*
X86483499Y-87505348D01*
X86483499Y-87671054D01*
X86483498Y-87671054D01*
X86524423Y-87823785D01*
X86553358Y-87873900D01*
X86553359Y-87873904D01*
X86553360Y-87873904D01*
X86603479Y-87960714D01*
X86603481Y-87960717D01*
X86722349Y-88079585D01*
X86722355Y-88079590D01*
X91361681Y-92718916D01*
X91395166Y-92780239D01*
X91398000Y-92806597D01*
X91398000Y-93762988D01*
X91340993Y-93730075D01*
X91213826Y-93696000D01*
X91082174Y-93696000D01*
X90955007Y-93730075D01*
X90898000Y-93762988D01*
X90898000Y-92846000D01*
X90250155Y-92846000D01*
X90190627Y-92852401D01*
X90190620Y-92852403D01*
X90055913Y-92902645D01*
X90055906Y-92902649D01*
X89940812Y-92988809D01*
X89940809Y-92988812D01*
X89854649Y-93103906D01*
X89854645Y-93103913D01*
X89804403Y-93238620D01*
X89804401Y-93238627D01*
X89798000Y-93298155D01*
X89798000Y-93946000D01*
X90714988Y-93946000D01*
X90682075Y-94003007D01*
X90648000Y-94130174D01*
X90648000Y-94261826D01*
X90682075Y-94388993D01*
X90714988Y-94446000D01*
X89798000Y-94446000D01*
X89798000Y-95093844D01*
X89804401Y-95153372D01*
X89804403Y-95153379D01*
X89854645Y-95288086D01*
X89854649Y-95288093D01*
X89940809Y-95403187D01*
X89940812Y-95403190D01*
X90055906Y-95489350D01*
X90055913Y-95489354D01*
X90190620Y-95539596D01*
X90190627Y-95539598D01*
X90250155Y-95545999D01*
X90250172Y-95546000D01*
X90898000Y-95546000D01*
X90898000Y-94629012D01*
X90955007Y-94661925D01*
X91082174Y-94696000D01*
X91213826Y-94696000D01*
X91340993Y-94661925D01*
X91398000Y-94629012D01*
X91398000Y-95546000D01*
X92045828Y-95546000D01*
X92045844Y-95545999D01*
X92105372Y-95539598D01*
X92105379Y-95539596D01*
X92240086Y-95489354D01*
X92240093Y-95489350D01*
X92355187Y-95403190D01*
X92355190Y-95403187D01*
X92441350Y-95288093D01*
X92441354Y-95288086D01*
X92490422Y-95156529D01*
X92532293Y-95100595D01*
X92597757Y-95076178D01*
X92666030Y-95091030D01*
X92694285Y-95112181D01*
X92816599Y-95234495D01*
X92893135Y-95288086D01*
X93010165Y-95370032D01*
X93010167Y-95370033D01*
X93010170Y-95370035D01*
X93224337Y-95469903D01*
X93452592Y-95531063D01*
X93623319Y-95546000D01*
X93687999Y-95551659D01*
X93688000Y-95551659D01*
X93688001Y-95551659D01*
X93752681Y-95546000D01*
X93923408Y-95531063D01*
X94151663Y-95469903D01*
X94365830Y-95370035D01*
X94559401Y-95234495D01*
X94726495Y-95067401D01*
X94862035Y-94873830D01*
X94961903Y-94659663D01*
X95023063Y-94431408D01*
X95043659Y-94196000D01*
X95023063Y-93960592D01*
X94961903Y-93732337D01*
X94862035Y-93518171D01*
X94726495Y-93324599D01*
X94726494Y-93324597D01*
X94559402Y-93157506D01*
X94559395Y-93157501D01*
X94365834Y-93021967D01*
X94365830Y-93021965D01*
X94294727Y-92988809D01*
X94151663Y-92922097D01*
X94151659Y-92922096D01*
X94151655Y-92922094D01*
X93923413Y-92860938D01*
X93923403Y-92860936D01*
X93688001Y-92840341D01*
X93687999Y-92840341D01*
X93452596Y-92860936D01*
X93452583Y-92860939D01*
X93324241Y-92895327D01*
X93254392Y-92893664D01*
X93204468Y-92863233D01*
X87720819Y-87379584D01*
X87687334Y-87318261D01*
X87684500Y-87291903D01*
X87684500Y-86526499D01*
X87704185Y-86459460D01*
X87756989Y-86413705D01*
X87808500Y-86402499D01*
X87981871Y-86402499D01*
X87981872Y-86402499D01*
X88041483Y-86396091D01*
X88176331Y-86345796D01*
X88291546Y-86259546D01*
X88377796Y-86144331D01*
X88426810Y-86012916D01*
X88468681Y-85956984D01*
X88534145Y-85932566D01*
X88602418Y-85947417D01*
X88630673Y-85968569D01*
X88752599Y-86090495D01*
X88845901Y-86155826D01*
X88946165Y-86226032D01*
X88946167Y-86226033D01*
X88946170Y-86226035D01*
X89160337Y-86325903D01*
X89388592Y-86387063D01*
X89565034Y-86402500D01*
X89623999Y-86407659D01*
X89624000Y-86407659D01*
X89624001Y-86407659D01*
X89682966Y-86402500D01*
X89859408Y-86387063D01*
X90087663Y-86325903D01*
X90301830Y-86226035D01*
X90495401Y-86090495D01*
X90662495Y-85923401D01*
X90792425Y-85737842D01*
X90847002Y-85694217D01*
X90916500Y-85687023D01*
X90978855Y-85718546D01*
X90995575Y-85737842D01*
X91125500Y-85923395D01*
X91125505Y-85923401D01*
X91292599Y-86090495D01*
X91385901Y-86155826D01*
X91486165Y-86226032D01*
X91486167Y-86226033D01*
X91486170Y-86226035D01*
X91700337Y-86325903D01*
X91928592Y-86387063D01*
X92105034Y-86402500D01*
X92163999Y-86407659D01*
X92164000Y-86407659D01*
X92164001Y-86407659D01*
X92222966Y-86402500D01*
X92399408Y-86387063D01*
X92627663Y-86325903D01*
X92841830Y-86226035D01*
X93035401Y-86090495D01*
X93202495Y-85923401D01*
X93338035Y-85729830D01*
X93437903Y-85515663D01*
X93499063Y-85287408D01*
X93519659Y-85052000D01*
X93519649Y-85051891D01*
X93508275Y-84921880D01*
X93499063Y-84816592D01*
X93437903Y-84588337D01*
X93338035Y-84374171D01*
X93332425Y-84366158D01*
X93202494Y-84180597D01*
X93035402Y-84013506D01*
X93035395Y-84013501D01*
X92841834Y-83877967D01*
X92841830Y-83877965D01*
X92810666Y-83863433D01*
X92627663Y-83778097D01*
X92627659Y-83778096D01*
X92627655Y-83778094D01*
X92399413Y-83716938D01*
X92399403Y-83716936D01*
X92164001Y-83696341D01*
X92163999Y-83696341D01*
X91928596Y-83716936D01*
X91928586Y-83716938D01*
X91700344Y-83778094D01*
X91700335Y-83778098D01*
X91486171Y-83877964D01*
X91486169Y-83877965D01*
X91292597Y-84013505D01*
X91125505Y-84180597D01*
X90995575Y-84366158D01*
X90940998Y-84409783D01*
X90871500Y-84416977D01*
X90809145Y-84385454D01*
X90792425Y-84366158D01*
X90662494Y-84180597D01*
X90495402Y-84013506D01*
X90495395Y-84013501D01*
X90301834Y-83877967D01*
X90301830Y-83877965D01*
X90270666Y-83863433D01*
X90087663Y-83778097D01*
X90087659Y-83778096D01*
X90087655Y-83778094D01*
X89859413Y-83716938D01*
X89859403Y-83716936D01*
X89624001Y-83696341D01*
X89623999Y-83696341D01*
X89388596Y-83716936D01*
X89388586Y-83716938D01*
X89160344Y-83778094D01*
X89160335Y-83778098D01*
X88946171Y-83877964D01*
X88946169Y-83877965D01*
X88752600Y-84013503D01*
X88630673Y-84135430D01*
X88569350Y-84168914D01*
X88499658Y-84163930D01*
X88443725Y-84122058D01*
X88426810Y-84091081D01*
X88377797Y-83959671D01*
X88377793Y-83959664D01*
X88291547Y-83844455D01*
X88291544Y-83844452D01*
X88176335Y-83758206D01*
X88176328Y-83758202D01*
X88041482Y-83707908D01*
X88041483Y-83707908D01*
X87981883Y-83701501D01*
X87981881Y-83701500D01*
X87981873Y-83701500D01*
X87981864Y-83701500D01*
X86186129Y-83701500D01*
X86186123Y-83701501D01*
X86126516Y-83707908D01*
X85991671Y-83758202D01*
X85991664Y-83758206D01*
X85876455Y-83844452D01*
X85876452Y-83844455D01*
X85790206Y-83959664D01*
X85790202Y-83959671D01*
X85739908Y-84094517D01*
X85733501Y-84154116D01*
X85733500Y-84154135D01*
X73695549Y-84154135D01*
X70355977Y-81302366D01*
X70317778Y-81243863D01*
X70312500Y-81208069D01*
X70312500Y-56603999D01*
X74044341Y-56603999D01*
X74044341Y-56604000D01*
X74064936Y-56839403D01*
X74064938Y-56839413D01*
X74126094Y-57067655D01*
X74126096Y-57067659D01*
X74126097Y-57067663D01*
X74208038Y-57243385D01*
X74225965Y-57281830D01*
X74225967Y-57281834D01*
X74361501Y-57475395D01*
X74361506Y-57475402D01*
X74528597Y-57642493D01*
X74528603Y-57642498D01*
X74714158Y-57772425D01*
X74757783Y-57827002D01*
X74764977Y-57896500D01*
X74733454Y-57958855D01*
X74714158Y-57975575D01*
X74528597Y-58105505D01*
X74361505Y-58272597D01*
X74225965Y-58466169D01*
X74225964Y-58466171D01*
X74126098Y-58680335D01*
X74126094Y-58680344D01*
X74064938Y-58908586D01*
X74064936Y-58908596D01*
X74044341Y-59143999D01*
X74044341Y-59144000D01*
X74064936Y-59379403D01*
X74064938Y-59379413D01*
X74126094Y-59607655D01*
X74126096Y-59607659D01*
X74126097Y-59607663D01*
X74146772Y-59652000D01*
X74225965Y-59821830D01*
X74225967Y-59821834D01*
X74361501Y-60015395D01*
X74361506Y-60015402D01*
X74528597Y-60182493D01*
X74528603Y-60182498D01*
X74714158Y-60312425D01*
X74757783Y-60367002D01*
X74764977Y-60436500D01*
X74733454Y-60498855D01*
X74714158Y-60515575D01*
X74528597Y-60645505D01*
X74361505Y-60812597D01*
X74225965Y-61006169D01*
X74225964Y-61006171D01*
X74126098Y-61220335D01*
X74126094Y-61220344D01*
X74064938Y-61448586D01*
X74064936Y-61448596D01*
X74044341Y-61683999D01*
X74044341Y-61684000D01*
X74064936Y-61919403D01*
X74064938Y-61919413D01*
X74126094Y-62147655D01*
X74126096Y-62147659D01*
X74126097Y-62147663D01*
X74198839Y-62303658D01*
X74225965Y-62361830D01*
X74225967Y-62361834D01*
X74361501Y-62555395D01*
X74361506Y-62555402D01*
X74528597Y-62722493D01*
X74528603Y-62722498D01*
X74605873Y-62776603D01*
X74656689Y-62812185D01*
X74714594Y-62852730D01*
X74758219Y-62907307D01*
X74765413Y-62976805D01*
X74733890Y-63039160D01*
X74714595Y-63055880D01*
X74528922Y-63185890D01*
X74528920Y-63185891D01*
X74361891Y-63352920D01*
X74361886Y-63352926D01*
X74226400Y-63546420D01*
X74226399Y-63546422D01*
X74126570Y-63760507D01*
X74126567Y-63760513D01*
X74069364Y-63973999D01*
X74069364Y-63974000D01*
X74966988Y-63974000D01*
X74934075Y-64031007D01*
X74900000Y-64158174D01*
X74900000Y-64289826D01*
X74934075Y-64416993D01*
X74966988Y-64474000D01*
X74069364Y-64474000D01*
X74126567Y-64687486D01*
X74126570Y-64687492D01*
X74226399Y-64901578D01*
X74361894Y-65095082D01*
X74528917Y-65262105D01*
X74714595Y-65392119D01*
X74758219Y-65446696D01*
X74765412Y-65516195D01*
X74733890Y-65578549D01*
X74714595Y-65595269D01*
X74528594Y-65725508D01*
X74361505Y-65892597D01*
X74225965Y-66086169D01*
X74225964Y-66086171D01*
X74126098Y-66300335D01*
X74126094Y-66300344D01*
X74064938Y-66528586D01*
X74064936Y-66528596D01*
X74044341Y-66763999D01*
X74044341Y-66764000D01*
X74064936Y-66999403D01*
X74064938Y-66999413D01*
X74126094Y-67227655D01*
X74126096Y-67227659D01*
X74126097Y-67227663D01*
X74156874Y-67293664D01*
X74225965Y-67441830D01*
X74225967Y-67441834D01*
X74275197Y-67512141D01*
X74361505Y-67635401D01*
X74528599Y-67802495D01*
X74622854Y-67868493D01*
X74722165Y-67938032D01*
X74722167Y-67938033D01*
X74722170Y-67938035D01*
X74936337Y-68037903D01*
X75164592Y-68099063D01*
X75334359Y-68113916D01*
X75399999Y-68119659D01*
X75400000Y-68119659D01*
X75400001Y-68119659D01*
X75465641Y-68113916D01*
X75635408Y-68099063D01*
X75863663Y-68037903D01*
X76077830Y-67938035D01*
X76271401Y-67802495D01*
X76438495Y-67635401D01*
X76574035Y-67441830D01*
X76673903Y-67227663D01*
X76735063Y-66999408D01*
X76755659Y-66764000D01*
X76735063Y-66528592D01*
X76687532Y-66351200D01*
X76673905Y-66300344D01*
X76673904Y-66300343D01*
X76673903Y-66300337D01*
X76574035Y-66086171D01*
X76551212Y-66053575D01*
X76438494Y-65892597D01*
X76271402Y-65725506D01*
X76271401Y-65725505D01*
X76085405Y-65595269D01*
X76041781Y-65540692D01*
X76034588Y-65471193D01*
X76066110Y-65408839D01*
X76085405Y-65392119D01*
X76271082Y-65262105D01*
X76438105Y-65095082D01*
X76573600Y-64901578D01*
X76673429Y-64687492D01*
X76673432Y-64687486D01*
X76730636Y-64474000D01*
X75833012Y-64474000D01*
X75865925Y-64416993D01*
X75900000Y-64289826D01*
X75900000Y-64158174D01*
X75865925Y-64031007D01*
X75833012Y-63974000D01*
X76730636Y-63974000D01*
X76730635Y-63973999D01*
X76673432Y-63760513D01*
X76673429Y-63760507D01*
X76573600Y-63546422D01*
X76573599Y-63546420D01*
X76438113Y-63352926D01*
X76438108Y-63352920D01*
X76271078Y-63185890D01*
X76085405Y-63055879D01*
X76041780Y-63001302D01*
X76034588Y-62931804D01*
X76066110Y-62869449D01*
X76085406Y-62852730D01*
X76271401Y-62722495D01*
X76438495Y-62555401D01*
X76574035Y-62361830D01*
X76576707Y-62356097D01*
X76622878Y-62303658D01*
X76689091Y-62284500D01*
X78231500Y-62284500D01*
X78298539Y-62304185D01*
X78344294Y-62356989D01*
X78355500Y-62408500D01*
X78355500Y-69821297D01*
X78336494Y-69887269D01*
X78284211Y-69970477D01*
X78284209Y-69970481D01*
X78224633Y-70140737D01*
X78224630Y-70140750D01*
X78204435Y-70319996D01*
X78204435Y-70320003D01*
X78224630Y-70499249D01*
X78224631Y-70499254D01*
X78284211Y-70669523D01*
X78313161Y-70715596D01*
X78380184Y-70822262D01*
X78507738Y-70949816D01*
X78660478Y-71045789D01*
X78765152Y-71082416D01*
X78830745Y-71105368D01*
X78830750Y-71105369D01*
X79009996Y-71125565D01*
X79010000Y-71125565D01*
X79010004Y-71125565D01*
X79189249Y-71105369D01*
X79189252Y-71105368D01*
X79189255Y-71105368D01*
X79359522Y-71045789D01*
X79512262Y-70949816D01*
X79639816Y-70822262D01*
X79735789Y-70669522D01*
X79795368Y-70499255D01*
X79800621Y-70452624D01*
X79827685Y-70388214D01*
X79885279Y-70348657D01*
X79902468Y-70344918D01*
X79902468Y-70344917D01*
X79909253Y-70343368D01*
X79909255Y-70343368D01*
X80079522Y-70283789D01*
X80232262Y-70187816D01*
X80359816Y-70060262D01*
X80455789Y-69907522D01*
X80515368Y-69737255D01*
X80515369Y-69737249D01*
X80535565Y-69558003D01*
X80535565Y-69557996D01*
X80515369Y-69378750D01*
X80515368Y-69378745D01*
X80463320Y-69230000D01*
X80455789Y-69208478D01*
X80436014Y-69177007D01*
X80401892Y-69122701D01*
X80359816Y-69055738D01*
X80354819Y-69050741D01*
X80321334Y-68989418D01*
X80318500Y-68963060D01*
X80318500Y-68263758D01*
X80338185Y-68196719D01*
X80390989Y-68150964D01*
X80460147Y-68141020D01*
X80523703Y-68170045D01*
X80530181Y-68176077D01*
X80614599Y-68260495D01*
X80686011Y-68310498D01*
X80808165Y-68396032D01*
X80808167Y-68396033D01*
X80808170Y-68396035D01*
X81022337Y-68495903D01*
X81022343Y-68495904D01*
X81022344Y-68495905D01*
X81033619Y-68498926D01*
X81250592Y-68557063D01*
X81438918Y-68573539D01*
X81485999Y-68577659D01*
X81486000Y-68577659D01*
X81486001Y-68577659D01*
X81525234Y-68574226D01*
X81721408Y-68557063D01*
X81949663Y-68495903D01*
X82163830Y-68396035D01*
X82357401Y-68260495D01*
X82524495Y-68093401D01*
X82660035Y-67899830D01*
X82759903Y-67685663D01*
X82821063Y-67457408D01*
X82841659Y-67222000D01*
X82821063Y-66986592D01*
X82759903Y-66758337D01*
X82660035Y-66544171D01*
X82649130Y-66528596D01*
X82524494Y-66350597D01*
X82357402Y-66183506D01*
X82357396Y-66183501D01*
X82171842Y-66053575D01*
X82128217Y-65998998D01*
X82121023Y-65929500D01*
X82152546Y-65867145D01*
X82171842Y-65850425D01*
X82265734Y-65784681D01*
X82357401Y-65720495D01*
X82524495Y-65553401D01*
X82660035Y-65359830D01*
X82759903Y-65145663D01*
X82821063Y-64917408D01*
X82841659Y-64682000D01*
X82821063Y-64446592D01*
X82759903Y-64218337D01*
X82660035Y-64004171D01*
X82638910Y-63974000D01*
X82524494Y-63810597D01*
X82357402Y-63643506D01*
X82357396Y-63643501D01*
X82171842Y-63513575D01*
X82128217Y-63458998D01*
X82121023Y-63389500D01*
X82152546Y-63327145D01*
X82171842Y-63310425D01*
X82285989Y-63230498D01*
X82357401Y-63180495D01*
X82524495Y-63013401D01*
X82660035Y-62819830D01*
X82662707Y-62814097D01*
X82708878Y-62761658D01*
X82775091Y-62742500D01*
X82983331Y-62742500D01*
X82983347Y-62742501D01*
X82990943Y-62742501D01*
X83149054Y-62742501D01*
X83149057Y-62742501D01*
X83301785Y-62701577D01*
X83352113Y-62672520D01*
X83352114Y-62672520D01*
X83438709Y-62622524D01*
X83438708Y-62622524D01*
X83438716Y-62622520D01*
X83550520Y-62510716D01*
X83550520Y-62510714D01*
X83560724Y-62500511D01*
X83560728Y-62500506D01*
X85156506Y-60904728D01*
X85156511Y-60904724D01*
X85166714Y-60894520D01*
X85166716Y-60894520D01*
X85278520Y-60782716D01*
X85353700Y-60652500D01*
X85357577Y-60645785D01*
X85398501Y-60493057D01*
X85398501Y-60334943D01*
X85398501Y-60327348D01*
X85398500Y-60327330D01*
X85398500Y-58302945D01*
X85398500Y-58302943D01*
X85357577Y-58150216D01*
X85331764Y-58105506D01*
X85278524Y-58013290D01*
X85278518Y-58013282D01*
X85166717Y-57901481D01*
X85166709Y-57901475D01*
X85029790Y-57822426D01*
X85029786Y-57822424D01*
X85029784Y-57822423D01*
X84877057Y-57781500D01*
X84877056Y-57781500D01*
X82835245Y-57781500D01*
X82768206Y-57761815D01*
X82722451Y-57709011D01*
X82712507Y-57639853D01*
X82722863Y-57605095D01*
X82725239Y-57600000D01*
X82759903Y-57525663D01*
X82821063Y-57297408D01*
X82841659Y-57062000D01*
X82841649Y-57061891D01*
X82831480Y-56945659D01*
X82821063Y-56826592D01*
X82759903Y-56598337D01*
X82660035Y-56384171D01*
X82660034Y-56384169D01*
X82524494Y-56190597D01*
X82357402Y-56023506D01*
X82357396Y-56023501D01*
X82171842Y-55893575D01*
X82128217Y-55838998D01*
X82121023Y-55769500D01*
X82152546Y-55707145D01*
X82171842Y-55690425D01*
X82255848Y-55631603D01*
X82357401Y-55560495D01*
X82524495Y-55393401D01*
X82660035Y-55199830D01*
X82759903Y-54985663D01*
X82821063Y-54757408D01*
X82841659Y-54522000D01*
X82821063Y-54286592D01*
X82759903Y-54058337D01*
X82660035Y-53844171D01*
X82616558Y-53782078D01*
X82524494Y-53650597D01*
X82357402Y-53483506D01*
X82357396Y-53483501D01*
X82171842Y-53353575D01*
X82128217Y-53298998D01*
X82121023Y-53229500D01*
X82152546Y-53167145D01*
X82171842Y-53150425D01*
X82285989Y-53070498D01*
X82357401Y-53020495D01*
X82524495Y-52853401D01*
X82660035Y-52659830D01*
X82759903Y-52445663D01*
X82821063Y-52217408D01*
X82841659Y-51982000D01*
X82821063Y-51746592D01*
X82759903Y-51518337D01*
X82660035Y-51304171D01*
X82658000Y-51301265D01*
X82524496Y-51110600D01*
X82478098Y-51064202D01*
X82402179Y-50988283D01*
X82368696Y-50926963D01*
X82373680Y-50857271D01*
X82415551Y-50801337D01*
X82446529Y-50784422D01*
X82578086Y-50735354D01*
X82578093Y-50735350D01*
X82693187Y-50649190D01*
X82693190Y-50649187D01*
X82779350Y-50534093D01*
X82779354Y-50534086D01*
X82829596Y-50399379D01*
X82829598Y-50399372D01*
X82835999Y-50339844D01*
X82836000Y-50339827D01*
X82836000Y-49692000D01*
X81919012Y-49692000D01*
X81951925Y-49634993D01*
X81986000Y-49507826D01*
X81986000Y-49376174D01*
X81951925Y-49249007D01*
X81919012Y-49192000D01*
X82836000Y-49192000D01*
X82836000Y-48544172D01*
X82835999Y-48544155D01*
X82829598Y-48484627D01*
X82829596Y-48484620D01*
X82779354Y-48349913D01*
X82779350Y-48349906D01*
X82693190Y-48234812D01*
X82693187Y-48234809D01*
X82578093Y-48148649D01*
X82578086Y-48148645D01*
X82443379Y-48098403D01*
X82443372Y-48098401D01*
X82383844Y-48092000D01*
X81736000Y-48092000D01*
X81736000Y-49008988D01*
X81678993Y-48976075D01*
X81551826Y-48942000D01*
X81420174Y-48942000D01*
X81293007Y-48976075D01*
X81236000Y-49008988D01*
X81236000Y-48092000D01*
X80588155Y-48092000D01*
X80528627Y-48098401D01*
X80528621Y-48098402D01*
X80485831Y-48114362D01*
X80416140Y-48119345D01*
X80354817Y-48085859D01*
X80321333Y-48024535D01*
X80318500Y-47998179D01*
X80318500Y-41284945D01*
X80318500Y-41284943D01*
X80277577Y-41132216D01*
X80261438Y-41104262D01*
X80198524Y-40995290D01*
X80198518Y-40995282D01*
X80086717Y-40883481D01*
X80086709Y-40883475D01*
X79949790Y-40804426D01*
X79949786Y-40804424D01*
X79949784Y-40804423D01*
X79797057Y-40763500D01*
X79797056Y-40763500D01*
X78419211Y-40763500D01*
X78352172Y-40743815D01*
X78306417Y-40691011D01*
X78296473Y-40621853D01*
X78317636Y-40568377D01*
X78374032Y-40487834D01*
X78374031Y-40487834D01*
X78374035Y-40487830D01*
X78473903Y-40273663D01*
X78535063Y-40045408D01*
X78555659Y-39810000D01*
X78535063Y-39574592D01*
X78473903Y-39346337D01*
X78374035Y-39132171D01*
X78310479Y-39041402D01*
X78238494Y-38938597D01*
X78071402Y-38771506D01*
X78071401Y-38771505D01*
X77885405Y-38641269D01*
X77841781Y-38586692D01*
X77834588Y-38517193D01*
X77866110Y-38454839D01*
X77885405Y-38438119D01*
X78071082Y-38308105D01*
X78238105Y-38141082D01*
X78373600Y-37947578D01*
X78473429Y-37733492D01*
X78473432Y-37733486D01*
X78530636Y-37520000D01*
X77633012Y-37520000D01*
X77665925Y-37462993D01*
X77700000Y-37335826D01*
X77700000Y-37204174D01*
X77665925Y-37077007D01*
X77633012Y-37020000D01*
X78530636Y-37020000D01*
X78530635Y-37019999D01*
X78473432Y-36806513D01*
X78473429Y-36806507D01*
X78373600Y-36592422D01*
X78373599Y-36592420D01*
X78238113Y-36398926D01*
X78238108Y-36398920D01*
X78071078Y-36231890D01*
X77885405Y-36101879D01*
X77841780Y-36047302D01*
X77834588Y-35977804D01*
X77866110Y-35915449D01*
X77885406Y-35898730D01*
X78071401Y-35768495D01*
X78238495Y-35601401D01*
X78374035Y-35407830D01*
X78376707Y-35402097D01*
X78422878Y-35349658D01*
X78489091Y-35330500D01*
X79859903Y-35330500D01*
X79926942Y-35350185D01*
X79947583Y-35366818D01*
X81541284Y-36960520D01*
X81541286Y-36960521D01*
X81541290Y-36960524D01*
X81644307Y-37020000D01*
X81678216Y-37039577D01*
X81830943Y-37080501D01*
X81830945Y-37080501D01*
X81996654Y-37080501D01*
X81996670Y-37080500D01*
X93295500Y-37080500D01*
X93362539Y-37100185D01*
X93408294Y-37152989D01*
X93419500Y-37204500D01*
X93419500Y-51463330D01*
X93419499Y-51463348D01*
X93419499Y-51629054D01*
X93419498Y-51629054D01*
X93419499Y-51629057D01*
X93460423Y-51781785D01*
X93463891Y-51787792D01*
X93468970Y-51796590D01*
X93468972Y-51796592D01*
X93539477Y-51918712D01*
X93539481Y-51918717D01*
X93658349Y-52037585D01*
X93658355Y-52037590D01*
X94525139Y-52904374D01*
X94525149Y-52904385D01*
X94529479Y-52908715D01*
X94529480Y-52908716D01*
X94641284Y-53020520D01*
X94641286Y-53020521D01*
X94641290Y-53020524D01*
X94727844Y-53070495D01*
X94778216Y-53099577D01*
X94888237Y-53129057D01*
X94888236Y-53129057D01*
X94899679Y-53132122D01*
X94930942Y-53140500D01*
X94930943Y-53140500D01*
X96440461Y-53140500D01*
X96507500Y-53160185D01*
X96542036Y-53193377D01*
X96583501Y-53252596D01*
X96583506Y-53252602D01*
X96750597Y-53419693D01*
X96750603Y-53419698D01*
X96936158Y-53549625D01*
X96979783Y-53604202D01*
X96986977Y-53673700D01*
X96955454Y-53736055D01*
X96936158Y-53752775D01*
X96750597Y-53882705D01*
X96698124Y-53935180D01*
X96636801Y-53968666D01*
X96610442Y-53971500D01*
X92955091Y-53971500D01*
X92888052Y-53951815D01*
X92842711Y-53899909D01*
X92840037Y-53894175D01*
X92840034Y-53894170D01*
X92840033Y-53894169D01*
X92737101Y-53747165D01*
X92704494Y-53700597D01*
X92537402Y-53533506D01*
X92537396Y-53533501D01*
X92351842Y-53403575D01*
X92308217Y-53348998D01*
X92301023Y-53279500D01*
X92332546Y-53217145D01*
X92351842Y-53200425D01*
X92400840Y-53166116D01*
X92537401Y-53070495D01*
X92704495Y-52903401D01*
X92840035Y-52709830D01*
X92939903Y-52495663D01*
X93001063Y-52267408D01*
X93021659Y-52032000D01*
X93001063Y-51796592D01*
X92939903Y-51568337D01*
X92840035Y-51354171D01*
X92832007Y-51342706D01*
X92704496Y-51160600D01*
X92654495Y-51110599D01*
X92582179Y-51038283D01*
X92548696Y-50976963D01*
X92553680Y-50907271D01*
X92595551Y-50851337D01*
X92626529Y-50834422D01*
X92758086Y-50785354D01*
X92758093Y-50785350D01*
X92873187Y-50699190D01*
X92873190Y-50699187D01*
X92959350Y-50584093D01*
X92959354Y-50584086D01*
X93009596Y-50449379D01*
X93009598Y-50449372D01*
X93015999Y-50389844D01*
X93016000Y-50389827D01*
X93016000Y-49742000D01*
X92099012Y-49742000D01*
X92131925Y-49684993D01*
X92166000Y-49557826D01*
X92166000Y-49426174D01*
X92131925Y-49299007D01*
X92099012Y-49242000D01*
X93016000Y-49242000D01*
X93016000Y-48594172D01*
X93015999Y-48594155D01*
X93009598Y-48534627D01*
X93009596Y-48534620D01*
X92959354Y-48399913D01*
X92959350Y-48399906D01*
X92873190Y-48284812D01*
X92873187Y-48284809D01*
X92758093Y-48198649D01*
X92758086Y-48198645D01*
X92623379Y-48148403D01*
X92623372Y-48148401D01*
X92563844Y-48142000D01*
X91916000Y-48142000D01*
X91916000Y-49058988D01*
X91858993Y-49026075D01*
X91731826Y-48992000D01*
X91600174Y-48992000D01*
X91473007Y-49026075D01*
X91416000Y-49058988D01*
X91416000Y-48142000D01*
X90768155Y-48142000D01*
X90708627Y-48148401D01*
X90708620Y-48148403D01*
X90573913Y-48198645D01*
X90573906Y-48198649D01*
X90458812Y-48284809D01*
X90458809Y-48284812D01*
X90372649Y-48399906D01*
X90372645Y-48399913D01*
X90322403Y-48534620D01*
X90322401Y-48534627D01*
X90316000Y-48594155D01*
X90316000Y-49242000D01*
X91232988Y-49242000D01*
X91200075Y-49299007D01*
X91166000Y-49426174D01*
X91166000Y-49557826D01*
X91200075Y-49684993D01*
X91232988Y-49742000D01*
X90316000Y-49742000D01*
X90316000Y-50389844D01*
X90322401Y-50449372D01*
X90322403Y-50449379D01*
X90372645Y-50584086D01*
X90372649Y-50584093D01*
X90458809Y-50699187D01*
X90458812Y-50699190D01*
X90573906Y-50785350D01*
X90573913Y-50785354D01*
X90705470Y-50834421D01*
X90761403Y-50876292D01*
X90785821Y-50941756D01*
X90770970Y-51010029D01*
X90749819Y-51038284D01*
X90627503Y-51160600D01*
X90491965Y-51354169D01*
X90491964Y-51354171D01*
X90392098Y-51568335D01*
X90392094Y-51568344D01*
X90330938Y-51796586D01*
X90330936Y-51796596D01*
X90310341Y-52031999D01*
X90310341Y-52032000D01*
X90330936Y-52267403D01*
X90330938Y-52267413D01*
X90392094Y-52495655D01*
X90392096Y-52495659D01*
X90392097Y-52495663D01*
X90473001Y-52669162D01*
X90491965Y-52709830D01*
X90491967Y-52709834D01*
X90627501Y-52903395D01*
X90627506Y-52903402D01*
X90794597Y-53070493D01*
X90794603Y-53070498D01*
X90980158Y-53200425D01*
X91023783Y-53255002D01*
X91030977Y-53324500D01*
X90999454Y-53386855D01*
X90980158Y-53403575D01*
X90794597Y-53533505D01*
X90627505Y-53700597D01*
X90491965Y-53894169D01*
X90491964Y-53894171D01*
X90392098Y-54108335D01*
X90392094Y-54108344D01*
X90330938Y-54336586D01*
X90330936Y-54336596D01*
X90310341Y-54571999D01*
X90310341Y-54572000D01*
X90330936Y-54807403D01*
X90330938Y-54807413D01*
X90392094Y-55035655D01*
X90392096Y-55035659D01*
X90392097Y-55035663D01*
X90489293Y-55244099D01*
X90491965Y-55249830D01*
X90491967Y-55249834D01*
X90627501Y-55443395D01*
X90627506Y-55443402D01*
X90794597Y-55610493D01*
X90794603Y-55610498D01*
X90980158Y-55740425D01*
X91023783Y-55795002D01*
X91030977Y-55864500D01*
X90999454Y-55926855D01*
X90980158Y-55943575D01*
X90794597Y-56073505D01*
X90627505Y-56240597D01*
X90491965Y-56434169D01*
X90491964Y-56434171D01*
X90392098Y-56648335D01*
X90392094Y-56648344D01*
X90330938Y-56876586D01*
X90330936Y-56876596D01*
X90310341Y-57111999D01*
X90310341Y-57112000D01*
X90330936Y-57347403D01*
X90330938Y-57347413D01*
X90392094Y-57575655D01*
X90392096Y-57575659D01*
X90392097Y-57575663D01*
X90468650Y-57739830D01*
X90491965Y-57789830D01*
X90491967Y-57789834D01*
X90627501Y-57983395D01*
X90627506Y-57983402D01*
X90794597Y-58150493D01*
X90794603Y-58150498D01*
X90980158Y-58280425D01*
X91023783Y-58335002D01*
X91030977Y-58404500D01*
X90999454Y-58466855D01*
X90980158Y-58483575D01*
X90794597Y-58613505D01*
X90627505Y-58780597D01*
X90491965Y-58974169D01*
X90491964Y-58974171D01*
X90392098Y-59188335D01*
X90392094Y-59188344D01*
X90330938Y-59416586D01*
X90330936Y-59416596D01*
X90310341Y-59651999D01*
X90310341Y-59652000D01*
X90330936Y-59887403D01*
X90330938Y-59887413D01*
X90392094Y-60115655D01*
X90392096Y-60115659D01*
X90392097Y-60115663D01*
X90477721Y-60299284D01*
X90491965Y-60329830D01*
X90491967Y-60329834D01*
X90627501Y-60523395D01*
X90627506Y-60523402D01*
X90794597Y-60690493D01*
X90794603Y-60690498D01*
X90980158Y-60820425D01*
X91023783Y-60875002D01*
X91030977Y-60944500D01*
X90999454Y-61006855D01*
X90980158Y-61023575D01*
X90794597Y-61153505D01*
X90627505Y-61320597D01*
X90491965Y-61514169D01*
X90491964Y-61514171D01*
X90392098Y-61728335D01*
X90392094Y-61728344D01*
X90330938Y-61956586D01*
X90330936Y-61956596D01*
X90310341Y-62191999D01*
X90310341Y-62192000D01*
X90330936Y-62427403D01*
X90330938Y-62427413D01*
X90392094Y-62655655D01*
X90392096Y-62655659D01*
X90392097Y-62655663D01*
X90464839Y-62811658D01*
X90491965Y-62869830D01*
X90491967Y-62869834D01*
X90584023Y-63001302D01*
X90622258Y-63055908D01*
X90627501Y-63063395D01*
X90627506Y-63063402D01*
X90794597Y-63230493D01*
X90794603Y-63230498D01*
X90980158Y-63360425D01*
X91023783Y-63415002D01*
X91030977Y-63484500D01*
X90999454Y-63546855D01*
X90980158Y-63563575D01*
X90794597Y-63693505D01*
X90627505Y-63860597D01*
X90491965Y-64054169D01*
X90491964Y-64054171D01*
X90392098Y-64268335D01*
X90392094Y-64268344D01*
X90330938Y-64496586D01*
X90330936Y-64496596D01*
X90310341Y-64731999D01*
X90310341Y-64732000D01*
X90330936Y-64967403D01*
X90330938Y-64967413D01*
X90392094Y-65195655D01*
X90392096Y-65195659D01*
X90392097Y-65195663D01*
X90473001Y-65369162D01*
X90491965Y-65409830D01*
X90491967Y-65409834D01*
X90583596Y-65540692D01*
X90613777Y-65583796D01*
X90627501Y-65603395D01*
X90627506Y-65603402D01*
X90794597Y-65770493D01*
X90794603Y-65770498D01*
X90980158Y-65900425D01*
X91023783Y-65955002D01*
X91030977Y-66024500D01*
X90999454Y-66086855D01*
X90980158Y-66103575D01*
X90794597Y-66233505D01*
X90627505Y-66400597D01*
X90491965Y-66594169D01*
X90491964Y-66594171D01*
X90392098Y-66808335D01*
X90392094Y-66808344D01*
X90330938Y-67036586D01*
X90330936Y-67036596D01*
X90310341Y-67271999D01*
X90310341Y-67272000D01*
X90330936Y-67507403D01*
X90330938Y-67507413D01*
X90392094Y-67735655D01*
X90392096Y-67735659D01*
X90392097Y-67735663D01*
X90486464Y-67938034D01*
X90491965Y-67949830D01*
X90491967Y-67949834D01*
X90564420Y-68053307D01*
X90627505Y-68143401D01*
X90794599Y-68310495D01*
X90825156Y-68331891D01*
X90988165Y-68446032D01*
X90988167Y-68446033D01*
X90988170Y-68446035D01*
X91202337Y-68545903D01*
X91430592Y-68607063D01*
X91618918Y-68623539D01*
X91665999Y-68627659D01*
X91666000Y-68627659D01*
X91666001Y-68627659D01*
X91705234Y-68624226D01*
X91901408Y-68607063D01*
X92129663Y-68545903D01*
X92343830Y-68446035D01*
X92537401Y-68310495D01*
X92704495Y-68143401D01*
X92840035Y-67949830D01*
X92939903Y-67735663D01*
X93001063Y-67507408D01*
X93021659Y-67272000D01*
X93001063Y-67036592D01*
X92939903Y-66808337D01*
X92840035Y-66594171D01*
X92832008Y-66582706D01*
X92704494Y-66400597D01*
X92537402Y-66233506D01*
X92537396Y-66233501D01*
X92351842Y-66103575D01*
X92308217Y-66048998D01*
X92301023Y-65979500D01*
X92332546Y-65917145D01*
X92351842Y-65900425D01*
X92423649Y-65850145D01*
X92537401Y-65770495D01*
X92704495Y-65603401D01*
X92840035Y-65409830D01*
X92939903Y-65195663D01*
X93001063Y-64967408D01*
X93021659Y-64732000D01*
X93001063Y-64496592D01*
X92939903Y-64268337D01*
X92840035Y-64054171D01*
X92832008Y-64042706D01*
X92704494Y-63860597D01*
X92537402Y-63693506D01*
X92537396Y-63693501D01*
X92351842Y-63563575D01*
X92308217Y-63508998D01*
X92301023Y-63439500D01*
X92332546Y-63377145D01*
X92351842Y-63360425D01*
X92427192Y-63307664D01*
X92537401Y-63230495D01*
X92704495Y-63063401D01*
X92840035Y-62869830D01*
X92842707Y-62864097D01*
X92888878Y-62811658D01*
X92955091Y-62792500D01*
X96196046Y-62792500D01*
X96263085Y-62812185D01*
X96308840Y-62864989D01*
X96315821Y-62884407D01*
X96348094Y-63004855D01*
X96348096Y-63004859D01*
X96348097Y-63004863D01*
X96435572Y-63192454D01*
X96447965Y-63219030D01*
X96447967Y-63219034D01*
X96541716Y-63352920D01*
X96567329Y-63389500D01*
X96583501Y-63412595D01*
X96583506Y-63412602D01*
X96750597Y-63579693D01*
X96750603Y-63579698D01*
X96936158Y-63709625D01*
X96979783Y-63764202D01*
X96986977Y-63833700D01*
X96955454Y-63896055D01*
X96936158Y-63912775D01*
X96750597Y-64042705D01*
X96583506Y-64209796D01*
X96447965Y-64403370D01*
X96447962Y-64403375D01*
X96445289Y-64409109D01*
X96399115Y-64461546D01*
X96332909Y-64480700D01*
X94433857Y-64480700D01*
X94275743Y-64480700D01*
X94123015Y-64521623D01*
X94123014Y-64521623D01*
X94123012Y-64521624D01*
X94123009Y-64521625D01*
X94072896Y-64550559D01*
X94072895Y-64550560D01*
X94029489Y-64575620D01*
X93986085Y-64600679D01*
X93986082Y-64600681D01*
X93715481Y-64871282D01*
X93715480Y-64871284D01*
X93688851Y-64917408D01*
X93665361Y-64958094D01*
X93665359Y-64958096D01*
X93636425Y-65008209D01*
X93636424Y-65008210D01*
X93636423Y-65008215D01*
X93595499Y-65160943D01*
X93595499Y-65160945D01*
X93595499Y-65329046D01*
X93595500Y-65329059D01*
X93595500Y-68959060D01*
X93575815Y-69026099D01*
X93559181Y-69046741D01*
X93550184Y-69055737D01*
X93454211Y-69208476D01*
X93394631Y-69378745D01*
X93394630Y-69378750D01*
X93374435Y-69557996D01*
X93374435Y-69558003D01*
X93394630Y-69737249D01*
X93394631Y-69737254D01*
X93454211Y-69907523D01*
X93499752Y-69980000D01*
X93550184Y-70060262D01*
X93677738Y-70187816D01*
X93830478Y-70283789D01*
X93933946Y-70319994D01*
X94000745Y-70343368D01*
X94000750Y-70343369D01*
X94179996Y-70363565D01*
X94180000Y-70363565D01*
X94180004Y-70363565D01*
X94359249Y-70343369D01*
X94359252Y-70343368D01*
X94359255Y-70343368D01*
X94529522Y-70283789D01*
X94682262Y-70187816D01*
X94710124Y-70159953D01*
X94771443Y-70126470D01*
X94841135Y-70131454D01*
X94897069Y-70173324D01*
X94921487Y-70238788D01*
X94921023Y-70261518D01*
X94914435Y-70319994D01*
X94914435Y-70320003D01*
X94934630Y-70499249D01*
X94934631Y-70499254D01*
X94994211Y-70669523D01*
X95023161Y-70715596D01*
X95090184Y-70822262D01*
X95217738Y-70949816D01*
X95370478Y-71045789D01*
X95475152Y-71082416D01*
X95540745Y-71105368D01*
X95540750Y-71105369D01*
X95719996Y-71125565D01*
X95720000Y-71125565D01*
X95720004Y-71125565D01*
X95899249Y-71105369D01*
X95899252Y-71105368D01*
X95899255Y-71105368D01*
X96069522Y-71045789D01*
X96222262Y-70949816D01*
X96296146Y-70875931D01*
X96357465Y-70842449D01*
X96427157Y-70847433D01*
X96483091Y-70889304D01*
X96485393Y-70892483D01*
X96583505Y-71032601D01*
X96583506Y-71032602D01*
X96750597Y-71199693D01*
X96750603Y-71199698D01*
X96936158Y-71329625D01*
X96979783Y-71384202D01*
X96986977Y-71453700D01*
X96955454Y-71516055D01*
X96936158Y-71532775D01*
X96750597Y-71662705D01*
X96583505Y-71829797D01*
X96447965Y-72023369D01*
X96447964Y-72023371D01*
X96348098Y-72237535D01*
X96348094Y-72237544D01*
X96286938Y-72465786D01*
X96286936Y-72465796D01*
X96266341Y-72701199D01*
X96266341Y-72701200D01*
X96286936Y-72936603D01*
X96286938Y-72936613D01*
X96321327Y-73064956D01*
X96319664Y-73134806D01*
X96289233Y-73184730D01*
X95510784Y-73963181D01*
X95449461Y-73996666D01*
X95423103Y-73999500D01*
X80324499Y-73999500D01*
X80257460Y-73979815D01*
X80211705Y-73927011D01*
X80200499Y-73875500D01*
X80200499Y-73607129D01*
X80200498Y-73607123D01*
X80200497Y-73607116D01*
X80194091Y-73547517D01*
X80143796Y-73412669D01*
X80143795Y-73412668D01*
X80143793Y-73412664D01*
X80057547Y-73297455D01*
X80057544Y-73297452D01*
X79942335Y-73211206D01*
X79942328Y-73211202D01*
X79807482Y-73160908D01*
X79807483Y-73160908D01*
X79747883Y-73154501D01*
X79747881Y-73154500D01*
X79747873Y-73154500D01*
X79747864Y-73154500D01*
X77952129Y-73154500D01*
X77952123Y-73154501D01*
X77892516Y-73160908D01*
X77757671Y-73211202D01*
X77757664Y-73211206D01*
X77642455Y-73297452D01*
X77642452Y-73297455D01*
X77556206Y-73412664D01*
X77556202Y-73412671D01*
X77505908Y-73547517D01*
X77499501Y-73607116D01*
X77499501Y-73607123D01*
X77499500Y-73607135D01*
X77499500Y-75402870D01*
X77499501Y-75402876D01*
X77505908Y-75462483D01*
X77556202Y-75597328D01*
X77556206Y-75597335D01*
X77642452Y-75712544D01*
X77642455Y-75712547D01*
X77757664Y-75798793D01*
X77757671Y-75798797D01*
X77757674Y-75798798D01*
X77889598Y-75848002D01*
X77945531Y-75889873D01*
X77969949Y-75955337D01*
X77955098Y-76023610D01*
X77933947Y-76051865D01*
X77811886Y-76173926D01*
X77676400Y-76367420D01*
X77676399Y-76367422D01*
X77576570Y-76581507D01*
X77576567Y-76581513D01*
X77519364Y-76794999D01*
X77519364Y-76795000D01*
X78416988Y-76795000D01*
X78384075Y-76852007D01*
X78350000Y-76979174D01*
X78350000Y-77110826D01*
X78384075Y-77237993D01*
X78416988Y-77295000D01*
X77519364Y-77295000D01*
X77576567Y-77508486D01*
X77576570Y-77508492D01*
X77676399Y-77722578D01*
X77811894Y-77916082D01*
X77978917Y-78083105D01*
X78172421Y-78218600D01*
X78386507Y-78318429D01*
X78386516Y-78318433D01*
X78600000Y-78375634D01*
X78600000Y-77478012D01*
X78657007Y-77510925D01*
X78784174Y-77545000D01*
X78915826Y-77545000D01*
X79042993Y-77510925D01*
X79100000Y-77478012D01*
X79100000Y-78375633D01*
X79313483Y-78318433D01*
X79313492Y-78318429D01*
X79527578Y-78218600D01*
X79721082Y-78083105D01*
X79888105Y-77916082D01*
X80023600Y-77722578D01*
X80123429Y-77508492D01*
X80123432Y-77508486D01*
X80180636Y-77295000D01*
X79283012Y-77295000D01*
X79315925Y-77237993D01*
X79350000Y-77110826D01*
X79350000Y-76979174D01*
X79315925Y-76852007D01*
X79283012Y-76795000D01*
X80180636Y-76795000D01*
X80180635Y-76794999D01*
X80123432Y-76581513D01*
X80123429Y-76581507D01*
X80023600Y-76367422D01*
X80023599Y-76367420D01*
X79888113Y-76173926D01*
X79888108Y-76173920D01*
X79766053Y-76051865D01*
X79732568Y-75990542D01*
X79737552Y-75920850D01*
X79779424Y-75864917D01*
X79810400Y-75848002D01*
X79942331Y-75798796D01*
X80057546Y-75712546D01*
X80143796Y-75597331D01*
X80194091Y-75462483D01*
X80200500Y-75402873D01*
X80200500Y-75324500D01*
X80220185Y-75257461D01*
X80272989Y-75211706D01*
X80324500Y-75200500D01*
X95636531Y-75200500D01*
X95636547Y-75200501D01*
X95644143Y-75200501D01*
X95802254Y-75200501D01*
X95802257Y-75200501D01*
X95954985Y-75159577D01*
X96026099Y-75118519D01*
X96091916Y-75080520D01*
X96144917Y-75027519D01*
X96206240Y-74994034D01*
X96232598Y-74991200D01*
X97188988Y-74991200D01*
X97156075Y-75048207D01*
X97122000Y-75175374D01*
X97122000Y-75307026D01*
X97156075Y-75434193D01*
X97188988Y-75491200D01*
X96291364Y-75491200D01*
X96348567Y-75704686D01*
X96348570Y-75704692D01*
X96448399Y-75918778D01*
X96583894Y-76112282D01*
X96750917Y-76279305D01*
X96936595Y-76409319D01*
X96980219Y-76463896D01*
X96987412Y-76533395D01*
X96955890Y-76595749D01*
X96936595Y-76612469D01*
X96750594Y-76742708D01*
X96583505Y-76909797D01*
X96447965Y-77103369D01*
X96447964Y-77103371D01*
X96348098Y-77317535D01*
X96348094Y-77317544D01*
X96286938Y-77545786D01*
X96286936Y-77545796D01*
X96266341Y-77781199D01*
X96266341Y-77781200D01*
X96286936Y-78016603D01*
X96286938Y-78016613D01*
X96348094Y-78244855D01*
X96348096Y-78244859D01*
X96348097Y-78244863D01*
X96424662Y-78409057D01*
X96447965Y-78459030D01*
X96447967Y-78459034D01*
X96510609Y-78548495D01*
X96583505Y-78652601D01*
X96750599Y-78819695D01*
X96821928Y-78869640D01*
X96944165Y-78955232D01*
X96944167Y-78955233D01*
X96944170Y-78955235D01*
X97158337Y-79055103D01*
X97158343Y-79055104D01*
X97158344Y-79055105D01*
X97207601Y-79068303D01*
X97386592Y-79116263D01*
X97574918Y-79132739D01*
X97621999Y-79136859D01*
X97622000Y-79136859D01*
X97622001Y-79136859D01*
X97661234Y-79133426D01*
X97857408Y-79116263D01*
X98085663Y-79055103D01*
X98299830Y-78955235D01*
X98493401Y-78819695D01*
X98660495Y-78652601D01*
X98796035Y-78459030D01*
X98895903Y-78244863D01*
X98957063Y-78016608D01*
X98977659Y-77781200D01*
X98957063Y-77545792D01*
X98895903Y-77317537D01*
X98796035Y-77103371D01*
X98790011Y-77094767D01*
X98660494Y-76909797D01*
X98493402Y-76742706D01*
X98493401Y-76742705D01*
X98307405Y-76612469D01*
X98263781Y-76557892D01*
X98256588Y-76488393D01*
X98288110Y-76426039D01*
X98307405Y-76409319D01*
X98493082Y-76279305D01*
X98660105Y-76112282D01*
X98795600Y-75918778D01*
X98895429Y-75704692D01*
X98895432Y-75704686D01*
X98952636Y-75491200D01*
X98055012Y-75491200D01*
X98087925Y-75434193D01*
X98122000Y-75307026D01*
X98122000Y-75175374D01*
X98087925Y-75048207D01*
X98055012Y-74991200D01*
X98952636Y-74991200D01*
X98952635Y-74991199D01*
X98895432Y-74777713D01*
X98895429Y-74777707D01*
X98795600Y-74563622D01*
X98795599Y-74563620D01*
X98660113Y-74370126D01*
X98660108Y-74370120D01*
X98493078Y-74203090D01*
X98307405Y-74073079D01*
X98263780Y-74018502D01*
X98256588Y-73949004D01*
X98288110Y-73886649D01*
X98307406Y-73869930D01*
X98313853Y-73865416D01*
X98493401Y-73739695D01*
X98660495Y-73572601D01*
X98796035Y-73379030D01*
X98895903Y-73164863D01*
X98957063Y-72936608D01*
X98977659Y-72701200D01*
X98957063Y-72465792D01*
X98895903Y-72237537D01*
X98796035Y-72023371D01*
X98660495Y-71829799D01*
X98660494Y-71829797D01*
X98493402Y-71662706D01*
X98493396Y-71662701D01*
X98307842Y-71532775D01*
X98264217Y-71478198D01*
X98257023Y-71408700D01*
X98288546Y-71346345D01*
X98307842Y-71329625D01*
X98330026Y-71314091D01*
X98493401Y-71199695D01*
X98660495Y-71032601D01*
X98796035Y-70839030D01*
X98895903Y-70624863D01*
X98957063Y-70396608D01*
X98977659Y-70161200D01*
X98957063Y-69925792D01*
X98922671Y-69797439D01*
X98924334Y-69727593D01*
X98954763Y-69677670D01*
X100406713Y-68225721D01*
X100406716Y-68225720D01*
X100518520Y-68113916D01*
X100568639Y-68027104D01*
X100597577Y-67976985D01*
X100638501Y-67824257D01*
X100638501Y-67666143D01*
X100638501Y-67658548D01*
X100638500Y-67658530D01*
X100638500Y-33918945D01*
X100638500Y-33918943D01*
X100597577Y-33766216D01*
X100597573Y-33766209D01*
X100518524Y-33629290D01*
X100518518Y-33629282D01*
X100406717Y-33517481D01*
X100406709Y-33517475D01*
X100269790Y-33438426D01*
X100269786Y-33438424D01*
X100269784Y-33438423D01*
X100117057Y-33397500D01*
X100117056Y-33397500D01*
X92639500Y-33397500D01*
X92572461Y-33377815D01*
X92526706Y-33325011D01*
X92515500Y-33273500D01*
X92515500Y-31408499D01*
X92535185Y-31341460D01*
X92587989Y-31295705D01*
X92639500Y-31284499D01*
X92812871Y-31284499D01*
X92812872Y-31284499D01*
X92872483Y-31278091D01*
X93007331Y-31227796D01*
X93122546Y-31141546D01*
X93208796Y-31026331D01*
X93259091Y-30891483D01*
X93265500Y-30831873D01*
X93265499Y-29052135D01*
X102499500Y-29052135D01*
X102499500Y-30847870D01*
X102499501Y-30847876D01*
X102505908Y-30907483D01*
X102556202Y-31042328D01*
X102556206Y-31042335D01*
X102642452Y-31157544D01*
X102642455Y-31157547D01*
X102757664Y-31243793D01*
X102757671Y-31243797D01*
X102892517Y-31294091D01*
X102892516Y-31294091D01*
X102899444Y-31294835D01*
X102952127Y-31300500D01*
X104747872Y-31300499D01*
X104807483Y-31294091D01*
X104942331Y-31243796D01*
X105057546Y-31157546D01*
X105143796Y-31042331D01*
X105151538Y-31021575D01*
X105163874Y-30988498D01*
X105193002Y-30910401D01*
X105234872Y-30854468D01*
X105300337Y-30830050D01*
X105368610Y-30844901D01*
X105396865Y-30866053D01*
X105518917Y-30988105D01*
X105712421Y-31123600D01*
X105926507Y-31223429D01*
X105926516Y-31223433D01*
X106140000Y-31280634D01*
X106140000Y-30383012D01*
X106197007Y-30415925D01*
X106324174Y-30450000D01*
X106455826Y-30450000D01*
X106582993Y-30415925D01*
X106640000Y-30383012D01*
X106640000Y-31280633D01*
X106853483Y-31223433D01*
X106853492Y-31223429D01*
X107067578Y-31123600D01*
X107261082Y-30988105D01*
X107428105Y-30821082D01*
X107558119Y-30635405D01*
X107612696Y-30591781D01*
X107682195Y-30584588D01*
X107744549Y-30616110D01*
X107761269Y-30635405D01*
X107891505Y-30821401D01*
X108058599Y-30988495D01*
X108155384Y-31056265D01*
X108252165Y-31124032D01*
X108252167Y-31124033D01*
X108252170Y-31124035D01*
X108257898Y-31126706D01*
X108310339Y-31172872D01*
X108329500Y-31239090D01*
X108329500Y-31823330D01*
X108329499Y-31823348D01*
X108329499Y-31989054D01*
X108329498Y-31989054D01*
X108370423Y-32141786D01*
X108381238Y-32160516D01*
X108381239Y-32160521D01*
X108381240Y-32160521D01*
X108449475Y-32278709D01*
X108449481Y-32278717D01*
X108568349Y-32397585D01*
X108568355Y-32397590D01*
X108975139Y-32804374D01*
X108975149Y-32804385D01*
X108979479Y-32808715D01*
X108979480Y-32808716D01*
X109091284Y-32920520D01*
X109172031Y-32967139D01*
X109228215Y-32999577D01*
X109380943Y-33040500D01*
X109539057Y-33040500D01*
X123895500Y-33040500D01*
X123962539Y-33060185D01*
X124008294Y-33112989D01*
X124019500Y-33164500D01*
X124019500Y-40746700D01*
X123999815Y-40813739D01*
X123947011Y-40859494D01*
X123895500Y-40870700D01*
X122224129Y-40870700D01*
X122224123Y-40870701D01*
X122164516Y-40877108D01*
X122029671Y-40927402D01*
X122029664Y-40927406D01*
X121914455Y-41013652D01*
X121914452Y-41013655D01*
X121828206Y-41128864D01*
X121828202Y-41128871D01*
X121777908Y-41263717D01*
X121771501Y-41323316D01*
X121771500Y-41323335D01*
X121771500Y-43119070D01*
X121771501Y-43119076D01*
X121777908Y-43178683D01*
X121828202Y-43313528D01*
X121828206Y-43313535D01*
X121914452Y-43428744D01*
X121914455Y-43428747D01*
X122029664Y-43514993D01*
X122029671Y-43514997D01*
X122161081Y-43564010D01*
X122217015Y-43605881D01*
X122241432Y-43671345D01*
X122226580Y-43739618D01*
X122205430Y-43767873D01*
X122083503Y-43889800D01*
X121947965Y-44083369D01*
X121947964Y-44083371D01*
X121848098Y-44297535D01*
X121848094Y-44297544D01*
X121786938Y-44525786D01*
X121786936Y-44525796D01*
X121766341Y-44761199D01*
X121766341Y-44761200D01*
X121786936Y-44996603D01*
X121786938Y-44996613D01*
X121848094Y-45224855D01*
X121848096Y-45224859D01*
X121848097Y-45224863D01*
X121887701Y-45309794D01*
X121947965Y-45439030D01*
X121947967Y-45439034D01*
X122056281Y-45593721D01*
X122070410Y-45613900D01*
X122083501Y-45632595D01*
X122083506Y-45632602D01*
X122250597Y-45799693D01*
X122250603Y-45799698D01*
X122436158Y-45929625D01*
X122479783Y-45984202D01*
X122486977Y-46053700D01*
X122455454Y-46116055D01*
X122436158Y-46132775D01*
X122250597Y-46262705D01*
X122083505Y-46429797D01*
X121947965Y-46623369D01*
X121947964Y-46623371D01*
X121848098Y-46837535D01*
X121848094Y-46837544D01*
X121786938Y-47065786D01*
X121786936Y-47065796D01*
X121766341Y-47301199D01*
X121766341Y-47301200D01*
X121786936Y-47536603D01*
X121786938Y-47536613D01*
X121848094Y-47764855D01*
X121848096Y-47764859D01*
X121848097Y-47764863D01*
X121910882Y-47899505D01*
X121947965Y-47979030D01*
X121947967Y-47979034D01*
X122083501Y-48172595D01*
X122083506Y-48172602D01*
X122250597Y-48339693D01*
X122250603Y-48339698D01*
X122436158Y-48469625D01*
X122479783Y-48524202D01*
X122486977Y-48593700D01*
X122455454Y-48656055D01*
X122436158Y-48672775D01*
X122250597Y-48802705D01*
X122083505Y-48969797D01*
X121947965Y-49163369D01*
X121947964Y-49163371D01*
X121848098Y-49377535D01*
X121848094Y-49377544D01*
X121786938Y-49605786D01*
X121786936Y-49605796D01*
X121766341Y-49841199D01*
X121766341Y-49841200D01*
X121786936Y-50076603D01*
X121786938Y-50076613D01*
X121848094Y-50304855D01*
X121848096Y-50304859D01*
X121848097Y-50304863D01*
X121892171Y-50399379D01*
X121947965Y-50519030D01*
X121947967Y-50519034D01*
X122039102Y-50649187D01*
X122074112Y-50699187D01*
X122083501Y-50712595D01*
X122083506Y-50712602D01*
X122250597Y-50879693D01*
X122250603Y-50879698D01*
X122436158Y-51009625D01*
X122479783Y-51064202D01*
X122486977Y-51133700D01*
X122455454Y-51196055D01*
X122436158Y-51212775D01*
X122250597Y-51342705D01*
X122083505Y-51509797D01*
X121947965Y-51703369D01*
X121947964Y-51703371D01*
X121848098Y-51917535D01*
X121848094Y-51917544D01*
X121786938Y-52145786D01*
X121786936Y-52145796D01*
X121766341Y-52381199D01*
X121766341Y-52381200D01*
X121786936Y-52616603D01*
X121786938Y-52616613D01*
X121848094Y-52844855D01*
X121848096Y-52844859D01*
X121848097Y-52844863D01*
X121930008Y-53020521D01*
X121947965Y-53059030D01*
X121947967Y-53059034D01*
X122022961Y-53166135D01*
X122083501Y-53252596D01*
X122083506Y-53252602D01*
X122250597Y-53419693D01*
X122250603Y-53419698D01*
X122436158Y-53549625D01*
X122479783Y-53604202D01*
X122486977Y-53673700D01*
X122455454Y-53736055D01*
X122436158Y-53752775D01*
X122250597Y-53882705D01*
X122083505Y-54049797D01*
X121947965Y-54243369D01*
X121947964Y-54243371D01*
X121848098Y-54457535D01*
X121848094Y-54457544D01*
X121786938Y-54685786D01*
X121786936Y-54685796D01*
X121766341Y-54921199D01*
X121766341Y-54921200D01*
X121786936Y-55156603D01*
X121786938Y-55156613D01*
X121848094Y-55384855D01*
X121848096Y-55384859D01*
X121848097Y-55384863D01*
X121929765Y-55560000D01*
X121947965Y-55599030D01*
X121947967Y-55599034D01*
X122023668Y-55707145D01*
X122067329Y-55769500D01*
X122083501Y-55792595D01*
X122083506Y-55792602D01*
X122250597Y-55959693D01*
X122250603Y-55959698D01*
X122436158Y-56089625D01*
X122479783Y-56144202D01*
X122486977Y-56213700D01*
X122455454Y-56276055D01*
X122436158Y-56292775D01*
X122250597Y-56422705D01*
X122083505Y-56589797D01*
X121947965Y-56783369D01*
X121947964Y-56783371D01*
X121848098Y-56997535D01*
X121848094Y-56997544D01*
X121786938Y-57225786D01*
X121786936Y-57225796D01*
X121766341Y-57461199D01*
X121766341Y-57461200D01*
X121786936Y-57696603D01*
X121786938Y-57696613D01*
X121848094Y-57924855D01*
X121848096Y-57924859D01*
X121848097Y-57924863D01*
X121947965Y-58139030D01*
X121947967Y-58139034D01*
X121987734Y-58195826D01*
X122076777Y-58322993D01*
X122083501Y-58332595D01*
X122083506Y-58332602D01*
X122250597Y-58499693D01*
X122250603Y-58499698D01*
X122436158Y-58629625D01*
X122479783Y-58684202D01*
X122486977Y-58753700D01*
X122455454Y-58816055D01*
X122436158Y-58832775D01*
X122250597Y-58962705D01*
X122083505Y-59129797D01*
X121947965Y-59323369D01*
X121947964Y-59323371D01*
X121848098Y-59537535D01*
X121848094Y-59537544D01*
X121786938Y-59765786D01*
X121786936Y-59765796D01*
X121766341Y-60001199D01*
X121766341Y-60001200D01*
X121786936Y-60236603D01*
X121786938Y-60236613D01*
X121848094Y-60464855D01*
X121848096Y-60464859D01*
X121848097Y-60464863D01*
X121929995Y-60640493D01*
X121947965Y-60679030D01*
X121947967Y-60679034D01*
X122020566Y-60782715D01*
X122067329Y-60849500D01*
X122083501Y-60872595D01*
X122083506Y-60872602D01*
X122250597Y-61039693D01*
X122250603Y-61039698D01*
X122436158Y-61169625D01*
X122479783Y-61224202D01*
X122486977Y-61293700D01*
X122455454Y-61356055D01*
X122436158Y-61372775D01*
X122250597Y-61502705D01*
X122083505Y-61669797D01*
X121947965Y-61863369D01*
X121947964Y-61863371D01*
X121848098Y-62077535D01*
X121848094Y-62077544D01*
X121786938Y-62305786D01*
X121786936Y-62305796D01*
X121766341Y-62541199D01*
X121766341Y-62541200D01*
X121786936Y-62776603D01*
X121786938Y-62776613D01*
X121848094Y-63004855D01*
X121848096Y-63004859D01*
X121848097Y-63004863D01*
X121935572Y-63192454D01*
X121947965Y-63219030D01*
X121947967Y-63219034D01*
X122041716Y-63352920D01*
X122067329Y-63389500D01*
X122083501Y-63412595D01*
X122083506Y-63412602D01*
X122250597Y-63579693D01*
X122250603Y-63579698D01*
X122436158Y-63709625D01*
X122479783Y-63764202D01*
X122486977Y-63833700D01*
X122455454Y-63896055D01*
X122436158Y-63912775D01*
X122250597Y-64042705D01*
X122083505Y-64209797D01*
X121947965Y-64403369D01*
X121947964Y-64403371D01*
X121848098Y-64617535D01*
X121848094Y-64617544D01*
X121786938Y-64845786D01*
X121786936Y-64845796D01*
X121766341Y-65081199D01*
X121766341Y-65081200D01*
X121786936Y-65316603D01*
X121786938Y-65316613D01*
X121848094Y-65544855D01*
X121848096Y-65544859D01*
X121848097Y-65544863D01*
X121940999Y-65744091D01*
X121947965Y-65759030D01*
X121947967Y-65759034D01*
X122023668Y-65867145D01*
X122067329Y-65929500D01*
X122083501Y-65952595D01*
X122083506Y-65952602D01*
X122250597Y-66119693D01*
X122250603Y-66119698D01*
X122436158Y-66249625D01*
X122479783Y-66304202D01*
X122486977Y-66373700D01*
X122455454Y-66436055D01*
X122436158Y-66452775D01*
X122250597Y-66582705D01*
X122083505Y-66749797D01*
X121947965Y-66943369D01*
X121947964Y-66943371D01*
X121848098Y-67157535D01*
X121848094Y-67157544D01*
X121786938Y-67385786D01*
X121786936Y-67385796D01*
X121766341Y-67621199D01*
X121766341Y-67621200D01*
X121786936Y-67856603D01*
X121786938Y-67856613D01*
X121848094Y-68084855D01*
X121848096Y-68084859D01*
X121848097Y-68084863D01*
X121917084Y-68232805D01*
X121947965Y-68299030D01*
X121947967Y-68299034D01*
X122083501Y-68492595D01*
X122083506Y-68492602D01*
X122250597Y-68659693D01*
X122250603Y-68659698D01*
X122436158Y-68789625D01*
X122479783Y-68844202D01*
X122486977Y-68913700D01*
X122455454Y-68976055D01*
X122436158Y-68992775D01*
X122250597Y-69122705D01*
X122083505Y-69289797D01*
X121947965Y-69483369D01*
X121947964Y-69483371D01*
X121848098Y-69697535D01*
X121848094Y-69697544D01*
X121786938Y-69925786D01*
X121786936Y-69925796D01*
X121766341Y-70161199D01*
X121766341Y-70161200D01*
X121786936Y-70396603D01*
X121786938Y-70396613D01*
X121848094Y-70624855D01*
X121848096Y-70624859D01*
X121848097Y-70624863D01*
X121934723Y-70810633D01*
X121947965Y-70839030D01*
X121947967Y-70839034D01*
X122025538Y-70949816D01*
X122083504Y-71032600D01*
X122083506Y-71032602D01*
X122250597Y-71199693D01*
X122250603Y-71199698D01*
X122436158Y-71329625D01*
X122479783Y-71384202D01*
X122486977Y-71453700D01*
X122455454Y-71516055D01*
X122436158Y-71532775D01*
X122250597Y-71662705D01*
X122083505Y-71829797D01*
X121947965Y-72023369D01*
X121947964Y-72023371D01*
X121848098Y-72237535D01*
X121848094Y-72237544D01*
X121786938Y-72465786D01*
X121786936Y-72465796D01*
X121766341Y-72701199D01*
X121766341Y-72701200D01*
X121786936Y-72936603D01*
X121786938Y-72936613D01*
X121848094Y-73164855D01*
X121848096Y-73164859D01*
X121848097Y-73164863D01*
X121920839Y-73320858D01*
X121947965Y-73379030D01*
X121947967Y-73379034D01*
X122083501Y-73572595D01*
X122083506Y-73572602D01*
X122250597Y-73739693D01*
X122250603Y-73739698D01*
X122338403Y-73801176D01*
X122421532Y-73859384D01*
X122436594Y-73869930D01*
X122480219Y-73924507D01*
X122487413Y-73994005D01*
X122455890Y-74056360D01*
X122436595Y-74073080D01*
X122250922Y-74203090D01*
X122250920Y-74203091D01*
X122083891Y-74370120D01*
X122083886Y-74370126D01*
X121948400Y-74563620D01*
X121948399Y-74563622D01*
X121848570Y-74777707D01*
X121848567Y-74777713D01*
X121791364Y-74991199D01*
X121791364Y-74991200D01*
X122688988Y-74991200D01*
X122656075Y-75048207D01*
X122622000Y-75175374D01*
X122622000Y-75307026D01*
X122656075Y-75434193D01*
X122688988Y-75491200D01*
X121791364Y-75491200D01*
X121848567Y-75704686D01*
X121848570Y-75704692D01*
X121948399Y-75918778D01*
X122083894Y-76112282D01*
X122250917Y-76279305D01*
X122436595Y-76409319D01*
X122480219Y-76463896D01*
X122487412Y-76533395D01*
X122455890Y-76595749D01*
X122436595Y-76612469D01*
X122250594Y-76742708D01*
X122083505Y-76909797D01*
X121947965Y-77103369D01*
X121947964Y-77103371D01*
X121848098Y-77317535D01*
X121848094Y-77317544D01*
X121786938Y-77545786D01*
X121786936Y-77545796D01*
X121766341Y-77781199D01*
X121766341Y-77781200D01*
X121786936Y-78016603D01*
X121786938Y-78016613D01*
X121848094Y-78244855D01*
X121848096Y-78244859D01*
X121848097Y-78244863D01*
X121924662Y-78409057D01*
X121947965Y-78459030D01*
X121947967Y-78459034D01*
X122010609Y-78548495D01*
X122083505Y-78652601D01*
X122250599Y-78819695D01*
X122321928Y-78869640D01*
X122444165Y-78955232D01*
X122444167Y-78955233D01*
X122444170Y-78955235D01*
X122658337Y-79055103D01*
X122658343Y-79055104D01*
X122658344Y-79055105D01*
X122707601Y-79068303D01*
X122886592Y-79116263D01*
X123074918Y-79132739D01*
X123121999Y-79136859D01*
X123122000Y-79136859D01*
X123122001Y-79136859D01*
X123161234Y-79133426D01*
X123357408Y-79116263D01*
X123585663Y-79055103D01*
X123799830Y-78955235D01*
X123993401Y-78819695D01*
X124160495Y-78652601D01*
X124296035Y-78459030D01*
X124395903Y-78244863D01*
X124457063Y-78016608D01*
X124477659Y-77781200D01*
X124457063Y-77545792D01*
X124395903Y-77317537D01*
X124296035Y-77103371D01*
X124290011Y-77094767D01*
X124160494Y-76909797D01*
X123993402Y-76742706D01*
X123993401Y-76742705D01*
X123807405Y-76612469D01*
X123763781Y-76557892D01*
X123756588Y-76488393D01*
X123788110Y-76426039D01*
X123807405Y-76409319D01*
X123993082Y-76279305D01*
X124160105Y-76112282D01*
X124295600Y-75918778D01*
X124395429Y-75704692D01*
X124395432Y-75704686D01*
X124452636Y-75491200D01*
X123555012Y-75491200D01*
X123587925Y-75434193D01*
X123622000Y-75307026D01*
X123622000Y-75175374D01*
X123587925Y-75048207D01*
X123555012Y-74991200D01*
X124452636Y-74991200D01*
X124452635Y-74991199D01*
X124395432Y-74777713D01*
X124395429Y-74777707D01*
X124295600Y-74563622D01*
X124295599Y-74563620D01*
X124160113Y-74370126D01*
X124160108Y-74370120D01*
X123993078Y-74203090D01*
X123807405Y-74073079D01*
X123763780Y-74018502D01*
X123756588Y-73949004D01*
X123788110Y-73886649D01*
X123807406Y-73869930D01*
X123813853Y-73865416D01*
X123993401Y-73739695D01*
X124160495Y-73572601D01*
X124296035Y-73379030D01*
X124298707Y-73373297D01*
X124344878Y-73320858D01*
X124411091Y-73301700D01*
X124471103Y-73301700D01*
X124538142Y-73321385D01*
X124558784Y-73338019D01*
X125309181Y-74088416D01*
X125342666Y-74149739D01*
X125345500Y-74176097D01*
X125345500Y-79649330D01*
X125345499Y-79649348D01*
X125345499Y-79815054D01*
X125345498Y-79815054D01*
X125386423Y-79967785D01*
X125415358Y-80017900D01*
X125415359Y-80017904D01*
X125415360Y-80017904D01*
X125465479Y-80104714D01*
X125465481Y-80104717D01*
X125584349Y-80223585D01*
X125584355Y-80223590D01*
X128427233Y-83066469D01*
X128460718Y-83127792D01*
X128459327Y-83186243D01*
X128424938Y-83314586D01*
X128424936Y-83314596D01*
X128404341Y-83549999D01*
X128404341Y-83550000D01*
X128424936Y-83785403D01*
X128424938Y-83785413D01*
X128486094Y-84013655D01*
X128486096Y-84013659D01*
X128486097Y-84013663D01*
X128556168Y-84163930D01*
X128585965Y-84227830D01*
X128585967Y-84227834D01*
X128721501Y-84421395D01*
X128721506Y-84421402D01*
X128888597Y-84588493D01*
X128888603Y-84588498D01*
X129074594Y-84718730D01*
X129118219Y-84773307D01*
X129125413Y-84842805D01*
X129093890Y-84905160D01*
X129074595Y-84921880D01*
X128888922Y-85051890D01*
X128888920Y-85051891D01*
X128721891Y-85218920D01*
X128721886Y-85218926D01*
X128586400Y-85412420D01*
X128586399Y-85412422D01*
X128486570Y-85626507D01*
X128486567Y-85626513D01*
X128429364Y-85839999D01*
X128429364Y-85840000D01*
X129326988Y-85840000D01*
X129294075Y-85897007D01*
X129260000Y-86024174D01*
X129260000Y-86155826D01*
X129294075Y-86282993D01*
X129326988Y-86340000D01*
X128429364Y-86340000D01*
X128486567Y-86553486D01*
X128486570Y-86553492D01*
X128586399Y-86767578D01*
X128721894Y-86961082D01*
X128888917Y-87128105D01*
X129082421Y-87263600D01*
X129296507Y-87363429D01*
X129296516Y-87363433D01*
X129510000Y-87420634D01*
X129510000Y-86523012D01*
X129567007Y-86555925D01*
X129694174Y-86590000D01*
X129825826Y-86590000D01*
X129952993Y-86555925D01*
X130010000Y-86523012D01*
X130010000Y-87420633D01*
X130223483Y-87363433D01*
X130223492Y-87363429D01*
X130437578Y-87263600D01*
X130631082Y-87128105D01*
X130798105Y-86961082D01*
X130933600Y-86767578D01*
X131033429Y-86553492D01*
X131033432Y-86553486D01*
X131090636Y-86340000D01*
X130193012Y-86340000D01*
X130225925Y-86282993D01*
X130260000Y-86155826D01*
X130260000Y-86024174D01*
X130225925Y-85897007D01*
X130193012Y-85840000D01*
X131090636Y-85840000D01*
X131090635Y-85839999D01*
X131033432Y-85626513D01*
X131033429Y-85626507D01*
X130933600Y-85412422D01*
X130933599Y-85412420D01*
X130798113Y-85218926D01*
X130798108Y-85218920D01*
X130631078Y-85051890D01*
X130445405Y-84921879D01*
X130401780Y-84867302D01*
X130394588Y-84797804D01*
X130426110Y-84735449D01*
X130445406Y-84718730D01*
X130631401Y-84588495D01*
X130798495Y-84421401D01*
X130934035Y-84227830D01*
X131033903Y-84013663D01*
X131095063Y-83785408D01*
X131115659Y-83550000D01*
X131095063Y-83314592D01*
X131042144Y-83117092D01*
X131033905Y-83086344D01*
X131033904Y-83086343D01*
X131033903Y-83086337D01*
X130934035Y-82872171D01*
X130871593Y-82782993D01*
X130798494Y-82678597D01*
X130631402Y-82511506D01*
X130631396Y-82511501D01*
X130445842Y-82381575D01*
X130402217Y-82326998D01*
X130395023Y-82257500D01*
X130426546Y-82195145D01*
X130445842Y-82178425D01*
X130519988Y-82126507D01*
X130631401Y-82048495D01*
X130798495Y-81881401D01*
X130934035Y-81687830D01*
X131033903Y-81473663D01*
X131095063Y-81245408D01*
X131115659Y-81010000D01*
X131095063Y-80774592D01*
X131033903Y-80546337D01*
X130934035Y-80332171D01*
X130901291Y-80285408D01*
X130798496Y-80138600D01*
X130764610Y-80104714D01*
X130676567Y-80016671D01*
X130643084Y-79955351D01*
X130648068Y-79885659D01*
X130689939Y-79829725D01*
X130720915Y-79812810D01*
X130852331Y-79763796D01*
X130967546Y-79677546D01*
X131053796Y-79562331D01*
X131104091Y-79427483D01*
X131110500Y-79367873D01*
X131110499Y-78747561D01*
X131130183Y-78680525D01*
X131182987Y-78634770D01*
X131252146Y-78624826D01*
X131315702Y-78653851D01*
X131341885Y-78685563D01*
X131349475Y-78698709D01*
X131349481Y-78698717D01*
X131468349Y-78817585D01*
X131468355Y-78817590D01*
X132217233Y-79566468D01*
X132250718Y-79627791D01*
X132249327Y-79686241D01*
X132214939Y-79814583D01*
X132214936Y-79814596D01*
X132194341Y-80049999D01*
X132194341Y-80050000D01*
X132214936Y-80285403D01*
X132214938Y-80285413D01*
X132276094Y-80513655D01*
X132276096Y-80513659D01*
X132276097Y-80513663D01*
X132372521Y-80720445D01*
X132375965Y-80727830D01*
X132375967Y-80727834D01*
X132511501Y-80921395D01*
X132511506Y-80921402D01*
X132678597Y-81088493D01*
X132678603Y-81088498D01*
X132864594Y-81218730D01*
X132908219Y-81273307D01*
X132915413Y-81342805D01*
X132883890Y-81405160D01*
X132864595Y-81421880D01*
X132678922Y-81551890D01*
X132678920Y-81551891D01*
X132511891Y-81718920D01*
X132511886Y-81718926D01*
X132376400Y-81912420D01*
X132376399Y-81912422D01*
X132276570Y-82126507D01*
X132276567Y-82126513D01*
X132219364Y-82339999D01*
X132219364Y-82340000D01*
X133116988Y-82340000D01*
X133084075Y-82397007D01*
X133050000Y-82524174D01*
X133050000Y-82655826D01*
X133084075Y-82782993D01*
X133116988Y-82840000D01*
X132219364Y-82840000D01*
X132276567Y-83053486D01*
X132276570Y-83053492D01*
X132376399Y-83267578D01*
X132511894Y-83461082D01*
X132678917Y-83628105D01*
X132872421Y-83763600D01*
X133086507Y-83863429D01*
X133086516Y-83863433D01*
X133300000Y-83920634D01*
X133300000Y-83023012D01*
X133357007Y-83055925D01*
X133484174Y-83090000D01*
X133615826Y-83090000D01*
X133742993Y-83055925D01*
X133800000Y-83023012D01*
X133800000Y-83920633D01*
X134013483Y-83863433D01*
X134013492Y-83863429D01*
X134227578Y-83763600D01*
X134421082Y-83628105D01*
X134588105Y-83461082D01*
X134723600Y-83267578D01*
X134823429Y-83053492D01*
X134823432Y-83053486D01*
X134880636Y-82840000D01*
X133983012Y-82840000D01*
X134015925Y-82782993D01*
X134050000Y-82655826D01*
X134050000Y-82524174D01*
X134015925Y-82397007D01*
X133983012Y-82340000D01*
X134880636Y-82340000D01*
X134880635Y-82339999D01*
X134823432Y-82126513D01*
X134823429Y-82126507D01*
X134723600Y-81912422D01*
X134723599Y-81912420D01*
X134588113Y-81718926D01*
X134588108Y-81718920D01*
X134421078Y-81551890D01*
X134235405Y-81421879D01*
X134191780Y-81367302D01*
X134184588Y-81297804D01*
X134216110Y-81235449D01*
X134235406Y-81218730D01*
X134421401Y-81088495D01*
X134588495Y-80921401D01*
X134724035Y-80727830D01*
X134823903Y-80513663D01*
X134885063Y-80285408D01*
X134905659Y-80050000D01*
X134885063Y-79814592D01*
X134823903Y-79586337D01*
X134724035Y-79372171D01*
X134721020Y-79367864D01*
X134588494Y-79178597D01*
X134421402Y-79011506D01*
X134421396Y-79011501D01*
X134235842Y-78881575D01*
X134192217Y-78826998D01*
X134185023Y-78757500D01*
X134216546Y-78695145D01*
X134235842Y-78678425D01*
X134272731Y-78652595D01*
X134421401Y-78548495D01*
X134588495Y-78381401D01*
X134724035Y-78187830D01*
X134823903Y-77973663D01*
X134885063Y-77745408D01*
X134905659Y-77510000D01*
X134885063Y-77274592D01*
X134823903Y-77046337D01*
X134724035Y-76832171D01*
X134661391Y-76742706D01*
X134588496Y-76638600D01*
X134528971Y-76579075D01*
X134466567Y-76516671D01*
X134433084Y-76455351D01*
X134438068Y-76385659D01*
X134479939Y-76329725D01*
X134510915Y-76312810D01*
X134642331Y-76263796D01*
X134757546Y-76177546D01*
X134843796Y-76062331D01*
X134894091Y-75927483D01*
X134900500Y-75867873D01*
X134900499Y-74072128D01*
X134894091Y-74012517D01*
X134887186Y-73994005D01*
X134843797Y-73877671D01*
X134843793Y-73877664D01*
X134757547Y-73762455D01*
X134757544Y-73762452D01*
X134642335Y-73676206D01*
X134642328Y-73676202D01*
X134507482Y-73625908D01*
X134507483Y-73625908D01*
X134447883Y-73619501D01*
X134447881Y-73619500D01*
X134447873Y-73619500D01*
X134447864Y-73619500D01*
X132652129Y-73619500D01*
X132652123Y-73619501D01*
X132592516Y-73625908D01*
X132457671Y-73676202D01*
X132457664Y-73676206D01*
X132342455Y-73762452D01*
X132342452Y-73762455D01*
X132256206Y-73877664D01*
X132256202Y-73877671D01*
X132205908Y-74012517D01*
X132199501Y-74072116D01*
X132199501Y-74072123D01*
X132199500Y-74072135D01*
X132199500Y-75867870D01*
X132199502Y-75867889D01*
X132199561Y-75868439D01*
X132199538Y-75868565D01*
X132199679Y-75871195D01*
X132199057Y-75871228D01*
X132187143Y-75937197D01*
X132139523Y-75988325D01*
X132071821Y-76005592D01*
X132005531Y-75983515D01*
X131988588Y-75969353D01*
X130582857Y-74563622D01*
X128916819Y-72897583D01*
X128883334Y-72836260D01*
X128880500Y-72809902D01*
X128880500Y-71173374D01*
X128880501Y-71173361D01*
X128880501Y-71005258D01*
X128880501Y-71005257D01*
X128839577Y-70852530D01*
X128782362Y-70753429D01*
X128760524Y-70715604D01*
X128760518Y-70715596D01*
X125856819Y-67811897D01*
X125823334Y-67750574D01*
X125820500Y-67724216D01*
X125820500Y-66939999D01*
X128614341Y-66939999D01*
X128614341Y-66940000D01*
X128634936Y-67175403D01*
X128634938Y-67175413D01*
X128696094Y-67403655D01*
X128696096Y-67403659D01*
X128696097Y-67403663D01*
X128795965Y-67617830D01*
X128795967Y-67617834D01*
X128931501Y-67811395D01*
X128931506Y-67811402D01*
X129098597Y-67978493D01*
X129098603Y-67978498D01*
X129284594Y-68108730D01*
X129328219Y-68163307D01*
X129335413Y-68232805D01*
X129303890Y-68295160D01*
X129284595Y-68311880D01*
X129098922Y-68441890D01*
X129098920Y-68441891D01*
X128931891Y-68608920D01*
X128931886Y-68608926D01*
X128796400Y-68802420D01*
X128796399Y-68802422D01*
X128696570Y-69016507D01*
X128696567Y-69016513D01*
X128639364Y-69229999D01*
X128639364Y-69230000D01*
X129536988Y-69230000D01*
X129504075Y-69287007D01*
X129470000Y-69414174D01*
X129470000Y-69545826D01*
X129504075Y-69672993D01*
X129536988Y-69730000D01*
X128639364Y-69730000D01*
X128696567Y-69943486D01*
X128696570Y-69943492D01*
X128796399Y-70157578D01*
X128931894Y-70351082D01*
X129098917Y-70518105D01*
X129292421Y-70653600D01*
X129506507Y-70753429D01*
X129506516Y-70753433D01*
X129720000Y-70810634D01*
X129720000Y-69913012D01*
X129777007Y-69945925D01*
X129904174Y-69980000D01*
X130035826Y-69980000D01*
X130162993Y-69945925D01*
X130220000Y-69913012D01*
X130220000Y-70810633D01*
X130433483Y-70753433D01*
X130433492Y-70753429D01*
X130647578Y-70653600D01*
X130841082Y-70518105D01*
X131008105Y-70351082D01*
X131143600Y-70157578D01*
X131243429Y-69943492D01*
X131243432Y-69943486D01*
X131300636Y-69730000D01*
X130403012Y-69730000D01*
X130435925Y-69672993D01*
X130470000Y-69545826D01*
X130470000Y-69414174D01*
X130435925Y-69287007D01*
X130403012Y-69230000D01*
X131300636Y-69230000D01*
X131300635Y-69229999D01*
X131243432Y-69016513D01*
X131243429Y-69016507D01*
X131143600Y-68802422D01*
X131143599Y-68802420D01*
X131008113Y-68608926D01*
X131008108Y-68608920D01*
X130841078Y-68441890D01*
X130655405Y-68311879D01*
X130611780Y-68257302D01*
X130604588Y-68187804D01*
X130636110Y-68125449D01*
X130655406Y-68108730D01*
X130734558Y-68053307D01*
X130841401Y-67978495D01*
X131008495Y-67811401D01*
X131144035Y-67617830D01*
X131243903Y-67403663D01*
X131305063Y-67175408D01*
X131325659Y-66940000D01*
X131316035Y-66829999D01*
X134624341Y-66829999D01*
X134624341Y-66830000D01*
X134644936Y-67065403D01*
X134644938Y-67065413D01*
X134706094Y-67293655D01*
X134706096Y-67293659D01*
X134706097Y-67293663D01*
X134782453Y-67457408D01*
X134805965Y-67507830D01*
X134805967Y-67507834D01*
X134895287Y-67635395D01*
X134941505Y-67701401D01*
X135108599Y-67868495D01*
X135265699Y-67978498D01*
X135294594Y-67998730D01*
X135338219Y-68053307D01*
X135345413Y-68122805D01*
X135313890Y-68185160D01*
X135294595Y-68201880D01*
X135108922Y-68331890D01*
X135108920Y-68331891D01*
X134941891Y-68498920D01*
X134941886Y-68498926D01*
X134806400Y-68692420D01*
X134806399Y-68692422D01*
X134706570Y-68906507D01*
X134706567Y-68906513D01*
X134649364Y-69119999D01*
X134649364Y-69120000D01*
X135546988Y-69120000D01*
X135514075Y-69177007D01*
X135480000Y-69304174D01*
X135480000Y-69435826D01*
X135514075Y-69562993D01*
X135546988Y-69620000D01*
X134649364Y-69620000D01*
X134706567Y-69833486D01*
X134706570Y-69833492D01*
X134806399Y-70047578D01*
X134941894Y-70241082D01*
X135108917Y-70408105D01*
X135302421Y-70543600D01*
X135516507Y-70643429D01*
X135516516Y-70643433D01*
X135730000Y-70700634D01*
X135730000Y-69803012D01*
X135787007Y-69835925D01*
X135914174Y-69870000D01*
X136045826Y-69870000D01*
X136172993Y-69835925D01*
X136230000Y-69803012D01*
X136230000Y-70700633D01*
X136443483Y-70643433D01*
X136443492Y-70643429D01*
X136657578Y-70543600D01*
X136851082Y-70408105D01*
X137018105Y-70241082D01*
X137153600Y-70047578D01*
X137253429Y-69833492D01*
X137253432Y-69833486D01*
X137310636Y-69620000D01*
X136413012Y-69620000D01*
X136445925Y-69562993D01*
X136480000Y-69435826D01*
X136480000Y-69304174D01*
X136445925Y-69177007D01*
X136413012Y-69120000D01*
X137310636Y-69120000D01*
X137310635Y-69119999D01*
X137253432Y-68906513D01*
X137253429Y-68906507D01*
X137153600Y-68692422D01*
X137153599Y-68692420D01*
X137018113Y-68498926D01*
X137018108Y-68498920D01*
X136851078Y-68331890D01*
X136665405Y-68201879D01*
X136621780Y-68147302D01*
X136614588Y-68077804D01*
X136646110Y-68015449D01*
X136665406Y-67998730D01*
X136851401Y-67868495D01*
X137018495Y-67701401D01*
X137154035Y-67507830D01*
X137253903Y-67293663D01*
X137315063Y-67065408D01*
X137335659Y-66830000D01*
X137315063Y-66594592D01*
X137253903Y-66366337D01*
X137154035Y-66152171D01*
X137131297Y-66119698D01*
X137018496Y-65958600D01*
X136960321Y-65900425D01*
X136896567Y-65836671D01*
X136863084Y-65775351D01*
X136868068Y-65705659D01*
X136909939Y-65649725D01*
X136940915Y-65632810D01*
X137072331Y-65583796D01*
X137187546Y-65497546D01*
X137273796Y-65382331D01*
X137324091Y-65247483D01*
X137330500Y-65187873D01*
X137330499Y-63392128D01*
X137324091Y-63332517D01*
X137322087Y-63327145D01*
X137273797Y-63197671D01*
X137273793Y-63197664D01*
X137187547Y-63082455D01*
X137187544Y-63082452D01*
X137072335Y-62996206D01*
X137072328Y-62996202D01*
X136937482Y-62945908D01*
X136937483Y-62945908D01*
X136877883Y-62939501D01*
X136877881Y-62939500D01*
X136877873Y-62939500D01*
X136877864Y-62939500D01*
X135082129Y-62939500D01*
X135082123Y-62939501D01*
X135022516Y-62945908D01*
X134887671Y-62996202D01*
X134887664Y-62996206D01*
X134772455Y-63082452D01*
X134772452Y-63082455D01*
X134686206Y-63197664D01*
X134686202Y-63197671D01*
X134635908Y-63332517D01*
X134629782Y-63389500D01*
X134629501Y-63392123D01*
X134629500Y-63392135D01*
X134629500Y-65187870D01*
X134629501Y-65187876D01*
X134635908Y-65247483D01*
X134686202Y-65382328D01*
X134686206Y-65382335D01*
X134772452Y-65497544D01*
X134772455Y-65497547D01*
X134887664Y-65583793D01*
X134887671Y-65583797D01*
X135019081Y-65632810D01*
X135075015Y-65674681D01*
X135099432Y-65740145D01*
X135084580Y-65808418D01*
X135063430Y-65836673D01*
X134941503Y-65958600D01*
X134805965Y-66152169D01*
X134805964Y-66152171D01*
X134706098Y-66366335D01*
X134706094Y-66366344D01*
X134644938Y-66594586D01*
X134644936Y-66594596D01*
X134624341Y-66829999D01*
X131316035Y-66829999D01*
X131305063Y-66704592D01*
X131243903Y-66476337D01*
X131144035Y-66262171D01*
X131139178Y-66255235D01*
X131008496Y-66068600D01*
X130964396Y-66024500D01*
X130886567Y-65946671D01*
X130853084Y-65885351D01*
X130858068Y-65815659D01*
X130899939Y-65759725D01*
X130930915Y-65742810D01*
X131062331Y-65693796D01*
X131177546Y-65607546D01*
X131263796Y-65492331D01*
X131314091Y-65357483D01*
X131320500Y-65297873D01*
X131320499Y-63502128D01*
X131314091Y-63442517D01*
X131302933Y-63412602D01*
X131263797Y-63307671D01*
X131263793Y-63307664D01*
X131177547Y-63192455D01*
X131177544Y-63192452D01*
X131062335Y-63106206D01*
X131062328Y-63106202D01*
X130927482Y-63055908D01*
X130927483Y-63055908D01*
X130867883Y-63049501D01*
X130867881Y-63049500D01*
X130867873Y-63049500D01*
X130867864Y-63049500D01*
X129072129Y-63049500D01*
X129072123Y-63049501D01*
X129012516Y-63055908D01*
X128877671Y-63106202D01*
X128877664Y-63106206D01*
X128762455Y-63192452D01*
X128762452Y-63192455D01*
X128676206Y-63307664D01*
X128676202Y-63307671D01*
X128625908Y-63442517D01*
X128623814Y-63462000D01*
X128619501Y-63502123D01*
X128619500Y-63502135D01*
X128619500Y-65297870D01*
X128619501Y-65297876D01*
X128625908Y-65357483D01*
X128676202Y-65492328D01*
X128676206Y-65492335D01*
X128762452Y-65607544D01*
X128762455Y-65607547D01*
X128877664Y-65693793D01*
X128877671Y-65693797D01*
X129009081Y-65742810D01*
X129065015Y-65784681D01*
X129089432Y-65850145D01*
X129074580Y-65918418D01*
X129053430Y-65946673D01*
X128931503Y-66068600D01*
X128795965Y-66262169D01*
X128795964Y-66262171D01*
X128696098Y-66476335D01*
X128696094Y-66476344D01*
X128634938Y-66704586D01*
X128634936Y-66704596D01*
X128614341Y-66939999D01*
X125820500Y-66939999D01*
X125820500Y-62020145D01*
X125820500Y-62020143D01*
X125793508Y-61919408D01*
X125779577Y-61867415D01*
X125750639Y-61817295D01*
X125700520Y-61730484D01*
X125588716Y-61618680D01*
X125588715Y-61618679D01*
X125584385Y-61614349D01*
X125584374Y-61614339D01*
X124454766Y-60484731D01*
X124421281Y-60423408D01*
X124422672Y-60364957D01*
X124433620Y-60324099D01*
X124457063Y-60236608D01*
X124477659Y-60001200D01*
X124457063Y-59765792D01*
X124395903Y-59537537D01*
X124296035Y-59323371D01*
X124282192Y-59303600D01*
X124160494Y-59129797D01*
X123993402Y-58962706D01*
X123993396Y-58962701D01*
X123807842Y-58832775D01*
X123764217Y-58778198D01*
X123757023Y-58708700D01*
X123788546Y-58646345D01*
X123807842Y-58629625D01*
X123898815Y-58565925D01*
X123993401Y-58499695D01*
X124160495Y-58332601D01*
X124296035Y-58139030D01*
X124395903Y-57924863D01*
X124457063Y-57696608D01*
X124477659Y-57461200D01*
X124457063Y-57225792D01*
X124422671Y-57097439D01*
X124424334Y-57027593D01*
X124454763Y-56977670D01*
X124970135Y-56462298D01*
X125031456Y-56428815D01*
X125043911Y-56426763D01*
X125130855Y-56416968D01*
X125301122Y-56357389D01*
X125453862Y-56261416D01*
X125581416Y-56133862D01*
X125677389Y-55981122D01*
X125736968Y-55810855D01*
X125738708Y-55795413D01*
X125757165Y-55631603D01*
X125757165Y-55631596D01*
X125736969Y-55452350D01*
X125736968Y-55452345D01*
X125716343Y-55393402D01*
X125677389Y-55282078D01*
X125670771Y-55271546D01*
X125612910Y-55179461D01*
X125581416Y-55129338D01*
X125453862Y-55001784D01*
X125390349Y-54961876D01*
X125301123Y-54905811D01*
X125130854Y-54846231D01*
X125130849Y-54846230D01*
X124951604Y-54826035D01*
X124951596Y-54826035D01*
X124772350Y-54846230D01*
X124772342Y-54846232D01*
X124630626Y-54895821D01*
X124560848Y-54899382D01*
X124500220Y-54864653D01*
X124467993Y-54802660D01*
X124466144Y-54789587D01*
X124459933Y-54718599D01*
X124457063Y-54685792D01*
X124395903Y-54457537D01*
X124296035Y-54243371D01*
X124284955Y-54227546D01*
X124217770Y-54131596D01*
X125646035Y-54131596D01*
X125646035Y-54131603D01*
X125666230Y-54310849D01*
X125666231Y-54310854D01*
X125725811Y-54481123D01*
X125798417Y-54596674D01*
X125821784Y-54633862D01*
X125949338Y-54761416D01*
X126022526Y-54807403D01*
X126084321Y-54846232D01*
X126102078Y-54857389D01*
X126222087Y-54899382D01*
X126272345Y-54916968D01*
X126272350Y-54916969D01*
X126451596Y-54937165D01*
X126451600Y-54937165D01*
X126451604Y-54937165D01*
X126630849Y-54916969D01*
X126630852Y-54916968D01*
X126630855Y-54916968D01*
X126801122Y-54857389D01*
X126953862Y-54761416D01*
X127081416Y-54633862D01*
X127177389Y-54481122D01*
X127236968Y-54310855D01*
X127246761Y-54223929D01*
X127273826Y-54159518D01*
X127282290Y-54150143D01*
X127745616Y-53686819D01*
X127806939Y-53653334D01*
X127833297Y-53650500D01*
X127945501Y-53650500D01*
X128012540Y-53670185D01*
X128058295Y-53722989D01*
X128069501Y-53774500D01*
X128069501Y-53947876D01*
X128075908Y-54007483D01*
X128126202Y-54142328D01*
X128126206Y-54142335D01*
X128212452Y-54257544D01*
X128212455Y-54257547D01*
X128327664Y-54343793D01*
X128327671Y-54343797D01*
X128459081Y-54392810D01*
X128515015Y-54434681D01*
X128539432Y-54500145D01*
X128524580Y-54568418D01*
X128503430Y-54596673D01*
X128381503Y-54718600D01*
X128245965Y-54912169D01*
X128245964Y-54912171D01*
X128146098Y-55126335D01*
X128146094Y-55126344D01*
X128084938Y-55354586D01*
X128084936Y-55354596D01*
X128064341Y-55589999D01*
X128064341Y-55590000D01*
X128084936Y-55825403D01*
X128084938Y-55825413D01*
X128146094Y-56053655D01*
X128146096Y-56053659D01*
X128146097Y-56053663D01*
X128220202Y-56212582D01*
X128245965Y-56267830D01*
X128245967Y-56267834D01*
X128327427Y-56384170D01*
X128381505Y-56461401D01*
X128548599Y-56628495D01*
X128715626Y-56745449D01*
X128734594Y-56758730D01*
X128778219Y-56813307D01*
X128785413Y-56882805D01*
X128753890Y-56945160D01*
X128734595Y-56961880D01*
X128548922Y-57091890D01*
X128548920Y-57091891D01*
X128381891Y-57258920D01*
X128381886Y-57258926D01*
X128246400Y-57452420D01*
X128246399Y-57452422D01*
X128146570Y-57666507D01*
X128146567Y-57666513D01*
X128089364Y-57879999D01*
X128089364Y-57880000D01*
X128986988Y-57880000D01*
X128954075Y-57937007D01*
X128920000Y-58064174D01*
X128920000Y-58195826D01*
X128954075Y-58322993D01*
X128986988Y-58380000D01*
X128089364Y-58380000D01*
X128146567Y-58593486D01*
X128146570Y-58593492D01*
X128246399Y-58807578D01*
X128381894Y-59001082D01*
X128548917Y-59168105D01*
X128742421Y-59303600D01*
X128956507Y-59403429D01*
X128956516Y-59403433D01*
X129170000Y-59460634D01*
X129170000Y-58563012D01*
X129227007Y-58595925D01*
X129354174Y-58630000D01*
X129485826Y-58630000D01*
X129612993Y-58595925D01*
X129670000Y-58563012D01*
X129670000Y-59460633D01*
X129883483Y-59403433D01*
X129883492Y-59403429D01*
X130097578Y-59303600D01*
X130291082Y-59168105D01*
X130458105Y-59001082D01*
X130593600Y-58807578D01*
X130693429Y-58593492D01*
X130693432Y-58593486D01*
X130750636Y-58380000D01*
X129853012Y-58380000D01*
X129885925Y-58322993D01*
X129920000Y-58195826D01*
X129920000Y-58064174D01*
X129885925Y-57937007D01*
X129853012Y-57880000D01*
X130750636Y-57880000D01*
X130750635Y-57879999D01*
X130693432Y-57666513D01*
X130693429Y-57666507D01*
X130593600Y-57452422D01*
X130593599Y-57452420D01*
X130458113Y-57258926D01*
X130458108Y-57258920D01*
X130291078Y-57091890D01*
X130105405Y-56961879D01*
X130061780Y-56907302D01*
X130054588Y-56837804D01*
X130086110Y-56775449D01*
X130105406Y-56758730D01*
X130291401Y-56628495D01*
X130458495Y-56461401D01*
X130594035Y-56267830D01*
X130693903Y-56053663D01*
X130755063Y-55825408D01*
X130775659Y-55590000D01*
X130755063Y-55354592D01*
X130698149Y-55142185D01*
X130693905Y-55126344D01*
X130693904Y-55126343D01*
X130693903Y-55126337D01*
X130594035Y-54912171D01*
X130573027Y-54882169D01*
X130458496Y-54718600D01*
X130425682Y-54685786D01*
X130336567Y-54596671D01*
X130303084Y-54535351D01*
X130308068Y-54465659D01*
X130349939Y-54409725D01*
X130380915Y-54392810D01*
X130512331Y-54343796D01*
X130627546Y-54257546D01*
X130713796Y-54142331D01*
X130764091Y-54007483D01*
X130770500Y-53947873D01*
X130770500Y-53774500D01*
X130790185Y-53707461D01*
X130842989Y-53661706D01*
X130894500Y-53650500D01*
X133875501Y-53650500D01*
X133942540Y-53670185D01*
X133988295Y-53722989D01*
X133999501Y-53774500D01*
X133999501Y-53917876D01*
X134005908Y-53977483D01*
X134056202Y-54112328D01*
X134056206Y-54112335D01*
X134142452Y-54227544D01*
X134142455Y-54227547D01*
X134257664Y-54313793D01*
X134257671Y-54313797D01*
X134389081Y-54362810D01*
X134445015Y-54404681D01*
X134469432Y-54470145D01*
X134454580Y-54538418D01*
X134433430Y-54566673D01*
X134311503Y-54688600D01*
X134175965Y-54882169D01*
X134175964Y-54882171D01*
X134076098Y-55096335D01*
X134076094Y-55096344D01*
X134014938Y-55324586D01*
X134014936Y-55324596D01*
X133994341Y-55559999D01*
X133994341Y-55560000D01*
X134014936Y-55795403D01*
X134014938Y-55795413D01*
X134076094Y-56023655D01*
X134076096Y-56023659D01*
X134076097Y-56023663D01*
X134143729Y-56168700D01*
X134175965Y-56237830D01*
X134175967Y-56237834D01*
X134267528Y-56368596D01*
X134308255Y-56426760D01*
X134311501Y-56431395D01*
X134311506Y-56431402D01*
X134478597Y-56598493D01*
X134478603Y-56598498D01*
X134664594Y-56728730D01*
X134708219Y-56783307D01*
X134715413Y-56852805D01*
X134683890Y-56915160D01*
X134664595Y-56931880D01*
X134478922Y-57061890D01*
X134478920Y-57061891D01*
X134311891Y-57228920D01*
X134311886Y-57228926D01*
X134176400Y-57422420D01*
X134176399Y-57422422D01*
X134076570Y-57636507D01*
X134076567Y-57636513D01*
X134019364Y-57849999D01*
X134019364Y-57850000D01*
X134916988Y-57850000D01*
X134884075Y-57907007D01*
X134850000Y-58034174D01*
X134850000Y-58165826D01*
X134884075Y-58292993D01*
X134916988Y-58350000D01*
X134019364Y-58350000D01*
X134076567Y-58563486D01*
X134076570Y-58563492D01*
X134176399Y-58777578D01*
X134311894Y-58971082D01*
X134478917Y-59138105D01*
X134672421Y-59273600D01*
X134886507Y-59373429D01*
X134886516Y-59373433D01*
X135100000Y-59430634D01*
X135100000Y-58533012D01*
X135157007Y-58565925D01*
X135284174Y-58600000D01*
X135415826Y-58600000D01*
X135542993Y-58565925D01*
X135600000Y-58533012D01*
X135600000Y-59430633D01*
X135813483Y-59373433D01*
X135813492Y-59373429D01*
X136027578Y-59273600D01*
X136221082Y-59138105D01*
X136388105Y-58971082D01*
X136523600Y-58777578D01*
X136623429Y-58563492D01*
X136623432Y-58563486D01*
X136680636Y-58350000D01*
X135783012Y-58350000D01*
X135815925Y-58292993D01*
X135850000Y-58165826D01*
X135850000Y-58034174D01*
X135815925Y-57907007D01*
X135783012Y-57850000D01*
X136680636Y-57850000D01*
X136680635Y-57849999D01*
X136623432Y-57636513D01*
X136623429Y-57636507D01*
X136523600Y-57422422D01*
X136523599Y-57422420D01*
X136388113Y-57228926D01*
X136388108Y-57228920D01*
X136221078Y-57061890D01*
X136035405Y-56931879D01*
X135991780Y-56877302D01*
X135984588Y-56807804D01*
X136016110Y-56745449D01*
X136035406Y-56728730D01*
X136178552Y-56628498D01*
X136221401Y-56598495D01*
X136388495Y-56431401D01*
X136524035Y-56237830D01*
X136623903Y-56023663D01*
X136685063Y-55795408D01*
X136705659Y-55560000D01*
X136685063Y-55324592D01*
X136633916Y-55133706D01*
X136623905Y-55096344D01*
X136623904Y-55096343D01*
X136623903Y-55096337D01*
X136524035Y-54882171D01*
X136498870Y-54846232D01*
X136388496Y-54688600D01*
X136333758Y-54633862D01*
X136266567Y-54566671D01*
X136233084Y-54505351D01*
X136238068Y-54435659D01*
X136279939Y-54379725D01*
X136310915Y-54362810D01*
X136442331Y-54313796D01*
X136557546Y-54227546D01*
X136643796Y-54112331D01*
X136694091Y-53977483D01*
X136700500Y-53917873D01*
X136700499Y-52122128D01*
X136694091Y-52062517D01*
X136682157Y-52030521D01*
X136643797Y-51927671D01*
X136643793Y-51927664D01*
X136557547Y-51812455D01*
X136557544Y-51812452D01*
X136442335Y-51726206D01*
X136442328Y-51726202D01*
X136307482Y-51675908D01*
X136307483Y-51675908D01*
X136247883Y-51669501D01*
X136247881Y-51669500D01*
X136247873Y-51669500D01*
X136247864Y-51669500D01*
X134452129Y-51669500D01*
X134452123Y-51669501D01*
X134392516Y-51675908D01*
X134257671Y-51726202D01*
X134257664Y-51726206D01*
X134142455Y-51812452D01*
X134142452Y-51812455D01*
X134056206Y-51927664D01*
X134056202Y-51927671D01*
X134005908Y-52062517D01*
X133999501Y-52122116D01*
X133999501Y-52122123D01*
X133999500Y-52122135D01*
X133999500Y-52325500D01*
X133979815Y-52392539D01*
X133927011Y-52438294D01*
X133875500Y-52449500D01*
X130894499Y-52449500D01*
X130827460Y-52429815D01*
X130781705Y-52377011D01*
X130770499Y-52325500D01*
X130770499Y-52152129D01*
X130770498Y-52152123D01*
X130770497Y-52152116D01*
X130764091Y-52092517D01*
X130752901Y-52062516D01*
X130713797Y-51957671D01*
X130713793Y-51957664D01*
X130627547Y-51842455D01*
X130627544Y-51842452D01*
X130512335Y-51756206D01*
X130512328Y-51756202D01*
X130377482Y-51705908D01*
X130377483Y-51705908D01*
X130317883Y-51699501D01*
X130317881Y-51699500D01*
X130317873Y-51699500D01*
X130317864Y-51699500D01*
X128522129Y-51699500D01*
X128522123Y-51699501D01*
X128462516Y-51705908D01*
X128327671Y-51756202D01*
X128327664Y-51756206D01*
X128212455Y-51842452D01*
X128212452Y-51842455D01*
X128126206Y-51957664D01*
X128126202Y-51957671D01*
X128075908Y-52092517D01*
X128069501Y-52152116D01*
X128069501Y-52152123D01*
X128069500Y-52152135D01*
X128069500Y-52325500D01*
X128049815Y-52392539D01*
X127997011Y-52438294D01*
X127945500Y-52449500D01*
X127795457Y-52449500D01*
X127637342Y-52449500D01*
X127637341Y-52449500D01*
X127629285Y-52450561D01*
X127629217Y-52450047D01*
X127609079Y-52452699D01*
X127609057Y-52452699D01*
X127450943Y-52452699D01*
X127336397Y-52483392D01*
X127298214Y-52493623D01*
X127276929Y-52505913D01*
X127276926Y-52505914D01*
X127161290Y-52572675D01*
X127161282Y-52572681D01*
X127049478Y-52684486D01*
X126433065Y-53300898D01*
X126371742Y-53334383D01*
X126359268Y-53336437D01*
X126272350Y-53346230D01*
X126102078Y-53405810D01*
X125949337Y-53501784D01*
X125821784Y-53629337D01*
X125725811Y-53782076D01*
X125666231Y-53952345D01*
X125666230Y-53952350D01*
X125646035Y-54131596D01*
X124217770Y-54131596D01*
X124160494Y-54049797D01*
X123993402Y-53882706D01*
X123993396Y-53882701D01*
X123807842Y-53752775D01*
X123764217Y-53698198D01*
X123757023Y-53628700D01*
X123788546Y-53566345D01*
X123807842Y-53549625D01*
X123894299Y-53489087D01*
X123993401Y-53419695D01*
X124160495Y-53252601D01*
X124296035Y-53059030D01*
X124395903Y-52844863D01*
X124457063Y-52616608D01*
X124477659Y-52381200D01*
X124457063Y-52145792D01*
X124398618Y-51927669D01*
X124395905Y-51917544D01*
X124395904Y-51917543D01*
X124395903Y-51917537D01*
X124380375Y-51884238D01*
X124369885Y-51815162D01*
X124398405Y-51751379D01*
X124405065Y-51744168D01*
X125528506Y-50620728D01*
X125528511Y-50620724D01*
X125538714Y-50610520D01*
X125538716Y-50610520D01*
X125650520Y-50498716D01*
X125729577Y-50361784D01*
X125770500Y-50209057D01*
X125770500Y-46088712D01*
X133689500Y-46088712D01*
X133689500Y-46331288D01*
X133721162Y-46571789D01*
X133742250Y-46650490D01*
X133783947Y-46806104D01*
X133796970Y-46837544D01*
X133876776Y-47030212D01*
X133998064Y-47240289D01*
X133998066Y-47240292D01*
X133998067Y-47240293D01*
X134145733Y-47432736D01*
X134145739Y-47432743D01*
X134317256Y-47604260D01*
X134317263Y-47604266D01*
X134405453Y-47671936D01*
X134509711Y-47751936D01*
X134719788Y-47873224D01*
X134943900Y-47966054D01*
X135178211Y-48028838D01*
X135358586Y-48052584D01*
X135418711Y-48060500D01*
X135418712Y-48060500D01*
X135661289Y-48060500D01*
X135709388Y-48054167D01*
X135901789Y-48028838D01*
X136136100Y-47966054D01*
X136360212Y-47873224D01*
X136570289Y-47751936D01*
X136762738Y-47604265D01*
X136934265Y-47432738D01*
X137081936Y-47240289D01*
X137203224Y-47030212D01*
X137296054Y-46806100D01*
X137358838Y-46571789D01*
X137390500Y-46331288D01*
X137390500Y-46088712D01*
X137358838Y-45848211D01*
X137296054Y-45613900D01*
X137203224Y-45389788D01*
X137081936Y-45179711D01*
X136941440Y-44996613D01*
X136934266Y-44987263D01*
X136934260Y-44987256D01*
X136762743Y-44815739D01*
X136762736Y-44815733D01*
X136570293Y-44668067D01*
X136570292Y-44668066D01*
X136570289Y-44668064D01*
X136360212Y-44546776D01*
X136309562Y-44525796D01*
X136136104Y-44453947D01*
X135901785Y-44391161D01*
X135661289Y-44359500D01*
X135661288Y-44359500D01*
X135418712Y-44359500D01*
X135418711Y-44359500D01*
X135178214Y-44391161D01*
X134943895Y-44453947D01*
X134719794Y-44546773D01*
X134719785Y-44546777D01*
X134509706Y-44668067D01*
X134317263Y-44815733D01*
X134317256Y-44815739D01*
X134145739Y-44987256D01*
X134145733Y-44987263D01*
X133998067Y-45179706D01*
X133876777Y-45389785D01*
X133876773Y-45389794D01*
X133783947Y-45613895D01*
X133721161Y-45848214D01*
X133700032Y-46008711D01*
X133689500Y-46088712D01*
X125770500Y-46088712D01*
X125770500Y-43895236D01*
X125790185Y-43828197D01*
X125842989Y-43782442D01*
X125912147Y-43772498D01*
X125975703Y-43801523D01*
X126006882Y-43842832D01*
X126046398Y-43927575D01*
X126046399Y-43927577D01*
X126181894Y-44121082D01*
X126348917Y-44288105D01*
X126542421Y-44423600D01*
X126756507Y-44523429D01*
X126756516Y-44523433D01*
X126970000Y-44580634D01*
X126970000Y-43683012D01*
X127027007Y-43715925D01*
X127154174Y-43750000D01*
X127285826Y-43750000D01*
X127412993Y-43715925D01*
X127470000Y-43683012D01*
X127470000Y-44580633D01*
X127683483Y-44523433D01*
X127683492Y-44523429D01*
X127897578Y-44423600D01*
X128091082Y-44288105D01*
X128258105Y-44121082D01*
X128393600Y-43927578D01*
X128493429Y-43713492D01*
X128493432Y-43713486D01*
X128550636Y-43500000D01*
X127653012Y-43500000D01*
X127685925Y-43442993D01*
X127720000Y-43315826D01*
X127720000Y-43184174D01*
X127685925Y-43057007D01*
X127653012Y-43000000D01*
X128550636Y-43000000D01*
X128550635Y-42999999D01*
X128493432Y-42786513D01*
X128493429Y-42786507D01*
X128393600Y-42572422D01*
X128393599Y-42572420D01*
X128258113Y-42378926D01*
X128258108Y-42378920D01*
X128091078Y-42211890D01*
X127905405Y-42081879D01*
X127861780Y-42027302D01*
X127854588Y-41957804D01*
X127886110Y-41895449D01*
X127905406Y-41878730D01*
X128091401Y-41748495D01*
X128258495Y-41581401D01*
X128394035Y-41387830D01*
X128493903Y-41173663D01*
X128555063Y-40945408D01*
X128575659Y-40710000D01*
X128555063Y-40474592D01*
X128501223Y-40273655D01*
X128493905Y-40246344D01*
X128493904Y-40246343D01*
X128493903Y-40246337D01*
X128394035Y-40032171D01*
X128258495Y-39838599D01*
X128258494Y-39838597D01*
X128091402Y-39671506D01*
X128091396Y-39671501D01*
X127905842Y-39541575D01*
X127862217Y-39486998D01*
X127855023Y-39417500D01*
X127886546Y-39355145D01*
X127905842Y-39338425D01*
X127928026Y-39322891D01*
X128091401Y-39208495D01*
X128258495Y-39041401D01*
X128394035Y-38847830D01*
X128493903Y-38633663D01*
X128555063Y-38405408D01*
X128575659Y-38170000D01*
X128555063Y-37934592D01*
X128501179Y-37733492D01*
X128493905Y-37706344D01*
X128493904Y-37706343D01*
X128493903Y-37706337D01*
X128394035Y-37492171D01*
X128378382Y-37469815D01*
X128258494Y-37298597D01*
X128091402Y-37131506D01*
X128091396Y-37131501D01*
X127905842Y-37001575D01*
X127862217Y-36946998D01*
X127855023Y-36877500D01*
X127886546Y-36815145D01*
X127905842Y-36798425D01*
X127946437Y-36770000D01*
X128091401Y-36668495D01*
X128258495Y-36501401D01*
X128394035Y-36307830D01*
X128493903Y-36093663D01*
X128555063Y-35865408D01*
X128575659Y-35630000D01*
X128555063Y-35394592D01*
X128493903Y-35166337D01*
X128394035Y-34952171D01*
X128258495Y-34758599D01*
X128258494Y-34758597D01*
X128091402Y-34591506D01*
X128091396Y-34591501D01*
X127905842Y-34461575D01*
X127862217Y-34406998D01*
X127855023Y-34337500D01*
X127886546Y-34275145D01*
X127905842Y-34258425D01*
X127946747Y-34229783D01*
X128091401Y-34128495D01*
X128258495Y-33961401D01*
X128394035Y-33767830D01*
X128493903Y-33553663D01*
X128555063Y-33325408D01*
X128575659Y-33090000D01*
X128555063Y-32854592D01*
X128493903Y-32626337D01*
X128394035Y-32412171D01*
X128383826Y-32397590D01*
X128258494Y-32218597D01*
X128091402Y-32051506D01*
X128091396Y-32051501D01*
X127905842Y-31921575D01*
X127862217Y-31866998D01*
X127855023Y-31797500D01*
X127886546Y-31735145D01*
X127905842Y-31718425D01*
X128023184Y-31636261D01*
X128091401Y-31588495D01*
X128258495Y-31421401D01*
X128394035Y-31227830D01*
X128493903Y-31013663D01*
X128555063Y-30785408D01*
X128575659Y-30550000D01*
X128555063Y-30314592D01*
X128520671Y-30186239D01*
X128522334Y-30116393D01*
X128552763Y-30066470D01*
X129748506Y-28870728D01*
X129748511Y-28870724D01*
X129758714Y-28860520D01*
X129758716Y-28860520D01*
X129870520Y-28748716D01*
X129949577Y-28611784D01*
X129985970Y-28475965D01*
X129990500Y-28459058D01*
X129990500Y-28300943D01*
X129990500Y-25790943D01*
X129949577Y-25638216D01*
X129949573Y-25638209D01*
X129870524Y-25501290D01*
X129870518Y-25501282D01*
X129758717Y-25389481D01*
X129758709Y-25389475D01*
X129621790Y-25310426D01*
X129621786Y-25310424D01*
X129621784Y-25310423D01*
X129469057Y-25269500D01*
X124699057Y-25269500D01*
X124540943Y-25269500D01*
X124388216Y-25310423D01*
X124388209Y-25310426D01*
X124251290Y-25389475D01*
X124251282Y-25389481D01*
X124139481Y-25501282D01*
X124139475Y-25501290D01*
X124060426Y-25638209D01*
X124060423Y-25638216D01*
X124019500Y-25790943D01*
X124019500Y-31715500D01*
X123999815Y-31782539D01*
X123947011Y-31828294D01*
X123895500Y-31839500D01*
X109760097Y-31839500D01*
X109693058Y-31819815D01*
X109672416Y-31803181D01*
X109566819Y-31697584D01*
X109533334Y-31636261D01*
X109530500Y-31609903D01*
X109530500Y-31239090D01*
X109550185Y-31172051D01*
X109602101Y-31126706D01*
X109607830Y-31124035D01*
X109801401Y-30988495D01*
X109968495Y-30821401D01*
X110098425Y-30635842D01*
X110153002Y-30592217D01*
X110222500Y-30585023D01*
X110284855Y-30616546D01*
X110301575Y-30635842D01*
X110431500Y-30821395D01*
X110431505Y-30821401D01*
X110598599Y-30988495D01*
X110695384Y-31056265D01*
X110792165Y-31124032D01*
X110792167Y-31124033D01*
X110792170Y-31124035D01*
X111006337Y-31223903D01*
X111006343Y-31223904D01*
X111006344Y-31223905D01*
X111020978Y-31227826D01*
X111234592Y-31285063D01*
X111411034Y-31300500D01*
X111469999Y-31305659D01*
X111470000Y-31305659D01*
X111470001Y-31305659D01*
X111528966Y-31300500D01*
X111705408Y-31285063D01*
X111933663Y-31223903D01*
X112147830Y-31124035D01*
X112341401Y-30988495D01*
X112508495Y-30821401D01*
X112644035Y-30627830D01*
X112743903Y-30413663D01*
X112805063Y-30185408D01*
X112825659Y-29950000D01*
X112805063Y-29714592D01*
X112746775Y-29497057D01*
X112743905Y-29486344D01*
X112743904Y-29486343D01*
X112743903Y-29486337D01*
X112644035Y-29272171D01*
X112638731Y-29264595D01*
X112508494Y-29078597D01*
X112341402Y-28911506D01*
X112341395Y-28911501D01*
X112147834Y-28775967D01*
X112147830Y-28775965D01*
X112114449Y-28760399D01*
X111933663Y-28676097D01*
X111933659Y-28676096D01*
X111933655Y-28676094D01*
X111705413Y-28614938D01*
X111705403Y-28614936D01*
X111470001Y-28594341D01*
X111469999Y-28594341D01*
X111234596Y-28614936D01*
X111234586Y-28614938D01*
X111006344Y-28676094D01*
X111006335Y-28676098D01*
X110792171Y-28775964D01*
X110792169Y-28775965D01*
X110598597Y-28911505D01*
X110431505Y-29078597D01*
X110301575Y-29264158D01*
X110246998Y-29307783D01*
X110177500Y-29314977D01*
X110115145Y-29283454D01*
X110098425Y-29264158D01*
X109968494Y-29078597D01*
X109801402Y-28911506D01*
X109801395Y-28911501D01*
X109607834Y-28775967D01*
X109607830Y-28775965D01*
X109574449Y-28760399D01*
X109393663Y-28676097D01*
X109393659Y-28676096D01*
X109393655Y-28676094D01*
X109165413Y-28614938D01*
X109165403Y-28614936D01*
X108930001Y-28594341D01*
X108929999Y-28594341D01*
X108694596Y-28614936D01*
X108694586Y-28614938D01*
X108466344Y-28676094D01*
X108466335Y-28676098D01*
X108252171Y-28775964D01*
X108252169Y-28775965D01*
X108058597Y-28911505D01*
X107891508Y-29078594D01*
X107761269Y-29264595D01*
X107706692Y-29308219D01*
X107637193Y-29315412D01*
X107574839Y-29283890D01*
X107558119Y-29264594D01*
X107428113Y-29078926D01*
X107428108Y-29078920D01*
X107261082Y-28911894D01*
X107067578Y-28776399D01*
X106853492Y-28676570D01*
X106853486Y-28676567D01*
X106640000Y-28619364D01*
X106640000Y-29516988D01*
X106582993Y-29484075D01*
X106455826Y-29450000D01*
X106324174Y-29450000D01*
X106197007Y-29484075D01*
X106140000Y-29516988D01*
X106140000Y-28619364D01*
X106139999Y-28619364D01*
X105926513Y-28676567D01*
X105926507Y-28676570D01*
X105712422Y-28776399D01*
X105712420Y-28776400D01*
X105518926Y-28911886D01*
X105396865Y-29033947D01*
X105335542Y-29067431D01*
X105265850Y-29062447D01*
X105209917Y-29020575D01*
X105193002Y-28989598D01*
X105187034Y-28973598D01*
X105148301Y-28869747D01*
X105143797Y-28857671D01*
X105143793Y-28857664D01*
X105057547Y-28742455D01*
X105057544Y-28742452D01*
X104942335Y-28656206D01*
X104942328Y-28656202D01*
X104807482Y-28605908D01*
X104807483Y-28605908D01*
X104747883Y-28599501D01*
X104747881Y-28599500D01*
X104747873Y-28599500D01*
X104747864Y-28599500D01*
X102952129Y-28599500D01*
X102952123Y-28599501D01*
X102892516Y-28605908D01*
X102757671Y-28656202D01*
X102757664Y-28656206D01*
X102642455Y-28742452D01*
X102642452Y-28742455D01*
X102556206Y-28857664D01*
X102556202Y-28857671D01*
X102505908Y-28992517D01*
X102499501Y-29052116D01*
X102499500Y-29052135D01*
X93265499Y-29052135D01*
X93265499Y-29036128D01*
X93259091Y-28976517D01*
X93258002Y-28973598D01*
X93208797Y-28841671D01*
X93208793Y-28841664D01*
X93122547Y-28726455D01*
X93122544Y-28726452D01*
X93007335Y-28640206D01*
X93007328Y-28640202D01*
X92872482Y-28589908D01*
X92872483Y-28589908D01*
X92812883Y-28583501D01*
X92812881Y-28583500D01*
X92812873Y-28583500D01*
X92812864Y-28583500D01*
X91017129Y-28583500D01*
X91017123Y-28583501D01*
X90957516Y-28589908D01*
X90822671Y-28640202D01*
X90822664Y-28640206D01*
X90707455Y-28726452D01*
X90707452Y-28726455D01*
X90621206Y-28841664D01*
X90621202Y-28841671D01*
X90571997Y-28973598D01*
X90530126Y-29029532D01*
X90464661Y-29053949D01*
X90396388Y-29039097D01*
X90368134Y-29017946D01*
X90246082Y-28895894D01*
X90052578Y-28760399D01*
X89838492Y-28660570D01*
X89838486Y-28660567D01*
X89625000Y-28603364D01*
X89625000Y-29500988D01*
X89567993Y-29468075D01*
X89440826Y-29434000D01*
X89309174Y-29434000D01*
X89182007Y-29468075D01*
X89125000Y-29500988D01*
X89125000Y-28603364D01*
X89124999Y-28603364D01*
X88911513Y-28660567D01*
X88911507Y-28660570D01*
X88697422Y-28760399D01*
X88697420Y-28760400D01*
X88503926Y-28895886D01*
X88503920Y-28895891D01*
X88336891Y-29062920D01*
X88336886Y-29062926D01*
X88201400Y-29256420D01*
X88201399Y-29256422D01*
X88101570Y-29470507D01*
X88101567Y-29470513D01*
X88044364Y-29683999D01*
X88044364Y-29684000D01*
X88941988Y-29684000D01*
X88909075Y-29741007D01*
X88875000Y-29868174D01*
X88875000Y-29999826D01*
X88909075Y-30126993D01*
X88941988Y-30184000D01*
X88044364Y-30184000D01*
X88101567Y-30397486D01*
X88101570Y-30397492D01*
X88201399Y-30611578D01*
X88336894Y-30805082D01*
X88503917Y-30972105D01*
X88697421Y-31107600D01*
X88911507Y-31207429D01*
X88911516Y-31207433D01*
X89125000Y-31264634D01*
X89125000Y-30367012D01*
X89182007Y-30399925D01*
X89309174Y-30434000D01*
X89440826Y-30434000D01*
X89567993Y-30399925D01*
X89625000Y-30367012D01*
X89625000Y-31264633D01*
X89838483Y-31207433D01*
X89838492Y-31207429D01*
X90052578Y-31107600D01*
X90246078Y-30972108D01*
X90368133Y-30850053D01*
X90429456Y-30816568D01*
X90499148Y-30821552D01*
X90555082Y-30863423D01*
X90571997Y-30894401D01*
X90621202Y-31026328D01*
X90621206Y-31026335D01*
X90707452Y-31141544D01*
X90707455Y-31141547D01*
X90822664Y-31227793D01*
X90822671Y-31227797D01*
X90852950Y-31239090D01*
X90957517Y-31278091D01*
X91017127Y-31284500D01*
X91190500Y-31284499D01*
X91257539Y-31304183D01*
X91303294Y-31356987D01*
X91314500Y-31408499D01*
X91314500Y-33918943D01*
X91314500Y-34077057D01*
X91328468Y-34129184D01*
X91355423Y-34229783D01*
X91358534Y-34237294D01*
X91356668Y-34238066D01*
X91370576Y-34295406D01*
X91347721Y-34361432D01*
X91292798Y-34404620D01*
X91246717Y-34413500D01*
X81924097Y-34413500D01*
X81857058Y-34393815D01*
X81836416Y-34377181D01*
X79287590Y-31828355D01*
X79287588Y-31828352D01*
X79168717Y-31709481D01*
X79168716Y-31709480D01*
X79081904Y-31659360D01*
X79081904Y-31659359D01*
X79081900Y-31659358D01*
X79031785Y-31630423D01*
X78879057Y-31589499D01*
X78720943Y-31589499D01*
X78713347Y-31589499D01*
X78713331Y-31589500D01*
X78489091Y-31589500D01*
X78422052Y-31569815D01*
X78376711Y-31517909D01*
X78374037Y-31512175D01*
X78374034Y-31512170D01*
X78374033Y-31512169D01*
X78301443Y-31408499D01*
X78238494Y-31318597D01*
X78071402Y-31151506D01*
X78071396Y-31151501D01*
X77885842Y-31021575D01*
X77842217Y-30966998D01*
X77835023Y-30897500D01*
X77866546Y-30835145D01*
X77885842Y-30818425D01*
X77933002Y-30785403D01*
X78071401Y-30688495D01*
X78238495Y-30521401D01*
X78374035Y-30327830D01*
X78473903Y-30113663D01*
X78535063Y-29885408D01*
X78555659Y-29650000D01*
X78553945Y-29630415D01*
X78541676Y-29490181D01*
X78535063Y-29414592D01*
X78473903Y-29186337D01*
X78374035Y-28972171D01*
X78349744Y-28937480D01*
X78238496Y-28778600D01*
X78186348Y-28726452D01*
X78116567Y-28656671D01*
X78083084Y-28595351D01*
X78088068Y-28525659D01*
X78129939Y-28469725D01*
X78160915Y-28452810D01*
X78292331Y-28403796D01*
X78407546Y-28317546D01*
X78493796Y-28202331D01*
X78544091Y-28067483D01*
X78550500Y-28007873D01*
X78550499Y-26212128D01*
X78544091Y-26152517D01*
X78493796Y-26017669D01*
X78493795Y-26017668D01*
X78493793Y-26017664D01*
X78407547Y-25902455D01*
X78407544Y-25902452D01*
X78292335Y-25816206D01*
X78292328Y-25816202D01*
X78157482Y-25765908D01*
X78157483Y-25765908D01*
X78097883Y-25759501D01*
X78097881Y-25759500D01*
X78097873Y-25759500D01*
X78097864Y-25759500D01*
X76302129Y-25759500D01*
X76302123Y-25759501D01*
X76242516Y-25765908D01*
X76107671Y-25816202D01*
X76107664Y-25816206D01*
X75992455Y-25902452D01*
X75992452Y-25902455D01*
X75906206Y-26017664D01*
X75906202Y-26017671D01*
X75855908Y-26152517D01*
X75849501Y-26212116D01*
X75849501Y-26212123D01*
X75849500Y-26212135D01*
X75849500Y-27559902D01*
X75829815Y-27626941D01*
X75813181Y-27647583D01*
X74411481Y-29049282D01*
X74411479Y-29049285D01*
X74380855Y-29102329D01*
X74380854Y-29102331D01*
X74332423Y-29186214D01*
X74332423Y-29186215D01*
X74291499Y-29338943D01*
X74291499Y-29338945D01*
X74291499Y-29507046D01*
X74291500Y-29507059D01*
X74291500Y-36257587D01*
X74271815Y-36324626D01*
X74264450Y-36334896D01*
X74262186Y-36337734D01*
X74166211Y-36490476D01*
X74106631Y-36660745D01*
X74106630Y-36660750D01*
X74086435Y-36839996D01*
X74086435Y-36840003D01*
X74106630Y-37019249D01*
X74106631Y-37019254D01*
X74166211Y-37189523D01*
X74175417Y-37204174D01*
X74262184Y-37342262D01*
X74389738Y-37469816D01*
X74542478Y-37565789D01*
X74712745Y-37625368D01*
X74712750Y-37625369D01*
X74891996Y-37645565D01*
X74892000Y-37645565D01*
X74892004Y-37645565D01*
X75071249Y-37625369D01*
X75071252Y-37625368D01*
X75071255Y-37625368D01*
X75241522Y-37565789D01*
X75394262Y-37469816D01*
X75521816Y-37342262D01*
X75617789Y-37189522D01*
X75661554Y-37064447D01*
X75702276Y-37007672D01*
X75767228Y-36981924D01*
X75835790Y-36995380D01*
X75865149Y-37020000D01*
X76766988Y-37020000D01*
X76734075Y-37077007D01*
X76700000Y-37204174D01*
X76700000Y-37335826D01*
X76734075Y-37462993D01*
X76766988Y-37520000D01*
X75869364Y-37520000D01*
X75926567Y-37733486D01*
X75926570Y-37733492D01*
X76026399Y-37947578D01*
X76161894Y-38141082D01*
X76328917Y-38308105D01*
X76514595Y-38438119D01*
X76558219Y-38492696D01*
X76565412Y-38562195D01*
X76533890Y-38624549D01*
X76514595Y-38641269D01*
X76328594Y-38771508D01*
X76161505Y-38938597D01*
X76025965Y-39132169D01*
X76025964Y-39132171D01*
X75932401Y-39332816D01*
X75927171Y-39344035D01*
X75926098Y-39346335D01*
X75926094Y-39346344D01*
X75864938Y-39574586D01*
X75864936Y-39574596D01*
X75844341Y-39809999D01*
X75844341Y-39810000D01*
X75864936Y-40045403D01*
X75864938Y-40045413D01*
X75926094Y-40273655D01*
X75926096Y-40273659D01*
X75926097Y-40273663D01*
X75995615Y-40422745D01*
X76025965Y-40487830D01*
X76025967Y-40487834D01*
X76082364Y-40568377D01*
X76104691Y-40634583D01*
X76087681Y-40702350D01*
X76036733Y-40750163D01*
X75980789Y-40763500D01*
X75954098Y-40763500D01*
X75887059Y-40743815D01*
X75866421Y-40727185D01*
X75722698Y-40583463D01*
X75689215Y-40522143D01*
X75687163Y-40509686D01*
X75677368Y-40422745D01*
X75617789Y-40252478D01*
X75521816Y-40099738D01*
X75394262Y-39972184D01*
X75241523Y-39876211D01*
X75071254Y-39816631D01*
X75071249Y-39816630D01*
X74892004Y-39796435D01*
X74891996Y-39796435D01*
X74712750Y-39816630D01*
X74712745Y-39816631D01*
X74542476Y-39876211D01*
X74389737Y-39972184D01*
X74262184Y-40099737D01*
X74166211Y-40252476D01*
X74106631Y-40422745D01*
X74106630Y-40422750D01*
X74086435Y-40601996D01*
X74086435Y-40602003D01*
X74106630Y-40781249D01*
X74106631Y-40781254D01*
X74166211Y-40951523D01*
X74262184Y-41104262D01*
X74389738Y-41231816D01*
X74542478Y-41327789D01*
X74712745Y-41387368D01*
X74799669Y-41397161D01*
X74864080Y-41424226D01*
X74873464Y-41432699D01*
X75285284Y-41844520D01*
X75285286Y-41844521D01*
X75285290Y-41844524D01*
X75373496Y-41895449D01*
X75422216Y-41923577D01*
X75574943Y-41964501D01*
X75574945Y-41964501D01*
X75740654Y-41964501D01*
X75740670Y-41964500D01*
X77768833Y-41964500D01*
X77835872Y-41984185D01*
X77881627Y-42036989D01*
X77892053Y-42102383D01*
X77884435Y-42169996D01*
X77884435Y-42170003D01*
X77904630Y-42349249D01*
X77904631Y-42349254D01*
X77964211Y-42519523D01*
X78049575Y-42655378D01*
X78060184Y-42672262D01*
X78187738Y-42799816D01*
X78340478Y-42895789D01*
X78510745Y-42955368D01*
X78510749Y-42955368D01*
X78513090Y-42955903D01*
X78514453Y-42956665D01*
X78517318Y-42957668D01*
X78517142Y-42958169D01*
X78574069Y-42990011D01*
X78606928Y-43051671D01*
X78609500Y-43076795D01*
X78609500Y-56124901D01*
X78589815Y-56191940D01*
X78537011Y-56237695D01*
X78467853Y-56247639D01*
X78404297Y-56218614D01*
X78397819Y-56212582D01*
X78304397Y-56119160D01*
X78304374Y-56119139D01*
X76786818Y-54601583D01*
X76753333Y-54540260D01*
X76750499Y-54513902D01*
X76750499Y-53166129D01*
X76750498Y-53166123D01*
X76750497Y-53166116D01*
X76744091Y-53106517D01*
X76741502Y-53099576D01*
X76693797Y-52971671D01*
X76693793Y-52971664D01*
X76607547Y-52856455D01*
X76607544Y-52856452D01*
X76492335Y-52770206D01*
X76492328Y-52770202D01*
X76357482Y-52719908D01*
X76357483Y-52719908D01*
X76297883Y-52713501D01*
X76297881Y-52713500D01*
X76297873Y-52713500D01*
X76297864Y-52713500D01*
X74502129Y-52713500D01*
X74502123Y-52713501D01*
X74442516Y-52719908D01*
X74307671Y-52770202D01*
X74307664Y-52770206D01*
X74192455Y-52856452D01*
X74192452Y-52856455D01*
X74106206Y-52971664D01*
X74106202Y-52971671D01*
X74055908Y-53106517D01*
X74052255Y-53140499D01*
X74049501Y-53166123D01*
X74049500Y-53166135D01*
X74049500Y-54961870D01*
X74049501Y-54961876D01*
X74055908Y-55021483D01*
X74106202Y-55156328D01*
X74106206Y-55156335D01*
X74192452Y-55271544D01*
X74192455Y-55271547D01*
X74307664Y-55357793D01*
X74307671Y-55357797D01*
X74439081Y-55406810D01*
X74495015Y-55448681D01*
X74519432Y-55514145D01*
X74504580Y-55582418D01*
X74483430Y-55610673D01*
X74361503Y-55732600D01*
X74225965Y-55926169D01*
X74225964Y-55926171D01*
X74126098Y-56140335D01*
X74126094Y-56140344D01*
X74064938Y-56368586D01*
X74064936Y-56368596D01*
X74044341Y-56603999D01*
X70312500Y-56603999D01*
X70312500Y-46008711D01*
X72529500Y-46008711D01*
X72529500Y-46251288D01*
X72561161Y-46491785D01*
X72623947Y-46726104D01*
X72716773Y-46950205D01*
X72716776Y-46950212D01*
X72838064Y-47160289D01*
X72838066Y-47160292D01*
X72838067Y-47160293D01*
X72985733Y-47352736D01*
X72985739Y-47352743D01*
X73157256Y-47524260D01*
X73157263Y-47524266D01*
X73173354Y-47536613D01*
X73349711Y-47671936D01*
X73559788Y-47793224D01*
X73783900Y-47886054D01*
X74018211Y-47948838D01*
X74198586Y-47972584D01*
X74258711Y-47980500D01*
X74258712Y-47980500D01*
X74501289Y-47980500D01*
X74549388Y-47974167D01*
X74741789Y-47948838D01*
X74976100Y-47886054D01*
X75200212Y-47793224D01*
X75410289Y-47671936D01*
X75602738Y-47524265D01*
X75774265Y-47352738D01*
X75921936Y-47160289D01*
X76043224Y-46950212D01*
X76136054Y-46726100D01*
X76198838Y-46491789D01*
X76230500Y-46251288D01*
X76230500Y-46008712D01*
X76230498Y-46008700D01*
X76202983Y-45799695D01*
X76198838Y-45768211D01*
X76136054Y-45533900D01*
X76043224Y-45309788D01*
X75921936Y-45099711D01*
X75842826Y-44996613D01*
X75774266Y-44907263D01*
X75774260Y-44907256D01*
X75602743Y-44735739D01*
X75602736Y-44735733D01*
X75410293Y-44588067D01*
X75410292Y-44588066D01*
X75410289Y-44588064D01*
X75200212Y-44466776D01*
X75169238Y-44453946D01*
X74976104Y-44373947D01*
X74741785Y-44311161D01*
X74501289Y-44279500D01*
X74501288Y-44279500D01*
X74258712Y-44279500D01*
X74258711Y-44279500D01*
X74018214Y-44311161D01*
X73783895Y-44373947D01*
X73559794Y-44466773D01*
X73559785Y-44466777D01*
X73349706Y-44588067D01*
X73157263Y-44735733D01*
X73157256Y-44735739D01*
X72985739Y-44907256D01*
X72985733Y-44907263D01*
X72838067Y-45099706D01*
X72716777Y-45309785D01*
X72716773Y-45309794D01*
X72623947Y-45533895D01*
X72561161Y-45768214D01*
X72529500Y-46008711D01*
X70312500Y-46008711D01*
X70312500Y-24970500D01*
X70332185Y-24903461D01*
X70384989Y-24857706D01*
X70436500Y-24846500D01*
X139545500Y-24846500D01*
X139612539Y-24866185D01*
G37*
%TD.AperFunction*%
%TD*%
M02*
