%TF.GenerationSoftware,KiCad,Pcbnew,8.0.6*%
%TF.CreationDate,2025-01-23T10:33:56+01:00*%
%TF.ProjectId,Pcb pami 2025,50636220-7061-46d6-9920-323032352e6b,rev?*%
%TF.SameCoordinates,Original*%
%TF.FileFunction,Drillmap*%
%TF.FilePolarity,Positive*%
%FSLAX45Y45*%
G04 Gerber Fmt 4.5, Leading zero omitted, Abs format (unit mm)*
G04 Created by KiCad (PCBNEW 8.0.6) date 2025-01-23 10:33:56*
%MOMM*%
%LPD*%
G01*
G04 APERTURE LIST*
%ADD10C,0.050000*%
%ADD11C,0.200000*%
%ADD12C,0.100000*%
G04 APERTURE END LIST*
D10*
X14017000Y-8149600D02*
X11705600Y-10080000D01*
X9241800Y-10080000D01*
X6981200Y-8149600D01*
X6981200Y-2434600D01*
X14017000Y-2434600D01*
X14017000Y-8149600D01*
D11*
D12*
X7474200Y-3669000D02*
X7504200Y-3699000D01*
X7504200Y-3669000D02*
X7474200Y-3699000D01*
X7474200Y-4045200D02*
X7504200Y-4075200D01*
X7504200Y-4045200D02*
X7474200Y-4075200D01*
X7854000Y-4202000D02*
X7884000Y-4232000D01*
X7884000Y-4202000D02*
X7854000Y-4232000D01*
X7886000Y-7017000D02*
X7916000Y-7047000D01*
X7916000Y-7017000D02*
X7886000Y-7047000D01*
X7958000Y-6940800D02*
X7988000Y-6970800D01*
X7988000Y-6940800D02*
X7958000Y-6970800D01*
X9403000Y-6940800D02*
X9433000Y-6970800D01*
X9433000Y-6940800D02*
X9403000Y-6970800D01*
X9557000Y-7017000D02*
X9587000Y-7047000D01*
X9587000Y-7017000D02*
X9557000Y-7047000D01*
X12480160Y-5548160D02*
X12510160Y-5578160D01*
X12510160Y-5548160D02*
X12480160Y-5578160D01*
X12507000Y-2982000D02*
X12537000Y-3012000D01*
X12537000Y-2982000D02*
X12507000Y-3012000D01*
X12630160Y-5398160D02*
X12660160Y-5428160D01*
X12660160Y-5398160D02*
X12630160Y-5428160D01*
X7590000Y-5406400D02*
G75*
G02*
X7490000Y-5406400I-50000J0D01*
G01*
X7490000Y-5406400D02*
G75*
G02*
X7590000Y-5406400I50000J0D01*
G01*
X7590000Y-5660400D02*
G75*
G02*
X7490000Y-5660400I-50000J0D01*
G01*
X7490000Y-5660400D02*
G75*
G02*
X7590000Y-5660400I50000J0D01*
G01*
X7590000Y-5914400D02*
G75*
G02*
X7490000Y-5914400I-50000J0D01*
G01*
X7490000Y-5914400D02*
G75*
G02*
X7590000Y-5914400I50000J0D01*
G01*
X7590000Y-6168400D02*
G75*
G02*
X7490000Y-6168400I-50000J0D01*
G01*
X7490000Y-6168400D02*
G75*
G02*
X7590000Y-6168400I50000J0D01*
G01*
X7590000Y-6422400D02*
G75*
G02*
X7490000Y-6422400I-50000J0D01*
G01*
X7490000Y-6422400D02*
G75*
G02*
X7590000Y-6422400I50000J0D01*
G01*
X7590000Y-6676400D02*
G75*
G02*
X7490000Y-6676400I-50000J0D01*
G01*
X7490000Y-6676400D02*
G75*
G02*
X7590000Y-6676400I50000J0D01*
G01*
X7770000Y-2711000D02*
G75*
G02*
X7670000Y-2711000I-50000J0D01*
G01*
X7670000Y-2711000D02*
G75*
G02*
X7770000Y-2711000I50000J0D01*
G01*
X7770000Y-2965000D02*
G75*
G02*
X7670000Y-2965000I-50000J0D01*
G01*
X7670000Y-2965000D02*
G75*
G02*
X7770000Y-2965000I50000J0D01*
G01*
X7770000Y-3219000D02*
G75*
G02*
X7670000Y-3219000I-50000J0D01*
G01*
X7670000Y-3219000D02*
G75*
G02*
X7770000Y-3219000I50000J0D01*
G01*
X7770000Y-3473000D02*
G75*
G02*
X7670000Y-3473000I-50000J0D01*
G01*
X7670000Y-3473000D02*
G75*
G02*
X7770000Y-3473000I50000J0D01*
G01*
X7770000Y-3727000D02*
G75*
G02*
X7670000Y-3727000I-50000J0D01*
G01*
X7670000Y-3727000D02*
G75*
G02*
X7770000Y-3727000I50000J0D01*
G01*
X7770000Y-3981000D02*
G75*
G02*
X7670000Y-3981000I-50000J0D01*
G01*
X7670000Y-3981000D02*
G75*
G02*
X7770000Y-3981000I50000J0D01*
G01*
X7935000Y-7450500D02*
G75*
G02*
X7835000Y-7450500I-50000J0D01*
G01*
X7835000Y-7450500D02*
G75*
G02*
X7935000Y-7450500I50000J0D01*
G01*
X7935000Y-7704500D02*
G75*
G02*
X7835000Y-7704500I-50000J0D01*
G01*
X7835000Y-7704500D02*
G75*
G02*
X7935000Y-7704500I50000J0D01*
G01*
X8198600Y-4944200D02*
G75*
G02*
X8098600Y-4944200I-50000J0D01*
G01*
X8098600Y-4944200D02*
G75*
G02*
X8198600Y-4944200I50000J0D01*
G01*
X8198600Y-5198200D02*
G75*
G02*
X8098600Y-5198200I-50000J0D01*
G01*
X8098600Y-5198200D02*
G75*
G02*
X8198600Y-5198200I50000J0D01*
G01*
X8198600Y-5452200D02*
G75*
G02*
X8098600Y-5452200I-50000J0D01*
G01*
X8098600Y-5452200D02*
G75*
G02*
X8198600Y-5452200I50000J0D01*
G01*
X8198600Y-5706200D02*
G75*
G02*
X8098600Y-5706200I-50000J0D01*
G01*
X8098600Y-5706200D02*
G75*
G02*
X8198600Y-5706200I50000J0D01*
G01*
X8198600Y-5960200D02*
G75*
G02*
X8098600Y-5960200I-50000J0D01*
G01*
X8098600Y-5960200D02*
G75*
G02*
X8198600Y-5960200I50000J0D01*
G01*
X8198600Y-6214200D02*
G75*
G02*
X8098600Y-6214200I-50000J0D01*
G01*
X8098600Y-6214200D02*
G75*
G02*
X8198600Y-6214200I50000J0D01*
G01*
X8198600Y-6468200D02*
G75*
G02*
X8098600Y-6468200I-50000J0D01*
G01*
X8098600Y-6468200D02*
G75*
G02*
X8198600Y-6468200I50000J0D01*
G01*
X8198600Y-6722200D02*
G75*
G02*
X8098600Y-6722200I-50000J0D01*
G01*
X8098600Y-6722200D02*
G75*
G02*
X8198600Y-6722200I50000J0D01*
G01*
X8758400Y-8505200D02*
G75*
G02*
X8658400Y-8505200I-50000J0D01*
G01*
X8658400Y-8505200D02*
G75*
G02*
X8758400Y-8505200I50000J0D01*
G01*
X8987500Y-2993400D02*
G75*
G02*
X8887500Y-2993400I-50000J0D01*
G01*
X8887500Y-2993400D02*
G75*
G02*
X8987500Y-2993400I50000J0D01*
G01*
X9012400Y-8505200D02*
G75*
G02*
X8912400Y-8505200I-50000J0D01*
G01*
X8912400Y-8505200D02*
G75*
G02*
X9012400Y-8505200I50000J0D01*
G01*
X9164800Y-9419600D02*
G75*
G02*
X9064800Y-9419600I-50000J0D01*
G01*
X9064800Y-9419600D02*
G75*
G02*
X9164800Y-9419600I50000J0D01*
G01*
X9216600Y-4949200D02*
G75*
G02*
X9116600Y-4949200I-50000J0D01*
G01*
X9116600Y-4949200D02*
G75*
G02*
X9216600Y-4949200I50000J0D01*
G01*
X9216600Y-5203200D02*
G75*
G02*
X9116600Y-5203200I-50000J0D01*
G01*
X9116600Y-5203200D02*
G75*
G02*
X9216600Y-5203200I50000J0D01*
G01*
X9216600Y-5457200D02*
G75*
G02*
X9116600Y-5457200I-50000J0D01*
G01*
X9116600Y-5457200D02*
G75*
G02*
X9216600Y-5457200I50000J0D01*
G01*
X9216600Y-5711200D02*
G75*
G02*
X9116600Y-5711200I-50000J0D01*
G01*
X9116600Y-5711200D02*
G75*
G02*
X9216600Y-5711200I50000J0D01*
G01*
X9216600Y-5965200D02*
G75*
G02*
X9116600Y-5965200I-50000J0D01*
G01*
X9116600Y-5965200D02*
G75*
G02*
X9216600Y-5965200I50000J0D01*
G01*
X9216600Y-6219200D02*
G75*
G02*
X9116600Y-6219200I-50000J0D01*
G01*
X9116600Y-6219200D02*
G75*
G02*
X9216600Y-6219200I50000J0D01*
G01*
X9216600Y-6473200D02*
G75*
G02*
X9116600Y-6473200I-50000J0D01*
G01*
X9116600Y-6473200D02*
G75*
G02*
X9216600Y-6473200I50000J0D01*
G01*
X9216600Y-6727200D02*
G75*
G02*
X9116600Y-6727200I-50000J0D01*
G01*
X9116600Y-6727200D02*
G75*
G02*
X9216600Y-6727200I50000J0D01*
G01*
X9241500Y-2993400D02*
G75*
G02*
X9141500Y-2993400I-50000J0D01*
G01*
X9141500Y-2993400D02*
G75*
G02*
X9241500Y-2993400I50000J0D01*
G01*
X9266400Y-8505200D02*
G75*
G02*
X9166400Y-8505200I-50000J0D01*
G01*
X9166400Y-8505200D02*
G75*
G02*
X9266400Y-8505200I50000J0D01*
G01*
X9418800Y-9419600D02*
G75*
G02*
X9318800Y-9419600I-50000J0D01*
G01*
X9318800Y-9419600D02*
G75*
G02*
X9418800Y-9419600I50000J0D01*
G01*
X9812200Y-4222120D02*
G75*
G02*
X9712200Y-4222120I-50000J0D01*
G01*
X9712200Y-4222120D02*
G75*
G02*
X9812200Y-4222120I50000J0D01*
G01*
X9812200Y-4476120D02*
G75*
G02*
X9712200Y-4476120I-50000J0D01*
G01*
X9712200Y-4476120D02*
G75*
G02*
X9812200Y-4476120I50000J0D01*
G01*
X9812200Y-4730120D02*
G75*
G02*
X9712200Y-4730120I-50000J0D01*
G01*
X9712200Y-4730120D02*
G75*
G02*
X9812200Y-4730120I50000J0D01*
G01*
X9812200Y-4984120D02*
G75*
G02*
X9712200Y-4984120I-50000J0D01*
G01*
X9712200Y-4984120D02*
G75*
G02*
X9812200Y-4984120I50000J0D01*
G01*
X9812200Y-5238120D02*
G75*
G02*
X9712200Y-5238120I-50000J0D01*
G01*
X9712200Y-5238120D02*
G75*
G02*
X9812200Y-5238120I50000J0D01*
G01*
X9812200Y-5492120D02*
G75*
G02*
X9712200Y-5492120I-50000J0D01*
G01*
X9712200Y-5492120D02*
G75*
G02*
X9812200Y-5492120I50000J0D01*
G01*
X9812200Y-5746120D02*
G75*
G02*
X9712200Y-5746120I-50000J0D01*
G01*
X9712200Y-5746120D02*
G75*
G02*
X9812200Y-5746120I50000J0D01*
G01*
X9812200Y-6000120D02*
G75*
G02*
X9712200Y-6000120I-50000J0D01*
G01*
X9712200Y-6000120D02*
G75*
G02*
X9812200Y-6000120I50000J0D01*
G01*
X9812200Y-6254120D02*
G75*
G02*
X9712200Y-6254120I-50000J0D01*
G01*
X9712200Y-6254120D02*
G75*
G02*
X9812200Y-6254120I50000J0D01*
G01*
X9812200Y-6508120D02*
G75*
G02*
X9712200Y-6508120I-50000J0D01*
G01*
X9712200Y-6508120D02*
G75*
G02*
X9812200Y-6508120I50000J0D01*
G01*
X9812200Y-6762120D02*
G75*
G02*
X9712200Y-6762120I-50000J0D01*
G01*
X9712200Y-6762120D02*
G75*
G02*
X9812200Y-6762120I50000J0D01*
G01*
X9812200Y-7016120D02*
G75*
G02*
X9712200Y-7016120I-50000J0D01*
G01*
X9712200Y-7016120D02*
G75*
G02*
X9812200Y-7016120I50000J0D01*
G01*
X9812200Y-7270120D02*
G75*
G02*
X9712200Y-7270120I-50000J0D01*
G01*
X9712200Y-7270120D02*
G75*
G02*
X9812200Y-7270120I50000J0D01*
G01*
X9812200Y-7524120D02*
G75*
G02*
X9712200Y-7524120I-50000J0D01*
G01*
X9712200Y-7524120D02*
G75*
G02*
X9812200Y-7524120I50000J0D01*
G01*
X9812200Y-7778120D02*
G75*
G02*
X9712200Y-7778120I-50000J0D01*
G01*
X9712200Y-7778120D02*
G75*
G02*
X9812200Y-7778120I50000J0D01*
G01*
X10435000Y-2995000D02*
G75*
G02*
X10335000Y-2995000I-50000J0D01*
G01*
X10335000Y-2995000D02*
G75*
G02*
X10435000Y-2995000I50000J0D01*
G01*
X10689000Y-2995000D02*
G75*
G02*
X10589000Y-2995000I-50000J0D01*
G01*
X10589000Y-2995000D02*
G75*
G02*
X10689000Y-2995000I50000J0D01*
G01*
X10943000Y-2995000D02*
G75*
G02*
X10843000Y-2995000I-50000J0D01*
G01*
X10843000Y-2995000D02*
G75*
G02*
X10943000Y-2995000I50000J0D01*
G01*
X11197000Y-2995000D02*
G75*
G02*
X11097000Y-2995000I-50000J0D01*
G01*
X11097000Y-2995000D02*
G75*
G02*
X11197000Y-2995000I50000J0D01*
G01*
X12362200Y-4222120D02*
G75*
G02*
X12262200Y-4222120I-50000J0D01*
G01*
X12262200Y-4222120D02*
G75*
G02*
X12362200Y-4222120I50000J0D01*
G01*
X12362200Y-4476120D02*
G75*
G02*
X12262200Y-4476120I-50000J0D01*
G01*
X12262200Y-4476120D02*
G75*
G02*
X12362200Y-4476120I50000J0D01*
G01*
X12362200Y-4730120D02*
G75*
G02*
X12262200Y-4730120I-50000J0D01*
G01*
X12262200Y-4730120D02*
G75*
G02*
X12362200Y-4730120I50000J0D01*
G01*
X12362200Y-4984120D02*
G75*
G02*
X12262200Y-4984120I-50000J0D01*
G01*
X12262200Y-4984120D02*
G75*
G02*
X12362200Y-4984120I50000J0D01*
G01*
X12362200Y-5238120D02*
G75*
G02*
X12262200Y-5238120I-50000J0D01*
G01*
X12262200Y-5238120D02*
G75*
G02*
X12362200Y-5238120I50000J0D01*
G01*
X12362200Y-5492120D02*
G75*
G02*
X12262200Y-5492120I-50000J0D01*
G01*
X12262200Y-5492120D02*
G75*
G02*
X12362200Y-5492120I50000J0D01*
G01*
X12362200Y-5746120D02*
G75*
G02*
X12262200Y-5746120I-50000J0D01*
G01*
X12262200Y-5746120D02*
G75*
G02*
X12362200Y-5746120I50000J0D01*
G01*
X12362200Y-6000120D02*
G75*
G02*
X12262200Y-6000120I-50000J0D01*
G01*
X12262200Y-6000120D02*
G75*
G02*
X12362200Y-6000120I50000J0D01*
G01*
X12362200Y-6254120D02*
G75*
G02*
X12262200Y-6254120I-50000J0D01*
G01*
X12262200Y-6254120D02*
G75*
G02*
X12362200Y-6254120I50000J0D01*
G01*
X12362200Y-6508120D02*
G75*
G02*
X12262200Y-6508120I-50000J0D01*
G01*
X12262200Y-6508120D02*
G75*
G02*
X12362200Y-6508120I50000J0D01*
G01*
X12362200Y-6762120D02*
G75*
G02*
X12262200Y-6762120I-50000J0D01*
G01*
X12262200Y-6762120D02*
G75*
G02*
X12362200Y-6762120I50000J0D01*
G01*
X12362200Y-7016120D02*
G75*
G02*
X12262200Y-7016120I-50000J0D01*
G01*
X12262200Y-7016120D02*
G75*
G02*
X12362200Y-7016120I50000J0D01*
G01*
X12362200Y-7270120D02*
G75*
G02*
X12262200Y-7270120I-50000J0D01*
G01*
X12262200Y-7270120D02*
G75*
G02*
X12362200Y-7270120I50000J0D01*
G01*
X12362200Y-7524120D02*
G75*
G02*
X12262200Y-7524120I-50000J0D01*
G01*
X12262200Y-7524120D02*
G75*
G02*
X12362200Y-7524120I50000J0D01*
G01*
X12362200Y-7778120D02*
G75*
G02*
X12262200Y-7778120I-50000J0D01*
G01*
X12262200Y-7778120D02*
G75*
G02*
X12362200Y-7778120I50000J0D01*
G01*
X12772000Y-2801000D02*
G75*
G02*
X12672000Y-2801000I-50000J0D01*
G01*
X12672000Y-2801000D02*
G75*
G02*
X12772000Y-2801000I50000J0D01*
G01*
X12772000Y-3055000D02*
G75*
G02*
X12672000Y-3055000I-50000J0D01*
G01*
X12672000Y-3055000D02*
G75*
G02*
X12772000Y-3055000I50000J0D01*
G01*
X12772000Y-3309000D02*
G75*
G02*
X12672000Y-3309000I-50000J0D01*
G01*
X12672000Y-3309000D02*
G75*
G02*
X12772000Y-3309000I50000J0D01*
G01*
X12772000Y-3563000D02*
G75*
G02*
X12672000Y-3563000I-50000J0D01*
G01*
X12672000Y-3563000D02*
G75*
G02*
X12772000Y-3563000I50000J0D01*
G01*
X12772000Y-3817000D02*
G75*
G02*
X12672000Y-3817000I-50000J0D01*
G01*
X12672000Y-3817000D02*
G75*
G02*
X12772000Y-3817000I50000J0D01*
G01*
X12772000Y-4071000D02*
G75*
G02*
X12672000Y-4071000I-50000J0D01*
G01*
X12672000Y-4071000D02*
G75*
G02*
X12772000Y-4071000I50000J0D01*
G01*
X12772000Y-4325000D02*
G75*
G02*
X12672000Y-4325000I-50000J0D01*
G01*
X12672000Y-4325000D02*
G75*
G02*
X12772000Y-4325000I50000J0D01*
G01*
X12992000Y-5305000D02*
G75*
G02*
X12892000Y-5305000I-50000J0D01*
G01*
X12892000Y-5305000D02*
G75*
G02*
X12992000Y-5305000I50000J0D01*
G01*
X12992000Y-5559000D02*
G75*
G02*
X12892000Y-5559000I-50000J0D01*
G01*
X12892000Y-5559000D02*
G75*
G02*
X12992000Y-5559000I50000J0D01*
G01*
X12992000Y-5813000D02*
G75*
G02*
X12892000Y-5813000I-50000J0D01*
G01*
X12892000Y-5813000D02*
G75*
G02*
X12992000Y-5813000I50000J0D01*
G01*
X13026000Y-7847000D02*
G75*
G02*
X12926000Y-7847000I-50000J0D01*
G01*
X12926000Y-7847000D02*
G75*
G02*
X13026000Y-7847000I50000J0D01*
G01*
X13026000Y-8101000D02*
G75*
G02*
X12926000Y-8101000I-50000J0D01*
G01*
X12926000Y-8101000D02*
G75*
G02*
X13026000Y-8101000I50000J0D01*
G01*
X13026000Y-8355000D02*
G75*
G02*
X12926000Y-8355000I-50000J0D01*
G01*
X12926000Y-8355000D02*
G75*
G02*
X13026000Y-8355000I50000J0D01*
G01*
X13026000Y-8609000D02*
G75*
G02*
X12926000Y-8609000I-50000J0D01*
G01*
X12926000Y-8609000D02*
G75*
G02*
X13026000Y-8609000I50000J0D01*
G01*
X13047000Y-6440000D02*
G75*
G02*
X12947000Y-6440000I-50000J0D01*
G01*
X12947000Y-6440000D02*
G75*
G02*
X13047000Y-6440000I50000J0D01*
G01*
X13047000Y-6694000D02*
G75*
G02*
X12947000Y-6694000I-50000J0D01*
G01*
X12947000Y-6694000D02*
G75*
G02*
X13047000Y-6694000I50000J0D01*
G01*
X13047000Y-6948000D02*
G75*
G02*
X12947000Y-6948000I-50000J0D01*
G01*
X12947000Y-6948000D02*
G75*
G02*
X13047000Y-6948000I50000J0D01*
G01*
X13405000Y-7497000D02*
G75*
G02*
X13305000Y-7497000I-50000J0D01*
G01*
X13305000Y-7497000D02*
G75*
G02*
X13405000Y-7497000I50000J0D01*
G01*
X13405000Y-7751000D02*
G75*
G02*
X13305000Y-7751000I-50000J0D01*
G01*
X13305000Y-7751000D02*
G75*
G02*
X13405000Y-7751000I50000J0D01*
G01*
X13405000Y-8005000D02*
G75*
G02*
X13305000Y-8005000I-50000J0D01*
G01*
X13305000Y-8005000D02*
G75*
G02*
X13405000Y-8005000I50000J0D01*
G01*
X13405000Y-8259000D02*
G75*
G02*
X13305000Y-8259000I-50000J0D01*
G01*
X13305000Y-8259000D02*
G75*
G02*
X13405000Y-8259000I50000J0D01*
G01*
X13585000Y-5302000D02*
G75*
G02*
X13485000Y-5302000I-50000J0D01*
G01*
X13485000Y-5302000D02*
G75*
G02*
X13585000Y-5302000I50000J0D01*
G01*
X13585000Y-5556000D02*
G75*
G02*
X13485000Y-5556000I-50000J0D01*
G01*
X13485000Y-5556000D02*
G75*
G02*
X13585000Y-5556000I50000J0D01*
G01*
X13585000Y-5810000D02*
G75*
G02*
X13485000Y-5810000I-50000J0D01*
G01*
X13485000Y-5810000D02*
G75*
G02*
X13585000Y-5810000I50000J0D01*
G01*
X13648000Y-6429000D02*
G75*
G02*
X13548000Y-6429000I-50000J0D01*
G01*
X13548000Y-6429000D02*
G75*
G02*
X13648000Y-6429000I50000J0D01*
G01*
X13648000Y-6683000D02*
G75*
G02*
X13548000Y-6683000I-50000J0D01*
G01*
X13548000Y-6683000D02*
G75*
G02*
X13648000Y-6683000I50000J0D01*
G01*
X13648000Y-6937000D02*
G75*
G02*
X13548000Y-6937000I-50000J0D01*
G01*
X13548000Y-6937000D02*
G75*
G02*
X13648000Y-6937000I50000J0D01*
G01*
D11*
X7239477Y-10393984D02*
X7239477Y-10193984D01*
X7239477Y-10193984D02*
X7287096Y-10193984D01*
X7287096Y-10193984D02*
X7315667Y-10203508D01*
X7315667Y-10203508D02*
X7334715Y-10222555D01*
X7334715Y-10222555D02*
X7344239Y-10241603D01*
X7344239Y-10241603D02*
X7353762Y-10279698D01*
X7353762Y-10279698D02*
X7353762Y-10308270D01*
X7353762Y-10308270D02*
X7344239Y-10346365D01*
X7344239Y-10346365D02*
X7334715Y-10365412D01*
X7334715Y-10365412D02*
X7315667Y-10384460D01*
X7315667Y-10384460D02*
X7287096Y-10393984D01*
X7287096Y-10393984D02*
X7239477Y-10393984D01*
X7439477Y-10393984D02*
X7439477Y-10260650D01*
X7439477Y-10298746D02*
X7449001Y-10279698D01*
X7449001Y-10279698D02*
X7458524Y-10270174D01*
X7458524Y-10270174D02*
X7477572Y-10260650D01*
X7477572Y-10260650D02*
X7496620Y-10260650D01*
X7563286Y-10393984D02*
X7563286Y-10260650D01*
X7563286Y-10193984D02*
X7553762Y-10203508D01*
X7553762Y-10203508D02*
X7563286Y-10213031D01*
X7563286Y-10213031D02*
X7572810Y-10203508D01*
X7572810Y-10203508D02*
X7563286Y-10193984D01*
X7563286Y-10193984D02*
X7563286Y-10213031D01*
X7687096Y-10393984D02*
X7668048Y-10384460D01*
X7668048Y-10384460D02*
X7658524Y-10365412D01*
X7658524Y-10365412D02*
X7658524Y-10193984D01*
X7791858Y-10393984D02*
X7772810Y-10384460D01*
X7772810Y-10384460D02*
X7763286Y-10365412D01*
X7763286Y-10365412D02*
X7763286Y-10193984D01*
X8020429Y-10393984D02*
X8020429Y-10193984D01*
X8020429Y-10193984D02*
X8087096Y-10336841D01*
X8087096Y-10336841D02*
X8153762Y-10193984D01*
X8153762Y-10193984D02*
X8153762Y-10393984D01*
X8334715Y-10393984D02*
X8334715Y-10289222D01*
X8334715Y-10289222D02*
X8325191Y-10270174D01*
X8325191Y-10270174D02*
X8306143Y-10260650D01*
X8306143Y-10260650D02*
X8268048Y-10260650D01*
X8268048Y-10260650D02*
X8249001Y-10270174D01*
X8334715Y-10384460D02*
X8315667Y-10393984D01*
X8315667Y-10393984D02*
X8268048Y-10393984D01*
X8268048Y-10393984D02*
X8249001Y-10384460D01*
X8249001Y-10384460D02*
X8239477Y-10365412D01*
X8239477Y-10365412D02*
X8239477Y-10346365D01*
X8239477Y-10346365D02*
X8249001Y-10327317D01*
X8249001Y-10327317D02*
X8268048Y-10317793D01*
X8268048Y-10317793D02*
X8315667Y-10317793D01*
X8315667Y-10317793D02*
X8334715Y-10308270D01*
X8429953Y-10260650D02*
X8429953Y-10460650D01*
X8429953Y-10270174D02*
X8449001Y-10260650D01*
X8449001Y-10260650D02*
X8487096Y-10260650D01*
X8487096Y-10260650D02*
X8506144Y-10270174D01*
X8506144Y-10270174D02*
X8515667Y-10279698D01*
X8515667Y-10279698D02*
X8525191Y-10298746D01*
X8525191Y-10298746D02*
X8525191Y-10355889D01*
X8525191Y-10355889D02*
X8515667Y-10374936D01*
X8515667Y-10374936D02*
X8506144Y-10384460D01*
X8506144Y-10384460D02*
X8487096Y-10393984D01*
X8487096Y-10393984D02*
X8449001Y-10393984D01*
X8449001Y-10393984D02*
X8429953Y-10384460D01*
X8610905Y-10374936D02*
X8620429Y-10384460D01*
X8620429Y-10384460D02*
X8610905Y-10393984D01*
X8610905Y-10393984D02*
X8601382Y-10384460D01*
X8601382Y-10384460D02*
X8610905Y-10374936D01*
X8610905Y-10374936D02*
X8610905Y-10393984D01*
X8610905Y-10270174D02*
X8620429Y-10279698D01*
X8620429Y-10279698D02*
X8610905Y-10289222D01*
X8610905Y-10289222D02*
X8601382Y-10279698D01*
X8601382Y-10279698D02*
X8610905Y-10270174D01*
X8610905Y-10270174D02*
X8610905Y-10289222D01*
D12*
X6948700Y-10707500D02*
X6978700Y-10737500D01*
X6978700Y-10707500D02*
X6948700Y-10737500D01*
D11*
X7277572Y-10613984D02*
X7296620Y-10613984D01*
X7296620Y-10613984D02*
X7315667Y-10623508D01*
X7315667Y-10623508D02*
X7325191Y-10633031D01*
X7325191Y-10633031D02*
X7334715Y-10652079D01*
X7334715Y-10652079D02*
X7344239Y-10690174D01*
X7344239Y-10690174D02*
X7344239Y-10737793D01*
X7344239Y-10737793D02*
X7334715Y-10775889D01*
X7334715Y-10775889D02*
X7325191Y-10794936D01*
X7325191Y-10794936D02*
X7315667Y-10804460D01*
X7315667Y-10804460D02*
X7296620Y-10813984D01*
X7296620Y-10813984D02*
X7277572Y-10813984D01*
X7277572Y-10813984D02*
X7258524Y-10804460D01*
X7258524Y-10804460D02*
X7249001Y-10794936D01*
X7249001Y-10794936D02*
X7239477Y-10775889D01*
X7239477Y-10775889D02*
X7229953Y-10737793D01*
X7229953Y-10737793D02*
X7229953Y-10690174D01*
X7229953Y-10690174D02*
X7239477Y-10652079D01*
X7239477Y-10652079D02*
X7249001Y-10633031D01*
X7249001Y-10633031D02*
X7258524Y-10623508D01*
X7258524Y-10623508D02*
X7277572Y-10613984D01*
X7429953Y-10794936D02*
X7439477Y-10804460D01*
X7439477Y-10804460D02*
X7429953Y-10813984D01*
X7429953Y-10813984D02*
X7420429Y-10804460D01*
X7420429Y-10804460D02*
X7429953Y-10794936D01*
X7429953Y-10794936D02*
X7429953Y-10813984D01*
X7506143Y-10613984D02*
X7629953Y-10613984D01*
X7629953Y-10613984D02*
X7563286Y-10690174D01*
X7563286Y-10690174D02*
X7591858Y-10690174D01*
X7591858Y-10690174D02*
X7610905Y-10699698D01*
X7610905Y-10699698D02*
X7620429Y-10709222D01*
X7620429Y-10709222D02*
X7629953Y-10728270D01*
X7629953Y-10728270D02*
X7629953Y-10775889D01*
X7629953Y-10775889D02*
X7620429Y-10794936D01*
X7620429Y-10794936D02*
X7610905Y-10804460D01*
X7610905Y-10804460D02*
X7591858Y-10813984D01*
X7591858Y-10813984D02*
X7534715Y-10813984D01*
X7534715Y-10813984D02*
X7515667Y-10804460D01*
X7515667Y-10804460D02*
X7506143Y-10794936D01*
X7753762Y-10613984D02*
X7772810Y-10613984D01*
X7772810Y-10613984D02*
X7791858Y-10623508D01*
X7791858Y-10623508D02*
X7801382Y-10633031D01*
X7801382Y-10633031D02*
X7810905Y-10652079D01*
X7810905Y-10652079D02*
X7820429Y-10690174D01*
X7820429Y-10690174D02*
X7820429Y-10737793D01*
X7820429Y-10737793D02*
X7810905Y-10775889D01*
X7810905Y-10775889D02*
X7801382Y-10794936D01*
X7801382Y-10794936D02*
X7791858Y-10804460D01*
X7791858Y-10804460D02*
X7772810Y-10813984D01*
X7772810Y-10813984D02*
X7753762Y-10813984D01*
X7753762Y-10813984D02*
X7734715Y-10804460D01*
X7734715Y-10804460D02*
X7725191Y-10794936D01*
X7725191Y-10794936D02*
X7715667Y-10775889D01*
X7715667Y-10775889D02*
X7706143Y-10737793D01*
X7706143Y-10737793D02*
X7706143Y-10690174D01*
X7706143Y-10690174D02*
X7715667Y-10652079D01*
X7715667Y-10652079D02*
X7725191Y-10633031D01*
X7725191Y-10633031D02*
X7734715Y-10623508D01*
X7734715Y-10623508D02*
X7753762Y-10613984D01*
X7944239Y-10613984D02*
X7963286Y-10613984D01*
X7963286Y-10613984D02*
X7982334Y-10623508D01*
X7982334Y-10623508D02*
X7991858Y-10633031D01*
X7991858Y-10633031D02*
X8001382Y-10652079D01*
X8001382Y-10652079D02*
X8010905Y-10690174D01*
X8010905Y-10690174D02*
X8010905Y-10737793D01*
X8010905Y-10737793D02*
X8001382Y-10775889D01*
X8001382Y-10775889D02*
X7991858Y-10794936D01*
X7991858Y-10794936D02*
X7982334Y-10804460D01*
X7982334Y-10804460D02*
X7963286Y-10813984D01*
X7963286Y-10813984D02*
X7944239Y-10813984D01*
X7944239Y-10813984D02*
X7925191Y-10804460D01*
X7925191Y-10804460D02*
X7915667Y-10794936D01*
X7915667Y-10794936D02*
X7906143Y-10775889D01*
X7906143Y-10775889D02*
X7896620Y-10737793D01*
X7896620Y-10737793D02*
X7896620Y-10690174D01*
X7896620Y-10690174D02*
X7906143Y-10652079D01*
X7906143Y-10652079D02*
X7915667Y-10633031D01*
X7915667Y-10633031D02*
X7925191Y-10623508D01*
X7925191Y-10623508D02*
X7944239Y-10613984D01*
X8096620Y-10813984D02*
X8096620Y-10680650D01*
X8096620Y-10699698D02*
X8106143Y-10690174D01*
X8106143Y-10690174D02*
X8125191Y-10680650D01*
X8125191Y-10680650D02*
X8153763Y-10680650D01*
X8153763Y-10680650D02*
X8172810Y-10690174D01*
X8172810Y-10690174D02*
X8182334Y-10709222D01*
X8182334Y-10709222D02*
X8182334Y-10813984D01*
X8182334Y-10709222D02*
X8191858Y-10690174D01*
X8191858Y-10690174D02*
X8210905Y-10680650D01*
X8210905Y-10680650D02*
X8239477Y-10680650D01*
X8239477Y-10680650D02*
X8258524Y-10690174D01*
X8258524Y-10690174D02*
X8268048Y-10709222D01*
X8268048Y-10709222D02*
X8268048Y-10813984D01*
X8363286Y-10813984D02*
X8363286Y-10680650D01*
X8363286Y-10699698D02*
X8372810Y-10690174D01*
X8372810Y-10690174D02*
X8391858Y-10680650D01*
X8391858Y-10680650D02*
X8420429Y-10680650D01*
X8420429Y-10680650D02*
X8439477Y-10690174D01*
X8439477Y-10690174D02*
X8449001Y-10709222D01*
X8449001Y-10709222D02*
X8449001Y-10813984D01*
X8449001Y-10709222D02*
X8458525Y-10690174D01*
X8458525Y-10690174D02*
X8477572Y-10680650D01*
X8477572Y-10680650D02*
X8506144Y-10680650D01*
X8506144Y-10680650D02*
X8525191Y-10690174D01*
X8525191Y-10690174D02*
X8534715Y-10709222D01*
X8534715Y-10709222D02*
X8534715Y-10813984D01*
X8925191Y-10604460D02*
X8753763Y-10861603D01*
X9182334Y-10613984D02*
X9201382Y-10613984D01*
X9201382Y-10613984D02*
X9220429Y-10623508D01*
X9220429Y-10623508D02*
X9229953Y-10633031D01*
X9229953Y-10633031D02*
X9239477Y-10652079D01*
X9239477Y-10652079D02*
X9249001Y-10690174D01*
X9249001Y-10690174D02*
X9249001Y-10737793D01*
X9249001Y-10737793D02*
X9239477Y-10775889D01*
X9239477Y-10775889D02*
X9229953Y-10794936D01*
X9229953Y-10794936D02*
X9220429Y-10804460D01*
X9220429Y-10804460D02*
X9201382Y-10813984D01*
X9201382Y-10813984D02*
X9182334Y-10813984D01*
X9182334Y-10813984D02*
X9163287Y-10804460D01*
X9163287Y-10804460D02*
X9153763Y-10794936D01*
X9153763Y-10794936D02*
X9144239Y-10775889D01*
X9144239Y-10775889D02*
X9134715Y-10737793D01*
X9134715Y-10737793D02*
X9134715Y-10690174D01*
X9134715Y-10690174D02*
X9144239Y-10652079D01*
X9144239Y-10652079D02*
X9153763Y-10633031D01*
X9153763Y-10633031D02*
X9163287Y-10623508D01*
X9163287Y-10623508D02*
X9182334Y-10613984D01*
X9334715Y-10794936D02*
X9344239Y-10804460D01*
X9344239Y-10804460D02*
X9334715Y-10813984D01*
X9334715Y-10813984D02*
X9325191Y-10804460D01*
X9325191Y-10804460D02*
X9334715Y-10794936D01*
X9334715Y-10794936D02*
X9334715Y-10813984D01*
X9468048Y-10613984D02*
X9487096Y-10613984D01*
X9487096Y-10613984D02*
X9506144Y-10623508D01*
X9506144Y-10623508D02*
X9515668Y-10633031D01*
X9515668Y-10633031D02*
X9525191Y-10652079D01*
X9525191Y-10652079D02*
X9534715Y-10690174D01*
X9534715Y-10690174D02*
X9534715Y-10737793D01*
X9534715Y-10737793D02*
X9525191Y-10775889D01*
X9525191Y-10775889D02*
X9515668Y-10794936D01*
X9515668Y-10794936D02*
X9506144Y-10804460D01*
X9506144Y-10804460D02*
X9487096Y-10813984D01*
X9487096Y-10813984D02*
X9468048Y-10813984D01*
X9468048Y-10813984D02*
X9449001Y-10804460D01*
X9449001Y-10804460D02*
X9439477Y-10794936D01*
X9439477Y-10794936D02*
X9429953Y-10775889D01*
X9429953Y-10775889D02*
X9420429Y-10737793D01*
X9420429Y-10737793D02*
X9420429Y-10690174D01*
X9420429Y-10690174D02*
X9429953Y-10652079D01*
X9429953Y-10652079D02*
X9439477Y-10633031D01*
X9439477Y-10633031D02*
X9449001Y-10623508D01*
X9449001Y-10623508D02*
X9468048Y-10613984D01*
X9725191Y-10813984D02*
X9610906Y-10813984D01*
X9668048Y-10813984D02*
X9668048Y-10613984D01*
X9668048Y-10613984D02*
X9649001Y-10642555D01*
X9649001Y-10642555D02*
X9629953Y-10661603D01*
X9629953Y-10661603D02*
X9610906Y-10671127D01*
X9915668Y-10813984D02*
X9801382Y-10813984D01*
X9858525Y-10813984D02*
X9858525Y-10613984D01*
X9858525Y-10613984D02*
X9839477Y-10642555D01*
X9839477Y-10642555D02*
X9820429Y-10661603D01*
X9820429Y-10661603D02*
X9801382Y-10671127D01*
X10029953Y-10699698D02*
X10010906Y-10690174D01*
X10010906Y-10690174D02*
X10001382Y-10680650D01*
X10001382Y-10680650D02*
X9991858Y-10661603D01*
X9991858Y-10661603D02*
X9991858Y-10652079D01*
X9991858Y-10652079D02*
X10001382Y-10633031D01*
X10001382Y-10633031D02*
X10010906Y-10623508D01*
X10010906Y-10623508D02*
X10029953Y-10613984D01*
X10029953Y-10613984D02*
X10068049Y-10613984D01*
X10068049Y-10613984D02*
X10087096Y-10623508D01*
X10087096Y-10623508D02*
X10096620Y-10633031D01*
X10096620Y-10633031D02*
X10106144Y-10652079D01*
X10106144Y-10652079D02*
X10106144Y-10661603D01*
X10106144Y-10661603D02*
X10096620Y-10680650D01*
X10096620Y-10680650D02*
X10087096Y-10690174D01*
X10087096Y-10690174D02*
X10068049Y-10699698D01*
X10068049Y-10699698D02*
X10029953Y-10699698D01*
X10029953Y-10699698D02*
X10010906Y-10709222D01*
X10010906Y-10709222D02*
X10001382Y-10718746D01*
X10001382Y-10718746D02*
X9991858Y-10737793D01*
X9991858Y-10737793D02*
X9991858Y-10775889D01*
X9991858Y-10775889D02*
X10001382Y-10794936D01*
X10001382Y-10794936D02*
X10010906Y-10804460D01*
X10010906Y-10804460D02*
X10029953Y-10813984D01*
X10029953Y-10813984D02*
X10068049Y-10813984D01*
X10068049Y-10813984D02*
X10087096Y-10804460D01*
X10087096Y-10804460D02*
X10096620Y-10794936D01*
X10096620Y-10794936D02*
X10106144Y-10775889D01*
X10106144Y-10775889D02*
X10106144Y-10737793D01*
X10106144Y-10737793D02*
X10096620Y-10718746D01*
X10096620Y-10718746D02*
X10087096Y-10709222D01*
X10087096Y-10709222D02*
X10068049Y-10699698D01*
X10182334Y-10613984D02*
X10182334Y-10652079D01*
X10258525Y-10613984D02*
X10258525Y-10652079D01*
X10553763Y-10890174D02*
X10544239Y-10880650D01*
X10544239Y-10880650D02*
X10525191Y-10852079D01*
X10525191Y-10852079D02*
X10515668Y-10833031D01*
X10515668Y-10833031D02*
X10506144Y-10804460D01*
X10506144Y-10804460D02*
X10496620Y-10756841D01*
X10496620Y-10756841D02*
X10496620Y-10718746D01*
X10496620Y-10718746D02*
X10506144Y-10671127D01*
X10506144Y-10671127D02*
X10515668Y-10642555D01*
X10515668Y-10642555D02*
X10525191Y-10623508D01*
X10525191Y-10623508D02*
X10544239Y-10594936D01*
X10544239Y-10594936D02*
X10553763Y-10585412D01*
X10734715Y-10813984D02*
X10620430Y-10813984D01*
X10677572Y-10813984D02*
X10677572Y-10613984D01*
X10677572Y-10613984D02*
X10658525Y-10642555D01*
X10658525Y-10642555D02*
X10639477Y-10661603D01*
X10639477Y-10661603D02*
X10620430Y-10671127D01*
X10858525Y-10613984D02*
X10877572Y-10613984D01*
X10877572Y-10613984D02*
X10896620Y-10623508D01*
X10896620Y-10623508D02*
X10906144Y-10633031D01*
X10906144Y-10633031D02*
X10915668Y-10652079D01*
X10915668Y-10652079D02*
X10925191Y-10690174D01*
X10925191Y-10690174D02*
X10925191Y-10737793D01*
X10925191Y-10737793D02*
X10915668Y-10775889D01*
X10915668Y-10775889D02*
X10906144Y-10794936D01*
X10906144Y-10794936D02*
X10896620Y-10804460D01*
X10896620Y-10804460D02*
X10877572Y-10813984D01*
X10877572Y-10813984D02*
X10858525Y-10813984D01*
X10858525Y-10813984D02*
X10839477Y-10804460D01*
X10839477Y-10804460D02*
X10829953Y-10794936D01*
X10829953Y-10794936D02*
X10820430Y-10775889D01*
X10820430Y-10775889D02*
X10810906Y-10737793D01*
X10810906Y-10737793D02*
X10810906Y-10690174D01*
X10810906Y-10690174D02*
X10820430Y-10652079D01*
X10820430Y-10652079D02*
X10829953Y-10633031D01*
X10829953Y-10633031D02*
X10839477Y-10623508D01*
X10839477Y-10623508D02*
X10858525Y-10613984D01*
X11163287Y-10813984D02*
X11163287Y-10613984D01*
X11249001Y-10813984D02*
X11249001Y-10709222D01*
X11249001Y-10709222D02*
X11239477Y-10690174D01*
X11239477Y-10690174D02*
X11220430Y-10680650D01*
X11220430Y-10680650D02*
X11191858Y-10680650D01*
X11191858Y-10680650D02*
X11172811Y-10690174D01*
X11172811Y-10690174D02*
X11163287Y-10699698D01*
X11372810Y-10813984D02*
X11353763Y-10804460D01*
X11353763Y-10804460D02*
X11344239Y-10794936D01*
X11344239Y-10794936D02*
X11334715Y-10775889D01*
X11334715Y-10775889D02*
X11334715Y-10718746D01*
X11334715Y-10718746D02*
X11344239Y-10699698D01*
X11344239Y-10699698D02*
X11353763Y-10690174D01*
X11353763Y-10690174D02*
X11372810Y-10680650D01*
X11372810Y-10680650D02*
X11401382Y-10680650D01*
X11401382Y-10680650D02*
X11420430Y-10690174D01*
X11420430Y-10690174D02*
X11429953Y-10699698D01*
X11429953Y-10699698D02*
X11439477Y-10718746D01*
X11439477Y-10718746D02*
X11439477Y-10775889D01*
X11439477Y-10775889D02*
X11429953Y-10794936D01*
X11429953Y-10794936D02*
X11420430Y-10804460D01*
X11420430Y-10804460D02*
X11401382Y-10813984D01*
X11401382Y-10813984D02*
X11372810Y-10813984D01*
X11553763Y-10813984D02*
X11534715Y-10804460D01*
X11534715Y-10804460D02*
X11525191Y-10785412D01*
X11525191Y-10785412D02*
X11525191Y-10613984D01*
X11706144Y-10804460D02*
X11687096Y-10813984D01*
X11687096Y-10813984D02*
X11649001Y-10813984D01*
X11649001Y-10813984D02*
X11629953Y-10804460D01*
X11629953Y-10804460D02*
X11620430Y-10785412D01*
X11620430Y-10785412D02*
X11620430Y-10709222D01*
X11620430Y-10709222D02*
X11629953Y-10690174D01*
X11629953Y-10690174D02*
X11649001Y-10680650D01*
X11649001Y-10680650D02*
X11687096Y-10680650D01*
X11687096Y-10680650D02*
X11706144Y-10690174D01*
X11706144Y-10690174D02*
X11715668Y-10709222D01*
X11715668Y-10709222D02*
X11715668Y-10728270D01*
X11715668Y-10728270D02*
X11620430Y-10747317D01*
X11791858Y-10804460D02*
X11810906Y-10813984D01*
X11810906Y-10813984D02*
X11849001Y-10813984D01*
X11849001Y-10813984D02*
X11868049Y-10804460D01*
X11868049Y-10804460D02*
X11877572Y-10785412D01*
X11877572Y-10785412D02*
X11877572Y-10775889D01*
X11877572Y-10775889D02*
X11868049Y-10756841D01*
X11868049Y-10756841D02*
X11849001Y-10747317D01*
X11849001Y-10747317D02*
X11820430Y-10747317D01*
X11820430Y-10747317D02*
X11801382Y-10737793D01*
X11801382Y-10737793D02*
X11791858Y-10718746D01*
X11791858Y-10718746D02*
X11791858Y-10709222D01*
X11791858Y-10709222D02*
X11801382Y-10690174D01*
X11801382Y-10690174D02*
X11820430Y-10680650D01*
X11820430Y-10680650D02*
X11849001Y-10680650D01*
X11849001Y-10680650D02*
X11868049Y-10690174D01*
X11944239Y-10890174D02*
X11953763Y-10880650D01*
X11953763Y-10880650D02*
X11972811Y-10852079D01*
X11972811Y-10852079D02*
X11982334Y-10833031D01*
X11982334Y-10833031D02*
X11991858Y-10804460D01*
X11991858Y-10804460D02*
X12001382Y-10756841D01*
X12001382Y-10756841D02*
X12001382Y-10718746D01*
X12001382Y-10718746D02*
X11991858Y-10671127D01*
X11991858Y-10671127D02*
X11982334Y-10642555D01*
X11982334Y-10642555D02*
X11972811Y-10623508D01*
X11972811Y-10623508D02*
X11953763Y-10594936D01*
X11953763Y-10594936D02*
X11944239Y-10585412D01*
D12*
X6978700Y-10986500D02*
G75*
G02*
X6878700Y-10986500I-50000J0D01*
G01*
X6878700Y-10986500D02*
G75*
G02*
X6978700Y-10986500I50000J0D01*
G01*
D11*
X7344239Y-11077984D02*
X7229953Y-11077984D01*
X7287096Y-11077984D02*
X7287096Y-10877984D01*
X7287096Y-10877984D02*
X7268048Y-10906555D01*
X7268048Y-10906555D02*
X7249001Y-10925603D01*
X7249001Y-10925603D02*
X7229953Y-10935127D01*
X7429953Y-11058936D02*
X7439477Y-11068460D01*
X7439477Y-11068460D02*
X7429953Y-11077984D01*
X7429953Y-11077984D02*
X7420429Y-11068460D01*
X7420429Y-11068460D02*
X7429953Y-11058936D01*
X7429953Y-11058936D02*
X7429953Y-11077984D01*
X7563286Y-10877984D02*
X7582334Y-10877984D01*
X7582334Y-10877984D02*
X7601382Y-10887508D01*
X7601382Y-10887508D02*
X7610905Y-10897031D01*
X7610905Y-10897031D02*
X7620429Y-10916079D01*
X7620429Y-10916079D02*
X7629953Y-10954174D01*
X7629953Y-10954174D02*
X7629953Y-11001793D01*
X7629953Y-11001793D02*
X7620429Y-11039889D01*
X7620429Y-11039889D02*
X7610905Y-11058936D01*
X7610905Y-11058936D02*
X7601382Y-11068460D01*
X7601382Y-11068460D02*
X7582334Y-11077984D01*
X7582334Y-11077984D02*
X7563286Y-11077984D01*
X7563286Y-11077984D02*
X7544239Y-11068460D01*
X7544239Y-11068460D02*
X7534715Y-11058936D01*
X7534715Y-11058936D02*
X7525191Y-11039889D01*
X7525191Y-11039889D02*
X7515667Y-11001793D01*
X7515667Y-11001793D02*
X7515667Y-10954174D01*
X7515667Y-10954174D02*
X7525191Y-10916079D01*
X7525191Y-10916079D02*
X7534715Y-10897031D01*
X7534715Y-10897031D02*
X7544239Y-10887508D01*
X7544239Y-10887508D02*
X7563286Y-10877984D01*
X7753762Y-10877984D02*
X7772810Y-10877984D01*
X7772810Y-10877984D02*
X7791858Y-10887508D01*
X7791858Y-10887508D02*
X7801382Y-10897031D01*
X7801382Y-10897031D02*
X7810905Y-10916079D01*
X7810905Y-10916079D02*
X7820429Y-10954174D01*
X7820429Y-10954174D02*
X7820429Y-11001793D01*
X7820429Y-11001793D02*
X7810905Y-11039889D01*
X7810905Y-11039889D02*
X7801382Y-11058936D01*
X7801382Y-11058936D02*
X7791858Y-11068460D01*
X7791858Y-11068460D02*
X7772810Y-11077984D01*
X7772810Y-11077984D02*
X7753762Y-11077984D01*
X7753762Y-11077984D02*
X7734715Y-11068460D01*
X7734715Y-11068460D02*
X7725191Y-11058936D01*
X7725191Y-11058936D02*
X7715667Y-11039889D01*
X7715667Y-11039889D02*
X7706143Y-11001793D01*
X7706143Y-11001793D02*
X7706143Y-10954174D01*
X7706143Y-10954174D02*
X7715667Y-10916079D01*
X7715667Y-10916079D02*
X7725191Y-10897031D01*
X7725191Y-10897031D02*
X7734715Y-10887508D01*
X7734715Y-10887508D02*
X7753762Y-10877984D01*
X7944239Y-10877984D02*
X7963286Y-10877984D01*
X7963286Y-10877984D02*
X7982334Y-10887508D01*
X7982334Y-10887508D02*
X7991858Y-10897031D01*
X7991858Y-10897031D02*
X8001382Y-10916079D01*
X8001382Y-10916079D02*
X8010905Y-10954174D01*
X8010905Y-10954174D02*
X8010905Y-11001793D01*
X8010905Y-11001793D02*
X8001382Y-11039889D01*
X8001382Y-11039889D02*
X7991858Y-11058936D01*
X7991858Y-11058936D02*
X7982334Y-11068460D01*
X7982334Y-11068460D02*
X7963286Y-11077984D01*
X7963286Y-11077984D02*
X7944239Y-11077984D01*
X7944239Y-11077984D02*
X7925191Y-11068460D01*
X7925191Y-11068460D02*
X7915667Y-11058936D01*
X7915667Y-11058936D02*
X7906143Y-11039889D01*
X7906143Y-11039889D02*
X7896620Y-11001793D01*
X7896620Y-11001793D02*
X7896620Y-10954174D01*
X7896620Y-10954174D02*
X7906143Y-10916079D01*
X7906143Y-10916079D02*
X7915667Y-10897031D01*
X7915667Y-10897031D02*
X7925191Y-10887508D01*
X7925191Y-10887508D02*
X7944239Y-10877984D01*
X8096620Y-11077984D02*
X8096620Y-10944650D01*
X8096620Y-10963698D02*
X8106143Y-10954174D01*
X8106143Y-10954174D02*
X8125191Y-10944650D01*
X8125191Y-10944650D02*
X8153763Y-10944650D01*
X8153763Y-10944650D02*
X8172810Y-10954174D01*
X8172810Y-10954174D02*
X8182334Y-10973222D01*
X8182334Y-10973222D02*
X8182334Y-11077984D01*
X8182334Y-10973222D02*
X8191858Y-10954174D01*
X8191858Y-10954174D02*
X8210905Y-10944650D01*
X8210905Y-10944650D02*
X8239477Y-10944650D01*
X8239477Y-10944650D02*
X8258524Y-10954174D01*
X8258524Y-10954174D02*
X8268048Y-10973222D01*
X8268048Y-10973222D02*
X8268048Y-11077984D01*
X8363286Y-11077984D02*
X8363286Y-10944650D01*
X8363286Y-10963698D02*
X8372810Y-10954174D01*
X8372810Y-10954174D02*
X8391858Y-10944650D01*
X8391858Y-10944650D02*
X8420429Y-10944650D01*
X8420429Y-10944650D02*
X8439477Y-10954174D01*
X8439477Y-10954174D02*
X8449001Y-10973222D01*
X8449001Y-10973222D02*
X8449001Y-11077984D01*
X8449001Y-10973222D02*
X8458525Y-10954174D01*
X8458525Y-10954174D02*
X8477572Y-10944650D01*
X8477572Y-10944650D02*
X8506144Y-10944650D01*
X8506144Y-10944650D02*
X8525191Y-10954174D01*
X8525191Y-10954174D02*
X8534715Y-10973222D01*
X8534715Y-10973222D02*
X8534715Y-11077984D01*
X8925191Y-10868460D02*
X8753763Y-11125603D01*
X9182334Y-10877984D02*
X9201382Y-10877984D01*
X9201382Y-10877984D02*
X9220429Y-10887508D01*
X9220429Y-10887508D02*
X9229953Y-10897031D01*
X9229953Y-10897031D02*
X9239477Y-10916079D01*
X9239477Y-10916079D02*
X9249001Y-10954174D01*
X9249001Y-10954174D02*
X9249001Y-11001793D01*
X9249001Y-11001793D02*
X9239477Y-11039889D01*
X9239477Y-11039889D02*
X9229953Y-11058936D01*
X9229953Y-11058936D02*
X9220429Y-11068460D01*
X9220429Y-11068460D02*
X9201382Y-11077984D01*
X9201382Y-11077984D02*
X9182334Y-11077984D01*
X9182334Y-11077984D02*
X9163287Y-11068460D01*
X9163287Y-11068460D02*
X9153763Y-11058936D01*
X9153763Y-11058936D02*
X9144239Y-11039889D01*
X9144239Y-11039889D02*
X9134715Y-11001793D01*
X9134715Y-11001793D02*
X9134715Y-10954174D01*
X9134715Y-10954174D02*
X9144239Y-10916079D01*
X9144239Y-10916079D02*
X9153763Y-10897031D01*
X9153763Y-10897031D02*
X9163287Y-10887508D01*
X9163287Y-10887508D02*
X9182334Y-10877984D01*
X9334715Y-11058936D02*
X9344239Y-11068460D01*
X9344239Y-11068460D02*
X9334715Y-11077984D01*
X9334715Y-11077984D02*
X9325191Y-11068460D01*
X9325191Y-11068460D02*
X9334715Y-11058936D01*
X9334715Y-11058936D02*
X9334715Y-11077984D01*
X9468048Y-10877984D02*
X9487096Y-10877984D01*
X9487096Y-10877984D02*
X9506144Y-10887508D01*
X9506144Y-10887508D02*
X9515668Y-10897031D01*
X9515668Y-10897031D02*
X9525191Y-10916079D01*
X9525191Y-10916079D02*
X9534715Y-10954174D01*
X9534715Y-10954174D02*
X9534715Y-11001793D01*
X9534715Y-11001793D02*
X9525191Y-11039889D01*
X9525191Y-11039889D02*
X9515668Y-11058936D01*
X9515668Y-11058936D02*
X9506144Y-11068460D01*
X9506144Y-11068460D02*
X9487096Y-11077984D01*
X9487096Y-11077984D02*
X9468048Y-11077984D01*
X9468048Y-11077984D02*
X9449001Y-11068460D01*
X9449001Y-11068460D02*
X9439477Y-11058936D01*
X9439477Y-11058936D02*
X9429953Y-11039889D01*
X9429953Y-11039889D02*
X9420429Y-11001793D01*
X9420429Y-11001793D02*
X9420429Y-10954174D01*
X9420429Y-10954174D02*
X9429953Y-10916079D01*
X9429953Y-10916079D02*
X9439477Y-10897031D01*
X9439477Y-10897031D02*
X9449001Y-10887508D01*
X9449001Y-10887508D02*
X9468048Y-10877984D01*
X9601382Y-10877984D02*
X9725191Y-10877984D01*
X9725191Y-10877984D02*
X9658525Y-10954174D01*
X9658525Y-10954174D02*
X9687096Y-10954174D01*
X9687096Y-10954174D02*
X9706144Y-10963698D01*
X9706144Y-10963698D02*
X9715668Y-10973222D01*
X9715668Y-10973222D02*
X9725191Y-10992270D01*
X9725191Y-10992270D02*
X9725191Y-11039889D01*
X9725191Y-11039889D02*
X9715668Y-11058936D01*
X9715668Y-11058936D02*
X9706144Y-11068460D01*
X9706144Y-11068460D02*
X9687096Y-11077984D01*
X9687096Y-11077984D02*
X9629953Y-11077984D01*
X9629953Y-11077984D02*
X9610906Y-11068460D01*
X9610906Y-11068460D02*
X9601382Y-11058936D01*
X9820429Y-11077984D02*
X9858525Y-11077984D01*
X9858525Y-11077984D02*
X9877572Y-11068460D01*
X9877572Y-11068460D02*
X9887096Y-11058936D01*
X9887096Y-11058936D02*
X9906144Y-11030365D01*
X9906144Y-11030365D02*
X9915668Y-10992270D01*
X9915668Y-10992270D02*
X9915668Y-10916079D01*
X9915668Y-10916079D02*
X9906144Y-10897031D01*
X9906144Y-10897031D02*
X9896620Y-10887508D01*
X9896620Y-10887508D02*
X9877572Y-10877984D01*
X9877572Y-10877984D02*
X9839477Y-10877984D01*
X9839477Y-10877984D02*
X9820429Y-10887508D01*
X9820429Y-10887508D02*
X9810906Y-10897031D01*
X9810906Y-10897031D02*
X9801382Y-10916079D01*
X9801382Y-10916079D02*
X9801382Y-10963698D01*
X9801382Y-10963698D02*
X9810906Y-10982746D01*
X9810906Y-10982746D02*
X9820429Y-10992270D01*
X9820429Y-10992270D02*
X9839477Y-11001793D01*
X9839477Y-11001793D02*
X9877572Y-11001793D01*
X9877572Y-11001793D02*
X9896620Y-10992270D01*
X9896620Y-10992270D02*
X9906144Y-10982746D01*
X9906144Y-10982746D02*
X9915668Y-10963698D01*
X10087096Y-10944650D02*
X10087096Y-11077984D01*
X10039477Y-10868460D02*
X9991858Y-11011317D01*
X9991858Y-11011317D02*
X10115668Y-11011317D01*
X10182334Y-10877984D02*
X10182334Y-10916079D01*
X10258525Y-10877984D02*
X10258525Y-10916079D01*
X10553763Y-11154174D02*
X10544239Y-11144650D01*
X10544239Y-11144650D02*
X10525191Y-11116079D01*
X10525191Y-11116079D02*
X10515668Y-11097031D01*
X10515668Y-11097031D02*
X10506144Y-11068460D01*
X10506144Y-11068460D02*
X10496620Y-11020841D01*
X10496620Y-11020841D02*
X10496620Y-10982746D01*
X10496620Y-10982746D02*
X10506144Y-10935127D01*
X10506144Y-10935127D02*
X10515668Y-10906555D01*
X10515668Y-10906555D02*
X10525191Y-10887508D01*
X10525191Y-10887508D02*
X10544239Y-10858936D01*
X10544239Y-10858936D02*
X10553763Y-10849412D01*
X10639477Y-11077984D02*
X10677572Y-11077984D01*
X10677572Y-11077984D02*
X10696620Y-11068460D01*
X10696620Y-11068460D02*
X10706144Y-11058936D01*
X10706144Y-11058936D02*
X10725191Y-11030365D01*
X10725191Y-11030365D02*
X10734715Y-10992270D01*
X10734715Y-10992270D02*
X10734715Y-10916079D01*
X10734715Y-10916079D02*
X10725191Y-10897031D01*
X10725191Y-10897031D02*
X10715668Y-10887508D01*
X10715668Y-10887508D02*
X10696620Y-10877984D01*
X10696620Y-10877984D02*
X10658525Y-10877984D01*
X10658525Y-10877984D02*
X10639477Y-10887508D01*
X10639477Y-10887508D02*
X10629953Y-10897031D01*
X10629953Y-10897031D02*
X10620430Y-10916079D01*
X10620430Y-10916079D02*
X10620430Y-10963698D01*
X10620430Y-10963698D02*
X10629953Y-10982746D01*
X10629953Y-10982746D02*
X10639477Y-10992270D01*
X10639477Y-10992270D02*
X10658525Y-11001793D01*
X10658525Y-11001793D02*
X10696620Y-11001793D01*
X10696620Y-11001793D02*
X10715668Y-10992270D01*
X10715668Y-10992270D02*
X10725191Y-10982746D01*
X10725191Y-10982746D02*
X10734715Y-10963698D01*
X10849001Y-10963698D02*
X10829953Y-10954174D01*
X10829953Y-10954174D02*
X10820430Y-10944650D01*
X10820430Y-10944650D02*
X10810906Y-10925603D01*
X10810906Y-10925603D02*
X10810906Y-10916079D01*
X10810906Y-10916079D02*
X10820430Y-10897031D01*
X10820430Y-10897031D02*
X10829953Y-10887508D01*
X10829953Y-10887508D02*
X10849001Y-10877984D01*
X10849001Y-10877984D02*
X10887096Y-10877984D01*
X10887096Y-10877984D02*
X10906144Y-10887508D01*
X10906144Y-10887508D02*
X10915668Y-10897031D01*
X10915668Y-10897031D02*
X10925191Y-10916079D01*
X10925191Y-10916079D02*
X10925191Y-10925603D01*
X10925191Y-10925603D02*
X10915668Y-10944650D01*
X10915668Y-10944650D02*
X10906144Y-10954174D01*
X10906144Y-10954174D02*
X10887096Y-10963698D01*
X10887096Y-10963698D02*
X10849001Y-10963698D01*
X10849001Y-10963698D02*
X10829953Y-10973222D01*
X10829953Y-10973222D02*
X10820430Y-10982746D01*
X10820430Y-10982746D02*
X10810906Y-11001793D01*
X10810906Y-11001793D02*
X10810906Y-11039889D01*
X10810906Y-11039889D02*
X10820430Y-11058936D01*
X10820430Y-11058936D02*
X10829953Y-11068460D01*
X10829953Y-11068460D02*
X10849001Y-11077984D01*
X10849001Y-11077984D02*
X10887096Y-11077984D01*
X10887096Y-11077984D02*
X10906144Y-11068460D01*
X10906144Y-11068460D02*
X10915668Y-11058936D01*
X10915668Y-11058936D02*
X10925191Y-11039889D01*
X10925191Y-11039889D02*
X10925191Y-11001793D01*
X10925191Y-11001793D02*
X10915668Y-10982746D01*
X10915668Y-10982746D02*
X10906144Y-10973222D01*
X10906144Y-10973222D02*
X10887096Y-10963698D01*
X11163287Y-11077984D02*
X11163287Y-10877984D01*
X11249001Y-11077984D02*
X11249001Y-10973222D01*
X11249001Y-10973222D02*
X11239477Y-10954174D01*
X11239477Y-10954174D02*
X11220430Y-10944650D01*
X11220430Y-10944650D02*
X11191858Y-10944650D01*
X11191858Y-10944650D02*
X11172811Y-10954174D01*
X11172811Y-10954174D02*
X11163287Y-10963698D01*
X11372810Y-11077984D02*
X11353763Y-11068460D01*
X11353763Y-11068460D02*
X11344239Y-11058936D01*
X11344239Y-11058936D02*
X11334715Y-11039889D01*
X11334715Y-11039889D02*
X11334715Y-10982746D01*
X11334715Y-10982746D02*
X11344239Y-10963698D01*
X11344239Y-10963698D02*
X11353763Y-10954174D01*
X11353763Y-10954174D02*
X11372810Y-10944650D01*
X11372810Y-10944650D02*
X11401382Y-10944650D01*
X11401382Y-10944650D02*
X11420430Y-10954174D01*
X11420430Y-10954174D02*
X11429953Y-10963698D01*
X11429953Y-10963698D02*
X11439477Y-10982746D01*
X11439477Y-10982746D02*
X11439477Y-11039889D01*
X11439477Y-11039889D02*
X11429953Y-11058936D01*
X11429953Y-11058936D02*
X11420430Y-11068460D01*
X11420430Y-11068460D02*
X11401382Y-11077984D01*
X11401382Y-11077984D02*
X11372810Y-11077984D01*
X11553763Y-11077984D02*
X11534715Y-11068460D01*
X11534715Y-11068460D02*
X11525191Y-11049412D01*
X11525191Y-11049412D02*
X11525191Y-10877984D01*
X11706144Y-11068460D02*
X11687096Y-11077984D01*
X11687096Y-11077984D02*
X11649001Y-11077984D01*
X11649001Y-11077984D02*
X11629953Y-11068460D01*
X11629953Y-11068460D02*
X11620430Y-11049412D01*
X11620430Y-11049412D02*
X11620430Y-10973222D01*
X11620430Y-10973222D02*
X11629953Y-10954174D01*
X11629953Y-10954174D02*
X11649001Y-10944650D01*
X11649001Y-10944650D02*
X11687096Y-10944650D01*
X11687096Y-10944650D02*
X11706144Y-10954174D01*
X11706144Y-10954174D02*
X11715668Y-10973222D01*
X11715668Y-10973222D02*
X11715668Y-10992270D01*
X11715668Y-10992270D02*
X11620430Y-11011317D01*
X11791858Y-11068460D02*
X11810906Y-11077984D01*
X11810906Y-11077984D02*
X11849001Y-11077984D01*
X11849001Y-11077984D02*
X11868049Y-11068460D01*
X11868049Y-11068460D02*
X11877572Y-11049412D01*
X11877572Y-11049412D02*
X11877572Y-11039889D01*
X11877572Y-11039889D02*
X11868049Y-11020841D01*
X11868049Y-11020841D02*
X11849001Y-11011317D01*
X11849001Y-11011317D02*
X11820430Y-11011317D01*
X11820430Y-11011317D02*
X11801382Y-11001793D01*
X11801382Y-11001793D02*
X11791858Y-10982746D01*
X11791858Y-10982746D02*
X11791858Y-10973222D01*
X11791858Y-10973222D02*
X11801382Y-10954174D01*
X11801382Y-10954174D02*
X11820430Y-10944650D01*
X11820430Y-10944650D02*
X11849001Y-10944650D01*
X11849001Y-10944650D02*
X11868049Y-10954174D01*
X11944239Y-11154174D02*
X11953763Y-11144650D01*
X11953763Y-11144650D02*
X11972811Y-11116079D01*
X11972811Y-11116079D02*
X11982334Y-11097031D01*
X11982334Y-11097031D02*
X11991858Y-11068460D01*
X11991858Y-11068460D02*
X12001382Y-11020841D01*
X12001382Y-11020841D02*
X12001382Y-10982746D01*
X12001382Y-10982746D02*
X11991858Y-10935127D01*
X11991858Y-10935127D02*
X11982334Y-10906555D01*
X11982334Y-10906555D02*
X11972811Y-10887508D01*
X11972811Y-10887508D02*
X11953763Y-10858936D01*
X11953763Y-10858936D02*
X11944239Y-10849412D01*
M02*
