%TF.GenerationSoftware,KiCad,Pcbnew,8.0.6*%
%TF.CreationDate,2025-01-23T10:29:06+01:00*%
%TF.ProjectId,Pcb pami 2025,50636220-7061-46d6-9920-323032352e6b,rev?*%
%TF.SameCoordinates,Original*%
%TF.FileFunction,Copper,L2,Bot*%
%TF.FilePolarity,Positive*%
%FSLAX46Y46*%
G04 Gerber Fmt 4.6, Leading zero omitted, Abs format (unit mm)*
G04 Created by KiCad (PCBNEW 8.0.6) date 2025-01-23 10:29:06*
%MOMM*%
%LPD*%
G01*
G04 APERTURE LIST*
%TA.AperFunction,ComponentPad*%
%ADD10R,1.700000X1.700000*%
%TD*%
%TA.AperFunction,ComponentPad*%
%ADD11O,1.700000X1.700000*%
%TD*%
%TA.AperFunction,ViaPad*%
%ADD12C,0.600000*%
%TD*%
%TA.AperFunction,Conductor*%
%ADD13C,0.200000*%
%TD*%
G04 APERTURE END LIST*
D10*
%TO.P,J10,1,Pin_1*%
%TO.N,VCC*%
X129760000Y-78470000D03*
D11*
%TO.P,J10,2,Pin_2*%
%TO.N,/D2*%
X129760000Y-81010000D03*
%TO.P,J10,3,Pin_3*%
%TO.N,/D15*%
X129760000Y-83550000D03*
%TO.P,J10,4,Pin_4*%
%TO.N,GND*%
X129760000Y-86090000D03*
%TD*%
%TO.P,U1,1,VIN*%
%TO.N,VCC*%
X97622000Y-77781200D03*
%TO.P,U1,2,GND*%
%TO.N,GND*%
X97622000Y-75241200D03*
%TO.P,U1,3,D13*%
%TO.N,/D13*%
X97622000Y-72701200D03*
%TO.P,U1,4,D12*%
%TO.N,/D12*%
X97622000Y-70161200D03*
%TO.P,U1,5,D14*%
%TO.N,/D14*%
X97622000Y-67621200D03*
%TO.P,U1,6,D27*%
%TO.N,/D27*%
X97622000Y-65081200D03*
%TO.P,U1,7,D26*%
%TO.N,/D26*%
X97622000Y-62541200D03*
%TO.P,U1,8,D25*%
%TO.N,/D25*%
X97622000Y-60001200D03*
%TO.P,U1,9,D33*%
%TO.N,/D33*%
X97622000Y-57461200D03*
%TO.P,U1,10,D32*%
%TO.N,/D32*%
X97622000Y-54921200D03*
%TO.P,U1,11,D35*%
%TO.N,/D35*%
X97622000Y-52381200D03*
%TO.P,U1,12,D34*%
%TO.N,/D34*%
X97622000Y-49841200D03*
%TO.P,U1,13,UN*%
%TO.N,unconnected-(U1-UN-Pad13)*%
X97622000Y-47301200D03*
%TO.P,U1,14,UP*%
%TO.N,unconnected-(U1-UP-Pad14)*%
X97622000Y-44761200D03*
D10*
%TO.P,U1,15,EN*%
%TO.N,unconnected-(U1-EN-Pad15)*%
X97622000Y-42221200D03*
D11*
%TO.P,U1,16,3V3*%
%TO.N,/3V*%
X123122000Y-77781200D03*
%TO.P,U1,17,GND*%
%TO.N,GND*%
X123122000Y-75241200D03*
%TO.P,U1,18,D15*%
%TO.N,/D15*%
X123122000Y-72701200D03*
%TO.P,U1,19,D2*%
%TO.N,/D2*%
X123122000Y-70161200D03*
%TO.P,U1,20,D4*%
%TO.N,/D4*%
X123122000Y-67621200D03*
%TO.P,U1,21,RX2*%
%TO.N,unconnected-(U1-RX2-Pad21)*%
X123122000Y-65081200D03*
%TO.P,U1,22,TX2*%
%TO.N,unconnected-(U1-TX2-Pad22)*%
X123122000Y-62541200D03*
%TO.P,U1,23,D5*%
%TO.N,/D5*%
X123122000Y-60001200D03*
%TO.P,U1,24,D18*%
%TO.N,/D18*%
X123122000Y-57461200D03*
%TO.P,U1,25,D19*%
%TO.N,/D19*%
X123122000Y-54921200D03*
%TO.P,U1,26,D21*%
%TO.N,/SDA*%
X123122000Y-52381200D03*
%TO.P,U1,27,RXD*%
%TO.N,unconnected-(U1-RXD-Pad27)*%
X123122000Y-49841200D03*
%TO.P,U1,28,TXD*%
%TO.N,unconnected-(U1-TXD-Pad28)*%
X123122000Y-47301200D03*
%TO.P,U1,29,D22*%
%TO.N,/SCL*%
X123122000Y-44761200D03*
D10*
%TO.P,U1,30,D23*%
%TO.N,/D23*%
X123122000Y-42221200D03*
%TD*%
%TO.P,J8,1,Pin_1*%
%TO.N,/BOUT1*%
X77200000Y-27110000D03*
D11*
%TO.P,J8,2,Pin_2*%
%TO.N,VCC*%
X77200000Y-29650000D03*
%TO.P,J8,3,Pin_3*%
%TO.N,/D34*%
X77200000Y-32190000D03*
%TO.P,J8,4,Pin_4*%
%TO.N,/D35*%
X77200000Y-34730000D03*
%TO.P,J8,5,Pin_5*%
%TO.N,GND*%
X77200000Y-37270000D03*
%TO.P,J8,6,Pin_6*%
%TO.N,/BOUT2*%
X77200000Y-39810000D03*
%TD*%
D10*
%TO.P,J4,1,Pin_1*%
%TO.N,VCC*%
X133550000Y-74970000D03*
D11*
%TO.P,J4,2,Pin_2*%
%TO.N,/D5*%
X133550000Y-77510000D03*
%TO.P,J4,3,Pin_3*%
%TO.N,/D4*%
X133550000Y-80050000D03*
%TO.P,J4,4,Pin_4*%
%TO.N,GND*%
X133550000Y-82590000D03*
%TD*%
D10*
%TO.P,J14,1,Pin_1*%
%TO.N,VCC*%
X103850000Y-29950000D03*
D11*
%TO.P,J14,2,Pin_2*%
%TO.N,GND*%
X106390000Y-29950000D03*
%TO.P,J14,3,Pin_3*%
%TO.N,/SCL*%
X108930000Y-29950000D03*
%TO.P,J14,4,Pin_4*%
%TO.N,/SDA*%
X111470000Y-29950000D03*
%TD*%
D10*
%TO.P,J12,1,Pin_1*%
%TO.N,/D18*%
X135350000Y-53020000D03*
D11*
%TO.P,J12,2,Pin_2*%
%TO.N,VCC*%
X135350000Y-55560000D03*
%TO.P,J12,3,Pin_3*%
%TO.N,GND*%
X135350000Y-58100000D03*
%TD*%
D10*
%TO.P,J11,1,Pin_1*%
%TO.N,/SDA*%
X127220000Y-28010000D03*
D11*
%TO.P,J11,2,Pin_2*%
%TO.N,/SCL*%
X127220000Y-30550000D03*
%TO.P,J11,3,Pin_3*%
%TO.N,unconnected-(J11-Pin_3-Pad3)*%
X127220000Y-33090000D03*
%TO.P,J11,4,Pin_4*%
%TO.N,unconnected-(J11-Pin_4-Pad4)*%
X127220000Y-35630000D03*
%TO.P,J11,5,Pin_5*%
%TO.N,VCC*%
X127220000Y-38170000D03*
%TO.P,J11,6,Pin_6*%
%TO.N,/3V*%
X127220000Y-40710000D03*
%TO.P,J11,7,Pin_7*%
%TO.N,GND*%
X127220000Y-43250000D03*
%TD*%
D10*
%TO.P,J1,1,Pin_1*%
%TO.N,/D19*%
X129970000Y-64400000D03*
D11*
%TO.P,J1,2,Pin_2*%
%TO.N,VCC*%
X129970000Y-66940000D03*
%TO.P,J1,3,Pin_3*%
%TO.N,GND*%
X129970000Y-69480000D03*
%TD*%
D10*
%TO.P,J6,1,Pin_1*%
%TO.N,Net-(J5-Pin_2)*%
X87084000Y-85052000D03*
D11*
%TO.P,J6,2,Pin_2*%
%TO.N,unconnected-(J6-Pin_2-Pad2)*%
X89624000Y-85052000D03*
%TO.P,J6,3,Pin_3*%
%TO.N,VCC*%
X92164000Y-85052000D03*
%TD*%
D10*
%TO.P,J7,1,Pin_1*%
%TO.N,/D12*%
X91915000Y-29934000D03*
D11*
%TO.P,J7,2,Pin_2*%
%TO.N,GND*%
X89375000Y-29934000D03*
%TD*%
D10*
%TO.P,J5,1,Pin_1*%
%TO.N,GND*%
X91148000Y-94196000D03*
D11*
%TO.P,J5,2,Pin_2*%
%TO.N,Net-(J5-Pin_2)*%
X93688000Y-94196000D03*
%TD*%
D10*
%TO.P,J13,1,Pin_1*%
%TO.N,/D13*%
X78850000Y-74505000D03*
D11*
%TO.P,J13,2,Pin_2*%
%TO.N,GND*%
X78850000Y-77045000D03*
%TD*%
D10*
%TO.P,J2,1,Pin_1*%
%TO.N,/D18*%
X129420000Y-53050000D03*
D11*
%TO.P,J2,2,Pin_2*%
%TO.N,VCC*%
X129420000Y-55590000D03*
%TO.P,J2,3,Pin_3*%
%TO.N,GND*%
X129420000Y-58130000D03*
%TD*%
D10*
%TO.P,U2,1,GND*%
%TO.N,GND*%
X81486000Y-49442000D03*
D11*
%TO.P,U2,2,VIN*%
%TO.N,VCC*%
X81486000Y-51982000D03*
%TO.P,U2,3,BOUT1*%
%TO.N,/BOUT1*%
X81486000Y-54522000D03*
%TO.P,U2,4,BOUT2*%
%TO.N,/BOUT2*%
X81486000Y-57062000D03*
%TO.P,U2,5,AOUT2*%
%TO.N,/AOUT2*%
X81486000Y-59602000D03*
%TO.P,U2,6,AOUT1*%
%TO.N,/AOUT1*%
X81486000Y-62142000D03*
%TO.P,U2,7,AISEN*%
%TO.N,unconnected-(U2-AISEN-Pad7)*%
X81486000Y-64682000D03*
%TO.P,U2,8,BISEN*%
%TO.N,unconnected-(U2-BISEN-Pad8)*%
X81486000Y-67222000D03*
D10*
%TO.P,U2,9,GND*%
%TO.N,GND*%
X91666000Y-49492000D03*
D11*
%TO.P,U2,10,VMM*%
%TO.N,unconnected-(U2-VMM-Pad10)*%
X91666000Y-52032000D03*
%TO.P,U2,11,BIN1*%
%TO.N,/D32*%
X91666000Y-54572000D03*
%TO.P,U2,12,BIN2*%
%TO.N,/D33*%
X91666000Y-57112000D03*
%TO.P,U2,13,AIN2*%
%TO.N,/D25*%
X91666000Y-59652000D03*
%TO.P,U2,14,AIN1*%
%TO.N,/D26*%
X91666000Y-62192000D03*
%TO.P,U2,15,SLP*%
%TO.N,unconnected-(U2-SLP-Pad15)*%
X91666000Y-64732000D03*
%TO.P,U2,16,FLT*%
%TO.N,unconnected-(U2-FLT-Pad16)*%
X91666000Y-67272000D03*
%TD*%
D10*
%TO.P,J3,1,Pin_1*%
%TO.N,/D23*%
X135980000Y-64290000D03*
D11*
%TO.P,J3,2,Pin_2*%
%TO.N,VCC*%
X135980000Y-66830000D03*
%TO.P,J3,3,Pin_3*%
%TO.N,GND*%
X135980000Y-69370000D03*
%TD*%
D10*
%TO.P,J9,1,Pin_1*%
%TO.N,/AOUT1*%
X75400000Y-54064000D03*
D11*
%TO.P,J9,2,Pin_2*%
%TO.N,VCC*%
X75400000Y-56604000D03*
%TO.P,J9,3,Pin_3*%
%TO.N,/D27*%
X75400000Y-59144000D03*
%TO.P,J9,4,Pin_4*%
%TO.N,/D14*%
X75400000Y-61684000D03*
%TO.P,J9,5,Pin_5*%
%TO.N,GND*%
X75400000Y-64224000D03*
%TO.P,J9,6,Pin_6*%
%TO.N,/AOUT2*%
X75400000Y-66764000D03*
%TD*%
D12*
%TO.N,/D14*%
X79010000Y-70320000D03*
X95720000Y-70320000D03*
%TO.N,/BOUT1*%
X74892000Y-36840000D03*
X74892000Y-40602000D03*
%TO.N,/BOUT2*%
X78690000Y-42170000D03*
%TO.N,/D18*%
X126451600Y-54131600D03*
X124951600Y-55631600D03*
%TO.N,/SDA*%
X125220000Y-29970000D03*
%TO.N,/D27*%
X94180000Y-69558000D03*
X79730000Y-69558000D03*
%TD*%
D13*
%TO.N,/D14*%
X79010000Y-70320000D02*
X95720000Y-70320000D01*
%TO.N,/BOUT1*%
X74892000Y-36840000D02*
X74892000Y-40602000D01*
%TO.N,/3V*%
X120950000Y-40850000D02*
X121550000Y-40250000D01*
X121550000Y-40250000D02*
X126760000Y-40250000D01*
X120950000Y-75609200D02*
X120950000Y-40850000D01*
X123122000Y-77781200D02*
X120950000Y-75609200D01*
X126760000Y-40250000D02*
X127220000Y-40710000D01*
%TO.N,/BOUT2*%
X78690000Y-42170000D02*
X77200000Y-40680000D01*
X77200000Y-40680000D02*
X77200000Y-39810000D01*
%TO.N,/AOUT2*%
X78250000Y-59602000D02*
X81486000Y-59602000D01*
X78250000Y-66700000D02*
X78250000Y-59602000D01*
X78186000Y-66764000D02*
X78250000Y-66700000D01*
X75400000Y-66764000D02*
X78186000Y-66764000D01*
%TO.N,/D18*%
X124951600Y-55631600D02*
X126451600Y-54131600D01*
%TO.N,/D19*%
X123281200Y-54921200D02*
X125980000Y-57620000D01*
X125980000Y-60410000D02*
X129970000Y-64400000D01*
X123122000Y-54921200D02*
X123281200Y-54921200D01*
X125980000Y-57620000D02*
X125980000Y-60410000D01*
%TO.N,/SDA*%
X125220000Y-29970000D02*
X125220000Y-29980000D01*
X112260000Y-30740000D02*
X111470000Y-29950000D01*
X125220000Y-29980000D02*
X124460000Y-30740000D01*
X124460000Y-30740000D02*
X112260000Y-30740000D01*
%TO.N,/D27*%
X79730000Y-69558000D02*
X94180000Y-69558000D01*
%TO.N,/D23*%
X125920000Y-51110000D02*
X132130000Y-51110000D01*
X125920000Y-45019200D02*
X125920000Y-51110000D01*
X135370000Y-64290000D02*
X135980000Y-64290000D01*
X132130000Y-60440000D02*
X135980000Y-64290000D01*
X123122000Y-42221200D02*
X125920000Y-45019200D01*
X132130000Y-51110000D02*
X132130000Y-60440000D01*
%TD*%
%TA.AperFunction,Conductor*%
%TO.N,VCC*%
G36*
X139612539Y-24866185D02*
G01*
X139658294Y-24918989D01*
X139669500Y-24970500D01*
X139669500Y-81203910D01*
X139649815Y-81270949D01*
X139624986Y-81299084D01*
X116909003Y-100270674D01*
X116844930Y-100298538D01*
X116829517Y-100299500D01*
X92648359Y-100299500D01*
X92581320Y-100279815D01*
X92567836Y-100269797D01*
X86970203Y-95489796D01*
X84403653Y-93298135D01*
X89797500Y-93298135D01*
X89797500Y-95093870D01*
X89797501Y-95093876D01*
X89803908Y-95153483D01*
X89854202Y-95288328D01*
X89854206Y-95288335D01*
X89940452Y-95403544D01*
X89940455Y-95403547D01*
X90055664Y-95489793D01*
X90055671Y-95489797D01*
X90190517Y-95540091D01*
X90190516Y-95540091D01*
X90197444Y-95540835D01*
X90250127Y-95546500D01*
X92045872Y-95546499D01*
X92105483Y-95540091D01*
X92240331Y-95489796D01*
X92355546Y-95403546D01*
X92441796Y-95288331D01*
X92490810Y-95156916D01*
X92532681Y-95100984D01*
X92598145Y-95076566D01*
X92666418Y-95091417D01*
X92694673Y-95112569D01*
X92816599Y-95234495D01*
X92913384Y-95302265D01*
X93010165Y-95370032D01*
X93010167Y-95370033D01*
X93010170Y-95370035D01*
X93224337Y-95469903D01*
X93452592Y-95531063D01*
X93629034Y-95546500D01*
X93687999Y-95551659D01*
X93688000Y-95551659D01*
X93688001Y-95551659D01*
X93746966Y-95546500D01*
X93923408Y-95531063D01*
X94151663Y-95469903D01*
X94365830Y-95370035D01*
X94559401Y-95234495D01*
X94726495Y-95067401D01*
X94862035Y-94873830D01*
X94961903Y-94659663D01*
X95023063Y-94431408D01*
X95043659Y-94196000D01*
X95023063Y-93960592D01*
X94961903Y-93732337D01*
X94862035Y-93518171D01*
X94726495Y-93324599D01*
X94726494Y-93324597D01*
X94559402Y-93157506D01*
X94559395Y-93157501D01*
X94365834Y-93021967D01*
X94365830Y-93021965D01*
X94365828Y-93021964D01*
X94151663Y-92922097D01*
X94151659Y-92922096D01*
X94151655Y-92922094D01*
X93923413Y-92860938D01*
X93923403Y-92860936D01*
X93688001Y-92840341D01*
X93687999Y-92840341D01*
X93452596Y-92860936D01*
X93452586Y-92860938D01*
X93224344Y-92922094D01*
X93224335Y-92922098D01*
X93010171Y-93021964D01*
X93010169Y-93021965D01*
X92816600Y-93157503D01*
X92694673Y-93279430D01*
X92633350Y-93312914D01*
X92563658Y-93307930D01*
X92507725Y-93266058D01*
X92490810Y-93235081D01*
X92441797Y-93103671D01*
X92441793Y-93103664D01*
X92355547Y-92988455D01*
X92355544Y-92988452D01*
X92240335Y-92902206D01*
X92240328Y-92902202D01*
X92105482Y-92851908D01*
X92105483Y-92851908D01*
X92045883Y-92845501D01*
X92045881Y-92845500D01*
X92045873Y-92845500D01*
X92045864Y-92845500D01*
X90250129Y-92845500D01*
X90250123Y-92845501D01*
X90190516Y-92851908D01*
X90055671Y-92902202D01*
X90055664Y-92902206D01*
X89940455Y-92988452D01*
X89940452Y-92988455D01*
X89854206Y-93103664D01*
X89854202Y-93103671D01*
X89803908Y-93238517D01*
X89797501Y-93298116D01*
X89797500Y-93298135D01*
X84403653Y-93298135D01*
X83963289Y-92922094D01*
X73695548Y-84154135D01*
X85733500Y-84154135D01*
X85733500Y-85949870D01*
X85733501Y-85949876D01*
X85739908Y-86009483D01*
X85790202Y-86144328D01*
X85790206Y-86144335D01*
X85876452Y-86259544D01*
X85876455Y-86259547D01*
X85991664Y-86345793D01*
X85991671Y-86345797D01*
X86126517Y-86396091D01*
X86126516Y-86396091D01*
X86133444Y-86396835D01*
X86186127Y-86402500D01*
X87981872Y-86402499D01*
X88041483Y-86396091D01*
X88176331Y-86345796D01*
X88291546Y-86259546D01*
X88377796Y-86144331D01*
X88426810Y-86012916D01*
X88468681Y-85956984D01*
X88534145Y-85932566D01*
X88602418Y-85947417D01*
X88630673Y-85968569D01*
X88752599Y-86090495D01*
X88849384Y-86158265D01*
X88946165Y-86226032D01*
X88946167Y-86226033D01*
X88946170Y-86226035D01*
X89160337Y-86325903D01*
X89388592Y-86387063D01*
X89565034Y-86402500D01*
X89623999Y-86407659D01*
X89624000Y-86407659D01*
X89624001Y-86407659D01*
X89682966Y-86402500D01*
X89859408Y-86387063D01*
X90087663Y-86325903D01*
X90301830Y-86226035D01*
X90495401Y-86090495D01*
X90662495Y-85923401D01*
X90792730Y-85737405D01*
X90847307Y-85693781D01*
X90916805Y-85686587D01*
X90979160Y-85718110D01*
X90995879Y-85737405D01*
X91125890Y-85923078D01*
X91292917Y-86090105D01*
X91486421Y-86225600D01*
X91700507Y-86325429D01*
X91700516Y-86325433D01*
X91914000Y-86382634D01*
X91914000Y-85485012D01*
X91971007Y-85517925D01*
X92098174Y-85552000D01*
X92229826Y-85552000D01*
X92356993Y-85517925D01*
X92414000Y-85485012D01*
X92414000Y-86382633D01*
X92627483Y-86325433D01*
X92627492Y-86325429D01*
X92841578Y-86225600D01*
X93035082Y-86090105D01*
X93202105Y-85923082D01*
X93337600Y-85729578D01*
X93437429Y-85515492D01*
X93437432Y-85515486D01*
X93494636Y-85302000D01*
X92597012Y-85302000D01*
X92629925Y-85244993D01*
X92664000Y-85117826D01*
X92664000Y-84986174D01*
X92629925Y-84859007D01*
X92597012Y-84802000D01*
X93494636Y-84802000D01*
X93494635Y-84801999D01*
X93437432Y-84588513D01*
X93437429Y-84588507D01*
X93337600Y-84374422D01*
X93337599Y-84374420D01*
X93202113Y-84180926D01*
X93202108Y-84180920D01*
X93035082Y-84013894D01*
X92841578Y-83878399D01*
X92627492Y-83778570D01*
X92627486Y-83778567D01*
X92414000Y-83721364D01*
X92414000Y-84618988D01*
X92356993Y-84586075D01*
X92229826Y-84552000D01*
X92098174Y-84552000D01*
X91971007Y-84586075D01*
X91914000Y-84618988D01*
X91914000Y-83721364D01*
X91913999Y-83721364D01*
X91700513Y-83778567D01*
X91700507Y-83778570D01*
X91486422Y-83878399D01*
X91486420Y-83878400D01*
X91292926Y-84013886D01*
X91292920Y-84013891D01*
X91125891Y-84180920D01*
X91125890Y-84180922D01*
X90995880Y-84366595D01*
X90941303Y-84410219D01*
X90871804Y-84417412D01*
X90809450Y-84385890D01*
X90792730Y-84366594D01*
X90662494Y-84180597D01*
X90495402Y-84013506D01*
X90495395Y-84013501D01*
X90301834Y-83877967D01*
X90301830Y-83877965D01*
X90271670Y-83863901D01*
X90087663Y-83778097D01*
X90087659Y-83778096D01*
X90087655Y-83778094D01*
X89859413Y-83716938D01*
X89859403Y-83716936D01*
X89624001Y-83696341D01*
X89623999Y-83696341D01*
X89388596Y-83716936D01*
X89388586Y-83716938D01*
X89160344Y-83778094D01*
X89160335Y-83778098D01*
X88946171Y-83877964D01*
X88946169Y-83877965D01*
X88752600Y-84013503D01*
X88630673Y-84135430D01*
X88569350Y-84168914D01*
X88499658Y-84163930D01*
X88443725Y-84122058D01*
X88426810Y-84091081D01*
X88377797Y-83959671D01*
X88377793Y-83959664D01*
X88291547Y-83844455D01*
X88291544Y-83844452D01*
X88176335Y-83758206D01*
X88176328Y-83758202D01*
X88041482Y-83707908D01*
X88041483Y-83707908D01*
X87981883Y-83701501D01*
X87981881Y-83701500D01*
X87981873Y-83701500D01*
X87981864Y-83701500D01*
X86186129Y-83701500D01*
X86186123Y-83701501D01*
X86126516Y-83707908D01*
X85991671Y-83758202D01*
X85991664Y-83758206D01*
X85876455Y-83844452D01*
X85876452Y-83844455D01*
X85790206Y-83959664D01*
X85790202Y-83959671D01*
X85739908Y-84094517D01*
X85733501Y-84154116D01*
X85733500Y-84154135D01*
X73695548Y-84154135D01*
X70355977Y-81302366D01*
X70317778Y-81243863D01*
X70312500Y-81208069D01*
X70312500Y-81009999D01*
X128404341Y-81009999D01*
X128404341Y-81010000D01*
X128424936Y-81245403D01*
X128424938Y-81245413D01*
X128486094Y-81473655D01*
X128486096Y-81473659D01*
X128486097Y-81473663D01*
X128585965Y-81687830D01*
X128585967Y-81687834D01*
X128666828Y-81803314D01*
X128709197Y-81863824D01*
X128721501Y-81881395D01*
X128721506Y-81881402D01*
X128888597Y-82048493D01*
X128888603Y-82048498D01*
X129074158Y-82178425D01*
X129117783Y-82233002D01*
X129124977Y-82302500D01*
X129093454Y-82364855D01*
X129074158Y-82381575D01*
X128888597Y-82511505D01*
X128721505Y-82678597D01*
X128585965Y-82872169D01*
X128585964Y-82872171D01*
X128486098Y-83086335D01*
X128486094Y-83086344D01*
X128424938Y-83314586D01*
X128424936Y-83314596D01*
X128404341Y-83549999D01*
X128404341Y-83550000D01*
X128424936Y-83785403D01*
X128424938Y-83785413D01*
X128486094Y-84013655D01*
X128486096Y-84013659D01*
X128486097Y-84013663D01*
X128564091Y-84180922D01*
X128585965Y-84227830D01*
X128585967Y-84227834D01*
X128721501Y-84421395D01*
X128721506Y-84421402D01*
X128888597Y-84588493D01*
X128888603Y-84588498D01*
X129074158Y-84718425D01*
X129117783Y-84773002D01*
X129124977Y-84842500D01*
X129093454Y-84904855D01*
X129074158Y-84921575D01*
X128888597Y-85051505D01*
X128721505Y-85218597D01*
X128585965Y-85412169D01*
X128585964Y-85412171D01*
X128486098Y-85626335D01*
X128486094Y-85626344D01*
X128424938Y-85854586D01*
X128424936Y-85854596D01*
X128404341Y-86089999D01*
X128404341Y-86090000D01*
X128424936Y-86325403D01*
X128424938Y-86325413D01*
X128486094Y-86553655D01*
X128486096Y-86553659D01*
X128486097Y-86553663D01*
X128585965Y-86767830D01*
X128585967Y-86767834D01*
X128694281Y-86922521D01*
X128721505Y-86961401D01*
X128888599Y-87128495D01*
X128985384Y-87196265D01*
X129082165Y-87264032D01*
X129082167Y-87264033D01*
X129082170Y-87264035D01*
X129296337Y-87363903D01*
X129524592Y-87425063D01*
X129712918Y-87441539D01*
X129759999Y-87445659D01*
X129760000Y-87445659D01*
X129760001Y-87445659D01*
X129799234Y-87442226D01*
X129995408Y-87425063D01*
X130223663Y-87363903D01*
X130437830Y-87264035D01*
X130631401Y-87128495D01*
X130798495Y-86961401D01*
X130934035Y-86767830D01*
X131033903Y-86553663D01*
X131095063Y-86325408D01*
X131115659Y-86090000D01*
X131095063Y-85854592D01*
X131033903Y-85626337D01*
X130934035Y-85412171D01*
X130896810Y-85359007D01*
X130798494Y-85218597D01*
X130631402Y-85051506D01*
X130631396Y-85051501D01*
X130445842Y-84921575D01*
X130402217Y-84866998D01*
X130395023Y-84797500D01*
X130426546Y-84735145D01*
X130445842Y-84718425D01*
X130631375Y-84588513D01*
X130631401Y-84588495D01*
X130798495Y-84421401D01*
X130934035Y-84227830D01*
X131033903Y-84013663D01*
X131095063Y-83785408D01*
X131115659Y-83550000D01*
X131095063Y-83314592D01*
X131033903Y-83086337D01*
X130934035Y-82872171D01*
X130901292Y-82825408D01*
X130798494Y-82678597D01*
X130631402Y-82511506D01*
X130631396Y-82511501D01*
X130445842Y-82381575D01*
X130402217Y-82326998D01*
X130395023Y-82257500D01*
X130426546Y-82195145D01*
X130445842Y-82178425D01*
X130520234Y-82126335D01*
X130631401Y-82048495D01*
X130798495Y-81881401D01*
X130934035Y-81687830D01*
X131033903Y-81473663D01*
X131095063Y-81245408D01*
X131115659Y-81010000D01*
X131095063Y-80774592D01*
X131033903Y-80546337D01*
X130934035Y-80332171D01*
X130901291Y-80285408D01*
X130798496Y-80138600D01*
X130798495Y-80138599D01*
X130676179Y-80016283D01*
X130642696Y-79954963D01*
X130647680Y-79885271D01*
X130689551Y-79829337D01*
X130720529Y-79812422D01*
X130852086Y-79763354D01*
X130852093Y-79763350D01*
X130967187Y-79677190D01*
X130967190Y-79677187D01*
X131053350Y-79562093D01*
X131053354Y-79562086D01*
X131103596Y-79427379D01*
X131103598Y-79427372D01*
X131109999Y-79367844D01*
X131110000Y-79367827D01*
X131110000Y-78720000D01*
X130193012Y-78720000D01*
X130225925Y-78662993D01*
X130260000Y-78535826D01*
X130260000Y-78404174D01*
X130225925Y-78277007D01*
X130193012Y-78220000D01*
X131110000Y-78220000D01*
X131110000Y-77572172D01*
X131109999Y-77572155D01*
X131103598Y-77512627D01*
X131103596Y-77512620D01*
X131102618Y-77509999D01*
X132194341Y-77509999D01*
X132194341Y-77510000D01*
X132214936Y-77745403D01*
X132214938Y-77745413D01*
X132276094Y-77973655D01*
X132276096Y-77973659D01*
X132276097Y-77973663D01*
X132296123Y-78016608D01*
X132375965Y-78187830D01*
X132375967Y-78187834D01*
X132511501Y-78381395D01*
X132511506Y-78381402D01*
X132678597Y-78548493D01*
X132678603Y-78548498D01*
X132864158Y-78678425D01*
X132907783Y-78733002D01*
X132914977Y-78802500D01*
X132883454Y-78864855D01*
X132864158Y-78881575D01*
X132678597Y-79011505D01*
X132511505Y-79178597D01*
X132375965Y-79372169D01*
X132375964Y-79372171D01*
X132276098Y-79586335D01*
X132276094Y-79586344D01*
X132214938Y-79814586D01*
X132214936Y-79814596D01*
X132194341Y-80049999D01*
X132194341Y-80050000D01*
X132214936Y-80285403D01*
X132214938Y-80285413D01*
X132276094Y-80513655D01*
X132276096Y-80513659D01*
X132276097Y-80513663D01*
X132375965Y-80727830D01*
X132375967Y-80727834D01*
X132511501Y-80921395D01*
X132511506Y-80921402D01*
X132678597Y-81088493D01*
X132678603Y-81088498D01*
X132864158Y-81218425D01*
X132907783Y-81273002D01*
X132914977Y-81342500D01*
X132883454Y-81404855D01*
X132864158Y-81421575D01*
X132678597Y-81551505D01*
X132511505Y-81718597D01*
X132375965Y-81912169D01*
X132375964Y-81912171D01*
X132276098Y-82126335D01*
X132276094Y-82126344D01*
X132214938Y-82354586D01*
X132214936Y-82354596D01*
X132194341Y-82589999D01*
X132194341Y-82590000D01*
X132214936Y-82825403D01*
X132214938Y-82825413D01*
X132276094Y-83053655D01*
X132276096Y-83053659D01*
X132276097Y-83053663D01*
X132375965Y-83267830D01*
X132375967Y-83267834D01*
X132484281Y-83422521D01*
X132511505Y-83461401D01*
X132678599Y-83628495D01*
X132775384Y-83696265D01*
X132872165Y-83764032D01*
X132872167Y-83764033D01*
X132872170Y-83764035D01*
X133086337Y-83863903D01*
X133314592Y-83925063D01*
X133502918Y-83941539D01*
X133549999Y-83945659D01*
X133550000Y-83945659D01*
X133550001Y-83945659D01*
X133589234Y-83942226D01*
X133785408Y-83925063D01*
X134013663Y-83863903D01*
X134227830Y-83764035D01*
X134421401Y-83628495D01*
X134588495Y-83461401D01*
X134724035Y-83267830D01*
X134823903Y-83053663D01*
X134885063Y-82825408D01*
X134905659Y-82590000D01*
X134885063Y-82354592D01*
X134823903Y-82126337D01*
X134724035Y-81912171D01*
X134721006Y-81907844D01*
X134588494Y-81718597D01*
X134421402Y-81551506D01*
X134421396Y-81551501D01*
X134235842Y-81421575D01*
X134192217Y-81366998D01*
X134185023Y-81297500D01*
X134216546Y-81235145D01*
X134235842Y-81218425D01*
X134258026Y-81202891D01*
X134421401Y-81088495D01*
X134588495Y-80921401D01*
X134724035Y-80727830D01*
X134823903Y-80513663D01*
X134885063Y-80285408D01*
X134905659Y-80050000D01*
X134885063Y-79814592D01*
X134823903Y-79586337D01*
X134724035Y-79372171D01*
X134721006Y-79367844D01*
X134588494Y-79178597D01*
X134421402Y-79011506D01*
X134421396Y-79011501D01*
X134235842Y-78881575D01*
X134192217Y-78826998D01*
X134185023Y-78757500D01*
X134216546Y-78695145D01*
X134235842Y-78678425D01*
X134273178Y-78652282D01*
X134421401Y-78548495D01*
X134588495Y-78381401D01*
X134724035Y-78187830D01*
X134823903Y-77973663D01*
X134885063Y-77745408D01*
X134905659Y-77510000D01*
X134885063Y-77274592D01*
X134823903Y-77046337D01*
X134724035Y-76832171D01*
X134661391Y-76742706D01*
X134588496Y-76638600D01*
X134531231Y-76581335D01*
X134466179Y-76516283D01*
X134432696Y-76454963D01*
X134437680Y-76385271D01*
X134479551Y-76329337D01*
X134510529Y-76312422D01*
X134642086Y-76263354D01*
X134642093Y-76263350D01*
X134757187Y-76177190D01*
X134757190Y-76177187D01*
X134843350Y-76062093D01*
X134843354Y-76062086D01*
X134893596Y-75927379D01*
X134893598Y-75927372D01*
X134899999Y-75867844D01*
X134900000Y-75867827D01*
X134900000Y-75220000D01*
X133983012Y-75220000D01*
X134015925Y-75162993D01*
X134050000Y-75035826D01*
X134050000Y-74904174D01*
X134015925Y-74777007D01*
X133983012Y-74720000D01*
X134900000Y-74720000D01*
X134900000Y-74072172D01*
X134899999Y-74072155D01*
X134893598Y-74012627D01*
X134893596Y-74012620D01*
X134843354Y-73877913D01*
X134843350Y-73877906D01*
X134757190Y-73762812D01*
X134757187Y-73762809D01*
X134642093Y-73676649D01*
X134642086Y-73676645D01*
X134507379Y-73626403D01*
X134507372Y-73626401D01*
X134447844Y-73620000D01*
X133800000Y-73620000D01*
X133800000Y-74536988D01*
X133742993Y-74504075D01*
X133615826Y-74470000D01*
X133484174Y-74470000D01*
X133357007Y-74504075D01*
X133300000Y-74536988D01*
X133300000Y-73620000D01*
X132652155Y-73620000D01*
X132592627Y-73626401D01*
X132592620Y-73626403D01*
X132457913Y-73676645D01*
X132457906Y-73676649D01*
X132342812Y-73762809D01*
X132342809Y-73762812D01*
X132256649Y-73877906D01*
X132256645Y-73877913D01*
X132206403Y-74012620D01*
X132206401Y-74012627D01*
X132200000Y-74072155D01*
X132200000Y-74720000D01*
X133116988Y-74720000D01*
X133084075Y-74777007D01*
X133050000Y-74904174D01*
X133050000Y-75035826D01*
X133084075Y-75162993D01*
X133116988Y-75220000D01*
X132200000Y-75220000D01*
X132200000Y-75867844D01*
X132206401Y-75927372D01*
X132206403Y-75927379D01*
X132256645Y-76062086D01*
X132256649Y-76062093D01*
X132342809Y-76177187D01*
X132342812Y-76177190D01*
X132457906Y-76263350D01*
X132457913Y-76263354D01*
X132589470Y-76312421D01*
X132645403Y-76354292D01*
X132669821Y-76419756D01*
X132654970Y-76488029D01*
X132633819Y-76516284D01*
X132511503Y-76638600D01*
X132375965Y-76832169D01*
X132375964Y-76832171D01*
X132282401Y-77032816D01*
X132276721Y-77045000D01*
X132276098Y-77046335D01*
X132276094Y-77046344D01*
X132214938Y-77274586D01*
X132214936Y-77274596D01*
X132194341Y-77509999D01*
X131102618Y-77509999D01*
X131053354Y-77377913D01*
X131053350Y-77377906D01*
X130967190Y-77262812D01*
X130967187Y-77262809D01*
X130852093Y-77176649D01*
X130852086Y-77176645D01*
X130717379Y-77126403D01*
X130717372Y-77126401D01*
X130657844Y-77120000D01*
X130010000Y-77120000D01*
X130010000Y-78036988D01*
X129952993Y-78004075D01*
X129825826Y-77970000D01*
X129694174Y-77970000D01*
X129567007Y-78004075D01*
X129510000Y-78036988D01*
X129510000Y-77120000D01*
X128862155Y-77120000D01*
X128802627Y-77126401D01*
X128802620Y-77126403D01*
X128667913Y-77176645D01*
X128667906Y-77176649D01*
X128552812Y-77262809D01*
X128552809Y-77262812D01*
X128466649Y-77377906D01*
X128466645Y-77377913D01*
X128416403Y-77512620D01*
X128416401Y-77512627D01*
X128410000Y-77572155D01*
X128410000Y-78220000D01*
X129326988Y-78220000D01*
X129294075Y-78277007D01*
X129260000Y-78404174D01*
X129260000Y-78535826D01*
X129294075Y-78662993D01*
X129326988Y-78720000D01*
X128410000Y-78720000D01*
X128410000Y-79367844D01*
X128416401Y-79427372D01*
X128416403Y-79427379D01*
X128466645Y-79562086D01*
X128466649Y-79562093D01*
X128552809Y-79677187D01*
X128552812Y-79677190D01*
X128667906Y-79763350D01*
X128667913Y-79763354D01*
X128799470Y-79812421D01*
X128855403Y-79854292D01*
X128879821Y-79919756D01*
X128864970Y-79988029D01*
X128843819Y-80016284D01*
X128721503Y-80138600D01*
X128585965Y-80332169D01*
X128585964Y-80332171D01*
X128486098Y-80546335D01*
X128486094Y-80546344D01*
X128424938Y-80774586D01*
X128424936Y-80774596D01*
X128404341Y-81009999D01*
X70312500Y-81009999D01*
X70312500Y-77044999D01*
X77494341Y-77044999D01*
X77494341Y-77045000D01*
X77514936Y-77280403D01*
X77514938Y-77280413D01*
X77576094Y-77508655D01*
X77576096Y-77508659D01*
X77576097Y-77508663D01*
X77605704Y-77572155D01*
X77675965Y-77722830D01*
X77675967Y-77722834D01*
X77716835Y-77781199D01*
X77811505Y-77916401D01*
X77978599Y-78083495D01*
X78075384Y-78151265D01*
X78172165Y-78219032D01*
X78172167Y-78219033D01*
X78172170Y-78219035D01*
X78386337Y-78318903D01*
X78614592Y-78380063D01*
X78802918Y-78396539D01*
X78849999Y-78400659D01*
X78850000Y-78400659D01*
X78850001Y-78400659D01*
X78889234Y-78397226D01*
X79085408Y-78380063D01*
X79313663Y-78318903D01*
X79527830Y-78219035D01*
X79721401Y-78083495D01*
X79888495Y-77916401D01*
X80024035Y-77722830D01*
X80123903Y-77508663D01*
X80185063Y-77280408D01*
X80205659Y-77045000D01*
X80185063Y-76809592D01*
X80123903Y-76581337D01*
X80024035Y-76367171D01*
X80002184Y-76335965D01*
X79888496Y-76173600D01*
X79869237Y-76154341D01*
X79766567Y-76051671D01*
X79733084Y-75990351D01*
X79738068Y-75920659D01*
X79779939Y-75864725D01*
X79810915Y-75847810D01*
X79942331Y-75798796D01*
X80057546Y-75712546D01*
X80143796Y-75597331D01*
X80194091Y-75462483D01*
X80200500Y-75402873D01*
X80200499Y-73607128D01*
X80194091Y-73547517D01*
X80143796Y-73412669D01*
X80143795Y-73412668D01*
X80143793Y-73412664D01*
X80057547Y-73297455D01*
X80057544Y-73297452D01*
X79942335Y-73211206D01*
X79942328Y-73211202D01*
X79807482Y-73160908D01*
X79807483Y-73160908D01*
X79747883Y-73154501D01*
X79747881Y-73154500D01*
X79747873Y-73154500D01*
X79747864Y-73154500D01*
X77952129Y-73154500D01*
X77952123Y-73154501D01*
X77892516Y-73160908D01*
X77757671Y-73211202D01*
X77757664Y-73211206D01*
X77642455Y-73297452D01*
X77642452Y-73297455D01*
X77556206Y-73412664D01*
X77556202Y-73412671D01*
X77505908Y-73547517D01*
X77499501Y-73607116D01*
X77499501Y-73607123D01*
X77499500Y-73607135D01*
X77499500Y-75402870D01*
X77499501Y-75402876D01*
X77505908Y-75462483D01*
X77556202Y-75597328D01*
X77556206Y-75597335D01*
X77642452Y-75712544D01*
X77642455Y-75712547D01*
X77757664Y-75798793D01*
X77757671Y-75798797D01*
X77889081Y-75847810D01*
X77945015Y-75889681D01*
X77969432Y-75955145D01*
X77954580Y-76023418D01*
X77933430Y-76051673D01*
X77811503Y-76173600D01*
X77675965Y-76367169D01*
X77675964Y-76367171D01*
X77576098Y-76581335D01*
X77576094Y-76581344D01*
X77514938Y-76809586D01*
X77514936Y-76809596D01*
X77494341Y-77044999D01*
X70312500Y-77044999D01*
X70312500Y-70319996D01*
X78204435Y-70319996D01*
X78204435Y-70320003D01*
X78224630Y-70499249D01*
X78224631Y-70499254D01*
X78284211Y-70669523D01*
X78319484Y-70725659D01*
X78380184Y-70822262D01*
X78507738Y-70949816D01*
X78660478Y-71045789D01*
X78830745Y-71105368D01*
X78830750Y-71105369D01*
X79009996Y-71125565D01*
X79010000Y-71125565D01*
X79010004Y-71125565D01*
X79189249Y-71105369D01*
X79189252Y-71105368D01*
X79189255Y-71105368D01*
X79359522Y-71045789D01*
X79512262Y-70949816D01*
X79512267Y-70949810D01*
X79515097Y-70947555D01*
X79517275Y-70946665D01*
X79518158Y-70946111D01*
X79518255Y-70946265D01*
X79579783Y-70921145D01*
X79592412Y-70920500D01*
X95137588Y-70920500D01*
X95204627Y-70940185D01*
X95214903Y-70947555D01*
X95217736Y-70949814D01*
X95217738Y-70949816D01*
X95370478Y-71045789D01*
X95540745Y-71105368D01*
X95540750Y-71105369D01*
X95719996Y-71125565D01*
X95720000Y-71125565D01*
X95720004Y-71125565D01*
X95899249Y-71105369D01*
X95899252Y-71105368D01*
X95899255Y-71105368D01*
X96069522Y-71045789D01*
X96222262Y-70949816D01*
X96296146Y-70875931D01*
X96357465Y-70842449D01*
X96427157Y-70847433D01*
X96483091Y-70889304D01*
X96485393Y-70892483D01*
X96583505Y-71032601D01*
X96583506Y-71032602D01*
X96750597Y-71199693D01*
X96750603Y-71199698D01*
X96936158Y-71329625D01*
X96979783Y-71384202D01*
X96986977Y-71453700D01*
X96955454Y-71516055D01*
X96936158Y-71532775D01*
X96750597Y-71662705D01*
X96583505Y-71829797D01*
X96447965Y-72023369D01*
X96447964Y-72023371D01*
X96348098Y-72237535D01*
X96348094Y-72237544D01*
X96286938Y-72465786D01*
X96286936Y-72465796D01*
X96266341Y-72701199D01*
X96266341Y-72701200D01*
X96286936Y-72936603D01*
X96286938Y-72936613D01*
X96348094Y-73164855D01*
X96348096Y-73164859D01*
X96348097Y-73164863D01*
X96409926Y-73297455D01*
X96447965Y-73379030D01*
X96447967Y-73379034D01*
X96583501Y-73572595D01*
X96583506Y-73572602D01*
X96750597Y-73739693D01*
X96750603Y-73739698D01*
X96936158Y-73869625D01*
X96979783Y-73924202D01*
X96986977Y-73993700D01*
X96955454Y-74056055D01*
X96936158Y-74072775D01*
X96750597Y-74202705D01*
X96583505Y-74369797D01*
X96447965Y-74563369D01*
X96447964Y-74563371D01*
X96348098Y-74777535D01*
X96348094Y-74777544D01*
X96286938Y-75005786D01*
X96286936Y-75005796D01*
X96266341Y-75241199D01*
X96266341Y-75241200D01*
X96286936Y-75476603D01*
X96286938Y-75476613D01*
X96348094Y-75704855D01*
X96348096Y-75704859D01*
X96348097Y-75704863D01*
X96425552Y-75870965D01*
X96447965Y-75919030D01*
X96447967Y-75919034D01*
X96583501Y-76112595D01*
X96583506Y-76112602D01*
X96750597Y-76279693D01*
X96750603Y-76279698D01*
X96797338Y-76312422D01*
X96857134Y-76354292D01*
X96936594Y-76409930D01*
X96980219Y-76464507D01*
X96987413Y-76534005D01*
X96955890Y-76596360D01*
X96936595Y-76613080D01*
X96750922Y-76743090D01*
X96750920Y-76743091D01*
X96583891Y-76910120D01*
X96583886Y-76910126D01*
X96448400Y-77103620D01*
X96448399Y-77103622D01*
X96348570Y-77317707D01*
X96348567Y-77317713D01*
X96291364Y-77531199D01*
X96291364Y-77531200D01*
X97188988Y-77531200D01*
X97156075Y-77588207D01*
X97122000Y-77715374D01*
X97122000Y-77847026D01*
X97156075Y-77974193D01*
X97188988Y-78031200D01*
X96291364Y-78031200D01*
X96348567Y-78244686D01*
X96348570Y-78244692D01*
X96448399Y-78458778D01*
X96583894Y-78652282D01*
X96750917Y-78819305D01*
X96944421Y-78954800D01*
X97158507Y-79054629D01*
X97158516Y-79054633D01*
X97372000Y-79111834D01*
X97372000Y-78214212D01*
X97429007Y-78247125D01*
X97556174Y-78281200D01*
X97687826Y-78281200D01*
X97814993Y-78247125D01*
X97872000Y-78214212D01*
X97872000Y-79111833D01*
X98085483Y-79054633D01*
X98085492Y-79054629D01*
X98299578Y-78954800D01*
X98493082Y-78819305D01*
X98660105Y-78652282D01*
X98795600Y-78458778D01*
X98895429Y-78244692D01*
X98895432Y-78244686D01*
X98952636Y-78031200D01*
X98055012Y-78031200D01*
X98087925Y-77974193D01*
X98122000Y-77847026D01*
X98122000Y-77715374D01*
X98087925Y-77588207D01*
X98055012Y-77531200D01*
X98952636Y-77531200D01*
X98952635Y-77531199D01*
X98895432Y-77317713D01*
X98895429Y-77317707D01*
X98795600Y-77103622D01*
X98795599Y-77103620D01*
X98660113Y-76910126D01*
X98660108Y-76910120D01*
X98493078Y-76743090D01*
X98307405Y-76613079D01*
X98263780Y-76558502D01*
X98256588Y-76489004D01*
X98288110Y-76426649D01*
X98307406Y-76409930D01*
X98368475Y-76367169D01*
X98493401Y-76279695D01*
X98660495Y-76112601D01*
X98796035Y-75919030D01*
X98895903Y-75704863D01*
X98957063Y-75476608D01*
X98977659Y-75241200D01*
X98957063Y-75005792D01*
X98895903Y-74777537D01*
X98796035Y-74563371D01*
X98730657Y-74470000D01*
X98660494Y-74369797D01*
X98493402Y-74202706D01*
X98493396Y-74202701D01*
X98307842Y-74072775D01*
X98264217Y-74018198D01*
X98257023Y-73948700D01*
X98288546Y-73886345D01*
X98307842Y-73869625D01*
X98330026Y-73854091D01*
X98493401Y-73739695D01*
X98660495Y-73572601D01*
X98796035Y-73379030D01*
X98895903Y-73164863D01*
X98957063Y-72936608D01*
X98977659Y-72701200D01*
X98957063Y-72465792D01*
X98895903Y-72237537D01*
X98796035Y-72023371D01*
X98660495Y-71829799D01*
X98660494Y-71829797D01*
X98493402Y-71662706D01*
X98493396Y-71662701D01*
X98307842Y-71532775D01*
X98264217Y-71478198D01*
X98257023Y-71408700D01*
X98288546Y-71346345D01*
X98307842Y-71329625D01*
X98330026Y-71314091D01*
X98493401Y-71199695D01*
X98660495Y-71032601D01*
X98796035Y-70839030D01*
X98895903Y-70624863D01*
X98957063Y-70396608D01*
X98977659Y-70161200D01*
X98957063Y-69925792D01*
X98900693Y-69715413D01*
X98895905Y-69697544D01*
X98895904Y-69697543D01*
X98895903Y-69697537D01*
X98796035Y-69483371D01*
X98722776Y-69378745D01*
X98660494Y-69289797D01*
X98493402Y-69122706D01*
X98493396Y-69122701D01*
X98307842Y-68992775D01*
X98264217Y-68938198D01*
X98257023Y-68868700D01*
X98288546Y-68806345D01*
X98307842Y-68789625D01*
X98360955Y-68752435D01*
X98493401Y-68659695D01*
X98660495Y-68492601D01*
X98796035Y-68299030D01*
X98895903Y-68084863D01*
X98957063Y-67856608D01*
X98977659Y-67621200D01*
X98957063Y-67385792D01*
X98895903Y-67157537D01*
X98796035Y-66943371D01*
X98787919Y-66931779D01*
X98660494Y-66749797D01*
X98493402Y-66582706D01*
X98493396Y-66582701D01*
X98307842Y-66452775D01*
X98264217Y-66398198D01*
X98257023Y-66328700D01*
X98288546Y-66266345D01*
X98307842Y-66249625D01*
X98330869Y-66233501D01*
X98493401Y-66119695D01*
X98660495Y-65952601D01*
X98796035Y-65759030D01*
X98895903Y-65544863D01*
X98957063Y-65316608D01*
X98977659Y-65081200D01*
X98957063Y-64845792D01*
X98895903Y-64617537D01*
X98796035Y-64403371D01*
X98701489Y-64268344D01*
X98660494Y-64209797D01*
X98493402Y-64042706D01*
X98493396Y-64042701D01*
X98307842Y-63912775D01*
X98264217Y-63858198D01*
X98257023Y-63788700D01*
X98288546Y-63726345D01*
X98307842Y-63709625D01*
X98330869Y-63693501D01*
X98493401Y-63579695D01*
X98660495Y-63412601D01*
X98796035Y-63219030D01*
X98895903Y-63004863D01*
X98957063Y-62776608D01*
X98977659Y-62541200D01*
X98957063Y-62305792D01*
X98895903Y-62077537D01*
X98796035Y-61863371D01*
X98701489Y-61728344D01*
X98660494Y-61669797D01*
X98493402Y-61502706D01*
X98493396Y-61502701D01*
X98307842Y-61372775D01*
X98264217Y-61318198D01*
X98257023Y-61248700D01*
X98288546Y-61186345D01*
X98307842Y-61169625D01*
X98330869Y-61153501D01*
X98493401Y-61039695D01*
X98660495Y-60872601D01*
X98796035Y-60679030D01*
X98895903Y-60464863D01*
X98957063Y-60236608D01*
X98977659Y-60001200D01*
X98957063Y-59765792D01*
X98895903Y-59537537D01*
X98796035Y-59323371D01*
X98782496Y-59304034D01*
X98660494Y-59129797D01*
X98493402Y-58962706D01*
X98493396Y-58962701D01*
X98307842Y-58832775D01*
X98264217Y-58778198D01*
X98257023Y-58708700D01*
X98288546Y-58646345D01*
X98307842Y-58629625D01*
X98402045Y-58563663D01*
X98493401Y-58499695D01*
X98660495Y-58332601D01*
X98796035Y-58139030D01*
X98895903Y-57924863D01*
X98957063Y-57696608D01*
X98977659Y-57461200D01*
X98957063Y-57225792D01*
X98895903Y-56997537D01*
X98796035Y-56783371D01*
X98795563Y-56782696D01*
X98660494Y-56589797D01*
X98493402Y-56422706D01*
X98493396Y-56422701D01*
X98307842Y-56292775D01*
X98264217Y-56238198D01*
X98257023Y-56168700D01*
X98288546Y-56106345D01*
X98307842Y-56089625D01*
X98398815Y-56025925D01*
X98493401Y-55959695D01*
X98660495Y-55792601D01*
X98796035Y-55599030D01*
X98895903Y-55384863D01*
X98957063Y-55156608D01*
X98977659Y-54921200D01*
X98957063Y-54685792D01*
X98899333Y-54470337D01*
X98895905Y-54457544D01*
X98895904Y-54457543D01*
X98895903Y-54457537D01*
X98796035Y-54243371D01*
X98784955Y-54227546D01*
X98660494Y-54049797D01*
X98493402Y-53882706D01*
X98493396Y-53882701D01*
X98307842Y-53752775D01*
X98264217Y-53698198D01*
X98257023Y-53628700D01*
X98288546Y-53566345D01*
X98307842Y-53549625D01*
X98376166Y-53501784D01*
X98493401Y-53419695D01*
X98660495Y-53252601D01*
X98796035Y-53059030D01*
X98895903Y-52844863D01*
X98957063Y-52616608D01*
X98977659Y-52381200D01*
X98957063Y-52145792D01*
X98898618Y-51927669D01*
X98895905Y-51917544D01*
X98895904Y-51917543D01*
X98895903Y-51917537D01*
X98796035Y-51703371D01*
X98776806Y-51675908D01*
X98660494Y-51509797D01*
X98493402Y-51342706D01*
X98493396Y-51342701D01*
X98307842Y-51212775D01*
X98264217Y-51158198D01*
X98257023Y-51088700D01*
X98288546Y-51026345D01*
X98307842Y-51009625D01*
X98353934Y-50977351D01*
X98493401Y-50879695D01*
X98660495Y-50712601D01*
X98796035Y-50519030D01*
X98895903Y-50304863D01*
X98957063Y-50076608D01*
X98977659Y-49841200D01*
X98957063Y-49605792D01*
X98895903Y-49377537D01*
X98796035Y-49163371D01*
X98660495Y-48969799D01*
X98660494Y-48969797D01*
X98493402Y-48802706D01*
X98493396Y-48802701D01*
X98307842Y-48672775D01*
X98264217Y-48618198D01*
X98257023Y-48548700D01*
X98288546Y-48486345D01*
X98307842Y-48469625D01*
X98407756Y-48399664D01*
X98493401Y-48339695D01*
X98660495Y-48172601D01*
X98796035Y-47979030D01*
X98895903Y-47764863D01*
X98957063Y-47536608D01*
X98977659Y-47301200D01*
X98957063Y-47065792D01*
X98895903Y-46837537D01*
X98796035Y-46623371D01*
X98759915Y-46571785D01*
X98660494Y-46429797D01*
X98493402Y-46262706D01*
X98493396Y-46262701D01*
X98307842Y-46132775D01*
X98264217Y-46078198D01*
X98257023Y-46008700D01*
X98288546Y-45946345D01*
X98307842Y-45929625D01*
X98330026Y-45914091D01*
X98493401Y-45799695D01*
X98660495Y-45632601D01*
X98796035Y-45439030D01*
X98895903Y-45224863D01*
X98957063Y-44996608D01*
X98977659Y-44761200D01*
X98957063Y-44525792D01*
X98899554Y-44311162D01*
X98895905Y-44297544D01*
X98895904Y-44297543D01*
X98895903Y-44297537D01*
X98796035Y-44083371D01*
X98780285Y-44060878D01*
X98660496Y-43889800D01*
X98660495Y-43889799D01*
X98538567Y-43767871D01*
X98505084Y-43706551D01*
X98510068Y-43636859D01*
X98551939Y-43580925D01*
X98582915Y-43564010D01*
X98714331Y-43514996D01*
X98829546Y-43428746D01*
X98915796Y-43313531D01*
X98966091Y-43178683D01*
X98972500Y-43119073D01*
X98972499Y-41323328D01*
X98966091Y-41263717D01*
X98954192Y-41231815D01*
X98915797Y-41128871D01*
X98915793Y-41128864D01*
X98829547Y-41013655D01*
X98829544Y-41013652D01*
X98714335Y-40927406D01*
X98714328Y-40927402D01*
X98579482Y-40877108D01*
X98579483Y-40877108D01*
X98519883Y-40870701D01*
X98519881Y-40870700D01*
X98519873Y-40870700D01*
X98519864Y-40870700D01*
X96724129Y-40870700D01*
X96724123Y-40870701D01*
X96664516Y-40877108D01*
X96529671Y-40927402D01*
X96529664Y-40927406D01*
X96414455Y-41013652D01*
X96414452Y-41013655D01*
X96328206Y-41128864D01*
X96328202Y-41128871D01*
X96277908Y-41263717D01*
X96271501Y-41323316D01*
X96271501Y-41323323D01*
X96271500Y-41323335D01*
X96271500Y-43119070D01*
X96271501Y-43119076D01*
X96277908Y-43178683D01*
X96328202Y-43313528D01*
X96328206Y-43313535D01*
X96414452Y-43428744D01*
X96414455Y-43428747D01*
X96529664Y-43514993D01*
X96529671Y-43514997D01*
X96661081Y-43564010D01*
X96717015Y-43605881D01*
X96741432Y-43671345D01*
X96726580Y-43739618D01*
X96705430Y-43767873D01*
X96583503Y-43889800D01*
X96447965Y-44083369D01*
X96447964Y-44083371D01*
X96348098Y-44297535D01*
X96348094Y-44297544D01*
X96286938Y-44525786D01*
X96286936Y-44525796D01*
X96266341Y-44761199D01*
X96266341Y-44761200D01*
X96286936Y-44996603D01*
X96286938Y-44996613D01*
X96348094Y-45224855D01*
X96348096Y-45224859D01*
X96348097Y-45224863D01*
X96425002Y-45389785D01*
X96447965Y-45439030D01*
X96447967Y-45439034D01*
X96556281Y-45593721D01*
X96570410Y-45613900D01*
X96583501Y-45632595D01*
X96583506Y-45632602D01*
X96750597Y-45799693D01*
X96750603Y-45799698D01*
X96936158Y-45929625D01*
X96979783Y-45984202D01*
X96986977Y-46053700D01*
X96955454Y-46116055D01*
X96936158Y-46132775D01*
X96750597Y-46262705D01*
X96583505Y-46429797D01*
X96447965Y-46623369D01*
X96447964Y-46623371D01*
X96348098Y-46837535D01*
X96348094Y-46837544D01*
X96286938Y-47065786D01*
X96286936Y-47065796D01*
X96266341Y-47301199D01*
X96266341Y-47301200D01*
X96286936Y-47536603D01*
X96286938Y-47536613D01*
X96348094Y-47764855D01*
X96348096Y-47764859D01*
X96348097Y-47764863D01*
X96433886Y-47948838D01*
X96447965Y-47979030D01*
X96447967Y-47979034D01*
X96505011Y-48060500D01*
X96566215Y-48147909D01*
X96583501Y-48172595D01*
X96583506Y-48172602D01*
X96750597Y-48339693D01*
X96750603Y-48339698D01*
X96936158Y-48469625D01*
X96979783Y-48524202D01*
X96986977Y-48593700D01*
X96955454Y-48656055D01*
X96936158Y-48672775D01*
X96750597Y-48802705D01*
X96583505Y-48969797D01*
X96447965Y-49163369D01*
X96447964Y-49163371D01*
X96348098Y-49377535D01*
X96348094Y-49377544D01*
X96286938Y-49605786D01*
X96286936Y-49605796D01*
X96266341Y-49841199D01*
X96266341Y-49841200D01*
X96286936Y-50076603D01*
X96286938Y-50076613D01*
X96348094Y-50304855D01*
X96348096Y-50304859D01*
X96348097Y-50304863D01*
X96387743Y-50389883D01*
X96447965Y-50519030D01*
X96447967Y-50519034D01*
X96539352Y-50649544D01*
X96574364Y-50699547D01*
X96583501Y-50712595D01*
X96583506Y-50712602D01*
X96750597Y-50879693D01*
X96750603Y-50879698D01*
X96936158Y-51009625D01*
X96979783Y-51064202D01*
X96986977Y-51133700D01*
X96955454Y-51196055D01*
X96936158Y-51212775D01*
X96750597Y-51342705D01*
X96583505Y-51509797D01*
X96447965Y-51703369D01*
X96447964Y-51703371D01*
X96348098Y-51917535D01*
X96348094Y-51917544D01*
X96286938Y-52145786D01*
X96286936Y-52145796D01*
X96266341Y-52381199D01*
X96266341Y-52381200D01*
X96286936Y-52616603D01*
X96286938Y-52616613D01*
X96348094Y-52844855D01*
X96348096Y-52844859D01*
X96348097Y-52844863D01*
X96407228Y-52971669D01*
X96447965Y-53059030D01*
X96447967Y-53059034D01*
X96583501Y-53252595D01*
X96583506Y-53252602D01*
X96750597Y-53419693D01*
X96750603Y-53419698D01*
X96936158Y-53549625D01*
X96979783Y-53604202D01*
X96986977Y-53673700D01*
X96955454Y-53736055D01*
X96936158Y-53752775D01*
X96750597Y-53882705D01*
X96583505Y-54049797D01*
X96447965Y-54243369D01*
X96447964Y-54243371D01*
X96348098Y-54457535D01*
X96348094Y-54457544D01*
X96286938Y-54685786D01*
X96286936Y-54685796D01*
X96266341Y-54921199D01*
X96266341Y-54921200D01*
X96286936Y-55156603D01*
X96286938Y-55156613D01*
X96348094Y-55384855D01*
X96348096Y-55384859D01*
X96348097Y-55384863D01*
X96399070Y-55494174D01*
X96447965Y-55599030D01*
X96447967Y-55599034D01*
X96523668Y-55707145D01*
X96576777Y-55782993D01*
X96583501Y-55792595D01*
X96583506Y-55792602D01*
X96750597Y-55959693D01*
X96750603Y-55959698D01*
X96936158Y-56089625D01*
X96979783Y-56144202D01*
X96986977Y-56213700D01*
X96955454Y-56276055D01*
X96936158Y-56292775D01*
X96750597Y-56422705D01*
X96583505Y-56589797D01*
X96447965Y-56783369D01*
X96447964Y-56783371D01*
X96348098Y-56997535D01*
X96348094Y-56997544D01*
X96286938Y-57225786D01*
X96286936Y-57225796D01*
X96266341Y-57461199D01*
X96266341Y-57461200D01*
X96286936Y-57696603D01*
X96286938Y-57696613D01*
X96348094Y-57924855D01*
X96348096Y-57924859D01*
X96348097Y-57924863D01*
X96432333Y-58105508D01*
X96447965Y-58139030D01*
X96447967Y-58139034D01*
X96523668Y-58247145D01*
X96567329Y-58309500D01*
X96583501Y-58332595D01*
X96583506Y-58332602D01*
X96750597Y-58499693D01*
X96750603Y-58499698D01*
X96936158Y-58629625D01*
X96979783Y-58684202D01*
X96986977Y-58753700D01*
X96955454Y-58816055D01*
X96936158Y-58832775D01*
X96750597Y-58962705D01*
X96583505Y-59129797D01*
X96447965Y-59323369D01*
X96447964Y-59323371D01*
X96348098Y-59537535D01*
X96348094Y-59537544D01*
X96286938Y-59765786D01*
X96286936Y-59765796D01*
X96266341Y-60001199D01*
X96266341Y-60001200D01*
X96286936Y-60236603D01*
X96286938Y-60236613D01*
X96348094Y-60464855D01*
X96348096Y-60464859D01*
X96348097Y-60464863D01*
X96444587Y-60671785D01*
X96447965Y-60679030D01*
X96447967Y-60679034D01*
X96523668Y-60787145D01*
X96567329Y-60849500D01*
X96583501Y-60872595D01*
X96583506Y-60872602D01*
X96750597Y-61039693D01*
X96750603Y-61039698D01*
X96936158Y-61169625D01*
X96979783Y-61224202D01*
X96986977Y-61293700D01*
X96955454Y-61356055D01*
X96936158Y-61372775D01*
X96750597Y-61502705D01*
X96583505Y-61669797D01*
X96447965Y-61863369D01*
X96447964Y-61863371D01*
X96348098Y-62077535D01*
X96348094Y-62077544D01*
X96286938Y-62305786D01*
X96286936Y-62305796D01*
X96266341Y-62541199D01*
X96266341Y-62541200D01*
X96286936Y-62776603D01*
X96286938Y-62776613D01*
X96348094Y-63004855D01*
X96348096Y-63004859D01*
X96348097Y-63004863D01*
X96435572Y-63192454D01*
X96447965Y-63219030D01*
X96447967Y-63219034D01*
X96541490Y-63352597D01*
X96567329Y-63389500D01*
X96583501Y-63412595D01*
X96583506Y-63412602D01*
X96750597Y-63579693D01*
X96750603Y-63579698D01*
X96936158Y-63709625D01*
X96979783Y-63764202D01*
X96986977Y-63833700D01*
X96955454Y-63896055D01*
X96936158Y-63912775D01*
X96750597Y-64042705D01*
X96583505Y-64209797D01*
X96447965Y-64403369D01*
X96447964Y-64403371D01*
X96348098Y-64617535D01*
X96348094Y-64617544D01*
X96286938Y-64845786D01*
X96286936Y-64845796D01*
X96266341Y-65081199D01*
X96266341Y-65081200D01*
X96286936Y-65316603D01*
X96286938Y-65316613D01*
X96348094Y-65544855D01*
X96348096Y-65544859D01*
X96348097Y-65544863D01*
X96439248Y-65740337D01*
X96447965Y-65759030D01*
X96447967Y-65759034D01*
X96523668Y-65867145D01*
X96567329Y-65929500D01*
X96583501Y-65952595D01*
X96583506Y-65952602D01*
X96750597Y-66119693D01*
X96750603Y-66119698D01*
X96936158Y-66249625D01*
X96979783Y-66304202D01*
X96986977Y-66373700D01*
X96955454Y-66436055D01*
X96936158Y-66452775D01*
X96750597Y-66582705D01*
X96583505Y-66749797D01*
X96447965Y-66943369D01*
X96447964Y-66943371D01*
X96348098Y-67157535D01*
X96348094Y-67157544D01*
X96286938Y-67385786D01*
X96286936Y-67385796D01*
X96266341Y-67621199D01*
X96266341Y-67621200D01*
X96286936Y-67856603D01*
X96286938Y-67856613D01*
X96348094Y-68084855D01*
X96348096Y-68084859D01*
X96348097Y-68084863D01*
X96429995Y-68260493D01*
X96447965Y-68299030D01*
X96447967Y-68299034D01*
X96583501Y-68492595D01*
X96583506Y-68492602D01*
X96750597Y-68659693D01*
X96750603Y-68659698D01*
X96936158Y-68789625D01*
X96979783Y-68844202D01*
X96986977Y-68913700D01*
X96955454Y-68976055D01*
X96936158Y-68992775D01*
X96750597Y-69122705D01*
X96583505Y-69289797D01*
X96447965Y-69483369D01*
X96447964Y-69483371D01*
X96381615Y-69625656D01*
X96335442Y-69678095D01*
X96268248Y-69697247D01*
X96203261Y-69678245D01*
X96069523Y-69594211D01*
X95899254Y-69534631D01*
X95899249Y-69534630D01*
X95720004Y-69514435D01*
X95719996Y-69514435D01*
X95540750Y-69534630D01*
X95540745Y-69534631D01*
X95370476Y-69594211D01*
X95217736Y-69690185D01*
X95214903Y-69692445D01*
X95212724Y-69693334D01*
X95211842Y-69693889D01*
X95211744Y-69693734D01*
X95150217Y-69718855D01*
X95137588Y-69719500D01*
X95106124Y-69719500D01*
X95039085Y-69699815D01*
X94993330Y-69647011D01*
X94982904Y-69581615D01*
X94985565Y-69558000D01*
X94985565Y-69557996D01*
X94965369Y-69378750D01*
X94965368Y-69378745D01*
X94918426Y-69244592D01*
X94905789Y-69208478D01*
X94809816Y-69055738D01*
X94682262Y-68928184D01*
X94647490Y-68906335D01*
X94529523Y-68832211D01*
X94359254Y-68772631D01*
X94359249Y-68772630D01*
X94180004Y-68752435D01*
X94179996Y-68752435D01*
X94000750Y-68772630D01*
X94000745Y-68772631D01*
X93830476Y-68832211D01*
X93677736Y-68928185D01*
X93674903Y-68930445D01*
X93672724Y-68931334D01*
X93671842Y-68931889D01*
X93671744Y-68931734D01*
X93610217Y-68956855D01*
X93597588Y-68957500D01*
X80312412Y-68957500D01*
X80245373Y-68937815D01*
X80235097Y-68930445D01*
X80232263Y-68928185D01*
X80232262Y-68928184D01*
X80098606Y-68844202D01*
X80079523Y-68832211D01*
X79909254Y-68772631D01*
X79909249Y-68772630D01*
X79730004Y-68752435D01*
X79729996Y-68752435D01*
X79550750Y-68772630D01*
X79550745Y-68772631D01*
X79380476Y-68832211D01*
X79227737Y-68928184D01*
X79100184Y-69055737D01*
X79004210Y-69208478D01*
X78944630Y-69378750D01*
X78939377Y-69425375D01*
X78912310Y-69489788D01*
X78854715Y-69529343D01*
X78837540Y-69533079D01*
X78837541Y-69533080D01*
X78830753Y-69534629D01*
X78660478Y-69594210D01*
X78507737Y-69690184D01*
X78380184Y-69817737D01*
X78284211Y-69970476D01*
X78224631Y-70140745D01*
X78224630Y-70140750D01*
X78204435Y-70319996D01*
X70312500Y-70319996D01*
X70312500Y-59143999D01*
X74044341Y-59143999D01*
X74044341Y-59144000D01*
X74064936Y-59379403D01*
X74064938Y-59379413D01*
X74126094Y-59607655D01*
X74126096Y-59607659D01*
X74126097Y-59607663D01*
X74146772Y-59652000D01*
X74225965Y-59821830D01*
X74225967Y-59821834D01*
X74361501Y-60015395D01*
X74361506Y-60015402D01*
X74528597Y-60182493D01*
X74528603Y-60182498D01*
X74714158Y-60312425D01*
X74757783Y-60367002D01*
X74764977Y-60436500D01*
X74733454Y-60498855D01*
X74714158Y-60515575D01*
X74528597Y-60645505D01*
X74361505Y-60812597D01*
X74225965Y-61006169D01*
X74225964Y-61006171D01*
X74126098Y-61220335D01*
X74126094Y-61220344D01*
X74064938Y-61448586D01*
X74064936Y-61448596D01*
X74044341Y-61683999D01*
X74044341Y-61684000D01*
X74064936Y-61919403D01*
X74064938Y-61919413D01*
X74126094Y-62147655D01*
X74126096Y-62147659D01*
X74126097Y-62147663D01*
X74146772Y-62192000D01*
X74225965Y-62361830D01*
X74225967Y-62361834D01*
X74361501Y-62555395D01*
X74361506Y-62555402D01*
X74528597Y-62722493D01*
X74528603Y-62722498D01*
X74714158Y-62852425D01*
X74757783Y-62907002D01*
X74764977Y-62976500D01*
X74733454Y-63038855D01*
X74714158Y-63055575D01*
X74528597Y-63185505D01*
X74361505Y-63352597D01*
X74225965Y-63546169D01*
X74225964Y-63546171D01*
X74126098Y-63760335D01*
X74126094Y-63760344D01*
X74064938Y-63988586D01*
X74064936Y-63988596D01*
X74044341Y-64223999D01*
X74044341Y-64224000D01*
X74064936Y-64459403D01*
X74064938Y-64459413D01*
X74126094Y-64687655D01*
X74126096Y-64687659D01*
X74126097Y-64687663D01*
X74146772Y-64732000D01*
X74225965Y-64901830D01*
X74225967Y-64901834D01*
X74361501Y-65095395D01*
X74361506Y-65095402D01*
X74528597Y-65262493D01*
X74528603Y-65262498D01*
X74714158Y-65392425D01*
X74757783Y-65447002D01*
X74764977Y-65516500D01*
X74733454Y-65578855D01*
X74714158Y-65595575D01*
X74528597Y-65725505D01*
X74361505Y-65892597D01*
X74225965Y-66086169D01*
X74225964Y-66086171D01*
X74126098Y-66300335D01*
X74126094Y-66300344D01*
X74064938Y-66528586D01*
X74064936Y-66528596D01*
X74044341Y-66763999D01*
X74044341Y-66764000D01*
X74064936Y-66999403D01*
X74064938Y-66999413D01*
X74126094Y-67227655D01*
X74126096Y-67227659D01*
X74126097Y-67227663D01*
X74189906Y-67364501D01*
X74225965Y-67441830D01*
X74225967Y-67441834D01*
X74272002Y-67507578D01*
X74361505Y-67635401D01*
X74528599Y-67802495D01*
X74622300Y-67868105D01*
X74722165Y-67938032D01*
X74722167Y-67938033D01*
X74722170Y-67938035D01*
X74936337Y-68037903D01*
X75164592Y-68099063D01*
X75352918Y-68115539D01*
X75399999Y-68119659D01*
X75400000Y-68119659D01*
X75400001Y-68119659D01*
X75439234Y-68116226D01*
X75635408Y-68099063D01*
X75863663Y-68037903D01*
X76077830Y-67938035D01*
X76271401Y-67802495D01*
X76438495Y-67635401D01*
X76574035Y-67441830D01*
X76576707Y-67436097D01*
X76622878Y-67383658D01*
X76689091Y-67364500D01*
X78099331Y-67364500D01*
X78099347Y-67364501D01*
X78106943Y-67364501D01*
X78265054Y-67364501D01*
X78265057Y-67364501D01*
X78417785Y-67323577D01*
X78467904Y-67294639D01*
X78554716Y-67244520D01*
X78666520Y-67132716D01*
X78730520Y-67068716D01*
X78809577Y-66931784D01*
X78828131Y-66862541D01*
X78850501Y-66779057D01*
X78850501Y-66620942D01*
X78850501Y-66613347D01*
X78850500Y-66613329D01*
X78850500Y-60326500D01*
X78870185Y-60259461D01*
X78922989Y-60213706D01*
X78974500Y-60202500D01*
X80196909Y-60202500D01*
X80263948Y-60222185D01*
X80309292Y-60274097D01*
X80311965Y-60279830D01*
X80447501Y-60473395D01*
X80447506Y-60473402D01*
X80614597Y-60640493D01*
X80614603Y-60640498D01*
X80800158Y-60770425D01*
X80843783Y-60825002D01*
X80850977Y-60894500D01*
X80819454Y-60956855D01*
X80800158Y-60973575D01*
X80614597Y-61103505D01*
X80447505Y-61270597D01*
X80311965Y-61464169D01*
X80311964Y-61464171D01*
X80212098Y-61678335D01*
X80212094Y-61678344D01*
X80150938Y-61906586D01*
X80150936Y-61906596D01*
X80130341Y-62141999D01*
X80130341Y-62142000D01*
X80150936Y-62377403D01*
X80150938Y-62377413D01*
X80212094Y-62605655D01*
X80212096Y-62605659D01*
X80212097Y-62605663D01*
X80235413Y-62655664D01*
X80311965Y-62819830D01*
X80311967Y-62819834D01*
X80447501Y-63013395D01*
X80447506Y-63013402D01*
X80614597Y-63180493D01*
X80614603Y-63180498D01*
X80800158Y-63310425D01*
X80843783Y-63365002D01*
X80850977Y-63434500D01*
X80819454Y-63496855D01*
X80800158Y-63513575D01*
X80614597Y-63643505D01*
X80447505Y-63810597D01*
X80311965Y-64004169D01*
X80311964Y-64004171D01*
X80212098Y-64218335D01*
X80212094Y-64218344D01*
X80150938Y-64446586D01*
X80150936Y-64446596D01*
X80130341Y-64681999D01*
X80130341Y-64682000D01*
X80150936Y-64917403D01*
X80150938Y-64917413D01*
X80212094Y-65145655D01*
X80212096Y-65145659D01*
X80212097Y-65145663D01*
X80283074Y-65297873D01*
X80311965Y-65359830D01*
X80311967Y-65359834D01*
X80447501Y-65553395D01*
X80447506Y-65553402D01*
X80614597Y-65720493D01*
X80614603Y-65720498D01*
X80800158Y-65850425D01*
X80843783Y-65905002D01*
X80850977Y-65974500D01*
X80819454Y-66036855D01*
X80800158Y-66053575D01*
X80614597Y-66183505D01*
X80447505Y-66350597D01*
X80311965Y-66544169D01*
X80311964Y-66544171D01*
X80212098Y-66758335D01*
X80212094Y-66758344D01*
X80150938Y-66986586D01*
X80150936Y-66986596D01*
X80130341Y-67221999D01*
X80130341Y-67222000D01*
X80150936Y-67457403D01*
X80150938Y-67457413D01*
X80212094Y-67685655D01*
X80212096Y-67685659D01*
X80212097Y-67685663D01*
X80235413Y-67735664D01*
X80311965Y-67899830D01*
X80311967Y-67899834D01*
X80392495Y-68014839D01*
X80447505Y-68093401D01*
X80614599Y-68260495D01*
X80686011Y-68310498D01*
X80808165Y-68396032D01*
X80808167Y-68396033D01*
X80808170Y-68396035D01*
X81022337Y-68495903D01*
X81022343Y-68495904D01*
X81022344Y-68495905D01*
X81077285Y-68510626D01*
X81250592Y-68557063D01*
X81438918Y-68573539D01*
X81485999Y-68577659D01*
X81486000Y-68577659D01*
X81486001Y-68577659D01*
X81525234Y-68574226D01*
X81721408Y-68557063D01*
X81949663Y-68495903D01*
X82163830Y-68396035D01*
X82357401Y-68260495D01*
X82524495Y-68093401D01*
X82660035Y-67899830D01*
X82759903Y-67685663D01*
X82821063Y-67457408D01*
X82841659Y-67222000D01*
X82821063Y-66986592D01*
X82759903Y-66758337D01*
X82660035Y-66544171D01*
X82657046Y-66539901D01*
X82524494Y-66350597D01*
X82357402Y-66183506D01*
X82357396Y-66183501D01*
X82171842Y-66053575D01*
X82128217Y-65998998D01*
X82121023Y-65929500D01*
X82152546Y-65867145D01*
X82171842Y-65850425D01*
X82231560Y-65808610D01*
X82357401Y-65720495D01*
X82524495Y-65553401D01*
X82660035Y-65359830D01*
X82759903Y-65145663D01*
X82821063Y-64917408D01*
X82841659Y-64682000D01*
X82821063Y-64446592D01*
X82759903Y-64218337D01*
X82660035Y-64004171D01*
X82649130Y-63988596D01*
X82524494Y-63810597D01*
X82357402Y-63643506D01*
X82357396Y-63643501D01*
X82171842Y-63513575D01*
X82128217Y-63458998D01*
X82121023Y-63389500D01*
X82152546Y-63327145D01*
X82171842Y-63310425D01*
X82285989Y-63230498D01*
X82357401Y-63180495D01*
X82524495Y-63013401D01*
X82660035Y-62819830D01*
X82759903Y-62605663D01*
X82821063Y-62377408D01*
X82841659Y-62142000D01*
X82821063Y-61906592D01*
X82759903Y-61678337D01*
X82660035Y-61464171D01*
X82649130Y-61448596D01*
X82524494Y-61270597D01*
X82357402Y-61103506D01*
X82357396Y-61103501D01*
X82171842Y-60973575D01*
X82128217Y-60918998D01*
X82121023Y-60849500D01*
X82152546Y-60787145D01*
X82171842Y-60770425D01*
X82285992Y-60690496D01*
X82357401Y-60640495D01*
X82524495Y-60473401D01*
X82660035Y-60279830D01*
X82759903Y-60065663D01*
X82821063Y-59837408D01*
X82841659Y-59602000D01*
X82821063Y-59366592D01*
X82759903Y-59138337D01*
X82660035Y-58924171D01*
X82660034Y-58924169D01*
X82524494Y-58730597D01*
X82357402Y-58563506D01*
X82357396Y-58563501D01*
X82171842Y-58433575D01*
X82128217Y-58378998D01*
X82121023Y-58309500D01*
X82152546Y-58247145D01*
X82171842Y-58230425D01*
X82285989Y-58150498D01*
X82357401Y-58100495D01*
X82524495Y-57933401D01*
X82660035Y-57739830D01*
X82759903Y-57525663D01*
X82821063Y-57297408D01*
X82841659Y-57062000D01*
X82821063Y-56826592D01*
X82759903Y-56598337D01*
X82660035Y-56384171D01*
X82638910Y-56354000D01*
X82524494Y-56190597D01*
X82357402Y-56023506D01*
X82357396Y-56023501D01*
X82171842Y-55893575D01*
X82128217Y-55838998D01*
X82121023Y-55769500D01*
X82152546Y-55707145D01*
X82171842Y-55690425D01*
X82229385Y-55650133D01*
X82357401Y-55560495D01*
X82524495Y-55393401D01*
X82660035Y-55199830D01*
X82759903Y-54985663D01*
X82821063Y-54757408D01*
X82841659Y-54522000D01*
X82821063Y-54286592D01*
X82759903Y-54058337D01*
X82660035Y-53844171D01*
X82616558Y-53782078D01*
X82524494Y-53650597D01*
X82357402Y-53483506D01*
X82357401Y-53483505D01*
X82171405Y-53353269D01*
X82127781Y-53298692D01*
X82120588Y-53229193D01*
X82152110Y-53166839D01*
X82171405Y-53150119D01*
X82357082Y-53020105D01*
X82524105Y-52853082D01*
X82659600Y-52659578D01*
X82759429Y-52445492D01*
X82759432Y-52445486D01*
X82816636Y-52232000D01*
X81919012Y-52232000D01*
X81951925Y-52174993D01*
X81986000Y-52047826D01*
X81986000Y-52031999D01*
X90310341Y-52031999D01*
X90310341Y-52032000D01*
X90330936Y-52267403D01*
X90330938Y-52267413D01*
X90392094Y-52495655D01*
X90392096Y-52495659D01*
X90392097Y-52495663D01*
X90448495Y-52616608D01*
X90491965Y-52709830D01*
X90491967Y-52709834D01*
X90627501Y-52903395D01*
X90627506Y-52903402D01*
X90794597Y-53070493D01*
X90794603Y-53070498D01*
X90980158Y-53200425D01*
X91023783Y-53255002D01*
X91030977Y-53324500D01*
X90999454Y-53386855D01*
X90980158Y-53403575D01*
X90794597Y-53533505D01*
X90627505Y-53700597D01*
X90491965Y-53894169D01*
X90491964Y-53894171D01*
X90392098Y-54108335D01*
X90392094Y-54108344D01*
X90330938Y-54336586D01*
X90330936Y-54336596D01*
X90310341Y-54571999D01*
X90310341Y-54572000D01*
X90330936Y-54807403D01*
X90330938Y-54807413D01*
X90392094Y-55035655D01*
X90392096Y-55035659D01*
X90392097Y-55035663D01*
X90476230Y-55216087D01*
X90491965Y-55249830D01*
X90491967Y-55249834D01*
X90627501Y-55443395D01*
X90627506Y-55443402D01*
X90794597Y-55610493D01*
X90794603Y-55610498D01*
X90980158Y-55740425D01*
X91023783Y-55795002D01*
X91030977Y-55864500D01*
X90999454Y-55926855D01*
X90980158Y-55943575D01*
X90794597Y-56073505D01*
X90627505Y-56240597D01*
X90491965Y-56434169D01*
X90491964Y-56434171D01*
X90392098Y-56648335D01*
X90392094Y-56648344D01*
X90330938Y-56876586D01*
X90330936Y-56876596D01*
X90310341Y-57111999D01*
X90310341Y-57112000D01*
X90330936Y-57347403D01*
X90330938Y-57347413D01*
X90392094Y-57575655D01*
X90392096Y-57575659D01*
X90392097Y-57575663D01*
X90476230Y-57756087D01*
X90491965Y-57789830D01*
X90491967Y-57789834D01*
X90627501Y-57983395D01*
X90627506Y-57983402D01*
X90794597Y-58150493D01*
X90794603Y-58150498D01*
X90980158Y-58280425D01*
X91023783Y-58335002D01*
X91030977Y-58404500D01*
X90999454Y-58466855D01*
X90980158Y-58483575D01*
X90794597Y-58613505D01*
X90627505Y-58780597D01*
X90491965Y-58974169D01*
X90491964Y-58974171D01*
X90392098Y-59188335D01*
X90392094Y-59188344D01*
X90330938Y-59416586D01*
X90330936Y-59416596D01*
X90310341Y-59651999D01*
X90310341Y-59652000D01*
X90330936Y-59887403D01*
X90330938Y-59887413D01*
X90392094Y-60115655D01*
X90392096Y-60115659D01*
X90392097Y-60115663D01*
X90476230Y-60296087D01*
X90491965Y-60329830D01*
X90491967Y-60329834D01*
X90566656Y-60436500D01*
X90627505Y-60523401D01*
X90794599Y-60690495D01*
X90794601Y-60690496D01*
X90794603Y-60690498D01*
X90980158Y-60820425D01*
X91023783Y-60875002D01*
X91030977Y-60944500D01*
X90999454Y-61006855D01*
X90980158Y-61023575D01*
X90794597Y-61153505D01*
X90627505Y-61320597D01*
X90491965Y-61514169D01*
X90491964Y-61514171D01*
X90392098Y-61728335D01*
X90392094Y-61728344D01*
X90330938Y-61956586D01*
X90330936Y-61956596D01*
X90310341Y-62191999D01*
X90310341Y-62192000D01*
X90330936Y-62427403D01*
X90330938Y-62427413D01*
X90392094Y-62655655D01*
X90392096Y-62655659D01*
X90392097Y-62655663D01*
X90476230Y-62836087D01*
X90491965Y-62869830D01*
X90491967Y-62869834D01*
X90592490Y-63013395D01*
X90622258Y-63055908D01*
X90627501Y-63063395D01*
X90627506Y-63063402D01*
X90794597Y-63230493D01*
X90794603Y-63230498D01*
X90980158Y-63360425D01*
X91023783Y-63415002D01*
X91030977Y-63484500D01*
X90999454Y-63546855D01*
X90980158Y-63563575D01*
X90794597Y-63693505D01*
X90627505Y-63860597D01*
X90491965Y-64054169D01*
X90491964Y-64054171D01*
X90392098Y-64268335D01*
X90392094Y-64268344D01*
X90330938Y-64496586D01*
X90330936Y-64496596D01*
X90310341Y-64731999D01*
X90310341Y-64732000D01*
X90330936Y-64967403D01*
X90330938Y-64967413D01*
X90392094Y-65195655D01*
X90392096Y-65195659D01*
X90392097Y-65195663D01*
X90476230Y-65376087D01*
X90491965Y-65409830D01*
X90491967Y-65409834D01*
X90553383Y-65497544D01*
X90613777Y-65583796D01*
X90627501Y-65603395D01*
X90627506Y-65603402D01*
X90794597Y-65770493D01*
X90794603Y-65770498D01*
X90980158Y-65900425D01*
X91023783Y-65955002D01*
X91030977Y-66024500D01*
X90999454Y-66086855D01*
X90980158Y-66103575D01*
X90794597Y-66233505D01*
X90627505Y-66400597D01*
X90491965Y-66594169D01*
X90491964Y-66594171D01*
X90392098Y-66808335D01*
X90392094Y-66808344D01*
X90330938Y-67036586D01*
X90330936Y-67036596D01*
X90310341Y-67271999D01*
X90310341Y-67272000D01*
X90330936Y-67507403D01*
X90330938Y-67507413D01*
X90392094Y-67735655D01*
X90392096Y-67735659D01*
X90392097Y-67735663D01*
X90486464Y-67938034D01*
X90491965Y-67949830D01*
X90491967Y-67949834D01*
X90586511Y-68084855D01*
X90627505Y-68143401D01*
X90794599Y-68310495D01*
X90824606Y-68331506D01*
X90988165Y-68446032D01*
X90988167Y-68446033D01*
X90988170Y-68446035D01*
X91202337Y-68545903D01*
X91430592Y-68607063D01*
X91618918Y-68623539D01*
X91665999Y-68627659D01*
X91666000Y-68627659D01*
X91666001Y-68627659D01*
X91705234Y-68624226D01*
X91901408Y-68607063D01*
X92129663Y-68545903D01*
X92343830Y-68446035D01*
X92537401Y-68310495D01*
X92704495Y-68143401D01*
X92840035Y-67949830D01*
X92939903Y-67735663D01*
X93001063Y-67507408D01*
X93021659Y-67272000D01*
X93001063Y-67036592D01*
X92939903Y-66808337D01*
X92840035Y-66594171D01*
X92832008Y-66582706D01*
X92704494Y-66400597D01*
X92537402Y-66233506D01*
X92537396Y-66233501D01*
X92351842Y-66103575D01*
X92308217Y-66048998D01*
X92301023Y-65979500D01*
X92332546Y-65917145D01*
X92351842Y-65900425D01*
X92482967Y-65808610D01*
X92537401Y-65770495D01*
X92704495Y-65603401D01*
X92840035Y-65409830D01*
X92939903Y-65195663D01*
X93001063Y-64967408D01*
X93021659Y-64732000D01*
X93001063Y-64496592D01*
X92939903Y-64268337D01*
X92840035Y-64054171D01*
X92832008Y-64042706D01*
X92704494Y-63860597D01*
X92537402Y-63693506D01*
X92537396Y-63693501D01*
X92351842Y-63563575D01*
X92308217Y-63508998D01*
X92301023Y-63439500D01*
X92332546Y-63377145D01*
X92351842Y-63360425D01*
X92427192Y-63307664D01*
X92537401Y-63230495D01*
X92704495Y-63063401D01*
X92840035Y-62869830D01*
X92939903Y-62655663D01*
X93001063Y-62427408D01*
X93021659Y-62192000D01*
X93001063Y-61956592D01*
X92939903Y-61728337D01*
X92840035Y-61514171D01*
X92832008Y-61502706D01*
X92704494Y-61320597D01*
X92537402Y-61153506D01*
X92537396Y-61153501D01*
X92351842Y-61023575D01*
X92308217Y-60968998D01*
X92301023Y-60899500D01*
X92332546Y-60837145D01*
X92351842Y-60820425D01*
X92492550Y-60721900D01*
X92537401Y-60690495D01*
X92704495Y-60523401D01*
X92840035Y-60329830D01*
X92939903Y-60115663D01*
X93001063Y-59887408D01*
X93021659Y-59652000D01*
X93001063Y-59416592D01*
X92939903Y-59188337D01*
X92840035Y-58974171D01*
X92838097Y-58971402D01*
X92704494Y-58780597D01*
X92537402Y-58613506D01*
X92537396Y-58613501D01*
X92351842Y-58483575D01*
X92308217Y-58428998D01*
X92301023Y-58359500D01*
X92332546Y-58297145D01*
X92351842Y-58280425D01*
X92423249Y-58230425D01*
X92537401Y-58150495D01*
X92704495Y-57983401D01*
X92840035Y-57789830D01*
X92939903Y-57575663D01*
X93001063Y-57347408D01*
X93021659Y-57112000D01*
X93001063Y-56876592D01*
X92939903Y-56648337D01*
X92840035Y-56434171D01*
X92832008Y-56422706D01*
X92704494Y-56240597D01*
X92537402Y-56073506D01*
X92537396Y-56073501D01*
X92351842Y-55943575D01*
X92308217Y-55888998D01*
X92301023Y-55819500D01*
X92332546Y-55757145D01*
X92351842Y-55740425D01*
X92423249Y-55690425D01*
X92537401Y-55610495D01*
X92704495Y-55443401D01*
X92840035Y-55249830D01*
X92939903Y-55035663D01*
X93001063Y-54807408D01*
X93021659Y-54572000D01*
X93001063Y-54336592D01*
X92939903Y-54108337D01*
X92840035Y-53894171D01*
X92832008Y-53882706D01*
X92704494Y-53700597D01*
X92537402Y-53533506D01*
X92537396Y-53533501D01*
X92351842Y-53403575D01*
X92308217Y-53348998D01*
X92301023Y-53279500D01*
X92332546Y-53217145D01*
X92351842Y-53200425D01*
X92485956Y-53106517D01*
X92537401Y-53070495D01*
X92704495Y-52903401D01*
X92840035Y-52709830D01*
X92939903Y-52495663D01*
X93001063Y-52267408D01*
X93021659Y-52032000D01*
X93001063Y-51796592D01*
X92945846Y-51590518D01*
X92939905Y-51568344D01*
X92939904Y-51568343D01*
X92939903Y-51568337D01*
X92840035Y-51354171D01*
X92832007Y-51342706D01*
X92704496Y-51160600D01*
X92654816Y-51110920D01*
X92582567Y-51038671D01*
X92549084Y-50977351D01*
X92554068Y-50907659D01*
X92595939Y-50851725D01*
X92626915Y-50834810D01*
X92758331Y-50785796D01*
X92873546Y-50699546D01*
X92959796Y-50584331D01*
X93010091Y-50449483D01*
X93016500Y-50389873D01*
X93016499Y-48594128D01*
X93010091Y-48534517D01*
X92991442Y-48484517D01*
X92959797Y-48399671D01*
X92959793Y-48399664D01*
X92873547Y-48284455D01*
X92873544Y-48284452D01*
X92758335Y-48198206D01*
X92758328Y-48198202D01*
X92623482Y-48147908D01*
X92623483Y-48147908D01*
X92563883Y-48141501D01*
X92563881Y-48141500D01*
X92563873Y-48141500D01*
X92563864Y-48141500D01*
X90768129Y-48141500D01*
X90768123Y-48141501D01*
X90708516Y-48147908D01*
X90573671Y-48198202D01*
X90573664Y-48198206D01*
X90458455Y-48284452D01*
X90458452Y-48284455D01*
X90372206Y-48399664D01*
X90372202Y-48399671D01*
X90321908Y-48534517D01*
X90317965Y-48571200D01*
X90315501Y-48594123D01*
X90315500Y-48594135D01*
X90315500Y-50389870D01*
X90315501Y-50389876D01*
X90321908Y-50449483D01*
X90372202Y-50584328D01*
X90372206Y-50584335D01*
X90458452Y-50699544D01*
X90458455Y-50699547D01*
X90573664Y-50785793D01*
X90573671Y-50785797D01*
X90705081Y-50834810D01*
X90761015Y-50876681D01*
X90785432Y-50942145D01*
X90770580Y-51010418D01*
X90749430Y-51038673D01*
X90627503Y-51160600D01*
X90491965Y-51354169D01*
X90491964Y-51354171D01*
X90392098Y-51568335D01*
X90392094Y-51568344D01*
X90330938Y-51796586D01*
X90330936Y-51796596D01*
X90310341Y-52031999D01*
X81986000Y-52031999D01*
X81986000Y-51916174D01*
X81951925Y-51789007D01*
X81919012Y-51732000D01*
X82816636Y-51732000D01*
X82816635Y-51731999D01*
X82759432Y-51518513D01*
X82759429Y-51518507D01*
X82659600Y-51304422D01*
X82659599Y-51304420D01*
X82524113Y-51110926D01*
X82524108Y-51110920D01*
X82402053Y-50988865D01*
X82368568Y-50927542D01*
X82373552Y-50857850D01*
X82415424Y-50801917D01*
X82446400Y-50785002D01*
X82578331Y-50735796D01*
X82693546Y-50649546D01*
X82779796Y-50534331D01*
X82830091Y-50399483D01*
X82836500Y-50339873D01*
X82836499Y-48544128D01*
X82830091Y-48484517D01*
X82779796Y-48349669D01*
X82779795Y-48349668D01*
X82779793Y-48349664D01*
X82693547Y-48234455D01*
X82693544Y-48234452D01*
X82578335Y-48148206D01*
X82578328Y-48148202D01*
X82443482Y-48097908D01*
X82443483Y-48097908D01*
X82383883Y-48091501D01*
X82383881Y-48091500D01*
X82383873Y-48091500D01*
X82383864Y-48091500D01*
X80588129Y-48091500D01*
X80588123Y-48091501D01*
X80528516Y-48097908D01*
X80393671Y-48148202D01*
X80393664Y-48148206D01*
X80278455Y-48234452D01*
X80278452Y-48234455D01*
X80192206Y-48349664D01*
X80192202Y-48349671D01*
X80141908Y-48484517D01*
X80137642Y-48524202D01*
X80135501Y-48544123D01*
X80135500Y-48544135D01*
X80135500Y-50339870D01*
X80135501Y-50339876D01*
X80141908Y-50399483D01*
X80192202Y-50534328D01*
X80192206Y-50534335D01*
X80278452Y-50649544D01*
X80278455Y-50649547D01*
X80393664Y-50735793D01*
X80393671Y-50735797D01*
X80408383Y-50741284D01*
X80525598Y-50785002D01*
X80581531Y-50826873D01*
X80605949Y-50892337D01*
X80591098Y-50960610D01*
X80569947Y-50988865D01*
X80447886Y-51110926D01*
X80312400Y-51304420D01*
X80312399Y-51304422D01*
X80212570Y-51518507D01*
X80212567Y-51518513D01*
X80155364Y-51731999D01*
X80155364Y-51732000D01*
X81052988Y-51732000D01*
X81020075Y-51789007D01*
X80986000Y-51916174D01*
X80986000Y-52047826D01*
X81020075Y-52174993D01*
X81052988Y-52232000D01*
X80155364Y-52232000D01*
X80212567Y-52445486D01*
X80212570Y-52445492D01*
X80312399Y-52659578D01*
X80447894Y-52853082D01*
X80614917Y-53020105D01*
X80800595Y-53150119D01*
X80844219Y-53204696D01*
X80851412Y-53274195D01*
X80819890Y-53336549D01*
X80800595Y-53353269D01*
X80614594Y-53483508D01*
X80447505Y-53650597D01*
X80311965Y-53844169D01*
X80311964Y-53844171D01*
X80212098Y-54058335D01*
X80212094Y-54058344D01*
X80150938Y-54286586D01*
X80150936Y-54286596D01*
X80130341Y-54521999D01*
X80130341Y-54522000D01*
X80150936Y-54757403D01*
X80150938Y-54757413D01*
X80212094Y-54985655D01*
X80212096Y-54985659D01*
X80212097Y-54985663D01*
X80266949Y-55103293D01*
X80311965Y-55199830D01*
X80311967Y-55199834D01*
X80370196Y-55282993D01*
X80422575Y-55357798D01*
X80447501Y-55393395D01*
X80447506Y-55393402D01*
X80614597Y-55560493D01*
X80614603Y-55560498D01*
X80800158Y-55690425D01*
X80843783Y-55745002D01*
X80850977Y-55814500D01*
X80819454Y-55876855D01*
X80800158Y-55893575D01*
X80614597Y-56023505D01*
X80447505Y-56190597D01*
X80311965Y-56384169D01*
X80311964Y-56384171D01*
X80212098Y-56598335D01*
X80212094Y-56598344D01*
X80150938Y-56826586D01*
X80150936Y-56826596D01*
X80130341Y-57061999D01*
X80130341Y-57062000D01*
X80150936Y-57297403D01*
X80150938Y-57297413D01*
X80212094Y-57525655D01*
X80212096Y-57525659D01*
X80212097Y-57525663D01*
X80263709Y-57636344D01*
X80311965Y-57739830D01*
X80311967Y-57739834D01*
X80346975Y-57789830D01*
X80438189Y-57920097D01*
X80447501Y-57933395D01*
X80447506Y-57933402D01*
X80614597Y-58100493D01*
X80614603Y-58100498D01*
X80800158Y-58230425D01*
X80843783Y-58285002D01*
X80850977Y-58354500D01*
X80819454Y-58416855D01*
X80800158Y-58433575D01*
X80614597Y-58563505D01*
X80447506Y-58730596D01*
X80311965Y-58924170D01*
X80311962Y-58924175D01*
X80309289Y-58929909D01*
X80263115Y-58982346D01*
X80196909Y-59001500D01*
X78170943Y-59001500D01*
X78018216Y-59042423D01*
X78018209Y-59042426D01*
X77881290Y-59121475D01*
X77881282Y-59121481D01*
X77769481Y-59233282D01*
X77769475Y-59233290D01*
X77690426Y-59370209D01*
X77690423Y-59370216D01*
X77649500Y-59522943D01*
X77649500Y-66039500D01*
X77629815Y-66106539D01*
X77577011Y-66152294D01*
X77525500Y-66163500D01*
X76689091Y-66163500D01*
X76622052Y-66143815D01*
X76576711Y-66091909D01*
X76574037Y-66086175D01*
X76574034Y-66086170D01*
X76574033Y-66086169D01*
X76512996Y-65998998D01*
X76438494Y-65892597D01*
X76271402Y-65725506D01*
X76271396Y-65725501D01*
X76085842Y-65595575D01*
X76042217Y-65540998D01*
X76035023Y-65471500D01*
X76066546Y-65409145D01*
X76085842Y-65392425D01*
X76159067Y-65341152D01*
X76271401Y-65262495D01*
X76438495Y-65095401D01*
X76574035Y-64901830D01*
X76673903Y-64687663D01*
X76735063Y-64459408D01*
X76755659Y-64224000D01*
X76735063Y-63988592D01*
X76687532Y-63811200D01*
X76673905Y-63760344D01*
X76673904Y-63760343D01*
X76673903Y-63760337D01*
X76574035Y-63546171D01*
X76551212Y-63513575D01*
X76438494Y-63352597D01*
X76271402Y-63185506D01*
X76271396Y-63185501D01*
X76085842Y-63055575D01*
X76042217Y-63000998D01*
X76035023Y-62931500D01*
X76066546Y-62869145D01*
X76085842Y-62852425D01*
X76159067Y-62801152D01*
X76271401Y-62722495D01*
X76438495Y-62555401D01*
X76574035Y-62361830D01*
X76673903Y-62147663D01*
X76735063Y-61919408D01*
X76755659Y-61684000D01*
X76735063Y-61448592D01*
X76687532Y-61271200D01*
X76673905Y-61220344D01*
X76673904Y-61220343D01*
X76673903Y-61220337D01*
X76574035Y-61006171D01*
X76551212Y-60973575D01*
X76438494Y-60812597D01*
X76271402Y-60645506D01*
X76271396Y-60645501D01*
X76085842Y-60515575D01*
X76042217Y-60460998D01*
X76035023Y-60391500D01*
X76066546Y-60329145D01*
X76085842Y-60312425D01*
X76161482Y-60259461D01*
X76271401Y-60182495D01*
X76438495Y-60015401D01*
X76574035Y-59821830D01*
X76673903Y-59607663D01*
X76735063Y-59379408D01*
X76755659Y-59144000D01*
X76735063Y-58908592D01*
X76687532Y-58731200D01*
X76673905Y-58680344D01*
X76673904Y-58680343D01*
X76673903Y-58680337D01*
X76574035Y-58466171D01*
X76551212Y-58433575D01*
X76438494Y-58272597D01*
X76271402Y-58105506D01*
X76271401Y-58105505D01*
X76085405Y-57975269D01*
X76041781Y-57920692D01*
X76034588Y-57851193D01*
X76066110Y-57788839D01*
X76085405Y-57772119D01*
X76271082Y-57642105D01*
X76438105Y-57475082D01*
X76573600Y-57281578D01*
X76673429Y-57067492D01*
X76673432Y-57067486D01*
X76730636Y-56854000D01*
X75833012Y-56854000D01*
X75865925Y-56796993D01*
X75900000Y-56669826D01*
X75900000Y-56538174D01*
X75865925Y-56411007D01*
X75833012Y-56354000D01*
X76730636Y-56354000D01*
X76730635Y-56353999D01*
X76673432Y-56140513D01*
X76673429Y-56140507D01*
X76573600Y-55926422D01*
X76573599Y-55926420D01*
X76438113Y-55732926D01*
X76438108Y-55732920D01*
X76316053Y-55610865D01*
X76282568Y-55549542D01*
X76287552Y-55479850D01*
X76329424Y-55423917D01*
X76360400Y-55407002D01*
X76492331Y-55357796D01*
X76607546Y-55271546D01*
X76693796Y-55156331D01*
X76744091Y-55021483D01*
X76750500Y-54961873D01*
X76750499Y-53166128D01*
X76744091Y-53106517D01*
X76711861Y-53020105D01*
X76693797Y-52971671D01*
X76693793Y-52971664D01*
X76607547Y-52856455D01*
X76607544Y-52856452D01*
X76492335Y-52770206D01*
X76492328Y-52770202D01*
X76357482Y-52719908D01*
X76357483Y-52719908D01*
X76297883Y-52713501D01*
X76297881Y-52713500D01*
X76297873Y-52713500D01*
X76297864Y-52713500D01*
X74502129Y-52713500D01*
X74502123Y-52713501D01*
X74442516Y-52719908D01*
X74307671Y-52770202D01*
X74307664Y-52770206D01*
X74192455Y-52856452D01*
X74192452Y-52856455D01*
X74106206Y-52971664D01*
X74106202Y-52971671D01*
X74055908Y-53106517D01*
X74051221Y-53150119D01*
X74049501Y-53166123D01*
X74049500Y-53166135D01*
X74049500Y-54961870D01*
X74049501Y-54961876D01*
X74055908Y-55021483D01*
X74106202Y-55156328D01*
X74106206Y-55156335D01*
X74192452Y-55271544D01*
X74192455Y-55271547D01*
X74307664Y-55357793D01*
X74307671Y-55357797D01*
X74307674Y-55357798D01*
X74439598Y-55407002D01*
X74495531Y-55448873D01*
X74519949Y-55514337D01*
X74505098Y-55582610D01*
X74483947Y-55610865D01*
X74361886Y-55732926D01*
X74226400Y-55926420D01*
X74226399Y-55926422D01*
X74126570Y-56140507D01*
X74126567Y-56140513D01*
X74069364Y-56353999D01*
X74069364Y-56354000D01*
X74966988Y-56354000D01*
X74934075Y-56411007D01*
X74900000Y-56538174D01*
X74900000Y-56669826D01*
X74934075Y-56796993D01*
X74966988Y-56854000D01*
X74069364Y-56854000D01*
X74126567Y-57067486D01*
X74126570Y-57067492D01*
X74226399Y-57281578D01*
X74361894Y-57475082D01*
X74528917Y-57642105D01*
X74714595Y-57772119D01*
X74758219Y-57826696D01*
X74765412Y-57896195D01*
X74733890Y-57958549D01*
X74714595Y-57975269D01*
X74528594Y-58105508D01*
X74361505Y-58272597D01*
X74225965Y-58466169D01*
X74225964Y-58466171D01*
X74126098Y-58680335D01*
X74126094Y-58680344D01*
X74064938Y-58908586D01*
X74064936Y-58908596D01*
X74044341Y-59143999D01*
X70312500Y-59143999D01*
X70312500Y-46008711D01*
X72529500Y-46008711D01*
X72529500Y-46251288D01*
X72561161Y-46491785D01*
X72623947Y-46726104D01*
X72716773Y-46950205D01*
X72716776Y-46950212D01*
X72838064Y-47160289D01*
X72838066Y-47160292D01*
X72838067Y-47160293D01*
X72985733Y-47352736D01*
X72985739Y-47352743D01*
X73157256Y-47524260D01*
X73157263Y-47524266D01*
X73173354Y-47536613D01*
X73349711Y-47671936D01*
X73559788Y-47793224D01*
X73783900Y-47886054D01*
X74018211Y-47948838D01*
X74198586Y-47972584D01*
X74258711Y-47980500D01*
X74258712Y-47980500D01*
X74501289Y-47980500D01*
X74549388Y-47974167D01*
X74741789Y-47948838D01*
X74976100Y-47886054D01*
X75200212Y-47793224D01*
X75410289Y-47671936D01*
X75602738Y-47524265D01*
X75774265Y-47352738D01*
X75921936Y-47160289D01*
X76043224Y-46950212D01*
X76136054Y-46726100D01*
X76198838Y-46491789D01*
X76230500Y-46251288D01*
X76230500Y-46008712D01*
X76230498Y-46008700D01*
X76202983Y-45799695D01*
X76198838Y-45768211D01*
X76136054Y-45533900D01*
X76043224Y-45309788D01*
X75921936Y-45099711D01*
X75842826Y-44996613D01*
X75774266Y-44907263D01*
X75774260Y-44907256D01*
X75602743Y-44735739D01*
X75602736Y-44735733D01*
X75410293Y-44588067D01*
X75410292Y-44588066D01*
X75410289Y-44588064D01*
X75200212Y-44466776D01*
X75169238Y-44453946D01*
X74976104Y-44373947D01*
X74741785Y-44311161D01*
X74501289Y-44279500D01*
X74501288Y-44279500D01*
X74258712Y-44279500D01*
X74258711Y-44279500D01*
X74018214Y-44311161D01*
X73783895Y-44373947D01*
X73559794Y-44466773D01*
X73559785Y-44466777D01*
X73421229Y-44546773D01*
X73354913Y-44585061D01*
X73349706Y-44588067D01*
X73157263Y-44735733D01*
X73157256Y-44735739D01*
X72985739Y-44907256D01*
X72985733Y-44907263D01*
X72838067Y-45099706D01*
X72716777Y-45309785D01*
X72716773Y-45309794D01*
X72623947Y-45533895D01*
X72561161Y-45768214D01*
X72529500Y-46008711D01*
X70312500Y-46008711D01*
X70312500Y-36839996D01*
X74086435Y-36839996D01*
X74086435Y-36840003D01*
X74106630Y-37019249D01*
X74106631Y-37019254D01*
X74166211Y-37189523D01*
X74262185Y-37342263D01*
X74264445Y-37345097D01*
X74265334Y-37347275D01*
X74265889Y-37348158D01*
X74265734Y-37348255D01*
X74290855Y-37409783D01*
X74291500Y-37422412D01*
X74291500Y-40019587D01*
X74271815Y-40086626D01*
X74264450Y-40096896D01*
X74262186Y-40099734D01*
X74166211Y-40252476D01*
X74106631Y-40422745D01*
X74106630Y-40422750D01*
X74086435Y-40601996D01*
X74086435Y-40602003D01*
X74106630Y-40781249D01*
X74106631Y-40781254D01*
X74166211Y-40951523D01*
X74250075Y-41084990D01*
X74262184Y-41104262D01*
X74389738Y-41231816D01*
X74440507Y-41263716D01*
X74535389Y-41323335D01*
X74542478Y-41327789D01*
X74704920Y-41384630D01*
X74712745Y-41387368D01*
X74712750Y-41387369D01*
X74891996Y-41407565D01*
X74892000Y-41407565D01*
X74892004Y-41407565D01*
X75071249Y-41387369D01*
X75071252Y-41387368D01*
X75071255Y-41387368D01*
X75241522Y-41327789D01*
X75394262Y-41231816D01*
X75521816Y-41104262D01*
X75617789Y-40951522D01*
X75677368Y-40781255D01*
X75682918Y-40731996D01*
X75697565Y-40602003D01*
X75697565Y-40601996D01*
X75677369Y-40422750D01*
X75677368Y-40422745D01*
X75617788Y-40252476D01*
X75521813Y-40099734D01*
X75519550Y-40096896D01*
X75518659Y-40094715D01*
X75518111Y-40093842D01*
X75518264Y-40093745D01*
X75493144Y-40032209D01*
X75492500Y-40019587D01*
X75492500Y-37422412D01*
X75512185Y-37355373D01*
X75519555Y-37345097D01*
X75521810Y-37342267D01*
X75521816Y-37342262D01*
X75615876Y-37192565D01*
X75668211Y-37146275D01*
X75737264Y-37135627D01*
X75801113Y-37164002D01*
X75839485Y-37222391D01*
X75843900Y-37264586D01*
X75844341Y-37264586D01*
X75844341Y-37268798D01*
X75844398Y-37269343D01*
X75844341Y-37269994D01*
X75844341Y-37270000D01*
X75864936Y-37505403D01*
X75864938Y-37505413D01*
X75926094Y-37733655D01*
X75926096Y-37733659D01*
X75926097Y-37733663D01*
X75986405Y-37862993D01*
X76025965Y-37947830D01*
X76025967Y-37947834D01*
X76161501Y-38141395D01*
X76161506Y-38141402D01*
X76328597Y-38308493D01*
X76328603Y-38308498D01*
X76514158Y-38438425D01*
X76557783Y-38493002D01*
X76564977Y-38562500D01*
X76533454Y-38624855D01*
X76514158Y-38641575D01*
X76328597Y-38771505D01*
X76161505Y-38938597D01*
X76025965Y-39132169D01*
X76025964Y-39132171D01*
X75926098Y-39346335D01*
X75926094Y-39346344D01*
X75864938Y-39574586D01*
X75864936Y-39574596D01*
X75844341Y-39809999D01*
X75844341Y-39810000D01*
X75864936Y-40045403D01*
X75864938Y-40045413D01*
X75926094Y-40273655D01*
X75926096Y-40273659D01*
X75926097Y-40273663D01*
X75995615Y-40422745D01*
X76025965Y-40487830D01*
X76025967Y-40487834D01*
X76082167Y-40568095D01*
X76161505Y-40681401D01*
X76328599Y-40848495D01*
X76369463Y-40877108D01*
X76522165Y-40984032D01*
X76522167Y-40984033D01*
X76522170Y-40984035D01*
X76736337Y-41083903D01*
X76736347Y-41083905D01*
X76739324Y-41084990D01*
X76741114Y-41086130D01*
X76741244Y-41086191D01*
X76741236Y-41086208D01*
X76784595Y-41113831D01*
X76838349Y-41167585D01*
X76838355Y-41167590D01*
X77859298Y-42188533D01*
X77892783Y-42249856D01*
X77894837Y-42262330D01*
X77904630Y-42349249D01*
X77964210Y-42519521D01*
X78059454Y-42671101D01*
X78060184Y-42672262D01*
X78187738Y-42799816D01*
X78340478Y-42895789D01*
X78510745Y-42955368D01*
X78510750Y-42955369D01*
X78689996Y-42975565D01*
X78690000Y-42975565D01*
X78690004Y-42975565D01*
X78869249Y-42955369D01*
X78869252Y-42955368D01*
X78869255Y-42955368D01*
X79039522Y-42895789D01*
X79192262Y-42799816D01*
X79319816Y-42672262D01*
X79415789Y-42519522D01*
X79475368Y-42349255D01*
X79485162Y-42262330D01*
X79495565Y-42170003D01*
X79495565Y-42169996D01*
X79475369Y-41990750D01*
X79475368Y-41990745D01*
X79441916Y-41895145D01*
X79415789Y-41820478D01*
X79319816Y-41667738D01*
X79192262Y-41540184D01*
X79039521Y-41444210D01*
X78869249Y-41384630D01*
X78782330Y-41374837D01*
X78717916Y-41347770D01*
X78708533Y-41339298D01*
X78232246Y-40863011D01*
X78198761Y-40801688D01*
X78203745Y-40731996D01*
X78232246Y-40687649D01*
X78238495Y-40681401D01*
X78374035Y-40487830D01*
X78473903Y-40273663D01*
X78535063Y-40045408D01*
X78555659Y-39810000D01*
X78535063Y-39574592D01*
X78473903Y-39346337D01*
X78374035Y-39132171D01*
X78238495Y-38938599D01*
X78238494Y-38938597D01*
X78071402Y-38771506D01*
X78071396Y-38771501D01*
X77885842Y-38641575D01*
X77842217Y-38586998D01*
X77835023Y-38517500D01*
X77866546Y-38455145D01*
X77885842Y-38438425D01*
X77908026Y-38422891D01*
X78071401Y-38308495D01*
X78238495Y-38141401D01*
X78374035Y-37947830D01*
X78473903Y-37733663D01*
X78535063Y-37505408D01*
X78555659Y-37270000D01*
X78555658Y-37269994D01*
X78544834Y-37146275D01*
X78535063Y-37034592D01*
X78473903Y-36806337D01*
X78374035Y-36592171D01*
X78310479Y-36501402D01*
X78238494Y-36398597D01*
X78071402Y-36231506D01*
X78071396Y-36231501D01*
X77885842Y-36101575D01*
X77842217Y-36046998D01*
X77835023Y-35977500D01*
X77866546Y-35915145D01*
X77885842Y-35898425D01*
X77933002Y-35865403D01*
X78071401Y-35768495D01*
X78238495Y-35601401D01*
X78374035Y-35407830D01*
X78473903Y-35193663D01*
X78535063Y-34965408D01*
X78555659Y-34730000D01*
X78535063Y-34494592D01*
X78473903Y-34266337D01*
X78374035Y-34052171D01*
X78310479Y-33961402D01*
X78238494Y-33858597D01*
X78071402Y-33691506D01*
X78071396Y-33691501D01*
X77885842Y-33561575D01*
X77842217Y-33506998D01*
X77835023Y-33437500D01*
X77866546Y-33375145D01*
X77885842Y-33358425D01*
X77933002Y-33325403D01*
X78071401Y-33228495D01*
X78238495Y-33061401D01*
X78374035Y-32867830D01*
X78473903Y-32653663D01*
X78535063Y-32425408D01*
X78555659Y-32190000D01*
X78535063Y-31954592D01*
X78473903Y-31726337D01*
X78374035Y-31512171D01*
X78310479Y-31421402D01*
X78238494Y-31318597D01*
X78071402Y-31151506D01*
X78071401Y-31151505D01*
X77885405Y-31021269D01*
X77841781Y-30966692D01*
X77834588Y-30897193D01*
X77866110Y-30834839D01*
X77885405Y-30818119D01*
X78071082Y-30688105D01*
X78238105Y-30521082D01*
X78373600Y-30327578D01*
X78473429Y-30113492D01*
X78473432Y-30113486D01*
X78521526Y-29933999D01*
X88019341Y-29933999D01*
X88019341Y-29934000D01*
X88039936Y-30169403D01*
X88039938Y-30169413D01*
X88101094Y-30397655D01*
X88101096Y-30397659D01*
X88101097Y-30397663D01*
X88172133Y-30549999D01*
X88200965Y-30611830D01*
X88200967Y-30611834D01*
X88273024Y-30714741D01*
X88336505Y-30805401D01*
X88503599Y-30972495D01*
X88600384Y-31040265D01*
X88697165Y-31108032D01*
X88697167Y-31108033D01*
X88697170Y-31108035D01*
X88911337Y-31207903D01*
X89139592Y-31269063D01*
X89316034Y-31284500D01*
X89374999Y-31289659D01*
X89375000Y-31289659D01*
X89375001Y-31289659D01*
X89427531Y-31285063D01*
X89610408Y-31269063D01*
X89838663Y-31207903D01*
X90052830Y-31108035D01*
X90246401Y-30972495D01*
X90368329Y-30850566D01*
X90429648Y-30817084D01*
X90499340Y-30822068D01*
X90555274Y-30863939D01*
X90572189Y-30894917D01*
X90621202Y-31026328D01*
X90621206Y-31026335D01*
X90707452Y-31141544D01*
X90707455Y-31141547D01*
X90822664Y-31227793D01*
X90822671Y-31227797D01*
X90957517Y-31278091D01*
X90957516Y-31278091D01*
X90964444Y-31278835D01*
X91017127Y-31284500D01*
X92812872Y-31284499D01*
X92872483Y-31278091D01*
X93007331Y-31227796D01*
X93122546Y-31141546D01*
X93208796Y-31026331D01*
X93259091Y-30891483D01*
X93265500Y-30831873D01*
X93265499Y-29052155D01*
X102500000Y-29052155D01*
X102500000Y-29700000D01*
X103416988Y-29700000D01*
X103384075Y-29757007D01*
X103350000Y-29884174D01*
X103350000Y-30015826D01*
X103384075Y-30142993D01*
X103416988Y-30200000D01*
X102500000Y-30200000D01*
X102500000Y-30847844D01*
X102506401Y-30907372D01*
X102506403Y-30907379D01*
X102556645Y-31042086D01*
X102556649Y-31042093D01*
X102642809Y-31157187D01*
X102642812Y-31157190D01*
X102757906Y-31243350D01*
X102757913Y-31243354D01*
X102892620Y-31293596D01*
X102892627Y-31293598D01*
X102952155Y-31299999D01*
X102952172Y-31300000D01*
X103600000Y-31300000D01*
X103600000Y-30383012D01*
X103657007Y-30415925D01*
X103784174Y-30450000D01*
X103915826Y-30450000D01*
X104042993Y-30415925D01*
X104100000Y-30383012D01*
X104100000Y-31300000D01*
X104747828Y-31300000D01*
X104747844Y-31299999D01*
X104807372Y-31293598D01*
X104807379Y-31293596D01*
X104942086Y-31243354D01*
X104942093Y-31243350D01*
X105057187Y-31157190D01*
X105057190Y-31157187D01*
X105143350Y-31042093D01*
X105143354Y-31042086D01*
X105192422Y-30910529D01*
X105234293Y-30854595D01*
X105299757Y-30830178D01*
X105368030Y-30845030D01*
X105396285Y-30866181D01*
X105518599Y-30988495D01*
X105572640Y-31026335D01*
X105712165Y-31124032D01*
X105712167Y-31124033D01*
X105712170Y-31124035D01*
X105926337Y-31223903D01*
X105926343Y-31223904D01*
X105926344Y-31223905D01*
X105981285Y-31238626D01*
X106154592Y-31285063D01*
X106325319Y-31300000D01*
X106389999Y-31305659D01*
X106390000Y-31305659D01*
X106390001Y-31305659D01*
X106454681Y-31300000D01*
X106625408Y-31285063D01*
X106853663Y-31223903D01*
X107067830Y-31124035D01*
X107261401Y-30988495D01*
X107428495Y-30821401D01*
X107558425Y-30635842D01*
X107613002Y-30592217D01*
X107682500Y-30585023D01*
X107744855Y-30616546D01*
X107761575Y-30635842D01*
X107889206Y-30818119D01*
X107891505Y-30821401D01*
X108058599Y-30988495D01*
X108112640Y-31026335D01*
X108252165Y-31124032D01*
X108252167Y-31124033D01*
X108252170Y-31124035D01*
X108466337Y-31223903D01*
X108466343Y-31223904D01*
X108466344Y-31223905D01*
X108521285Y-31238626D01*
X108694592Y-31285063D01*
X108865319Y-31300000D01*
X108929999Y-31305659D01*
X108930000Y-31305659D01*
X108930001Y-31305659D01*
X108994681Y-31300000D01*
X109165408Y-31285063D01*
X109393663Y-31223903D01*
X109607830Y-31124035D01*
X109801401Y-30988495D01*
X109968495Y-30821401D01*
X110098425Y-30635842D01*
X110153002Y-30592217D01*
X110222500Y-30585023D01*
X110284855Y-30616546D01*
X110301575Y-30635842D01*
X110429206Y-30818119D01*
X110431505Y-30821401D01*
X110598599Y-30988495D01*
X110652640Y-31026335D01*
X110792165Y-31124032D01*
X110792167Y-31124033D01*
X110792170Y-31124035D01*
X111006337Y-31223903D01*
X111006343Y-31223904D01*
X111006344Y-31223905D01*
X111061285Y-31238626D01*
X111234592Y-31285063D01*
X111405319Y-31300000D01*
X111469999Y-31305659D01*
X111470000Y-31305659D01*
X111470001Y-31305659D01*
X111534681Y-31300000D01*
X111705408Y-31285063D01*
X111859108Y-31243879D01*
X111928956Y-31245542D01*
X111953200Y-31256267D01*
X112028216Y-31299577D01*
X112180943Y-31340501D01*
X112180945Y-31340501D01*
X112346654Y-31340501D01*
X112346670Y-31340500D01*
X124373331Y-31340500D01*
X124373347Y-31340501D01*
X124380943Y-31340501D01*
X124539054Y-31340501D01*
X124539057Y-31340501D01*
X124691785Y-31299577D01*
X124744636Y-31269063D01*
X124828716Y-31220520D01*
X124940520Y-31108716D01*
X124940520Y-31108714D01*
X124950724Y-31098511D01*
X124950728Y-31098506D01*
X125249804Y-30799429D01*
X125311125Y-30765946D01*
X125323601Y-30763892D01*
X125399249Y-30755369D01*
X125399252Y-30755368D01*
X125399255Y-30755368D01*
X125569522Y-30695789D01*
X125689255Y-30620555D01*
X125756490Y-30601555D01*
X125823325Y-30621922D01*
X125868539Y-30675190D01*
X125878754Y-30714741D01*
X125884936Y-30785403D01*
X125884938Y-30785413D01*
X125946094Y-31013655D01*
X125946096Y-31013659D01*
X125946097Y-31013663D01*
X126013024Y-31157187D01*
X126045965Y-31227830D01*
X126045967Y-31227834D01*
X126181501Y-31421395D01*
X126181506Y-31421402D01*
X126348597Y-31588493D01*
X126348603Y-31588498D01*
X126534158Y-31718425D01*
X126577783Y-31773002D01*
X126584977Y-31842500D01*
X126553454Y-31904855D01*
X126534158Y-31921575D01*
X126348597Y-32051505D01*
X126181505Y-32218597D01*
X126045965Y-32412169D01*
X126045964Y-32412171D01*
X125946098Y-32626335D01*
X125946094Y-32626344D01*
X125884938Y-32854586D01*
X125884936Y-32854596D01*
X125864341Y-33089999D01*
X125864341Y-33090000D01*
X125884936Y-33325403D01*
X125884938Y-33325413D01*
X125946094Y-33553655D01*
X125946096Y-33553659D01*
X125946097Y-33553663D01*
X126045965Y-33767830D01*
X126045967Y-33767834D01*
X126181501Y-33961395D01*
X126181506Y-33961402D01*
X126348597Y-34128493D01*
X126348603Y-34128498D01*
X126534158Y-34258425D01*
X126577783Y-34313002D01*
X126584977Y-34382500D01*
X126553454Y-34444855D01*
X126534158Y-34461575D01*
X126348597Y-34591505D01*
X126181505Y-34758597D01*
X126045965Y-34952169D01*
X126045964Y-34952171D01*
X125946098Y-35166335D01*
X125946094Y-35166344D01*
X125884938Y-35394586D01*
X125884936Y-35394596D01*
X125864341Y-35629999D01*
X125864341Y-35630000D01*
X125884936Y-35865403D01*
X125884938Y-35865413D01*
X125946094Y-36093655D01*
X125946096Y-36093659D01*
X125946097Y-36093663D01*
X126045965Y-36307830D01*
X126045967Y-36307834D01*
X126181501Y-36501395D01*
X126181506Y-36501402D01*
X126348597Y-36668493D01*
X126348603Y-36668498D01*
X126534594Y-36798730D01*
X126578219Y-36853307D01*
X126585413Y-36922805D01*
X126553890Y-36985160D01*
X126534595Y-37001880D01*
X126348922Y-37131890D01*
X126348920Y-37131891D01*
X126181891Y-37298920D01*
X126181886Y-37298926D01*
X126046400Y-37492420D01*
X126046399Y-37492422D01*
X125946570Y-37706507D01*
X125946567Y-37706513D01*
X125889364Y-37919999D01*
X125889364Y-37920000D01*
X126786988Y-37920000D01*
X126754075Y-37977007D01*
X126720000Y-38104174D01*
X126720000Y-38235826D01*
X126754075Y-38362993D01*
X126786988Y-38420000D01*
X125889364Y-38420000D01*
X125946567Y-38633486D01*
X125946570Y-38633492D01*
X126046399Y-38847578D01*
X126181894Y-39041082D01*
X126348917Y-39208105D01*
X126534595Y-39338119D01*
X126578219Y-39392696D01*
X126585412Y-39462195D01*
X126553890Y-39524549D01*
X126534595Y-39541268D01*
X126412053Y-39627074D01*
X126345847Y-39649402D01*
X126340929Y-39649500D01*
X121470943Y-39649500D01*
X121318212Y-39690423D01*
X121285175Y-39709499D01*
X121285172Y-39709500D01*
X121181290Y-39769475D01*
X121181282Y-39769481D01*
X120469481Y-40481282D01*
X120469479Y-40481285D01*
X120419361Y-40568094D01*
X120419359Y-40568096D01*
X120390425Y-40618209D01*
X120390424Y-40618210D01*
X120390423Y-40618215D01*
X120349499Y-40770943D01*
X120349499Y-40770945D01*
X120349499Y-40939046D01*
X120349500Y-40939059D01*
X120349500Y-75522530D01*
X120349499Y-75522548D01*
X120349499Y-75688254D01*
X120349498Y-75688254D01*
X120390424Y-75840989D01*
X120390425Y-75840990D01*
X120407731Y-75870964D01*
X120407732Y-75870965D01*
X120469477Y-75977912D01*
X120469481Y-75977917D01*
X120588349Y-76096785D01*
X120588355Y-76096790D01*
X121789233Y-77297668D01*
X121822718Y-77358991D01*
X121821327Y-77417441D01*
X121786939Y-77545783D01*
X121786936Y-77545796D01*
X121766341Y-77781199D01*
X121766341Y-77781200D01*
X121786936Y-78016603D01*
X121786938Y-78016613D01*
X121848094Y-78244855D01*
X121848096Y-78244859D01*
X121848097Y-78244863D01*
X121920746Y-78400659D01*
X121947965Y-78459030D01*
X121947967Y-78459034D01*
X122010609Y-78548495D01*
X122083505Y-78652601D01*
X122250599Y-78819695D01*
X122261029Y-78826998D01*
X122444165Y-78955232D01*
X122444167Y-78955233D01*
X122444170Y-78955235D01*
X122658337Y-79055103D01*
X122886592Y-79116263D01*
X123074918Y-79132739D01*
X123121999Y-79136859D01*
X123122000Y-79136859D01*
X123122001Y-79136859D01*
X123161234Y-79133426D01*
X123357408Y-79116263D01*
X123585663Y-79055103D01*
X123799830Y-78955235D01*
X123993401Y-78819695D01*
X124160495Y-78652601D01*
X124296035Y-78459030D01*
X124395903Y-78244863D01*
X124457063Y-78016608D01*
X124477659Y-77781200D01*
X124457063Y-77545792D01*
X124395903Y-77317537D01*
X124296035Y-77103371D01*
X124256105Y-77046344D01*
X124160494Y-76909797D01*
X123993402Y-76742706D01*
X123993396Y-76742701D01*
X123807842Y-76612775D01*
X123764217Y-76558198D01*
X123757023Y-76488700D01*
X123788546Y-76426345D01*
X123807842Y-76409625D01*
X123868475Y-76367169D01*
X123993401Y-76279695D01*
X124160495Y-76112601D01*
X124296035Y-75919030D01*
X124395903Y-75704863D01*
X124457063Y-75476608D01*
X124477659Y-75241200D01*
X124457063Y-75005792D01*
X124395903Y-74777537D01*
X124296035Y-74563371D01*
X124230657Y-74470000D01*
X124160494Y-74369797D01*
X123993402Y-74202706D01*
X123993396Y-74202701D01*
X123807842Y-74072775D01*
X123764217Y-74018198D01*
X123757023Y-73948700D01*
X123788546Y-73886345D01*
X123807842Y-73869625D01*
X123830026Y-73854091D01*
X123993401Y-73739695D01*
X124160495Y-73572601D01*
X124296035Y-73379030D01*
X124395903Y-73164863D01*
X124457063Y-72936608D01*
X124477659Y-72701200D01*
X124457063Y-72465792D01*
X124395903Y-72237537D01*
X124296035Y-72023371D01*
X124160495Y-71829799D01*
X124160494Y-71829797D01*
X123993402Y-71662706D01*
X123993396Y-71662701D01*
X123807842Y-71532775D01*
X123764217Y-71478198D01*
X123757023Y-71408700D01*
X123788546Y-71346345D01*
X123807842Y-71329625D01*
X123830026Y-71314091D01*
X123993401Y-71199695D01*
X124160495Y-71032601D01*
X124296035Y-70839030D01*
X124395903Y-70624863D01*
X124457063Y-70396608D01*
X124477659Y-70161200D01*
X124457063Y-69925792D01*
X124400693Y-69715413D01*
X124395905Y-69697544D01*
X124395904Y-69697543D01*
X124395903Y-69697537D01*
X124296035Y-69483371D01*
X124222776Y-69378745D01*
X124160494Y-69289797D01*
X123993402Y-69122706D01*
X123993396Y-69122701D01*
X123807842Y-68992775D01*
X123764217Y-68938198D01*
X123757023Y-68868700D01*
X123788546Y-68806345D01*
X123807842Y-68789625D01*
X123860955Y-68752435D01*
X123993401Y-68659695D01*
X124160495Y-68492601D01*
X124296035Y-68299030D01*
X124395903Y-68084863D01*
X124457063Y-67856608D01*
X124477659Y-67621200D01*
X124457063Y-67385792D01*
X124395903Y-67157537D01*
X124296035Y-66943371D01*
X124287919Y-66931779D01*
X124160494Y-66749797D01*
X123993402Y-66582706D01*
X123993396Y-66582701D01*
X123807842Y-66452775D01*
X123764217Y-66398198D01*
X123757023Y-66328700D01*
X123788546Y-66266345D01*
X123807842Y-66249625D01*
X123830869Y-66233501D01*
X123993401Y-66119695D01*
X124160495Y-65952601D01*
X124296035Y-65759030D01*
X124395903Y-65544863D01*
X124457063Y-65316608D01*
X124477659Y-65081200D01*
X124457063Y-64845792D01*
X124395903Y-64617537D01*
X124296035Y-64403371D01*
X124201489Y-64268344D01*
X124160494Y-64209797D01*
X123993402Y-64042706D01*
X123993396Y-64042701D01*
X123807842Y-63912775D01*
X123764217Y-63858198D01*
X123757023Y-63788700D01*
X123788546Y-63726345D01*
X123807842Y-63709625D01*
X123830869Y-63693501D01*
X123993401Y-63579695D01*
X124160495Y-63412601D01*
X124296035Y-63219030D01*
X124395903Y-63004863D01*
X124457063Y-62776608D01*
X124477659Y-62541200D01*
X124457063Y-62305792D01*
X124395903Y-62077537D01*
X124296035Y-61863371D01*
X124201489Y-61728344D01*
X124160494Y-61669797D01*
X123993402Y-61502706D01*
X123993396Y-61502701D01*
X123807842Y-61372775D01*
X123764217Y-61318198D01*
X123757023Y-61248700D01*
X123788546Y-61186345D01*
X123807842Y-61169625D01*
X123830869Y-61153501D01*
X123993401Y-61039695D01*
X124160495Y-60872601D01*
X124296035Y-60679030D01*
X124395903Y-60464863D01*
X124457063Y-60236608D01*
X124477659Y-60001200D01*
X124457063Y-59765792D01*
X124395903Y-59537537D01*
X124296035Y-59323371D01*
X124282496Y-59304034D01*
X124160494Y-59129797D01*
X123993402Y-58962706D01*
X123993396Y-58962701D01*
X123807842Y-58832775D01*
X123764217Y-58778198D01*
X123757023Y-58708700D01*
X123788546Y-58646345D01*
X123807842Y-58629625D01*
X123902045Y-58563663D01*
X123993401Y-58499695D01*
X124160495Y-58332601D01*
X124296035Y-58139030D01*
X124395903Y-57924863D01*
X124457063Y-57696608D01*
X124477659Y-57461200D01*
X124459958Y-57258888D01*
X124473724Y-57190392D01*
X124522339Y-57140209D01*
X124590368Y-57124275D01*
X124656211Y-57147650D01*
X124671167Y-57160403D01*
X125343181Y-57832416D01*
X125376666Y-57893739D01*
X125379500Y-57920097D01*
X125379500Y-60323330D01*
X125379499Y-60323348D01*
X125379499Y-60489054D01*
X125379498Y-60489054D01*
X125420424Y-60641789D01*
X125420425Y-60641790D01*
X125448545Y-60690494D01*
X125448547Y-60690496D01*
X125499479Y-60778714D01*
X125499481Y-60778717D01*
X125618349Y-60897585D01*
X125618355Y-60897590D01*
X128583181Y-63862416D01*
X128616666Y-63923739D01*
X128619500Y-63950097D01*
X128619500Y-65297870D01*
X128619501Y-65297876D01*
X128625908Y-65357483D01*
X128676202Y-65492328D01*
X128676206Y-65492335D01*
X128762452Y-65607544D01*
X128762455Y-65607547D01*
X128877664Y-65693793D01*
X128877671Y-65693797D01*
X128877674Y-65693798D01*
X129009598Y-65743002D01*
X129065531Y-65784873D01*
X129089949Y-65850337D01*
X129075098Y-65918610D01*
X129053947Y-65946865D01*
X128931886Y-66068926D01*
X128796400Y-66262420D01*
X128796399Y-66262422D01*
X128696570Y-66476507D01*
X128696567Y-66476513D01*
X128639364Y-66689999D01*
X128639364Y-66690000D01*
X129536988Y-66690000D01*
X129504075Y-66747007D01*
X129470000Y-66874174D01*
X129470000Y-67005826D01*
X129504075Y-67132993D01*
X129536988Y-67190000D01*
X128639364Y-67190000D01*
X128696567Y-67403486D01*
X128696570Y-67403492D01*
X128796399Y-67617578D01*
X128931894Y-67811082D01*
X129098917Y-67978105D01*
X129284595Y-68108119D01*
X129328219Y-68162696D01*
X129335412Y-68232195D01*
X129303890Y-68294549D01*
X129284595Y-68311269D01*
X129098594Y-68441508D01*
X128931505Y-68608597D01*
X128795965Y-68802169D01*
X128795964Y-68802171D01*
X128696098Y-69016335D01*
X128696094Y-69016344D01*
X128634938Y-69244586D01*
X128634936Y-69244596D01*
X128614341Y-69479999D01*
X128614341Y-69480000D01*
X128634936Y-69715403D01*
X128634938Y-69715413D01*
X128696094Y-69943655D01*
X128696096Y-69943659D01*
X128696097Y-69943663D01*
X128744671Y-70047830D01*
X128795965Y-70157830D01*
X128795967Y-70157834D01*
X128904281Y-70312521D01*
X128931505Y-70351401D01*
X129098599Y-70518495D01*
X129135074Y-70544035D01*
X129292165Y-70654032D01*
X129292167Y-70654033D01*
X129292170Y-70654035D01*
X129506337Y-70753903D01*
X129734592Y-70815063D01*
X129922918Y-70831539D01*
X129969999Y-70835659D01*
X129970000Y-70835659D01*
X129970001Y-70835659D01*
X130009234Y-70832226D01*
X130205408Y-70815063D01*
X130433663Y-70753903D01*
X130647830Y-70654035D01*
X130841401Y-70518495D01*
X131008495Y-70351401D01*
X131144035Y-70157830D01*
X131243903Y-69943663D01*
X131305063Y-69715408D01*
X131325659Y-69480000D01*
X131305063Y-69244592D01*
X131243903Y-69016337D01*
X131144035Y-68802171D01*
X131139179Y-68795235D01*
X131008494Y-68608597D01*
X130841402Y-68441506D01*
X130841401Y-68441505D01*
X130655405Y-68311269D01*
X130611781Y-68256692D01*
X130604588Y-68187193D01*
X130636110Y-68124839D01*
X130655405Y-68108119D01*
X130841082Y-67978105D01*
X131008105Y-67811082D01*
X131143600Y-67617578D01*
X131243429Y-67403492D01*
X131243432Y-67403486D01*
X131300636Y-67190000D01*
X130403012Y-67190000D01*
X130435925Y-67132993D01*
X130470000Y-67005826D01*
X130470000Y-66874174D01*
X130435925Y-66747007D01*
X130403012Y-66690000D01*
X131300636Y-66690000D01*
X131300635Y-66689999D01*
X131243432Y-66476513D01*
X131243429Y-66476507D01*
X131143600Y-66262422D01*
X131143599Y-66262420D01*
X131008113Y-66068926D01*
X131008108Y-66068920D01*
X130886053Y-65946865D01*
X130852568Y-65885542D01*
X130857552Y-65815850D01*
X130899424Y-65759917D01*
X130930400Y-65743002D01*
X131062331Y-65693796D01*
X131177546Y-65607546D01*
X131263796Y-65492331D01*
X131314091Y-65357483D01*
X131320500Y-65297873D01*
X131320499Y-63502128D01*
X131314091Y-63442517D01*
X131302933Y-63412602D01*
X131263797Y-63307671D01*
X131263793Y-63307664D01*
X131177547Y-63192455D01*
X131177544Y-63192452D01*
X131062335Y-63106206D01*
X131062328Y-63106202D01*
X130927482Y-63055908D01*
X130927483Y-63055908D01*
X130867883Y-63049501D01*
X130867881Y-63049500D01*
X130867873Y-63049500D01*
X130867865Y-63049500D01*
X129520097Y-63049500D01*
X129453058Y-63029815D01*
X129432416Y-63013181D01*
X126616819Y-60197584D01*
X126583334Y-60136261D01*
X126580500Y-60109903D01*
X126580500Y-57709060D01*
X126580501Y-57709047D01*
X126580501Y-57540944D01*
X126576407Y-57525664D01*
X126539577Y-57388216D01*
X126516014Y-57347403D01*
X126460524Y-57251290D01*
X126460518Y-57251282D01*
X126006229Y-56796993D01*
X125549936Y-56340701D01*
X125516452Y-56279379D01*
X125521436Y-56209688D01*
X125549936Y-56165341D01*
X125581416Y-56133862D01*
X125677389Y-55981122D01*
X125736968Y-55810855D01*
X125746761Y-55723929D01*
X125773826Y-55659518D01*
X125782290Y-55650143D01*
X126470135Y-54962298D01*
X126531456Y-54928815D01*
X126543911Y-54926763D01*
X126630855Y-54916968D01*
X126801122Y-54857389D01*
X126953862Y-54761416D01*
X127081416Y-54633862D01*
X127177389Y-54481122D01*
X127236968Y-54310855D01*
X127236969Y-54310849D01*
X127257165Y-54131603D01*
X127257165Y-54131596D01*
X127236969Y-53952350D01*
X127236968Y-53952345D01*
X127212600Y-53882705D01*
X127177389Y-53782078D01*
X127081416Y-53629338D01*
X126953862Y-53501784D01*
X126924771Y-53483505D01*
X126801123Y-53405811D01*
X126630854Y-53346231D01*
X126630849Y-53346230D01*
X126451604Y-53326035D01*
X126451596Y-53326035D01*
X126272350Y-53346230D01*
X126272345Y-53346231D01*
X126102076Y-53405811D01*
X125949337Y-53501784D01*
X125821784Y-53629337D01*
X125725810Y-53782078D01*
X125666230Y-53952350D01*
X125656437Y-54039268D01*
X125629370Y-54103682D01*
X125620898Y-54113065D01*
X124933065Y-54800898D01*
X124871742Y-54834383D01*
X124859268Y-54836437D01*
X124772350Y-54846230D01*
X124630626Y-54895821D01*
X124560847Y-54899382D01*
X124500220Y-54864653D01*
X124467993Y-54802659D01*
X124466144Y-54789587D01*
X124463328Y-54757403D01*
X124457063Y-54685792D01*
X124399333Y-54470337D01*
X124395905Y-54457544D01*
X124395904Y-54457543D01*
X124395903Y-54457537D01*
X124296035Y-54243371D01*
X124284955Y-54227546D01*
X124160494Y-54049797D01*
X123993402Y-53882706D01*
X123993396Y-53882701D01*
X123807842Y-53752775D01*
X123764217Y-53698198D01*
X123757023Y-53628700D01*
X123788546Y-53566345D01*
X123807842Y-53549625D01*
X123876166Y-53501784D01*
X123993401Y-53419695D01*
X124160495Y-53252601D01*
X124296035Y-53059030D01*
X124395903Y-52844863D01*
X124457063Y-52616608D01*
X124477659Y-52381200D01*
X124457063Y-52145792D01*
X124398618Y-51927669D01*
X124395905Y-51917544D01*
X124395904Y-51917543D01*
X124395903Y-51917537D01*
X124296035Y-51703371D01*
X124276806Y-51675908D01*
X124160494Y-51509797D01*
X123993402Y-51342706D01*
X123993396Y-51342701D01*
X123807842Y-51212775D01*
X123764217Y-51158198D01*
X123757023Y-51088700D01*
X123788546Y-51026345D01*
X123807842Y-51009625D01*
X123853934Y-50977351D01*
X123993401Y-50879695D01*
X124160495Y-50712601D01*
X124296035Y-50519030D01*
X124395903Y-50304863D01*
X124457063Y-50076608D01*
X124477659Y-49841200D01*
X124457063Y-49605792D01*
X124395903Y-49377537D01*
X124296035Y-49163371D01*
X124160495Y-48969799D01*
X124160494Y-48969797D01*
X123993402Y-48802706D01*
X123993396Y-48802701D01*
X123807842Y-48672775D01*
X123764217Y-48618198D01*
X123757023Y-48548700D01*
X123788546Y-48486345D01*
X123807842Y-48469625D01*
X123907756Y-48399664D01*
X123993401Y-48339695D01*
X124160495Y-48172601D01*
X124296035Y-47979030D01*
X124395903Y-47764863D01*
X124457063Y-47536608D01*
X124477659Y-47301200D01*
X124457063Y-47065792D01*
X124395903Y-46837537D01*
X124296035Y-46623371D01*
X124259915Y-46571785D01*
X124160494Y-46429797D01*
X123993402Y-46262706D01*
X123993396Y-46262701D01*
X123807842Y-46132775D01*
X123764217Y-46078198D01*
X123757023Y-46008700D01*
X123788546Y-45946345D01*
X123807842Y-45929625D01*
X123830026Y-45914091D01*
X123993401Y-45799695D01*
X124160495Y-45632601D01*
X124296035Y-45439030D01*
X124395903Y-45224863D01*
X124457063Y-44996608D01*
X124477659Y-44761200D01*
X124475222Y-44733354D01*
X124488987Y-44664857D01*
X124537601Y-44614673D01*
X124605629Y-44598738D01*
X124671473Y-44622111D01*
X124686431Y-44634866D01*
X125283181Y-45231616D01*
X125316666Y-45292939D01*
X125319500Y-45319297D01*
X125319500Y-51189057D01*
X125350412Y-51304420D01*
X125360423Y-51341783D01*
X125360426Y-51341790D01*
X125439475Y-51478709D01*
X125439479Y-51478714D01*
X125439480Y-51478716D01*
X125551284Y-51590520D01*
X125551286Y-51590521D01*
X125551290Y-51590524D01*
X125688083Y-51669500D01*
X125688216Y-51669577D01*
X125840943Y-51710500D01*
X125999057Y-51710500D01*
X128063512Y-51710500D01*
X128130551Y-51730185D01*
X128176306Y-51782989D01*
X128186250Y-51852147D01*
X128162779Y-51908811D01*
X128126204Y-51957668D01*
X128126202Y-51957671D01*
X128075908Y-52092517D01*
X128069501Y-52152116D01*
X128069501Y-52152123D01*
X128069500Y-52152135D01*
X128069500Y-53947870D01*
X128069501Y-53947876D01*
X128075908Y-54007483D01*
X128126202Y-54142328D01*
X128126206Y-54142335D01*
X128212452Y-54257544D01*
X128212455Y-54257547D01*
X128327664Y-54343793D01*
X128327671Y-54343797D01*
X128327674Y-54343798D01*
X128459598Y-54393002D01*
X128515531Y-54434873D01*
X128539949Y-54500337D01*
X128525098Y-54568610D01*
X128503947Y-54596865D01*
X128381886Y-54718926D01*
X128246400Y-54912420D01*
X128246399Y-54912422D01*
X128146570Y-55126507D01*
X128146567Y-55126513D01*
X128089364Y-55339999D01*
X128089364Y-55340000D01*
X128986988Y-55340000D01*
X128954075Y-55397007D01*
X128920000Y-55524174D01*
X128920000Y-55655826D01*
X128954075Y-55782993D01*
X128986988Y-55840000D01*
X128089364Y-55840000D01*
X128146567Y-56053486D01*
X128146570Y-56053492D01*
X128246399Y-56267578D01*
X128381894Y-56461082D01*
X128548917Y-56628105D01*
X128734595Y-56758119D01*
X128778219Y-56812696D01*
X128785412Y-56882195D01*
X128753890Y-56944549D01*
X128734595Y-56961269D01*
X128548594Y-57091508D01*
X128381505Y-57258597D01*
X128245965Y-57452169D01*
X128245964Y-57452171D01*
X128146098Y-57666335D01*
X128146094Y-57666344D01*
X128084938Y-57894586D01*
X128084936Y-57894596D01*
X128064341Y-58129999D01*
X128064341Y-58130000D01*
X128084936Y-58365403D01*
X128084938Y-58365413D01*
X128146094Y-58593655D01*
X128146096Y-58593659D01*
X128146097Y-58593663D01*
X128210232Y-58731200D01*
X128245965Y-58807830D01*
X128245967Y-58807834D01*
X128327427Y-58924170D01*
X128381505Y-59001401D01*
X128548599Y-59168495D01*
X128641124Y-59233282D01*
X128742165Y-59304032D01*
X128742167Y-59304033D01*
X128742170Y-59304035D01*
X128956337Y-59403903D01*
X129184592Y-59465063D01*
X129372918Y-59481539D01*
X129419999Y-59485659D01*
X129420000Y-59485659D01*
X129420001Y-59485659D01*
X129459234Y-59482226D01*
X129655408Y-59465063D01*
X129883663Y-59403903D01*
X130097830Y-59304035D01*
X130291401Y-59168495D01*
X130458495Y-59001401D01*
X130594035Y-58807830D01*
X130693903Y-58593663D01*
X130755063Y-58365408D01*
X130775659Y-58130000D01*
X130755063Y-57894592D01*
X130702671Y-57699061D01*
X130693905Y-57666344D01*
X130693904Y-57666343D01*
X130693903Y-57666337D01*
X130594035Y-57452171D01*
X130573028Y-57422169D01*
X130458494Y-57258597D01*
X130291402Y-57091506D01*
X130291401Y-57091505D01*
X130105405Y-56961269D01*
X130061781Y-56906692D01*
X130054588Y-56837193D01*
X130086110Y-56774839D01*
X130105405Y-56758119D01*
X130291082Y-56628105D01*
X130458105Y-56461082D01*
X130593600Y-56267578D01*
X130693429Y-56053492D01*
X130693432Y-56053486D01*
X130750636Y-55840000D01*
X129853012Y-55840000D01*
X129885925Y-55782993D01*
X129920000Y-55655826D01*
X129920000Y-55524174D01*
X129885925Y-55397007D01*
X129853012Y-55340000D01*
X130750636Y-55340000D01*
X130750635Y-55339999D01*
X130693432Y-55126513D01*
X130693429Y-55126507D01*
X130593600Y-54912422D01*
X130593599Y-54912420D01*
X130458113Y-54718926D01*
X130458108Y-54718920D01*
X130336053Y-54596865D01*
X130302568Y-54535542D01*
X130307552Y-54465850D01*
X130349424Y-54409917D01*
X130380400Y-54393002D01*
X130512331Y-54343796D01*
X130627546Y-54257546D01*
X130713796Y-54142331D01*
X130764091Y-54007483D01*
X130770500Y-53947873D01*
X130770499Y-52152128D01*
X130764091Y-52092517D01*
X130762877Y-52089263D01*
X130713797Y-51957671D01*
X130713795Y-51957668D01*
X130677221Y-51908811D01*
X130652804Y-51843347D01*
X130667656Y-51775074D01*
X130717061Y-51725668D01*
X130776488Y-51710500D01*
X131405500Y-51710500D01*
X131472539Y-51730185D01*
X131518294Y-51782989D01*
X131529500Y-51834500D01*
X131529500Y-60353330D01*
X131529499Y-60353348D01*
X131529499Y-60519054D01*
X131529498Y-60519054D01*
X131570423Y-60671785D01*
X131599358Y-60721900D01*
X131599359Y-60721904D01*
X131599360Y-60721904D01*
X131649479Y-60808714D01*
X131649481Y-60808717D01*
X131768349Y-60927585D01*
X131768355Y-60927590D01*
X134593181Y-63752416D01*
X134626666Y-63813739D01*
X134629500Y-63840097D01*
X134629500Y-65187870D01*
X134629501Y-65187876D01*
X134635908Y-65247483D01*
X134686202Y-65382328D01*
X134686206Y-65382335D01*
X134772452Y-65497544D01*
X134772455Y-65497547D01*
X134887664Y-65583793D01*
X134887671Y-65583797D01*
X134919250Y-65595575D01*
X135019598Y-65633002D01*
X135075531Y-65674873D01*
X135099949Y-65740337D01*
X135085098Y-65808610D01*
X135063947Y-65836865D01*
X134941886Y-65958926D01*
X134806400Y-66152420D01*
X134806399Y-66152422D01*
X134706570Y-66366507D01*
X134706567Y-66366513D01*
X134649364Y-66579999D01*
X134649364Y-66580000D01*
X135546988Y-66580000D01*
X135514075Y-66637007D01*
X135480000Y-66764174D01*
X135480000Y-66895826D01*
X135514075Y-67022993D01*
X135546988Y-67080000D01*
X134649364Y-67080000D01*
X134706567Y-67293486D01*
X134706570Y-67293492D01*
X134806399Y-67507578D01*
X134941894Y-67701082D01*
X135108917Y-67868105D01*
X135294595Y-67998119D01*
X135338219Y-68052696D01*
X135345412Y-68122195D01*
X135313890Y-68184549D01*
X135294595Y-68201269D01*
X135108594Y-68331508D01*
X134941505Y-68498597D01*
X134805965Y-68692169D01*
X134805964Y-68692171D01*
X134706098Y-68906335D01*
X134706094Y-68906344D01*
X134644938Y-69134586D01*
X134644936Y-69134596D01*
X134624341Y-69369999D01*
X134624341Y-69370000D01*
X134644936Y-69605403D01*
X134644938Y-69605413D01*
X134706094Y-69833655D01*
X134706096Y-69833659D01*
X134706097Y-69833663D01*
X134764107Y-69958066D01*
X134805965Y-70047830D01*
X134805967Y-70047834D01*
X134914281Y-70202521D01*
X134941505Y-70241401D01*
X135108599Y-70408495D01*
X135205384Y-70476265D01*
X135302165Y-70544032D01*
X135302167Y-70544033D01*
X135302170Y-70544035D01*
X135516337Y-70643903D01*
X135516343Y-70643904D01*
X135516344Y-70643905D01*
X135571285Y-70658626D01*
X135744592Y-70705063D01*
X135932918Y-70721539D01*
X135979999Y-70725659D01*
X135980000Y-70725659D01*
X135980001Y-70725659D01*
X136019234Y-70722226D01*
X136215408Y-70705063D01*
X136443663Y-70643903D01*
X136657830Y-70544035D01*
X136851401Y-70408495D01*
X137018495Y-70241401D01*
X137154035Y-70047830D01*
X137253903Y-69833663D01*
X137315063Y-69605408D01*
X137335659Y-69370000D01*
X137315063Y-69134592D01*
X137253903Y-68906337D01*
X137154035Y-68692171D01*
X137131298Y-68659698D01*
X137018494Y-68498597D01*
X136851402Y-68331506D01*
X136851401Y-68331505D01*
X136665405Y-68201269D01*
X136621781Y-68146692D01*
X136614588Y-68077193D01*
X136646110Y-68014839D01*
X136665405Y-67998119D01*
X136851082Y-67868105D01*
X137018105Y-67701082D01*
X137153600Y-67507578D01*
X137253429Y-67293492D01*
X137253432Y-67293486D01*
X137310636Y-67080000D01*
X136413012Y-67080000D01*
X136445925Y-67022993D01*
X136480000Y-66895826D01*
X136480000Y-66764174D01*
X136445925Y-66637007D01*
X136413012Y-66580000D01*
X137310636Y-66580000D01*
X137310635Y-66579999D01*
X137253432Y-66366513D01*
X137253429Y-66366507D01*
X137153600Y-66152422D01*
X137153599Y-66152420D01*
X137018113Y-65958926D01*
X137018108Y-65958920D01*
X136896053Y-65836865D01*
X136862568Y-65775542D01*
X136867552Y-65705850D01*
X136909424Y-65649917D01*
X136940400Y-65633002D01*
X137072331Y-65583796D01*
X137187546Y-65497546D01*
X137273796Y-65382331D01*
X137324091Y-65247483D01*
X137330500Y-65187873D01*
X137330499Y-63392128D01*
X137324091Y-63332517D01*
X137322087Y-63327145D01*
X137273797Y-63197671D01*
X137273793Y-63197664D01*
X137187547Y-63082455D01*
X137187544Y-63082452D01*
X137072335Y-62996206D01*
X137072328Y-62996202D01*
X136937482Y-62945908D01*
X136937483Y-62945908D01*
X136877883Y-62939501D01*
X136877881Y-62939500D01*
X136877873Y-62939500D01*
X136877865Y-62939500D01*
X135530097Y-62939500D01*
X135463058Y-62919815D01*
X135442416Y-62903181D01*
X132766819Y-60227584D01*
X132733334Y-60166261D01*
X132730500Y-60139903D01*
X132730500Y-58099999D01*
X133994341Y-58099999D01*
X133994341Y-58100000D01*
X134014936Y-58335403D01*
X134014938Y-58335413D01*
X134076094Y-58563655D01*
X134076096Y-58563659D01*
X134076097Y-58563663D01*
X134143729Y-58708700D01*
X134175965Y-58777830D01*
X134175967Y-58777834D01*
X134267528Y-58908596D01*
X134311505Y-58971401D01*
X134478599Y-59138495D01*
X134521448Y-59168498D01*
X134672165Y-59274032D01*
X134672167Y-59274033D01*
X134672170Y-59274035D01*
X134886337Y-59373903D01*
X134886343Y-59373904D01*
X134886344Y-59373905D01*
X134906882Y-59379408D01*
X135114592Y-59435063D01*
X135302918Y-59451539D01*
X135349999Y-59455659D01*
X135350000Y-59455659D01*
X135350001Y-59455659D01*
X135389234Y-59452226D01*
X135585408Y-59435063D01*
X135813663Y-59373903D01*
X136027830Y-59274035D01*
X136221401Y-59138495D01*
X136388495Y-58971401D01*
X136524035Y-58777830D01*
X136623903Y-58563663D01*
X136685063Y-58335408D01*
X136705659Y-58100000D01*
X136685063Y-57864592D01*
X136623903Y-57636337D01*
X136524035Y-57422171D01*
X136500259Y-57388214D01*
X136388494Y-57228597D01*
X136221402Y-57061506D01*
X136221401Y-57061505D01*
X136035405Y-56931269D01*
X135991781Y-56876692D01*
X135984588Y-56807193D01*
X136016110Y-56744839D01*
X136035405Y-56728119D01*
X136221082Y-56598105D01*
X136388105Y-56431082D01*
X136523600Y-56237578D01*
X136623429Y-56023492D01*
X136623432Y-56023486D01*
X136680636Y-55810000D01*
X135783012Y-55810000D01*
X135815925Y-55752993D01*
X135850000Y-55625826D01*
X135850000Y-55494174D01*
X135815925Y-55367007D01*
X135783012Y-55310000D01*
X136680636Y-55310000D01*
X136680635Y-55309999D01*
X136623432Y-55096513D01*
X136623429Y-55096507D01*
X136523600Y-54882422D01*
X136523599Y-54882420D01*
X136388113Y-54688926D01*
X136388108Y-54688920D01*
X136266053Y-54566865D01*
X136232568Y-54505542D01*
X136237552Y-54435850D01*
X136279424Y-54379917D01*
X136310400Y-54363002D01*
X136442331Y-54313796D01*
X136557546Y-54227546D01*
X136643796Y-54112331D01*
X136694091Y-53977483D01*
X136700500Y-53917873D01*
X136700499Y-52122128D01*
X136694091Y-52062517D01*
X136654985Y-51957669D01*
X136643797Y-51927671D01*
X136643793Y-51927664D01*
X136557547Y-51812455D01*
X136557544Y-51812452D01*
X136442335Y-51726206D01*
X136442328Y-51726202D01*
X136307482Y-51675908D01*
X136307483Y-51675908D01*
X136247883Y-51669501D01*
X136247881Y-51669500D01*
X136247873Y-51669500D01*
X136247864Y-51669500D01*
X134452129Y-51669500D01*
X134452123Y-51669501D01*
X134392516Y-51675908D01*
X134257671Y-51726202D01*
X134257664Y-51726206D01*
X134142455Y-51812452D01*
X134142452Y-51812455D01*
X134056206Y-51927664D01*
X134056202Y-51927671D01*
X134005908Y-52062517D01*
X133999900Y-52118405D01*
X133999501Y-52122123D01*
X133999500Y-52122135D01*
X133999500Y-53917870D01*
X133999501Y-53917876D01*
X134005908Y-53977483D01*
X134056202Y-54112328D01*
X134056206Y-54112335D01*
X134142452Y-54227544D01*
X134142455Y-54227547D01*
X134257664Y-54313793D01*
X134257671Y-54313797D01*
X134257674Y-54313798D01*
X134389598Y-54363002D01*
X134445531Y-54404873D01*
X134469949Y-54470337D01*
X134455098Y-54538610D01*
X134433947Y-54566865D01*
X134311886Y-54688926D01*
X134176400Y-54882420D01*
X134176399Y-54882422D01*
X134076570Y-55096507D01*
X134076567Y-55096513D01*
X134019364Y-55309999D01*
X134019364Y-55310000D01*
X134916988Y-55310000D01*
X134884075Y-55367007D01*
X134850000Y-55494174D01*
X134850000Y-55625826D01*
X134884075Y-55752993D01*
X134916988Y-55810000D01*
X134019364Y-55810000D01*
X134076567Y-56023486D01*
X134076570Y-56023492D01*
X134176399Y-56237578D01*
X134311894Y-56431082D01*
X134478917Y-56598105D01*
X134664595Y-56728119D01*
X134708219Y-56782696D01*
X134715412Y-56852195D01*
X134683890Y-56914549D01*
X134664595Y-56931269D01*
X134478594Y-57061508D01*
X134311505Y-57228597D01*
X134175965Y-57422169D01*
X134175964Y-57422171D01*
X134076098Y-57636335D01*
X134076094Y-57636344D01*
X134014938Y-57864586D01*
X134014936Y-57864596D01*
X133994341Y-58099999D01*
X132730500Y-58099999D01*
X132730500Y-51030945D01*
X132730500Y-51030943D01*
X132689577Y-50878216D01*
X132668956Y-50842499D01*
X132610524Y-50741290D01*
X132610518Y-50741282D01*
X132498717Y-50629481D01*
X132498709Y-50629475D01*
X132361790Y-50550426D01*
X132361786Y-50550424D01*
X132361784Y-50550423D01*
X132209057Y-50509500D01*
X132209056Y-50509500D01*
X126644500Y-50509500D01*
X126577461Y-50489815D01*
X126531706Y-50437011D01*
X126520500Y-50385500D01*
X126520500Y-46088712D01*
X133689500Y-46088712D01*
X133689500Y-46331288D01*
X133721162Y-46571789D01*
X133752554Y-46688944D01*
X133783947Y-46806104D01*
X133796970Y-46837544D01*
X133876776Y-47030212D01*
X133998064Y-47240289D01*
X133998066Y-47240292D01*
X133998067Y-47240293D01*
X134145733Y-47432736D01*
X134145739Y-47432743D01*
X134317256Y-47604260D01*
X134317263Y-47604266D01*
X134405453Y-47671936D01*
X134509711Y-47751936D01*
X134719788Y-47873224D01*
X134943900Y-47966054D01*
X135178211Y-48028838D01*
X135358586Y-48052584D01*
X135418711Y-48060500D01*
X135418712Y-48060500D01*
X135661289Y-48060500D01*
X135709388Y-48054167D01*
X135901789Y-48028838D01*
X136136100Y-47966054D01*
X136360212Y-47873224D01*
X136570289Y-47751936D01*
X136762738Y-47604265D01*
X136934265Y-47432738D01*
X137081936Y-47240289D01*
X137203224Y-47030212D01*
X137296054Y-46806100D01*
X137358838Y-46571789D01*
X137390500Y-46331288D01*
X137390500Y-46088712D01*
X137358838Y-45848211D01*
X137296054Y-45613900D01*
X137203224Y-45389788D01*
X137081936Y-45179711D01*
X136987076Y-45056087D01*
X136934266Y-44987263D01*
X136934260Y-44987256D01*
X136762743Y-44815739D01*
X136762736Y-44815733D01*
X136570293Y-44668067D01*
X136570292Y-44668066D01*
X136570289Y-44668064D01*
X136360212Y-44546776D01*
X136309562Y-44525796D01*
X136136104Y-44453947D01*
X135901785Y-44391161D01*
X135661289Y-44359500D01*
X135661288Y-44359500D01*
X135418712Y-44359500D01*
X135418711Y-44359500D01*
X135178214Y-44391161D01*
X134943895Y-44453947D01*
X134719794Y-44546773D01*
X134719785Y-44546777D01*
X134509706Y-44668067D01*
X134317263Y-44815733D01*
X134317256Y-44815739D01*
X134145739Y-44987256D01*
X134145733Y-44987263D01*
X133998067Y-45179706D01*
X133876777Y-45389785D01*
X133876773Y-45389794D01*
X133783947Y-45613895D01*
X133721161Y-45848214D01*
X133700032Y-46008711D01*
X133689500Y-46088712D01*
X126520500Y-46088712D01*
X126520500Y-45108260D01*
X126520501Y-45108247D01*
X126520501Y-44940144D01*
X126520501Y-44940143D01*
X126479577Y-44787416D01*
X126479573Y-44787409D01*
X126400524Y-44650490D01*
X126400518Y-44650482D01*
X126316523Y-44566487D01*
X126283038Y-44505164D01*
X126288022Y-44435472D01*
X126329894Y-44379539D01*
X126395358Y-44355122D01*
X126463631Y-44369974D01*
X126475319Y-44377225D01*
X126542170Y-44424035D01*
X126756337Y-44523903D01*
X126756343Y-44523904D01*
X126756344Y-44523905D01*
X126800794Y-44535815D01*
X126984592Y-44585063D01*
X127172918Y-44601539D01*
X127219999Y-44605659D01*
X127220000Y-44605659D01*
X127220001Y-44605659D01*
X127259234Y-44602226D01*
X127455408Y-44585063D01*
X127683663Y-44523903D01*
X127897830Y-44424035D01*
X128091401Y-44288495D01*
X128258495Y-44121401D01*
X128394035Y-43927830D01*
X128493903Y-43713663D01*
X128555063Y-43485408D01*
X128575659Y-43250000D01*
X128555063Y-43014592D01*
X128493903Y-42786337D01*
X128394035Y-42572171D01*
X128357170Y-42519521D01*
X128258494Y-42378597D01*
X128091402Y-42211506D01*
X128091396Y-42211501D01*
X127905842Y-42081575D01*
X127862217Y-42026998D01*
X127855023Y-41957500D01*
X127886546Y-41895145D01*
X127905842Y-41878425D01*
X127928026Y-41862891D01*
X128091401Y-41748495D01*
X128258495Y-41581401D01*
X128394035Y-41387830D01*
X128493903Y-41173663D01*
X128555063Y-40945408D01*
X128575659Y-40710000D01*
X128555063Y-40474592D01*
X128501223Y-40273655D01*
X128493905Y-40246344D01*
X128493904Y-40246343D01*
X128493903Y-40246337D01*
X128394035Y-40032171D01*
X128288384Y-39881284D01*
X128258494Y-39838597D01*
X128091402Y-39671506D01*
X128091401Y-39671505D01*
X127905405Y-39541269D01*
X127861781Y-39486692D01*
X127854588Y-39417193D01*
X127886110Y-39354839D01*
X127905405Y-39338119D01*
X128091082Y-39208105D01*
X128258105Y-39041082D01*
X128393600Y-38847578D01*
X128493429Y-38633492D01*
X128493432Y-38633486D01*
X128550636Y-38420000D01*
X127653012Y-38420000D01*
X127685925Y-38362993D01*
X127720000Y-38235826D01*
X127720000Y-38104174D01*
X127685925Y-37977007D01*
X127653012Y-37920000D01*
X128550636Y-37920000D01*
X128550635Y-37919999D01*
X128493432Y-37706513D01*
X128493429Y-37706507D01*
X128393600Y-37492422D01*
X128393599Y-37492420D01*
X128258113Y-37298926D01*
X128258108Y-37298920D01*
X128091078Y-37131890D01*
X127905405Y-37001879D01*
X127861780Y-36947302D01*
X127854588Y-36877804D01*
X127886110Y-36815449D01*
X127905406Y-36798730D01*
X128091401Y-36668495D01*
X128258495Y-36501401D01*
X128394035Y-36307830D01*
X128493903Y-36093663D01*
X128555063Y-35865408D01*
X128575659Y-35630000D01*
X128555063Y-35394592D01*
X128493903Y-35166337D01*
X128394035Y-34952171D01*
X128258495Y-34758599D01*
X128258494Y-34758597D01*
X128091402Y-34591506D01*
X128091396Y-34591501D01*
X127905842Y-34461575D01*
X127862217Y-34406998D01*
X127855023Y-34337500D01*
X127886546Y-34275145D01*
X127905842Y-34258425D01*
X127928026Y-34242891D01*
X128091401Y-34128495D01*
X128258495Y-33961401D01*
X128394035Y-33767830D01*
X128493903Y-33553663D01*
X128555063Y-33325408D01*
X128575659Y-33090000D01*
X128555063Y-32854592D01*
X128493903Y-32626337D01*
X128394035Y-32412171D01*
X128258495Y-32218599D01*
X128258494Y-32218597D01*
X128091402Y-32051506D01*
X128091396Y-32051501D01*
X127905842Y-31921575D01*
X127862217Y-31866998D01*
X127855023Y-31797500D01*
X127886546Y-31735145D01*
X127905842Y-31718425D01*
X127928026Y-31702891D01*
X128091401Y-31588495D01*
X128258495Y-31421401D01*
X128394035Y-31227830D01*
X128493903Y-31013663D01*
X128555063Y-30785408D01*
X128575659Y-30550000D01*
X128555063Y-30314592D01*
X128501179Y-30113492D01*
X128493905Y-30086344D01*
X128493904Y-30086343D01*
X128493903Y-30086337D01*
X128394035Y-29872171D01*
X128373604Y-29842993D01*
X128258496Y-29678600D01*
X128200374Y-29620478D01*
X128136567Y-29556671D01*
X128103084Y-29495351D01*
X128108068Y-29425659D01*
X128149939Y-29369725D01*
X128180915Y-29352810D01*
X128312331Y-29303796D01*
X128427546Y-29217546D01*
X128513796Y-29102331D01*
X128564091Y-28967483D01*
X128570500Y-28907873D01*
X128570499Y-27112128D01*
X128564091Y-27052517D01*
X128513796Y-26917669D01*
X128513795Y-26917668D01*
X128513793Y-26917664D01*
X128427547Y-26802455D01*
X128427544Y-26802452D01*
X128312335Y-26716206D01*
X128312328Y-26716202D01*
X128177482Y-26665908D01*
X128177483Y-26665908D01*
X128117883Y-26659501D01*
X128117881Y-26659500D01*
X128117873Y-26659500D01*
X128117864Y-26659500D01*
X126322129Y-26659500D01*
X126322123Y-26659501D01*
X126262516Y-26665908D01*
X126127671Y-26716202D01*
X126127664Y-26716206D01*
X126012455Y-26802452D01*
X126012452Y-26802455D01*
X125926206Y-26917664D01*
X125926202Y-26917671D01*
X125875908Y-27052517D01*
X125869501Y-27112116D01*
X125869501Y-27112123D01*
X125869500Y-27112135D01*
X125869500Y-28907870D01*
X125869501Y-28907876D01*
X125875908Y-28967483D01*
X125926202Y-29102328D01*
X125926206Y-29102335D01*
X126012452Y-29217544D01*
X126012455Y-29217547D01*
X126127664Y-29303793D01*
X126127671Y-29303797D01*
X126259081Y-29352810D01*
X126315015Y-29394681D01*
X126339432Y-29460145D01*
X126324580Y-29528418D01*
X126303430Y-29556673D01*
X126181505Y-29678598D01*
X126176623Y-29685571D01*
X126122044Y-29729194D01*
X126052546Y-29736385D01*
X125990192Y-29704860D01*
X125958008Y-29655398D01*
X125945789Y-29620478D01*
X125905698Y-29556674D01*
X125849816Y-29467738D01*
X125722262Y-29340184D01*
X125569523Y-29244211D01*
X125399254Y-29184631D01*
X125399249Y-29184630D01*
X125220004Y-29164435D01*
X125219996Y-29164435D01*
X125040750Y-29184630D01*
X125040745Y-29184631D01*
X124870476Y-29244211D01*
X124717737Y-29340184D01*
X124590184Y-29467737D01*
X124494210Y-29620478D01*
X124434630Y-29790750D01*
X124423567Y-29888938D01*
X124396500Y-29953352D01*
X124388029Y-29962735D01*
X124247582Y-30103182D01*
X124186262Y-30136666D01*
X124159903Y-30139500D01*
X112944402Y-30139500D01*
X112877363Y-30119815D01*
X112831608Y-30067011D01*
X112820874Y-30004692D01*
X112825659Y-29950000D01*
X112825659Y-29949999D01*
X112818850Y-29872171D01*
X112805063Y-29714592D01*
X112743903Y-29486337D01*
X112644035Y-29272171D01*
X112638425Y-29264158D01*
X112508494Y-29078597D01*
X112341402Y-28911506D01*
X112341395Y-28911501D01*
X112336212Y-28907872D01*
X112241658Y-28841664D01*
X112147834Y-28775967D01*
X112147830Y-28775965D01*
X112076727Y-28742809D01*
X111933663Y-28676097D01*
X111933659Y-28676096D01*
X111933655Y-28676094D01*
X111705413Y-28614938D01*
X111705403Y-28614936D01*
X111470001Y-28594341D01*
X111469999Y-28594341D01*
X111234596Y-28614936D01*
X111234586Y-28614938D01*
X111006344Y-28676094D01*
X111006335Y-28676098D01*
X110792171Y-28775964D01*
X110792169Y-28775965D01*
X110598597Y-28911505D01*
X110431505Y-29078597D01*
X110301575Y-29264158D01*
X110246998Y-29307783D01*
X110177500Y-29314977D01*
X110115145Y-29283454D01*
X110098425Y-29264158D01*
X109968494Y-29078597D01*
X109801402Y-28911506D01*
X109801395Y-28911501D01*
X109796212Y-28907872D01*
X109701658Y-28841664D01*
X109607834Y-28775967D01*
X109607830Y-28775965D01*
X109536727Y-28742809D01*
X109393663Y-28676097D01*
X109393659Y-28676096D01*
X109393655Y-28676094D01*
X109165413Y-28614938D01*
X109165403Y-28614936D01*
X108930001Y-28594341D01*
X108929999Y-28594341D01*
X108694596Y-28614936D01*
X108694586Y-28614938D01*
X108466344Y-28676094D01*
X108466335Y-28676098D01*
X108252171Y-28775964D01*
X108252169Y-28775965D01*
X108058597Y-28911505D01*
X107891505Y-29078597D01*
X107761575Y-29264158D01*
X107706998Y-29307783D01*
X107637500Y-29314977D01*
X107575145Y-29283454D01*
X107558425Y-29264158D01*
X107428494Y-29078597D01*
X107261402Y-28911506D01*
X107261395Y-28911501D01*
X107256212Y-28907872D01*
X107161658Y-28841664D01*
X107067834Y-28775967D01*
X107067830Y-28775965D01*
X106996727Y-28742809D01*
X106853663Y-28676097D01*
X106853659Y-28676096D01*
X106853655Y-28676094D01*
X106625413Y-28614938D01*
X106625403Y-28614936D01*
X106390001Y-28594341D01*
X106389999Y-28594341D01*
X106154596Y-28614936D01*
X106154586Y-28614938D01*
X105926344Y-28676094D01*
X105926335Y-28676098D01*
X105712171Y-28775964D01*
X105712169Y-28775965D01*
X105518600Y-28911503D01*
X105396284Y-29033819D01*
X105334961Y-29067303D01*
X105265269Y-29062319D01*
X105209336Y-29020447D01*
X105192421Y-28989470D01*
X105143354Y-28857913D01*
X105143350Y-28857906D01*
X105057190Y-28742812D01*
X105057187Y-28742809D01*
X104942093Y-28656649D01*
X104942086Y-28656645D01*
X104807379Y-28606403D01*
X104807372Y-28606401D01*
X104747844Y-28600000D01*
X104100000Y-28600000D01*
X104100000Y-29516988D01*
X104042993Y-29484075D01*
X103915826Y-29450000D01*
X103784174Y-29450000D01*
X103657007Y-29484075D01*
X103600000Y-29516988D01*
X103600000Y-28600000D01*
X102952155Y-28600000D01*
X102892627Y-28606401D01*
X102892620Y-28606403D01*
X102757913Y-28656645D01*
X102757906Y-28656649D01*
X102642812Y-28742809D01*
X102642809Y-28742812D01*
X102556649Y-28857906D01*
X102556645Y-28857913D01*
X102506403Y-28992620D01*
X102506401Y-28992627D01*
X102500000Y-29052155D01*
X93265499Y-29052155D01*
X93265499Y-29036128D01*
X93259091Y-28976517D01*
X93257810Y-28973083D01*
X93208797Y-28841671D01*
X93208793Y-28841664D01*
X93122547Y-28726455D01*
X93122544Y-28726452D01*
X93007335Y-28640206D01*
X93007328Y-28640202D01*
X92872482Y-28589908D01*
X92872483Y-28589908D01*
X92812883Y-28583501D01*
X92812881Y-28583500D01*
X92812873Y-28583500D01*
X92812864Y-28583500D01*
X91017129Y-28583500D01*
X91017123Y-28583501D01*
X90957516Y-28589908D01*
X90822671Y-28640202D01*
X90822664Y-28640206D01*
X90707455Y-28726452D01*
X90707452Y-28726455D01*
X90621206Y-28841664D01*
X90621203Y-28841669D01*
X90572189Y-28973083D01*
X90530317Y-29029016D01*
X90464853Y-29053433D01*
X90396580Y-29038581D01*
X90368326Y-29017430D01*
X90246402Y-28895506D01*
X90246395Y-28895501D01*
X90052834Y-28759967D01*
X90052830Y-28759965D01*
X90016039Y-28742809D01*
X89838663Y-28660097D01*
X89838659Y-28660096D01*
X89838655Y-28660094D01*
X89610413Y-28598938D01*
X89610403Y-28598936D01*
X89375001Y-28578341D01*
X89374999Y-28578341D01*
X89139596Y-28598936D01*
X89139586Y-28598938D01*
X88911344Y-28660094D01*
X88911335Y-28660098D01*
X88697171Y-28759964D01*
X88697169Y-28759965D01*
X88503597Y-28895505D01*
X88336505Y-29062597D01*
X88200965Y-29256169D01*
X88200964Y-29256171D01*
X88101098Y-29470335D01*
X88101094Y-29470344D01*
X88039938Y-29698586D01*
X88039936Y-29698596D01*
X88019341Y-29933999D01*
X78521526Y-29933999D01*
X78530636Y-29900000D01*
X77633012Y-29900000D01*
X77665925Y-29842993D01*
X77700000Y-29715826D01*
X77700000Y-29584174D01*
X77665925Y-29457007D01*
X77633012Y-29400000D01*
X78530636Y-29400000D01*
X78530635Y-29399999D01*
X78473432Y-29186513D01*
X78473429Y-29186507D01*
X78373600Y-28972422D01*
X78373599Y-28972420D01*
X78238113Y-28778926D01*
X78238108Y-28778920D01*
X78116053Y-28656865D01*
X78082568Y-28595542D01*
X78087552Y-28525850D01*
X78129424Y-28469917D01*
X78160400Y-28453002D01*
X78292331Y-28403796D01*
X78407546Y-28317546D01*
X78493796Y-28202331D01*
X78544091Y-28067483D01*
X78550500Y-28007873D01*
X78550499Y-26212128D01*
X78544091Y-26152517D01*
X78493796Y-26017669D01*
X78493795Y-26017668D01*
X78493793Y-26017664D01*
X78407547Y-25902455D01*
X78407544Y-25902452D01*
X78292335Y-25816206D01*
X78292328Y-25816202D01*
X78157482Y-25765908D01*
X78157483Y-25765908D01*
X78097883Y-25759501D01*
X78097881Y-25759500D01*
X78097873Y-25759500D01*
X78097864Y-25759500D01*
X76302129Y-25759500D01*
X76302123Y-25759501D01*
X76242516Y-25765908D01*
X76107671Y-25816202D01*
X76107664Y-25816206D01*
X75992455Y-25902452D01*
X75992452Y-25902455D01*
X75906206Y-26017664D01*
X75906202Y-26017671D01*
X75855908Y-26152517D01*
X75849501Y-26212116D01*
X75849501Y-26212123D01*
X75849500Y-26212135D01*
X75849500Y-28007870D01*
X75849501Y-28007876D01*
X75855908Y-28067483D01*
X75906202Y-28202328D01*
X75906206Y-28202335D01*
X75992452Y-28317544D01*
X75992455Y-28317547D01*
X76107664Y-28403793D01*
X76107671Y-28403797D01*
X76107674Y-28403798D01*
X76239598Y-28453002D01*
X76295531Y-28494873D01*
X76319949Y-28560337D01*
X76305098Y-28628610D01*
X76283947Y-28656865D01*
X76161886Y-28778926D01*
X76026400Y-28972420D01*
X76026399Y-28972422D01*
X75926570Y-29186507D01*
X75926567Y-29186513D01*
X75869364Y-29399999D01*
X75869364Y-29400000D01*
X76766988Y-29400000D01*
X76734075Y-29457007D01*
X76700000Y-29584174D01*
X76700000Y-29715826D01*
X76734075Y-29842993D01*
X76766988Y-29900000D01*
X75869364Y-29900000D01*
X75926567Y-30113486D01*
X75926570Y-30113492D01*
X76026399Y-30327578D01*
X76161894Y-30521082D01*
X76328917Y-30688105D01*
X76514595Y-30818119D01*
X76558219Y-30872696D01*
X76565412Y-30942195D01*
X76533890Y-31004549D01*
X76514595Y-31021269D01*
X76328594Y-31151508D01*
X76161505Y-31318597D01*
X76025965Y-31512169D01*
X76025964Y-31512171D01*
X75932401Y-31712816D01*
X75927171Y-31724035D01*
X75926098Y-31726335D01*
X75926094Y-31726344D01*
X75864938Y-31954586D01*
X75864936Y-31954596D01*
X75844341Y-32189999D01*
X75844341Y-32190000D01*
X75864936Y-32425403D01*
X75864938Y-32425413D01*
X75926094Y-32653655D01*
X75926096Y-32653659D01*
X75926097Y-32653663D01*
X76019789Y-32854586D01*
X76025965Y-32867830D01*
X76025967Y-32867834D01*
X76161501Y-33061395D01*
X76161506Y-33061402D01*
X76328597Y-33228493D01*
X76328603Y-33228498D01*
X76514158Y-33358425D01*
X76557783Y-33413002D01*
X76564977Y-33482500D01*
X76533454Y-33544855D01*
X76514158Y-33561575D01*
X76328597Y-33691505D01*
X76161505Y-33858597D01*
X76025965Y-34052169D01*
X76025964Y-34052171D01*
X75932401Y-34252816D01*
X75927171Y-34264035D01*
X75926098Y-34266335D01*
X75926094Y-34266344D01*
X75864938Y-34494586D01*
X75864936Y-34494596D01*
X75844341Y-34729999D01*
X75844341Y-34730000D01*
X75864936Y-34965403D01*
X75864938Y-34965413D01*
X75926094Y-35193655D01*
X75926096Y-35193659D01*
X75926097Y-35193663D01*
X76019789Y-35394586D01*
X76025965Y-35407830D01*
X76025967Y-35407834D01*
X76161501Y-35601395D01*
X76161506Y-35601402D01*
X76328597Y-35768493D01*
X76328603Y-35768498D01*
X76514158Y-35898425D01*
X76557783Y-35953002D01*
X76564977Y-36022500D01*
X76533454Y-36084855D01*
X76514158Y-36101575D01*
X76328597Y-36231505D01*
X76161505Y-36398597D01*
X76025965Y-36592169D01*
X76025964Y-36592171D01*
X75925241Y-36808172D01*
X75879068Y-36860611D01*
X75811875Y-36879763D01*
X75744994Y-36859547D01*
X75699659Y-36806382D01*
X75689639Y-36769650D01*
X75677369Y-36660750D01*
X75677368Y-36660745D01*
X75617788Y-36490476D01*
X75578582Y-36428080D01*
X75521816Y-36337738D01*
X75394262Y-36210184D01*
X75241523Y-36114211D01*
X75071254Y-36054631D01*
X75071249Y-36054630D01*
X74892004Y-36034435D01*
X74891996Y-36034435D01*
X74712750Y-36054630D01*
X74712745Y-36054631D01*
X74542476Y-36114211D01*
X74389737Y-36210184D01*
X74262184Y-36337737D01*
X74166211Y-36490476D01*
X74106631Y-36660745D01*
X74106630Y-36660750D01*
X74086435Y-36839996D01*
X70312500Y-36839996D01*
X70312500Y-24970500D01*
X70332185Y-24903461D01*
X70384989Y-24857706D01*
X70436500Y-24846500D01*
X139545500Y-24846500D01*
X139612539Y-24866185D01*
G37*
%TD.AperFunction*%
%TD*%
M02*
