M48
; DRILL file {KiCad 8.0.6} date 2025-01-23T10:33:55+0100
; FORMAT={-:-/ absolute / inch / decimal}
; #@! TF.CreationDate,2025-01-23T10:33:55+01:00
; #@! TF.GenerationSoftware,Kicad,Pcbnew,8.0.6
; #@! TF.FileFunction,Plated,1,2,PTH
FMAT,2
INCH
; #@! TA.AperFunction,Plated,PTH,ViaDrill
T1C0.0118
; #@! TA.AperFunction,Plated,PTH,ComponentDrill
T2C0.0394
%
G90
G05
T1
X2.9485Y-1.4504
X2.9485Y-1.5985
X3.098Y-1.6602
X3.1106Y-2.7685
X3.139Y-2.7385
X3.7079Y-2.7385
X3.7685Y-2.7685
X4.9194Y-2.1902
X4.9299Y-1.1799
X4.9784Y-2.1312
T2
X2.9685Y-2.1285
X2.9685Y-2.2285
X2.9685Y-2.3285
X2.9685Y-2.4285
X2.9685Y-2.5285
X2.9685Y-2.6285
X3.0394Y-1.0673
X3.0394Y-1.1673
X3.0394Y-1.2673
X3.0394Y-1.3673
X3.0394Y-1.4673
X3.0394Y-1.5673
X3.1043Y-2.9333
X3.1043Y-3.0333
X3.2081Y-1.9465
X3.2081Y-2.0465
X3.2081Y-2.1465
X3.2081Y-2.2465
X3.2081Y-2.3465
X3.2081Y-2.4465
X3.2081Y-2.5465
X3.2081Y-2.6465
X3.4285Y-3.3485
X3.5187Y-1.1785
X3.5285Y-3.3485
X3.5885Y-3.7085
X3.6089Y-1.9485
X3.6089Y-2.0485
X3.6089Y-2.1485
X3.6089Y-2.2485
X3.6089Y-2.3485
X3.6089Y-2.4485
X3.6089Y-2.5485
X3.6089Y-2.6485
X3.6187Y-1.1785
X3.6285Y-3.3485
X3.6885Y-3.7085
X3.8434Y-1.6623
X3.8434Y-1.7623
X3.8434Y-1.8623
X3.8434Y-1.9623
X3.8434Y-2.0623
X3.8434Y-2.1623
X3.8434Y-2.2623
X3.8434Y-2.3623
X3.8434Y-2.4623
X3.8434Y-2.5623
X3.8434Y-2.6623
X3.8434Y-2.7623
X3.8434Y-2.8623
X3.8434Y-2.9623
X3.8434Y-3.0623
X4.0886Y-1.1791
X4.1886Y-1.1791
X4.2886Y-1.1791
X4.3886Y-1.1791
X4.8473Y-1.6623
X4.8473Y-1.7623
X4.8473Y-1.8623
X4.8473Y-1.9623
X4.8473Y-2.0623
X4.8473Y-2.1623
X4.8473Y-2.2623
X4.8473Y-2.3623
X4.8473Y-2.4623
X4.8473Y-2.5623
X4.8473Y-2.6623
X4.8473Y-2.7623
X4.8473Y-2.8623
X4.8473Y-2.9623
X4.8473Y-3.0623
X5.0087Y-1.1028
X5.0087Y-1.2028
X5.0087Y-1.3028
X5.0087Y-1.4028
X5.0087Y-1.5028
X5.0087Y-1.6028
X5.0087Y-1.7028
X5.0953Y-2.0886
X5.0953Y-2.1886
X5.0953Y-2.2886
X5.1087Y-3.0894
X5.1087Y-3.1894
X5.1087Y-3.2894
X5.1087Y-3.3894
X5.1169Y-2.5354
X5.1169Y-2.6354
X5.1169Y-2.7354
X5.2579Y-2.9516
X5.2579Y-3.0516
X5.2579Y-3.1516
X5.2579Y-3.2516
X5.3287Y-2.0874
X5.3287Y-2.1874
X5.3287Y-2.2874
X5.3535Y-2.5311
X5.3535Y-2.6311
X5.3535Y-2.7311
M30
