%TF.GenerationSoftware,KiCad,Pcbnew,8.0.6*%
%TF.CreationDate,2025-01-23T10:33:56+01:00*%
%TF.ProjectId,Pcb pami 2025,50636220-7061-46d6-9920-323032352e6b,rev?*%
%TF.SameCoordinates,Original*%
%TF.FileFunction,Drillmap*%
%TF.FilePolarity,Positive*%
%FSLAX45Y45*%
G04 Gerber Fmt 4.5, Leading zero omitted, Abs format (unit mm)*
G04 Created by KiCad (PCBNEW 8.0.6) date 2025-01-23 10:33:56*
%MOMM*%
%LPD*%
G01*
G04 APERTURE LIST*
%ADD10C,0.050000*%
%ADD11C,0.200000*%
%ADD12C,0.320000*%
G04 APERTURE END LIST*
D10*
X14017000Y-8149600D02*
X11705600Y-10080000D01*
X9241800Y-10080000D01*
X6981200Y-8149600D01*
X6981200Y-2434600D01*
X14017000Y-2434600D01*
X14017000Y-8149600D01*
D11*
D12*
X7278000Y-4453000D02*
X7598000Y-4773000D01*
X7598000Y-4453000D02*
X7278000Y-4773000D01*
X13394000Y-4461000D02*
X13714000Y-4781000D01*
X13714000Y-4461000D02*
X13394000Y-4781000D01*
D11*
X7239477Y-10393984D02*
X7239477Y-10193984D01*
X7239477Y-10193984D02*
X7287096Y-10193984D01*
X7287096Y-10193984D02*
X7315667Y-10203508D01*
X7315667Y-10203508D02*
X7334715Y-10222555D01*
X7334715Y-10222555D02*
X7344239Y-10241603D01*
X7344239Y-10241603D02*
X7353762Y-10279698D01*
X7353762Y-10279698D02*
X7353762Y-10308270D01*
X7353762Y-10308270D02*
X7344239Y-10346365D01*
X7344239Y-10346365D02*
X7334715Y-10365412D01*
X7334715Y-10365412D02*
X7315667Y-10384460D01*
X7315667Y-10384460D02*
X7287096Y-10393984D01*
X7287096Y-10393984D02*
X7239477Y-10393984D01*
X7439477Y-10393984D02*
X7439477Y-10260650D01*
X7439477Y-10298746D02*
X7449001Y-10279698D01*
X7449001Y-10279698D02*
X7458524Y-10270174D01*
X7458524Y-10270174D02*
X7477572Y-10260650D01*
X7477572Y-10260650D02*
X7496620Y-10260650D01*
X7563286Y-10393984D02*
X7563286Y-10260650D01*
X7563286Y-10193984D02*
X7553762Y-10203508D01*
X7553762Y-10203508D02*
X7563286Y-10213031D01*
X7563286Y-10213031D02*
X7572810Y-10203508D01*
X7572810Y-10203508D02*
X7563286Y-10193984D01*
X7563286Y-10193984D02*
X7563286Y-10213031D01*
X7687096Y-10393984D02*
X7668048Y-10384460D01*
X7668048Y-10384460D02*
X7658524Y-10365412D01*
X7658524Y-10365412D02*
X7658524Y-10193984D01*
X7791858Y-10393984D02*
X7772810Y-10384460D01*
X7772810Y-10384460D02*
X7763286Y-10365412D01*
X7763286Y-10365412D02*
X7763286Y-10193984D01*
X8020429Y-10393984D02*
X8020429Y-10193984D01*
X8020429Y-10193984D02*
X8087096Y-10336841D01*
X8087096Y-10336841D02*
X8153762Y-10193984D01*
X8153762Y-10193984D02*
X8153762Y-10393984D01*
X8334715Y-10393984D02*
X8334715Y-10289222D01*
X8334715Y-10289222D02*
X8325191Y-10270174D01*
X8325191Y-10270174D02*
X8306143Y-10260650D01*
X8306143Y-10260650D02*
X8268048Y-10260650D01*
X8268048Y-10260650D02*
X8249001Y-10270174D01*
X8334715Y-10384460D02*
X8315667Y-10393984D01*
X8315667Y-10393984D02*
X8268048Y-10393984D01*
X8268048Y-10393984D02*
X8249001Y-10384460D01*
X8249001Y-10384460D02*
X8239477Y-10365412D01*
X8239477Y-10365412D02*
X8239477Y-10346365D01*
X8239477Y-10346365D02*
X8249001Y-10327317D01*
X8249001Y-10327317D02*
X8268048Y-10317793D01*
X8268048Y-10317793D02*
X8315667Y-10317793D01*
X8315667Y-10317793D02*
X8334715Y-10308270D01*
X8429953Y-10260650D02*
X8429953Y-10460650D01*
X8429953Y-10270174D02*
X8449001Y-10260650D01*
X8449001Y-10260650D02*
X8487096Y-10260650D01*
X8487096Y-10260650D02*
X8506144Y-10270174D01*
X8506144Y-10270174D02*
X8515667Y-10279698D01*
X8515667Y-10279698D02*
X8525191Y-10298746D01*
X8525191Y-10298746D02*
X8525191Y-10355889D01*
X8525191Y-10355889D02*
X8515667Y-10374936D01*
X8515667Y-10374936D02*
X8506144Y-10384460D01*
X8506144Y-10384460D02*
X8487096Y-10393984D01*
X8487096Y-10393984D02*
X8449001Y-10393984D01*
X8449001Y-10393984D02*
X8429953Y-10384460D01*
X8610905Y-10374936D02*
X8620429Y-10384460D01*
X8620429Y-10384460D02*
X8610905Y-10393984D01*
X8610905Y-10393984D02*
X8601382Y-10384460D01*
X8601382Y-10384460D02*
X8610905Y-10374936D01*
X8610905Y-10374936D02*
X8610905Y-10393984D01*
X8610905Y-10270174D02*
X8620429Y-10279698D01*
X8620429Y-10279698D02*
X8610905Y-10289222D01*
X8610905Y-10289222D02*
X8601382Y-10279698D01*
X8601382Y-10279698D02*
X8610905Y-10270174D01*
X8610905Y-10270174D02*
X8610905Y-10289222D01*
X6778700Y-10622500D02*
X6978700Y-10822500D01*
X6978700Y-10622500D02*
X6778700Y-10822500D01*
X7220429Y-10613984D02*
X7344239Y-10613984D01*
X7344239Y-10613984D02*
X7277572Y-10690174D01*
X7277572Y-10690174D02*
X7306143Y-10690174D01*
X7306143Y-10690174D02*
X7325191Y-10699698D01*
X7325191Y-10699698D02*
X7334715Y-10709222D01*
X7334715Y-10709222D02*
X7344239Y-10728270D01*
X7344239Y-10728270D02*
X7344239Y-10775889D01*
X7344239Y-10775889D02*
X7334715Y-10794936D01*
X7334715Y-10794936D02*
X7325191Y-10804460D01*
X7325191Y-10804460D02*
X7306143Y-10813984D01*
X7306143Y-10813984D02*
X7249001Y-10813984D01*
X7249001Y-10813984D02*
X7229953Y-10804460D01*
X7229953Y-10804460D02*
X7220429Y-10794936D01*
X7429953Y-10794936D02*
X7439477Y-10804460D01*
X7439477Y-10804460D02*
X7429953Y-10813984D01*
X7429953Y-10813984D02*
X7420429Y-10804460D01*
X7420429Y-10804460D02*
X7429953Y-10794936D01*
X7429953Y-10794936D02*
X7429953Y-10813984D01*
X7515667Y-10633031D02*
X7525191Y-10623508D01*
X7525191Y-10623508D02*
X7544239Y-10613984D01*
X7544239Y-10613984D02*
X7591858Y-10613984D01*
X7591858Y-10613984D02*
X7610905Y-10623508D01*
X7610905Y-10623508D02*
X7620429Y-10633031D01*
X7620429Y-10633031D02*
X7629953Y-10652079D01*
X7629953Y-10652079D02*
X7629953Y-10671127D01*
X7629953Y-10671127D02*
X7620429Y-10699698D01*
X7620429Y-10699698D02*
X7506143Y-10813984D01*
X7506143Y-10813984D02*
X7629953Y-10813984D01*
X7753762Y-10613984D02*
X7772810Y-10613984D01*
X7772810Y-10613984D02*
X7791858Y-10623508D01*
X7791858Y-10623508D02*
X7801382Y-10633031D01*
X7801382Y-10633031D02*
X7810905Y-10652079D01*
X7810905Y-10652079D02*
X7820429Y-10690174D01*
X7820429Y-10690174D02*
X7820429Y-10737793D01*
X7820429Y-10737793D02*
X7810905Y-10775889D01*
X7810905Y-10775889D02*
X7801382Y-10794936D01*
X7801382Y-10794936D02*
X7791858Y-10804460D01*
X7791858Y-10804460D02*
X7772810Y-10813984D01*
X7772810Y-10813984D02*
X7753762Y-10813984D01*
X7753762Y-10813984D02*
X7734715Y-10804460D01*
X7734715Y-10804460D02*
X7725191Y-10794936D01*
X7725191Y-10794936D02*
X7715667Y-10775889D01*
X7715667Y-10775889D02*
X7706143Y-10737793D01*
X7706143Y-10737793D02*
X7706143Y-10690174D01*
X7706143Y-10690174D02*
X7715667Y-10652079D01*
X7715667Y-10652079D02*
X7725191Y-10633031D01*
X7725191Y-10633031D02*
X7734715Y-10623508D01*
X7734715Y-10623508D02*
X7753762Y-10613984D01*
X7944239Y-10613984D02*
X7963286Y-10613984D01*
X7963286Y-10613984D02*
X7982334Y-10623508D01*
X7982334Y-10623508D02*
X7991858Y-10633031D01*
X7991858Y-10633031D02*
X8001382Y-10652079D01*
X8001382Y-10652079D02*
X8010905Y-10690174D01*
X8010905Y-10690174D02*
X8010905Y-10737793D01*
X8010905Y-10737793D02*
X8001382Y-10775889D01*
X8001382Y-10775889D02*
X7991858Y-10794936D01*
X7991858Y-10794936D02*
X7982334Y-10804460D01*
X7982334Y-10804460D02*
X7963286Y-10813984D01*
X7963286Y-10813984D02*
X7944239Y-10813984D01*
X7944239Y-10813984D02*
X7925191Y-10804460D01*
X7925191Y-10804460D02*
X7915667Y-10794936D01*
X7915667Y-10794936D02*
X7906143Y-10775889D01*
X7906143Y-10775889D02*
X7896620Y-10737793D01*
X7896620Y-10737793D02*
X7896620Y-10690174D01*
X7896620Y-10690174D02*
X7906143Y-10652079D01*
X7906143Y-10652079D02*
X7915667Y-10633031D01*
X7915667Y-10633031D02*
X7925191Y-10623508D01*
X7925191Y-10623508D02*
X7944239Y-10613984D01*
X8096620Y-10813984D02*
X8096620Y-10680650D01*
X8096620Y-10699698D02*
X8106143Y-10690174D01*
X8106143Y-10690174D02*
X8125191Y-10680650D01*
X8125191Y-10680650D02*
X8153763Y-10680650D01*
X8153763Y-10680650D02*
X8172810Y-10690174D01*
X8172810Y-10690174D02*
X8182334Y-10709222D01*
X8182334Y-10709222D02*
X8182334Y-10813984D01*
X8182334Y-10709222D02*
X8191858Y-10690174D01*
X8191858Y-10690174D02*
X8210905Y-10680650D01*
X8210905Y-10680650D02*
X8239477Y-10680650D01*
X8239477Y-10680650D02*
X8258524Y-10690174D01*
X8258524Y-10690174D02*
X8268048Y-10709222D01*
X8268048Y-10709222D02*
X8268048Y-10813984D01*
X8363286Y-10813984D02*
X8363286Y-10680650D01*
X8363286Y-10699698D02*
X8372810Y-10690174D01*
X8372810Y-10690174D02*
X8391858Y-10680650D01*
X8391858Y-10680650D02*
X8420429Y-10680650D01*
X8420429Y-10680650D02*
X8439477Y-10690174D01*
X8439477Y-10690174D02*
X8449001Y-10709222D01*
X8449001Y-10709222D02*
X8449001Y-10813984D01*
X8449001Y-10709222D02*
X8458525Y-10690174D01*
X8458525Y-10690174D02*
X8477572Y-10680650D01*
X8477572Y-10680650D02*
X8506144Y-10680650D01*
X8506144Y-10680650D02*
X8525191Y-10690174D01*
X8525191Y-10690174D02*
X8534715Y-10709222D01*
X8534715Y-10709222D02*
X8534715Y-10813984D01*
X8925191Y-10604460D02*
X8753763Y-10861603D01*
X9182334Y-10613984D02*
X9201382Y-10613984D01*
X9201382Y-10613984D02*
X9220429Y-10623508D01*
X9220429Y-10623508D02*
X9229953Y-10633031D01*
X9229953Y-10633031D02*
X9239477Y-10652079D01*
X9239477Y-10652079D02*
X9249001Y-10690174D01*
X9249001Y-10690174D02*
X9249001Y-10737793D01*
X9249001Y-10737793D02*
X9239477Y-10775889D01*
X9239477Y-10775889D02*
X9229953Y-10794936D01*
X9229953Y-10794936D02*
X9220429Y-10804460D01*
X9220429Y-10804460D02*
X9201382Y-10813984D01*
X9201382Y-10813984D02*
X9182334Y-10813984D01*
X9182334Y-10813984D02*
X9163287Y-10804460D01*
X9163287Y-10804460D02*
X9153763Y-10794936D01*
X9153763Y-10794936D02*
X9144239Y-10775889D01*
X9144239Y-10775889D02*
X9134715Y-10737793D01*
X9134715Y-10737793D02*
X9134715Y-10690174D01*
X9134715Y-10690174D02*
X9144239Y-10652079D01*
X9144239Y-10652079D02*
X9153763Y-10633031D01*
X9153763Y-10633031D02*
X9163287Y-10623508D01*
X9163287Y-10623508D02*
X9182334Y-10613984D01*
X9334715Y-10794936D02*
X9344239Y-10804460D01*
X9344239Y-10804460D02*
X9334715Y-10813984D01*
X9334715Y-10813984D02*
X9325191Y-10804460D01*
X9325191Y-10804460D02*
X9334715Y-10794936D01*
X9334715Y-10794936D02*
X9334715Y-10813984D01*
X9534715Y-10813984D02*
X9420429Y-10813984D01*
X9477572Y-10813984D02*
X9477572Y-10613984D01*
X9477572Y-10613984D02*
X9458525Y-10642555D01*
X9458525Y-10642555D02*
X9439477Y-10661603D01*
X9439477Y-10661603D02*
X9420429Y-10671127D01*
X9610906Y-10633031D02*
X9620429Y-10623508D01*
X9620429Y-10623508D02*
X9639477Y-10613984D01*
X9639477Y-10613984D02*
X9687096Y-10613984D01*
X9687096Y-10613984D02*
X9706144Y-10623508D01*
X9706144Y-10623508D02*
X9715668Y-10633031D01*
X9715668Y-10633031D02*
X9725191Y-10652079D01*
X9725191Y-10652079D02*
X9725191Y-10671127D01*
X9725191Y-10671127D02*
X9715668Y-10699698D01*
X9715668Y-10699698D02*
X9601382Y-10813984D01*
X9601382Y-10813984D02*
X9725191Y-10813984D01*
X9896620Y-10613984D02*
X9858525Y-10613984D01*
X9858525Y-10613984D02*
X9839477Y-10623508D01*
X9839477Y-10623508D02*
X9829953Y-10633031D01*
X9829953Y-10633031D02*
X9810906Y-10661603D01*
X9810906Y-10661603D02*
X9801382Y-10699698D01*
X9801382Y-10699698D02*
X9801382Y-10775889D01*
X9801382Y-10775889D02*
X9810906Y-10794936D01*
X9810906Y-10794936D02*
X9820429Y-10804460D01*
X9820429Y-10804460D02*
X9839477Y-10813984D01*
X9839477Y-10813984D02*
X9877572Y-10813984D01*
X9877572Y-10813984D02*
X9896620Y-10804460D01*
X9896620Y-10804460D02*
X9906144Y-10794936D01*
X9906144Y-10794936D02*
X9915668Y-10775889D01*
X9915668Y-10775889D02*
X9915668Y-10728270D01*
X9915668Y-10728270D02*
X9906144Y-10709222D01*
X9906144Y-10709222D02*
X9896620Y-10699698D01*
X9896620Y-10699698D02*
X9877572Y-10690174D01*
X9877572Y-10690174D02*
X9839477Y-10690174D01*
X9839477Y-10690174D02*
X9820429Y-10699698D01*
X9820429Y-10699698D02*
X9810906Y-10709222D01*
X9810906Y-10709222D02*
X9801382Y-10728270D01*
X10039477Y-10613984D02*
X10058525Y-10613984D01*
X10058525Y-10613984D02*
X10077572Y-10623508D01*
X10077572Y-10623508D02*
X10087096Y-10633031D01*
X10087096Y-10633031D02*
X10096620Y-10652079D01*
X10096620Y-10652079D02*
X10106144Y-10690174D01*
X10106144Y-10690174D02*
X10106144Y-10737793D01*
X10106144Y-10737793D02*
X10096620Y-10775889D01*
X10096620Y-10775889D02*
X10087096Y-10794936D01*
X10087096Y-10794936D02*
X10077572Y-10804460D01*
X10077572Y-10804460D02*
X10058525Y-10813984D01*
X10058525Y-10813984D02*
X10039477Y-10813984D01*
X10039477Y-10813984D02*
X10020429Y-10804460D01*
X10020429Y-10804460D02*
X10010906Y-10794936D01*
X10010906Y-10794936D02*
X10001382Y-10775889D01*
X10001382Y-10775889D02*
X9991858Y-10737793D01*
X9991858Y-10737793D02*
X9991858Y-10690174D01*
X9991858Y-10690174D02*
X10001382Y-10652079D01*
X10001382Y-10652079D02*
X10010906Y-10633031D01*
X10010906Y-10633031D02*
X10020429Y-10623508D01*
X10020429Y-10623508D02*
X10039477Y-10613984D01*
X10182334Y-10613984D02*
X10182334Y-10652079D01*
X10258525Y-10613984D02*
X10258525Y-10652079D01*
X10553763Y-10890174D02*
X10544239Y-10880650D01*
X10544239Y-10880650D02*
X10525191Y-10852079D01*
X10525191Y-10852079D02*
X10515668Y-10833031D01*
X10515668Y-10833031D02*
X10506144Y-10804460D01*
X10506144Y-10804460D02*
X10496620Y-10756841D01*
X10496620Y-10756841D02*
X10496620Y-10718746D01*
X10496620Y-10718746D02*
X10506144Y-10671127D01*
X10506144Y-10671127D02*
X10515668Y-10642555D01*
X10515668Y-10642555D02*
X10525191Y-10623508D01*
X10525191Y-10623508D02*
X10544239Y-10594936D01*
X10544239Y-10594936D02*
X10553763Y-10585412D01*
X10620430Y-10633031D02*
X10629953Y-10623508D01*
X10629953Y-10623508D02*
X10649001Y-10613984D01*
X10649001Y-10613984D02*
X10696620Y-10613984D01*
X10696620Y-10613984D02*
X10715668Y-10623508D01*
X10715668Y-10623508D02*
X10725191Y-10633031D01*
X10725191Y-10633031D02*
X10734715Y-10652079D01*
X10734715Y-10652079D02*
X10734715Y-10671127D01*
X10734715Y-10671127D02*
X10725191Y-10699698D01*
X10725191Y-10699698D02*
X10610906Y-10813984D01*
X10610906Y-10813984D02*
X10734715Y-10813984D01*
X10972811Y-10813984D02*
X10972811Y-10613984D01*
X11058525Y-10813984D02*
X11058525Y-10709222D01*
X11058525Y-10709222D02*
X11049001Y-10690174D01*
X11049001Y-10690174D02*
X11029953Y-10680650D01*
X11029953Y-10680650D02*
X11001382Y-10680650D01*
X11001382Y-10680650D02*
X10982334Y-10690174D01*
X10982334Y-10690174D02*
X10972811Y-10699698D01*
X11182334Y-10813984D02*
X11163287Y-10804460D01*
X11163287Y-10804460D02*
X11153763Y-10794936D01*
X11153763Y-10794936D02*
X11144239Y-10775889D01*
X11144239Y-10775889D02*
X11144239Y-10718746D01*
X11144239Y-10718746D02*
X11153763Y-10699698D01*
X11153763Y-10699698D02*
X11163287Y-10690174D01*
X11163287Y-10690174D02*
X11182334Y-10680650D01*
X11182334Y-10680650D02*
X11210906Y-10680650D01*
X11210906Y-10680650D02*
X11229953Y-10690174D01*
X11229953Y-10690174D02*
X11239477Y-10699698D01*
X11239477Y-10699698D02*
X11249001Y-10718746D01*
X11249001Y-10718746D02*
X11249001Y-10775889D01*
X11249001Y-10775889D02*
X11239477Y-10794936D01*
X11239477Y-10794936D02*
X11229953Y-10804460D01*
X11229953Y-10804460D02*
X11210906Y-10813984D01*
X11210906Y-10813984D02*
X11182334Y-10813984D01*
X11363287Y-10813984D02*
X11344239Y-10804460D01*
X11344239Y-10804460D02*
X11334715Y-10785412D01*
X11334715Y-10785412D02*
X11334715Y-10613984D01*
X11515668Y-10804460D02*
X11496620Y-10813984D01*
X11496620Y-10813984D02*
X11458525Y-10813984D01*
X11458525Y-10813984D02*
X11439477Y-10804460D01*
X11439477Y-10804460D02*
X11429953Y-10785412D01*
X11429953Y-10785412D02*
X11429953Y-10709222D01*
X11429953Y-10709222D02*
X11439477Y-10690174D01*
X11439477Y-10690174D02*
X11458525Y-10680650D01*
X11458525Y-10680650D02*
X11496620Y-10680650D01*
X11496620Y-10680650D02*
X11515668Y-10690174D01*
X11515668Y-10690174D02*
X11525191Y-10709222D01*
X11525191Y-10709222D02*
X11525191Y-10728270D01*
X11525191Y-10728270D02*
X11429953Y-10747317D01*
X11601382Y-10804460D02*
X11620430Y-10813984D01*
X11620430Y-10813984D02*
X11658525Y-10813984D01*
X11658525Y-10813984D02*
X11677572Y-10804460D01*
X11677572Y-10804460D02*
X11687096Y-10785412D01*
X11687096Y-10785412D02*
X11687096Y-10775889D01*
X11687096Y-10775889D02*
X11677572Y-10756841D01*
X11677572Y-10756841D02*
X11658525Y-10747317D01*
X11658525Y-10747317D02*
X11629953Y-10747317D01*
X11629953Y-10747317D02*
X11610906Y-10737793D01*
X11610906Y-10737793D02*
X11601382Y-10718746D01*
X11601382Y-10718746D02*
X11601382Y-10709222D01*
X11601382Y-10709222D02*
X11610906Y-10690174D01*
X11610906Y-10690174D02*
X11629953Y-10680650D01*
X11629953Y-10680650D02*
X11658525Y-10680650D01*
X11658525Y-10680650D02*
X11677572Y-10690174D01*
X11753763Y-10890174D02*
X11763287Y-10880650D01*
X11763287Y-10880650D02*
X11782334Y-10852079D01*
X11782334Y-10852079D02*
X11791858Y-10833031D01*
X11791858Y-10833031D02*
X11801382Y-10804460D01*
X11801382Y-10804460D02*
X11810906Y-10756841D01*
X11810906Y-10756841D02*
X11810906Y-10718746D01*
X11810906Y-10718746D02*
X11801382Y-10671127D01*
X11801382Y-10671127D02*
X11791858Y-10642555D01*
X11791858Y-10642555D02*
X11782334Y-10623508D01*
X11782334Y-10623508D02*
X11763287Y-10594936D01*
X11763287Y-10594936D02*
X11753763Y-10585412D01*
X12115668Y-10890174D02*
X12106144Y-10880650D01*
X12106144Y-10880650D02*
X12087096Y-10852079D01*
X12087096Y-10852079D02*
X12077572Y-10833031D01*
X12077572Y-10833031D02*
X12068049Y-10804460D01*
X12068049Y-10804460D02*
X12058525Y-10756841D01*
X12058525Y-10756841D02*
X12058525Y-10718746D01*
X12058525Y-10718746D02*
X12068049Y-10671127D01*
X12068049Y-10671127D02*
X12077572Y-10642555D01*
X12077572Y-10642555D02*
X12087096Y-10623508D01*
X12087096Y-10623508D02*
X12106144Y-10594936D01*
X12106144Y-10594936D02*
X12115668Y-10585412D01*
X12191858Y-10680650D02*
X12191858Y-10813984D01*
X12191858Y-10699698D02*
X12201382Y-10690174D01*
X12201382Y-10690174D02*
X12220430Y-10680650D01*
X12220430Y-10680650D02*
X12249001Y-10680650D01*
X12249001Y-10680650D02*
X12268049Y-10690174D01*
X12268049Y-10690174D02*
X12277572Y-10709222D01*
X12277572Y-10709222D02*
X12277572Y-10813984D01*
X12401382Y-10813984D02*
X12382334Y-10804460D01*
X12382334Y-10804460D02*
X12372811Y-10794936D01*
X12372811Y-10794936D02*
X12363287Y-10775889D01*
X12363287Y-10775889D02*
X12363287Y-10718746D01*
X12363287Y-10718746D02*
X12372811Y-10699698D01*
X12372811Y-10699698D02*
X12382334Y-10690174D01*
X12382334Y-10690174D02*
X12401382Y-10680650D01*
X12401382Y-10680650D02*
X12429953Y-10680650D01*
X12429953Y-10680650D02*
X12449001Y-10690174D01*
X12449001Y-10690174D02*
X12458525Y-10699698D01*
X12458525Y-10699698D02*
X12468049Y-10718746D01*
X12468049Y-10718746D02*
X12468049Y-10775889D01*
X12468049Y-10775889D02*
X12458525Y-10794936D01*
X12458525Y-10794936D02*
X12449001Y-10804460D01*
X12449001Y-10804460D02*
X12429953Y-10813984D01*
X12429953Y-10813984D02*
X12401382Y-10813984D01*
X12525192Y-10680650D02*
X12601382Y-10680650D01*
X12553763Y-10613984D02*
X12553763Y-10785412D01*
X12553763Y-10785412D02*
X12563287Y-10804460D01*
X12563287Y-10804460D02*
X12582334Y-10813984D01*
X12582334Y-10813984D02*
X12601382Y-10813984D01*
X12820430Y-10680650D02*
X12820430Y-10880650D01*
X12820430Y-10690174D02*
X12839477Y-10680650D01*
X12839477Y-10680650D02*
X12877573Y-10680650D01*
X12877573Y-10680650D02*
X12896620Y-10690174D01*
X12896620Y-10690174D02*
X12906144Y-10699698D01*
X12906144Y-10699698D02*
X12915668Y-10718746D01*
X12915668Y-10718746D02*
X12915668Y-10775889D01*
X12915668Y-10775889D02*
X12906144Y-10794936D01*
X12906144Y-10794936D02*
X12896620Y-10804460D01*
X12896620Y-10804460D02*
X12877573Y-10813984D01*
X12877573Y-10813984D02*
X12839477Y-10813984D01*
X12839477Y-10813984D02*
X12820430Y-10804460D01*
X13029953Y-10813984D02*
X13010906Y-10804460D01*
X13010906Y-10804460D02*
X13001382Y-10785412D01*
X13001382Y-10785412D02*
X13001382Y-10613984D01*
X13191858Y-10813984D02*
X13191858Y-10709222D01*
X13191858Y-10709222D02*
X13182334Y-10690174D01*
X13182334Y-10690174D02*
X13163287Y-10680650D01*
X13163287Y-10680650D02*
X13125192Y-10680650D01*
X13125192Y-10680650D02*
X13106144Y-10690174D01*
X13191858Y-10804460D02*
X13172811Y-10813984D01*
X13172811Y-10813984D02*
X13125192Y-10813984D01*
X13125192Y-10813984D02*
X13106144Y-10804460D01*
X13106144Y-10804460D02*
X13096620Y-10785412D01*
X13096620Y-10785412D02*
X13096620Y-10766365D01*
X13096620Y-10766365D02*
X13106144Y-10747317D01*
X13106144Y-10747317D02*
X13125192Y-10737793D01*
X13125192Y-10737793D02*
X13172811Y-10737793D01*
X13172811Y-10737793D02*
X13191858Y-10728270D01*
X13258525Y-10680650D02*
X13334715Y-10680650D01*
X13287096Y-10613984D02*
X13287096Y-10785412D01*
X13287096Y-10785412D02*
X13296620Y-10804460D01*
X13296620Y-10804460D02*
X13315668Y-10813984D01*
X13315668Y-10813984D02*
X13334715Y-10813984D01*
X13477573Y-10804460D02*
X13458525Y-10813984D01*
X13458525Y-10813984D02*
X13420430Y-10813984D01*
X13420430Y-10813984D02*
X13401382Y-10804460D01*
X13401382Y-10804460D02*
X13391858Y-10785412D01*
X13391858Y-10785412D02*
X13391858Y-10709222D01*
X13391858Y-10709222D02*
X13401382Y-10690174D01*
X13401382Y-10690174D02*
X13420430Y-10680650D01*
X13420430Y-10680650D02*
X13458525Y-10680650D01*
X13458525Y-10680650D02*
X13477573Y-10690174D01*
X13477573Y-10690174D02*
X13487096Y-10709222D01*
X13487096Y-10709222D02*
X13487096Y-10728270D01*
X13487096Y-10728270D02*
X13391858Y-10747317D01*
X13658525Y-10813984D02*
X13658525Y-10613984D01*
X13658525Y-10804460D02*
X13639477Y-10813984D01*
X13639477Y-10813984D02*
X13601382Y-10813984D01*
X13601382Y-10813984D02*
X13582334Y-10804460D01*
X13582334Y-10804460D02*
X13572811Y-10794936D01*
X13572811Y-10794936D02*
X13563287Y-10775889D01*
X13563287Y-10775889D02*
X13563287Y-10718746D01*
X13563287Y-10718746D02*
X13572811Y-10699698D01*
X13572811Y-10699698D02*
X13582334Y-10690174D01*
X13582334Y-10690174D02*
X13601382Y-10680650D01*
X13601382Y-10680650D02*
X13639477Y-10680650D01*
X13639477Y-10680650D02*
X13658525Y-10690174D01*
X13734715Y-10890174D02*
X13744239Y-10880650D01*
X13744239Y-10880650D02*
X13763287Y-10852079D01*
X13763287Y-10852079D02*
X13772811Y-10833031D01*
X13772811Y-10833031D02*
X13782334Y-10804460D01*
X13782334Y-10804460D02*
X13791858Y-10756841D01*
X13791858Y-10756841D02*
X13791858Y-10718746D01*
X13791858Y-10718746D02*
X13782334Y-10671127D01*
X13782334Y-10671127D02*
X13772811Y-10642555D01*
X13772811Y-10642555D02*
X13763287Y-10623508D01*
X13763287Y-10623508D02*
X13744239Y-10594936D01*
X13744239Y-10594936D02*
X13734715Y-10585412D01*
M02*
