%TF.GenerationSoftware,KiCad,Pcbnew,8.0.6*%
%TF.CreationDate,2025-01-02T11:50:31+01:00*%
%TF.ProjectId,Pcb pami 2025,50636220-7061-46d6-9920-323032352e6b,rev?*%
%TF.SameCoordinates,Original*%
%TF.FileFunction,Soldermask,Bot*%
%TF.FilePolarity,Negative*%
%FSLAX46Y46*%
G04 Gerber Fmt 4.6, Leading zero omitted, Abs format (unit mm)*
G04 Created by KiCad (PCBNEW 8.0.6) date 2025-01-02 11:50:31*
%MOMM*%
%LPD*%
G01*
G04 APERTURE LIST*
%ADD10R,1.700000X1.700000*%
%ADD11O,1.700000X1.700000*%
%ADD12C,2.000000*%
%ADD13C,2.400000*%
%ADD14O,2.400000X2.400000*%
G04 APERTURE END LIST*
D10*
%TO.C,J11*%
X125740000Y-63380000D03*
D11*
X125740000Y-65920000D03*
X125740000Y-68460000D03*
X125740000Y-71000000D03*
X125740000Y-73540000D03*
X125740000Y-76080000D03*
X125740000Y-78620000D03*
%TD*%
D12*
%TO.C,C7*%
X68000000Y-82000000D03*
X68000000Y-77000000D03*
%TD*%
D10*
%TO.C,J8*%
X75500000Y-25460000D03*
D11*
X75500000Y-28000000D03*
X75500000Y-30540000D03*
X75500000Y-33080000D03*
X75500000Y-35620000D03*
X75500000Y-38160000D03*
%TD*%
D10*
%TO.C,J5*%
X100960000Y-109000000D03*
D11*
X103500000Y-109000000D03*
%TD*%
D10*
%TO.C,MP1584EN1*%
X132360000Y-45670000D03*
D11*
X132360000Y-48210000D03*
D10*
X153380000Y-45640000D03*
D11*
X153380000Y-48180000D03*
X132340000Y-58120000D03*
D10*
X132340000Y-60660000D03*
D11*
X153300000Y-58040000D03*
D10*
X153300000Y-60580000D03*
%TD*%
%TO.C,J6*%
X103500000Y-97500000D03*
D11*
X106040000Y-97500000D03*
X108580000Y-97500000D03*
%TD*%
D12*
%TO.C,C6*%
X68000000Y-67000000D03*
X68000000Y-72000000D03*
%TD*%
D10*
%TO.C,J3*%
X152730000Y-41660000D03*
%TD*%
D12*
%TO.C,SW3*%
X83250000Y-89250000D03*
X89750000Y-89250000D03*
X83250000Y-93750000D03*
X89750000Y-93750000D03*
%TD*%
D10*
%TO.C,J10*%
X137940000Y-93760000D03*
D11*
X137940000Y-91220000D03*
X137940000Y-88680000D03*
X137940000Y-86140000D03*
%TD*%
D10*
%TO.C,J7*%
X97000000Y-90500000D03*
D11*
X97000000Y-93040000D03*
%TD*%
D10*
%TO.C,J9*%
X82580000Y-23610000D03*
D11*
X82580000Y-26150000D03*
X82580000Y-28690000D03*
X82580000Y-31230000D03*
X82580000Y-33770000D03*
X82580000Y-36310000D03*
%TD*%
D13*
%TO.C,R5*%
X81500000Y-82120000D03*
D14*
X81500000Y-66880000D03*
%TD*%
D10*
%TO.C,J2*%
X123500000Y-40460000D03*
D11*
X123500000Y-43000000D03*
X123500000Y-45540000D03*
%TD*%
D10*
%TO.C,SW2*%
X120000000Y-89975000D03*
D11*
X120000000Y-92515000D03*
X120000000Y-95055000D03*
%TD*%
D10*
%TO.C,MP1584EN2*%
X152980000Y-79990000D03*
D11*
X152980000Y-77450000D03*
D10*
X131960000Y-80020000D03*
D11*
X131960000Y-77480000D03*
X153000000Y-67540000D03*
D10*
X153000000Y-65000000D03*
D11*
X132040000Y-67620000D03*
D10*
X132040000Y-65080000D03*
%TD*%
%TO.C,J4*%
X130800000Y-91380000D03*
D11*
X130800000Y-93920000D03*
X130800000Y-96460000D03*
X130800000Y-99000000D03*
%TD*%
D12*
%TO.C,SW4*%
X86500000Y-100000000D03*
X93000000Y-100000000D03*
X86500000Y-104500000D03*
X93000000Y-104500000D03*
%TD*%
D10*
%TO.C,U2*%
X67320000Y-44060000D03*
D11*
X67320000Y-46600000D03*
X67320000Y-49140000D03*
X67320000Y-51680000D03*
X67320000Y-54220000D03*
X67320000Y-56760000D03*
X67320000Y-59300000D03*
X67320000Y-61840000D03*
D10*
X77500000Y-44110000D03*
D11*
X77500000Y-46650000D03*
X77500000Y-49190000D03*
X77500000Y-51730000D03*
X77500000Y-54270000D03*
X77500000Y-56810000D03*
X77500000Y-59350000D03*
X77500000Y-61890000D03*
%TD*%
D10*
%TO.C,J1*%
X128500000Y-35475000D03*
D11*
X128500000Y-38015000D03*
X128500000Y-40555000D03*
%TD*%
D13*
%TO.C,R6*%
X76000000Y-86120000D03*
D14*
X76000000Y-70880000D03*
%TD*%
D10*
%TO.C,MP1584*%
X153520000Y-38010000D03*
D11*
X153520000Y-35470000D03*
D10*
X132500000Y-38040000D03*
D11*
X132500000Y-35500000D03*
X153540000Y-25560000D03*
D10*
X153540000Y-23020000D03*
D11*
X132580000Y-25640000D03*
D10*
X132580000Y-23100000D03*
%TD*%
D11*
%TO.C,U1*%
X91000000Y-74440000D03*
X91000000Y-71900000D03*
X91000000Y-69360000D03*
X91000000Y-66820000D03*
X91000000Y-64280000D03*
X91000000Y-61740000D03*
X91000000Y-59200000D03*
X91000000Y-56660000D03*
X91000000Y-54120000D03*
X91000000Y-51580000D03*
X91000000Y-49040000D03*
X91000000Y-46500000D03*
X91000000Y-43960000D03*
X91000000Y-41420000D03*
D10*
X91000000Y-38880000D03*
D11*
X116500000Y-74440000D03*
X116500000Y-71900000D03*
X116500000Y-69360000D03*
X116500000Y-66820000D03*
X116500000Y-64280000D03*
X116500000Y-61740000D03*
X116500000Y-59200000D03*
X116500000Y-56660000D03*
X116500000Y-54120000D03*
X116500000Y-51580000D03*
X116500000Y-49040000D03*
X116500000Y-46500000D03*
X116500000Y-43960000D03*
X116500000Y-41420000D03*
D10*
X116500000Y-38880000D03*
%TD*%
M02*
