%TF.GenerationSoftware,KiCad,Pcbnew,8.0.6*%
%TF.CreationDate,2024-12-24T16:40:45+01:00*%
%TF.ProjectId,Pcb pami 2025,50636220-7061-46d6-9920-323032352e6b,rev?*%
%TF.SameCoordinates,Original*%
%TF.FileFunction,Copper,L2,Bot*%
%TF.FilePolarity,Positive*%
%FSLAX46Y46*%
G04 Gerber Fmt 4.6, Leading zero omitted, Abs format (unit mm)*
G04 Created by KiCad (PCBNEW 8.0.6) date 2024-12-24 16:40:45*
%MOMM*%
%LPD*%
G01*
G04 APERTURE LIST*
%TA.AperFunction,ComponentPad*%
%ADD10R,1.700000X1.700000*%
%TD*%
%TA.AperFunction,ComponentPad*%
%ADD11O,1.700000X1.700000*%
%TD*%
%TA.AperFunction,ComponentPad*%
%ADD12C,2.000000*%
%TD*%
%TA.AperFunction,ComponentPad*%
%ADD13O,2.400000X2.400000*%
%TD*%
%TA.AperFunction,ComponentPad*%
%ADD14C,2.400000*%
%TD*%
%TA.AperFunction,ViaPad*%
%ADD15C,0.600000*%
%TD*%
%TA.AperFunction,Conductor*%
%ADD16C,0.200000*%
%TD*%
G04 APERTURE END LIST*
D10*
%TO.P,J11,1,Pin_1*%
%TO.N,/SDA*%
X125740000Y-63380000D03*
D11*
%TO.P,J11,2,Pin_2*%
%TO.N,/SCL*%
X125740000Y-65920000D03*
%TO.P,J11,3,Pin_3*%
%TO.N,/Lpn*%
X125740000Y-68460000D03*
%TO.P,J11,4,Pin_4*%
%TO.N,/PWREN*%
X125740000Y-71000000D03*
%TO.P,J11,5,Pin_5*%
%TO.N,VCC_5*%
X125740000Y-73540000D03*
%TO.P,J11,6,Pin_6*%
%TO.N,VCC_f*%
X125740000Y-76080000D03*
%TO.P,J11,7,Pin_7*%
%TO.N,GND*%
X125740000Y-78620000D03*
%TD*%
D10*
%TO.P,J10,1,Pin_1*%
%TO.N,VCC_5*%
X137940000Y-93760000D03*
D11*
%TO.P,J10,2,Pin_2*%
%TO.N,/D4*%
X137940000Y-91220000D03*
%TO.P,J10,3,Pin_3*%
%TO.N,/RX2*%
X137940000Y-88680000D03*
%TO.P,J10,4,Pin_4*%
%TO.N,GND*%
X137940000Y-86140000D03*
%TD*%
D10*
%TO.P,J4,1,Pin_1*%
%TO.N,VCC_5*%
X130800000Y-91380000D03*
D11*
%TO.P,J4,2,Pin_2*%
%TO.N,/RXD*%
X130800000Y-93920000D03*
%TO.P,J4,3,Pin_3*%
%TO.N,/D2*%
X130800000Y-96460000D03*
%TO.P,J4,4,Pin_4*%
%TO.N,GND*%
X130800000Y-99000000D03*
%TD*%
D10*
%TO.P,J3,1,Pin_1*%
%TO.N,Net-(J3-Pin_1)*%
X152730000Y-41660000D03*
%TD*%
%TO.P,U2,1,GND*%
%TO.N,GND*%
X67320000Y-44060000D03*
D11*
%TO.P,U2,2,VIN*%
%TO.N,VCC2*%
X67320000Y-46600000D03*
%TO.P,U2,3,BOUT1*%
%TO.N,/BOUT1*%
X67320000Y-49140000D03*
%TO.P,U2,4,BOUT2*%
%TO.N,/BOUT2*%
X67320000Y-51680000D03*
%TO.P,U2,5,AOUT2*%
%TO.N,/AOUT2*%
X67320000Y-54220000D03*
%TO.P,U2,6,AOUT1*%
%TO.N,/AOUT1*%
X67320000Y-56760000D03*
%TO.P,U2,7,AISEN*%
%TO.N,unconnected-(U2-AISEN-Pad7)*%
X67320000Y-59300000D03*
%TO.P,U2,8,BISEN*%
%TO.N,unconnected-(U2-BISEN-Pad8)*%
X67320000Y-61840000D03*
D10*
%TO.P,U2,9,GND*%
%TO.N,GND*%
X77500000Y-44110000D03*
D11*
%TO.P,U2,10,VMM*%
%TO.N,unconnected-(U2-VMM-Pad10)*%
X77500000Y-46650000D03*
%TO.P,U2,11,BIN1*%
%TO.N,/TXD*%
X77500000Y-49190000D03*
%TO.P,U2,12,BIN2*%
%TO.N,/D19*%
X77500000Y-51730000D03*
%TO.P,U2,13,AIN2*%
%TO.N,/D18*%
X77500000Y-54270000D03*
%TO.P,U2,14,AIN1*%
%TO.N,/D5*%
X77500000Y-56810000D03*
%TO.P,U2,15,SLP*%
%TO.N,unconnected-(U2-SLP-Pad15)*%
X77500000Y-59350000D03*
%TO.P,U2,16,FLT*%
%TO.N,unconnected-(U2-FLT-Pad16)*%
X77500000Y-61890000D03*
%TD*%
D12*
%TO.P,SW4,1,1*%
%TO.N,GND*%
X86500000Y-100000000D03*
X93000000Y-100000000D03*
%TO.P,SW4,2,2*%
%TO.N,/D13*%
X86500000Y-104500000D03*
X93000000Y-104500000D03*
%TD*%
%TO.P,SW3,1,1*%
%TO.N,GND*%
X83250000Y-89250000D03*
X89750000Y-89250000D03*
%TO.P,SW3,2,2*%
%TO.N,/D12*%
X83250000Y-93750000D03*
X89750000Y-93750000D03*
%TD*%
D10*
%TO.P,SW2,1,A*%
%TO.N,/D27*%
X120000000Y-89975000D03*
D11*
%TO.P,SW2,2,B*%
%TO.N,VCC_f*%
X120000000Y-92515000D03*
%TO.P,SW2,3,C*%
%TO.N,GND*%
X120000000Y-95055000D03*
%TD*%
D13*
%TO.P,R6,2*%
%TO.N,/D13*%
X76000000Y-70880000D03*
D14*
%TO.P,R6,1*%
%TO.N,VCC_f*%
X76000000Y-86120000D03*
%TD*%
%TO.P,R5,1*%
%TO.N,VCC_f*%
X81500000Y-82120000D03*
D13*
%TO.P,R5,2*%
%TO.N,/D12*%
X81500000Y-66880000D03*
%TD*%
D10*
%TO.P,MP1584EN2,1,IN1-*%
%TO.N,GND*%
X152980000Y-79990000D03*
D11*
%TO.P,MP1584EN2,2,IN2-*%
X152980000Y-77450000D03*
D10*
%TO.P,MP1584EN2,3,OUT1-*%
X131960000Y-80020000D03*
D11*
%TO.P,MP1584EN2,4,OUT2-*%
X131960000Y-77480000D03*
%TO.P,MP1584EN2,5,IN1+*%
%TO.N,VCC*%
X153000000Y-67540000D03*
D10*
%TO.P,MP1584EN2,6,IN2+*%
X153000000Y-65000000D03*
D11*
%TO.P,MP1584EN2,7,OUT1+*%
%TO.N,VCC_5*%
X132040000Y-67620000D03*
D10*
%TO.P,MP1584EN2,8,OUT2+*%
X132040000Y-65080000D03*
%TD*%
%TO.P,MP1584EN1,1,IN1-*%
%TO.N,GND*%
X132360000Y-45670000D03*
D11*
%TO.P,MP1584EN1,2,IN2-*%
X132360000Y-48210000D03*
D10*
%TO.P,MP1584EN1,3,OUT1-*%
X153380000Y-45640000D03*
D11*
%TO.P,MP1584EN1,4,OUT2-*%
X153380000Y-48180000D03*
%TO.P,MP1584EN1,5,IN1+*%
%TO.N,VCC*%
X132340000Y-58120000D03*
D10*
%TO.P,MP1584EN1,6,IN2+*%
X132340000Y-60660000D03*
D11*
%TO.P,MP1584EN1,7,OUT1+*%
%TO.N,VCC_f*%
X153300000Y-58040000D03*
D10*
%TO.P,MP1584EN1,8,OUT2+*%
X153300000Y-60580000D03*
%TD*%
%TO.P,MP1584,1,IN1-*%
%TO.N,GND*%
X153520000Y-38010000D03*
D11*
%TO.P,MP1584,2,IN2-*%
X153520000Y-35470000D03*
D10*
%TO.P,MP1584,3,OUT1-*%
X132500000Y-38040000D03*
D11*
%TO.P,MP1584,4,OUT2-*%
X132500000Y-35500000D03*
%TO.P,MP1584,5,IN1+*%
%TO.N,VCC*%
X153540000Y-25560000D03*
D10*
%TO.P,MP1584,6,IN2+*%
X153540000Y-23020000D03*
D11*
%TO.P,MP1584,7,OUT1+*%
%TO.N,VCC2*%
X132580000Y-25640000D03*
D10*
%TO.P,MP1584,8,OUT2+*%
X132580000Y-23100000D03*
%TD*%
%TO.P,J8,1,Pin_1*%
%TO.N,/BOUT1*%
X75500000Y-25460000D03*
D11*
%TO.P,J8,2,Pin_2*%
%TO.N,VCC_f*%
X75500000Y-28000000D03*
%TO.P,J8,3,Pin_3*%
%TO.N,/D25*%
X75500000Y-30540000D03*
%TO.P,J8,4,Pin_4*%
%TO.N,/D26*%
X75500000Y-33080000D03*
%TO.P,J8,5,Pin_5*%
%TO.N,GND*%
X75500000Y-35620000D03*
%TO.P,J8,6,Pin_6*%
%TO.N,/BOUT2*%
X75500000Y-38160000D03*
%TD*%
D10*
%TO.P,J7,1,Pin_1*%
%TO.N,/D14*%
X97000000Y-90500000D03*
D11*
%TO.P,J7,2,Pin_2*%
%TO.N,GND*%
X97000000Y-93040000D03*
%TD*%
D10*
%TO.P,J6,1,Pin_1*%
%TO.N,Net-(J5-Pin_2)*%
X103500000Y-97500000D03*
D11*
%TO.P,J6,2,Pin_2*%
%TO.N,unconnected-(J6-Pin_2-Pad2)*%
X106040000Y-97500000D03*
%TO.P,J6,3,Pin_3*%
%TO.N,VCC*%
X108580000Y-97500000D03*
%TD*%
D10*
%TO.P,J5,1,Pin_1*%
%TO.N,GND*%
X100960000Y-109000000D03*
D11*
%TO.P,J5,2,Pin_2*%
%TO.N,Net-(J5-Pin_2)*%
X103500000Y-109000000D03*
%TD*%
D10*
%TO.P,J2,1,Pin_1*%
%TO.N,/D34*%
X123500000Y-40460000D03*
D11*
%TO.P,J2,2,Pin_2*%
%TO.N,VCC_5*%
X123500000Y-43000000D03*
%TO.P,J2,3,Pin_3*%
%TO.N,GND*%
X123500000Y-45540000D03*
%TD*%
%TO.P,J1,3,Pin_3*%
%TO.N,GND*%
X128500000Y-40555000D03*
%TO.P,J1,2,Pin_2*%
%TO.N,VCC_5*%
X128500000Y-38015000D03*
D10*
%TO.P,J1,1,Pin_1*%
%TO.N,/D23*%
X128500000Y-35475000D03*
%TD*%
D12*
%TO.P,C7,1*%
%TO.N,/D13*%
X68000000Y-82000000D03*
%TO.P,C7,2*%
%TO.N,GND*%
X68000000Y-77000000D03*
%TD*%
%TO.P,C6,1*%
%TO.N,/D12*%
X68000000Y-67000000D03*
%TO.P,C6,2*%
%TO.N,GND*%
X68000000Y-72000000D03*
%TD*%
D10*
%TO.P,J9,1,Pin_1*%
%TO.N,/AOUT1*%
X82580000Y-23610000D03*
D11*
%TO.P,J9,2,Pin_2*%
%TO.N,VCC_f*%
X82580000Y-26150000D03*
%TO.P,J9,3,Pin_3*%
%TO.N,/D32*%
X82580000Y-28690000D03*
%TO.P,J9,4,Pin_4*%
%TO.N,/D33*%
X82580000Y-31230000D03*
%TO.P,J9,5,Pin_5*%
%TO.N,GND*%
X82580000Y-33770000D03*
%TO.P,J9,6,Pin_6*%
%TO.N,/AOUT2*%
X82580000Y-36310000D03*
%TD*%
%TO.P,U1,1,VIN*%
%TO.N,VCC_f*%
X91000000Y-74440000D03*
%TO.P,U1,2,GND*%
%TO.N,GND*%
X91000000Y-71900000D03*
%TO.P,U1,3,D13*%
%TO.N,/D13*%
X91000000Y-69360000D03*
%TO.P,U1,4,D12*%
%TO.N,/D12*%
X91000000Y-66820000D03*
%TO.P,U1,5,D14*%
%TO.N,/D14*%
X91000000Y-64280000D03*
%TO.P,U1,6,D27*%
%TO.N,/D27*%
X91000000Y-61740000D03*
%TO.P,U1,7,D26*%
%TO.N,/D26*%
X91000000Y-59200000D03*
%TO.P,U1,8,D25*%
%TO.N,/D25*%
X91000000Y-56660000D03*
%TO.P,U1,9,D33*%
%TO.N,/D33*%
X91000000Y-54120000D03*
%TO.P,U1,10,D32*%
%TO.N,/D32*%
X91000000Y-51580000D03*
%TO.P,U1,11,D35*%
%TO.N,/Lpn*%
X91000000Y-49040000D03*
%TO.P,U1,12,D34*%
%TO.N,/D34*%
X91000000Y-46500000D03*
%TO.P,U1,13,UN*%
%TO.N,unconnected-(U1-UN-Pad13)*%
X91000000Y-43960000D03*
%TO.P,U1,14,UP*%
%TO.N,unconnected-(U1-UP-Pad14)*%
X91000000Y-41420000D03*
D10*
%TO.P,U1,15,EN*%
%TO.N,unconnected-(U1-EN-Pad15)*%
X91000000Y-38880000D03*
D11*
%TO.P,U1,16,3V3*%
%TO.N,unconnected-(U1-3V3-Pad16)*%
X116500000Y-74440000D03*
%TO.P,U1,17,GND*%
%TO.N,GND*%
X116500000Y-71900000D03*
%TO.P,U1,18,D15*%
%TO.N,/PWREN*%
X116500000Y-69360000D03*
%TO.P,U1,19,D2*%
%TO.N,/D2*%
X116500000Y-66820000D03*
%TO.P,U1,20,D4*%
%TO.N,/D4*%
X116500000Y-64280000D03*
%TO.P,U1,21,RX2*%
%TO.N,/RX2*%
X116500000Y-61740000D03*
%TO.P,U1,22,TX2*%
%TO.N,Net-(J3-Pin_1)*%
X116500000Y-59200000D03*
%TO.P,U1,23,D5*%
%TO.N,/D5*%
X116500000Y-56660000D03*
%TO.P,U1,24,D18*%
%TO.N,/D18*%
X116500000Y-54120000D03*
%TO.P,U1,25,D19*%
%TO.N,/D19*%
X116500000Y-51580000D03*
%TO.P,U1,26,D21*%
%TO.N,/SDA*%
X116500000Y-49040000D03*
%TO.P,U1,27,RXD*%
%TO.N,/RXD*%
X116500000Y-46500000D03*
%TO.P,U1,28,TXD*%
%TO.N,/TXD*%
X116500000Y-43960000D03*
%TO.P,U1,29,D22*%
%TO.N,/SCL*%
X116500000Y-41420000D03*
D10*
%TO.P,U1,30,D23*%
%TO.N,/D23*%
X116500000Y-38880000D03*
%TD*%
D15*
%TO.N,/BOUT1*%
X71155000Y-30295000D03*
X73960000Y-25460000D03*
%TO.N,VCC_5*%
X128400000Y-44550000D03*
X126500000Y-41500000D03*
%TO.N,VCC_f*%
X78160000Y-25290000D03*
X81040000Y-30100000D03*
X124880000Y-96070000D03*
X126400000Y-88510000D03*
X128250000Y-89440000D03*
X134630000Y-83770000D03*
%TO.N,VCC*%
X126730000Y-81800000D03*
X135180000Y-72300000D03*
%TO.N,/AOUT2*%
X78260000Y-34670000D03*
%TO.N,/TXD*%
X86790000Y-47680000D03*
X89350000Y-47680000D03*
%TO.N,/SCL*%
X118970000Y-50140000D03*
%TO.N,/RXD*%
X138710000Y-69340000D03*
%TO.N,VCC_5*%
X119670000Y-79840000D03*
%TO.N,/D2*%
X121880000Y-86540000D03*
%TO.N,/Lpn*%
X96080000Y-58600000D03*
X97770000Y-61180000D03*
%TO.N,Net-(J3-Pin_1)*%
X133510000Y-54690000D03*
%TO.N,/D19*%
X86875000Y-51875000D03*
%TO.N,/D18*%
X87602500Y-57587500D03*
%TO.N,VCC_f*%
X86060000Y-74860000D03*
%TO.N,/D26*%
X81000000Y-42250000D03*
%TO.N,/D25*%
X83500000Y-43000000D03*
%TO.N,VCC_f*%
X100000000Y-74500000D03*
%TO.N,/D33*%
X85500000Y-36000000D03*
%TO.N,/D32*%
X86500000Y-37500000D03*
%TO.N,VCC_f*%
X150000000Y-65000000D03*
%TD*%
D16*
%TO.N,/D26*%
X77580000Y-33080000D02*
X75500000Y-33080000D01*
X79000000Y-34500000D02*
X77580000Y-33080000D01*
X78820000Y-39820000D02*
X78820000Y-34958529D01*
X78820000Y-34958529D02*
X79000000Y-34778529D01*
X79000000Y-34778529D02*
X79000000Y-34500000D01*
X81000000Y-42000000D02*
X78820000Y-39820000D01*
X81000000Y-42250000D02*
X81000000Y-42000000D01*
%TO.N,/AOUT2*%
X79220000Y-45410000D02*
X76130000Y-45410000D01*
X79440000Y-45190000D02*
X79220000Y-45410000D01*
X79440000Y-42380000D02*
X79440000Y-45190000D01*
X78280000Y-34690000D02*
X78280000Y-41220000D01*
X76130000Y-45410000D02*
X67320000Y-54220000D01*
X78260000Y-34670000D02*
X78280000Y-34690000D01*
X78280000Y-41220000D02*
X79440000Y-42380000D01*
%TO.N,/D25*%
X78290000Y-30540000D02*
X75500000Y-30540000D01*
X79400000Y-31650000D02*
X78290000Y-30540000D01*
X79400000Y-38900000D02*
X79400000Y-31650000D01*
X83500000Y-43000000D02*
X79400000Y-38900000D01*
%TO.N,/AOUT1*%
X80490000Y-23610000D02*
X82580000Y-23610000D01*
X79800000Y-24300000D02*
X80490000Y-23610000D01*
X79800000Y-37840000D02*
X79800000Y-24300000D01*
X84740000Y-38880000D02*
X80840000Y-38880000D01*
X79280000Y-64190000D02*
X84740000Y-58730000D01*
X70150000Y-64190000D02*
X79280000Y-64190000D01*
X80840000Y-38880000D02*
X79800000Y-37840000D01*
X84740000Y-58730000D02*
X84740000Y-38880000D01*
X70150000Y-56760000D02*
X70150000Y-64190000D01*
X67320000Y-56760000D02*
X70150000Y-56760000D01*
%TO.N,VCC_f*%
X78170000Y-29650000D02*
X77150000Y-29650000D01*
X78160000Y-29640000D02*
X78170000Y-29650000D01*
X78160000Y-25290000D02*
X78160000Y-29640000D01*
X77150000Y-29650000D02*
X75500000Y-28000000D01*
%TO.N,/BOUT1*%
X71180000Y-45280000D02*
X67320000Y-49140000D01*
X71180000Y-30320000D02*
X71180000Y-45280000D01*
X71155000Y-30295000D02*
X71180000Y-30320000D01*
%TO.N,VCC_f*%
X86000000Y-38500000D02*
X84900000Y-37400000D01*
X86000000Y-74800000D02*
X86000000Y-38500000D01*
X86060000Y-74860000D02*
X86000000Y-74800000D01*
X84900000Y-37400000D02*
X84900000Y-28470000D01*
%TO.N,VCC_5*%
X128340000Y-44490000D02*
X128400000Y-44550000D01*
X128340000Y-44030000D02*
X128340000Y-44490000D01*
X126500000Y-42190000D02*
X128340000Y-44030000D01*
X126500000Y-41500000D02*
X126500000Y-42190000D01*
X125000000Y-41500000D02*
X123500000Y-43000000D01*
X126500000Y-41500000D02*
X125000000Y-41500000D01*
%TO.N,VCC_f*%
X83440000Y-29930000D02*
X84900000Y-28470000D01*
X81380000Y-29930000D02*
X83440000Y-29930000D01*
X81040000Y-30100000D02*
X81210000Y-30100000D01*
X81210000Y-30100000D02*
X81380000Y-29930000D01*
X120815000Y-91700000D02*
X120000000Y-92515000D01*
X122850000Y-91700000D02*
X120815000Y-91700000D01*
X123630000Y-94820000D02*
X123630000Y-92480000D01*
X124880000Y-96070000D02*
X123630000Y-94820000D01*
X123630000Y-92480000D02*
X122850000Y-91700000D01*
X128250000Y-89440000D02*
X127330000Y-89440000D01*
X127330000Y-89440000D02*
X126400000Y-88510000D01*
X137740000Y-80660000D02*
X134630000Y-83770000D01*
X137740000Y-78860000D02*
X137740000Y-80660000D01*
X137740000Y-72810000D02*
X137740000Y-78860000D01*
X125740000Y-76080000D02*
X129530000Y-76080000D01*
X129530000Y-76080000D02*
X135270000Y-70340000D01*
X135270000Y-70340000D02*
X137740000Y-72810000D01*
%TO.N,/RX2*%
X122710000Y-67950000D02*
X116500000Y-61740000D01*
X122710000Y-83690000D02*
X122710000Y-67950000D01*
X132950000Y-83690000D02*
X122710000Y-83690000D01*
X137940000Y-88680000D02*
X132950000Y-83690000D01*
%TO.N,/D4*%
X119350000Y-78671471D02*
X119350000Y-67130000D01*
X122310000Y-84520000D02*
X122310000Y-81631471D01*
X122310000Y-81631471D02*
X119350000Y-78671471D01*
X130013654Y-84520000D02*
X122310000Y-84520000D01*
X137940000Y-91220000D02*
X136713654Y-91220000D01*
X136713654Y-91220000D02*
X130013654Y-84520000D01*
X119350000Y-67130000D02*
X116500000Y-64280000D01*
%TO.N,VCC_5*%
X128370000Y-91380000D02*
X130800000Y-91380000D01*
X121805735Y-84815735D02*
X128370000Y-91380000D01*
X121805735Y-81975735D02*
X121805735Y-84815735D01*
X119670000Y-79840000D02*
X121805735Y-81975735D01*
%TO.N,VCC*%
X126730000Y-80750000D02*
X126730000Y-81800000D01*
X135180000Y-72300000D02*
X126730000Y-80750000D01*
%TO.N,/BOUT2*%
X74500000Y-44500000D02*
X74500000Y-42250000D01*
X67320000Y-51680000D02*
X74500000Y-44500000D01*
%TO.N,/BOUT1*%
X73960000Y-25460000D02*
X75500000Y-25460000D01*
%TO.N,VCC_f*%
X84900000Y-28470000D02*
X82580000Y-26150000D01*
%TO.N,/SCL*%
X116340000Y-41580000D02*
X116500000Y-41420000D01*
X115160000Y-47120000D02*
X115160000Y-41580000D01*
X117020000Y-47780000D02*
X115820000Y-47780000D01*
X115820000Y-47780000D02*
X115160000Y-47120000D01*
X118970000Y-49730000D02*
X117020000Y-47780000D01*
X118970000Y-50140000D02*
X118970000Y-49730000D01*
X115160000Y-41580000D02*
X116340000Y-41580000D01*
%TO.N,/TXD*%
X89350000Y-47680000D02*
X86790000Y-47680000D01*
%TO.N,/D18*%
X116500000Y-54435000D02*
X116500000Y-54120000D01*
X113045000Y-57890000D02*
X116500000Y-54435000D01*
X87905000Y-57890000D02*
X113045000Y-57890000D01*
X87602500Y-57587500D02*
X87905000Y-57890000D01*
%TO.N,/RXD*%
X117240000Y-46500000D02*
X116500000Y-46500000D01*
X121210000Y-50470000D02*
X117240000Y-46500000D01*
X135720000Y-56330000D02*
X136200000Y-55850000D01*
X129060000Y-56330000D02*
X135720000Y-56330000D01*
X136200000Y-50470000D02*
X121210000Y-50470000D01*
X136200000Y-55850000D02*
X136200000Y-50470000D01*
X129120000Y-63470000D02*
X129120000Y-56390000D01*
X133930000Y-64560000D02*
X133930000Y-63470000D01*
X138710000Y-69340000D02*
X133930000Y-64560000D01*
X133930000Y-63470000D02*
X129120000Y-63470000D01*
X129120000Y-56390000D02*
X129060000Y-56330000D01*
%TO.N,/D2*%
X127220000Y-96460000D02*
X130800000Y-96460000D01*
X125220000Y-94460000D02*
X127220000Y-96460000D01*
X121880000Y-86540000D02*
X125220000Y-89880000D01*
X125220000Y-89880000D02*
X125220000Y-94460000D01*
%TO.N,/Lpn*%
X97700000Y-60220000D02*
X96080000Y-58600000D01*
X97700000Y-61110000D02*
X97700000Y-60220000D01*
X97770000Y-61180000D02*
X97700000Y-61110000D01*
%TO.N,Net-(J3-Pin_1)*%
X133510000Y-54690000D02*
X121010000Y-54690000D01*
X121010000Y-54690000D02*
X116500000Y-59200000D01*
%TO.N,/D19*%
X90500000Y-55500000D02*
X112580000Y-55500000D01*
X112580000Y-55500000D02*
X116500000Y-51580000D01*
X86875000Y-51875000D02*
X90500000Y-55500000D01*
%TO.N,VCC_f*%
X100000000Y-74500000D02*
X99500000Y-74500000D01*
X99500000Y-74500000D02*
X99440000Y-74440000D01*
X99440000Y-74440000D02*
X91000000Y-74440000D01*
%TO.N,/BOUT2*%
X67314558Y-51674558D02*
X67309540Y-51674558D01*
X67320000Y-51680000D02*
X67314558Y-51674558D01*
X74500000Y-39160000D02*
X75500000Y-38160000D01*
X74500000Y-42250000D02*
X74500000Y-39160000D01*
%TO.N,/D33*%
X92120000Y-53000000D02*
X91000000Y-54120000D01*
X94000000Y-53000000D02*
X92120000Y-53000000D01*
X94500000Y-52500000D02*
X94000000Y-53000000D01*
X94500000Y-35000000D02*
X94500000Y-52500000D01*
X90500000Y-35000000D02*
X94500000Y-35000000D01*
X89500000Y-36000000D02*
X90500000Y-35000000D01*
X85500000Y-36000000D02*
X89500000Y-36000000D01*
%TO.N,/D32*%
X93000000Y-50500000D02*
X92080000Y-50500000D01*
X93000000Y-36000000D02*
X93000000Y-50500000D01*
X90500000Y-36000000D02*
X93000000Y-36000000D01*
X87000000Y-39500000D02*
X90500000Y-36000000D01*
X92080000Y-50500000D02*
X91000000Y-51580000D01*
X86500000Y-39000000D02*
X87000000Y-39500000D01*
X86500000Y-37500000D02*
X86500000Y-39000000D01*
%TO.N,VCC_f*%
X153300000Y-61700000D02*
X153300000Y-60580000D01*
X150000000Y-65000000D02*
X153300000Y-61700000D01*
%TD*%
%TA.AperFunction,Conductor*%
%TO.N,GND*%
G36*
X132210000Y-79586988D02*
G01*
X132152993Y-79554075D01*
X132025826Y-79520000D01*
X131894174Y-79520000D01*
X131767007Y-79554075D01*
X131710000Y-79586988D01*
X131710000Y-77913012D01*
X131767007Y-77945925D01*
X131894174Y-77980000D01*
X132025826Y-77980000D01*
X132152993Y-77945925D01*
X132210000Y-77913012D01*
X132210000Y-79586988D01*
G37*
%TD.AperFunction*%
%TA.AperFunction,Conductor*%
G36*
X77346942Y-33700185D02*
G01*
X77367584Y-33716819D01*
X77636661Y-33985896D01*
X77670146Y-34047219D01*
X77665162Y-34116911D01*
X77636669Y-34161251D01*
X77630186Y-34167734D01*
X77534211Y-34320476D01*
X77474631Y-34490745D01*
X77474630Y-34490750D01*
X77454435Y-34669996D01*
X77454435Y-34670003D01*
X77474630Y-34849249D01*
X77474631Y-34849254D01*
X77534211Y-35019523D01*
X77630184Y-35172262D01*
X77643181Y-35185259D01*
X77676666Y-35246582D01*
X77679500Y-35272940D01*
X77679500Y-41133330D01*
X77679499Y-41133348D01*
X77679499Y-41299054D01*
X77679498Y-41299054D01*
X77718596Y-41444969D01*
X77720423Y-41451785D01*
X77747716Y-41499057D01*
X77778476Y-41552335D01*
X77799479Y-41588714D01*
X77799481Y-41588717D01*
X77918349Y-41707585D01*
X77918355Y-41707590D01*
X78803181Y-42592416D01*
X78836666Y-42653739D01*
X78839500Y-42680097D01*
X78839500Y-42754136D01*
X78819815Y-42821175D01*
X78767011Y-42866930D01*
X78697853Y-42876874D01*
X78641189Y-42853403D01*
X78592089Y-42816647D01*
X78592086Y-42816645D01*
X78457379Y-42766403D01*
X78457372Y-42766401D01*
X78397844Y-42760000D01*
X77750000Y-42760000D01*
X77750000Y-43676988D01*
X77692993Y-43644075D01*
X77565826Y-43610000D01*
X77434174Y-43610000D01*
X77307007Y-43644075D01*
X77250000Y-43676988D01*
X77250000Y-42760000D01*
X76602155Y-42760000D01*
X76542627Y-42766401D01*
X76542620Y-42766403D01*
X76407913Y-42816645D01*
X76407906Y-42816649D01*
X76292812Y-42902809D01*
X76292809Y-42902812D01*
X76206649Y-43017906D01*
X76206645Y-43017913D01*
X76156403Y-43152620D01*
X76156401Y-43152627D01*
X76150000Y-43212155D01*
X76150000Y-43860000D01*
X77066988Y-43860000D01*
X77034075Y-43917007D01*
X77000000Y-44044174D01*
X77000000Y-44175826D01*
X77034075Y-44302993D01*
X77066988Y-44360000D01*
X76150000Y-44360000D01*
X76150000Y-44687809D01*
X76130315Y-44754848D01*
X76077511Y-44800603D01*
X76058093Y-44807584D01*
X76010019Y-44820464D01*
X76010019Y-44820465D01*
X75972751Y-44830451D01*
X75898214Y-44850423D01*
X75898209Y-44850426D01*
X75761290Y-44929475D01*
X75761282Y-44929481D01*
X75649478Y-45041286D01*
X68884432Y-51806331D01*
X68823109Y-51839816D01*
X68753417Y-51834832D01*
X68697484Y-51792960D01*
X68673067Y-51727496D01*
X68673223Y-51707842D01*
X68675659Y-51680000D01*
X68675659Y-51679999D01*
X68659438Y-51494596D01*
X68655063Y-51444592D01*
X68620671Y-51316239D01*
X68622334Y-51246393D01*
X68652763Y-51196470D01*
X74858506Y-44990728D01*
X74858511Y-44990724D01*
X74868714Y-44980520D01*
X74868716Y-44980520D01*
X74980520Y-44868716D01*
X75059577Y-44731784D01*
X75100500Y-44579057D01*
X75100500Y-42170943D01*
X75100500Y-39612694D01*
X75120185Y-39545655D01*
X75172989Y-39499900D01*
X75242147Y-39489956D01*
X75256581Y-39492916D01*
X75264592Y-39495063D01*
X75452918Y-39511539D01*
X75499999Y-39515659D01*
X75500000Y-39515659D01*
X75500001Y-39515659D01*
X75539234Y-39512226D01*
X75735408Y-39495063D01*
X75963663Y-39433903D01*
X76177830Y-39334035D01*
X76371401Y-39198495D01*
X76538495Y-39031401D01*
X76674035Y-38837830D01*
X76773903Y-38623663D01*
X76835063Y-38395408D01*
X76855659Y-38160000D01*
X76835063Y-37924592D01*
X76783725Y-37732993D01*
X76773905Y-37696344D01*
X76773904Y-37696343D01*
X76773903Y-37696337D01*
X76674035Y-37482171D01*
X76671853Y-37479054D01*
X76538494Y-37288597D01*
X76371402Y-37121506D01*
X76371401Y-37121505D01*
X76185405Y-36991269D01*
X76141781Y-36936692D01*
X76134588Y-36867193D01*
X76166110Y-36804839D01*
X76185405Y-36788119D01*
X76371082Y-36658105D01*
X76538105Y-36491082D01*
X76673600Y-36297578D01*
X76773429Y-36083492D01*
X76773432Y-36083486D01*
X76830636Y-35870000D01*
X75933012Y-35870000D01*
X75965925Y-35812993D01*
X76000000Y-35685826D01*
X76000000Y-35554174D01*
X75965925Y-35427007D01*
X75933012Y-35370000D01*
X76830636Y-35370000D01*
X76830635Y-35369999D01*
X76773432Y-35156513D01*
X76773429Y-35156507D01*
X76673600Y-34942422D01*
X76673599Y-34942420D01*
X76538113Y-34748926D01*
X76538108Y-34748920D01*
X76371078Y-34581890D01*
X76185405Y-34451879D01*
X76141780Y-34397302D01*
X76134588Y-34327804D01*
X76166110Y-34265449D01*
X76185406Y-34248730D01*
X76371401Y-34118495D01*
X76538495Y-33951401D01*
X76674035Y-33757830D01*
X76676707Y-33752097D01*
X76722878Y-33699658D01*
X76789091Y-33680500D01*
X77279903Y-33680500D01*
X77346942Y-33700185D01*
G37*
%TD.AperFunction*%
%TA.AperFunction,Conductor*%
G36*
X84218834Y-30102914D02*
G01*
X84274767Y-30144786D01*
X84299184Y-30210250D01*
X84299500Y-30219096D01*
X84299500Y-37313330D01*
X84299499Y-37313348D01*
X84299499Y-37479054D01*
X84299498Y-37479054D01*
X84334559Y-37609901D01*
X84340423Y-37631785D01*
X84361156Y-37667695D01*
X84363902Y-37672450D01*
X84363903Y-37672454D01*
X84363904Y-37672454D01*
X84377691Y-37696335D01*
X84419479Y-37768714D01*
X84419481Y-37768717D01*
X84538349Y-37887585D01*
X84538355Y-37887590D01*
X84718584Y-38067819D01*
X84752069Y-38129142D01*
X84747085Y-38198834D01*
X84705213Y-38254767D01*
X84639749Y-38279184D01*
X84630903Y-38279500D01*
X81140097Y-38279500D01*
X81073058Y-38259815D01*
X81052416Y-38243181D01*
X80436819Y-37627584D01*
X80403334Y-37566261D01*
X80400500Y-37539903D01*
X80400500Y-30867944D01*
X80420185Y-30800905D01*
X80472989Y-30755150D01*
X80542147Y-30745206D01*
X80590470Y-30762950D01*
X80632064Y-30789085D01*
X80690475Y-30825788D01*
X80860745Y-30885368D01*
X80860750Y-30885369D01*
X81039996Y-30905565D01*
X81040000Y-30905565D01*
X81040002Y-30905565D01*
X81073159Y-30901828D01*
X81104220Y-30898329D01*
X81173042Y-30910383D01*
X81224421Y-30957732D01*
X81242046Y-31025342D01*
X81241632Y-31032356D01*
X81224341Y-31229997D01*
X81224341Y-31230000D01*
X81244936Y-31465403D01*
X81244938Y-31465413D01*
X81306094Y-31693655D01*
X81306096Y-31693659D01*
X81306097Y-31693663D01*
X81349854Y-31787500D01*
X81405965Y-31907830D01*
X81405967Y-31907834D01*
X81541501Y-32101395D01*
X81541506Y-32101402D01*
X81708597Y-32268493D01*
X81708603Y-32268498D01*
X81894594Y-32398730D01*
X81938219Y-32453307D01*
X81945413Y-32522805D01*
X81913890Y-32585160D01*
X81894595Y-32601880D01*
X81708922Y-32731890D01*
X81708920Y-32731891D01*
X81541891Y-32898920D01*
X81541886Y-32898926D01*
X81406400Y-33092420D01*
X81406399Y-33092422D01*
X81306570Y-33306507D01*
X81306567Y-33306513D01*
X81249364Y-33519999D01*
X81249364Y-33520000D01*
X82146988Y-33520000D01*
X82114075Y-33577007D01*
X82080000Y-33704174D01*
X82080000Y-33835826D01*
X82114075Y-33962993D01*
X82146988Y-34020000D01*
X81249364Y-34020000D01*
X81306567Y-34233486D01*
X81306570Y-34233492D01*
X81406399Y-34447578D01*
X81541894Y-34641082D01*
X81708917Y-34808105D01*
X81894595Y-34938119D01*
X81938219Y-34992696D01*
X81945412Y-35062195D01*
X81913890Y-35124549D01*
X81894595Y-35141269D01*
X81708594Y-35271508D01*
X81541505Y-35438597D01*
X81405965Y-35632169D01*
X81405964Y-35632171D01*
X81306098Y-35846335D01*
X81306094Y-35846344D01*
X81244938Y-36074586D01*
X81244936Y-36074596D01*
X81224341Y-36309999D01*
X81224341Y-36310000D01*
X81244936Y-36545403D01*
X81244938Y-36545413D01*
X81306094Y-36773655D01*
X81306096Y-36773659D01*
X81306097Y-36773663D01*
X81382119Y-36936692D01*
X81405965Y-36987830D01*
X81405967Y-36987834D01*
X81514025Y-37142155D01*
X81541505Y-37181401D01*
X81708599Y-37348495D01*
X81764808Y-37387853D01*
X81902165Y-37484032D01*
X81902167Y-37484033D01*
X81902170Y-37484035D01*
X82116337Y-37583903D01*
X82116343Y-37583904D01*
X82116344Y-37583905D01*
X82171285Y-37598626D01*
X82344592Y-37645063D01*
X82532918Y-37661539D01*
X82579999Y-37665659D01*
X82580000Y-37665659D01*
X82580001Y-37665659D01*
X82619234Y-37662226D01*
X82815408Y-37645063D01*
X83043663Y-37583903D01*
X83257830Y-37484035D01*
X83451401Y-37348495D01*
X83618495Y-37181401D01*
X83754035Y-36987830D01*
X83853903Y-36773663D01*
X83915063Y-36545408D01*
X83935659Y-36310000D01*
X83915063Y-36074592D01*
X83853903Y-35846337D01*
X83754035Y-35632171D01*
X83745643Y-35620185D01*
X83618494Y-35438597D01*
X83451402Y-35271506D01*
X83451401Y-35271505D01*
X83265405Y-35141269D01*
X83221781Y-35086692D01*
X83214588Y-35017193D01*
X83246110Y-34954839D01*
X83265405Y-34938119D01*
X83451082Y-34808105D01*
X83618105Y-34641082D01*
X83753600Y-34447578D01*
X83853429Y-34233492D01*
X83853432Y-34233486D01*
X83910636Y-34020000D01*
X83013012Y-34020000D01*
X83045925Y-33962993D01*
X83080000Y-33835826D01*
X83080000Y-33704174D01*
X83045925Y-33577007D01*
X83013012Y-33520000D01*
X83910636Y-33520000D01*
X83910635Y-33519999D01*
X83853432Y-33306513D01*
X83853429Y-33306507D01*
X83753600Y-33092422D01*
X83753599Y-33092420D01*
X83618113Y-32898926D01*
X83618108Y-32898920D01*
X83451078Y-32731890D01*
X83265405Y-32601879D01*
X83221780Y-32547302D01*
X83214588Y-32477804D01*
X83246110Y-32415449D01*
X83265406Y-32398730D01*
X83451401Y-32268495D01*
X83618495Y-32101401D01*
X83754035Y-31907830D01*
X83853903Y-31693663D01*
X83915063Y-31465408D01*
X83935659Y-31230000D01*
X83915063Y-30994592D01*
X83853903Y-30766337D01*
X83761610Y-30568417D01*
X83751119Y-30499342D01*
X83779638Y-30435558D01*
X83802860Y-30416231D01*
X83802272Y-30415464D01*
X83808710Y-30410523D01*
X83808716Y-30410520D01*
X83920520Y-30298716D01*
X83920521Y-30298713D01*
X84087822Y-30131412D01*
X84149142Y-30097930D01*
X84218834Y-30102914D01*
G37*
%TD.AperFunction*%
%TA.AperFunction,Conductor*%
G36*
X153230000Y-79556988D02*
G01*
X153172993Y-79524075D01*
X153045826Y-79490000D01*
X152914174Y-79490000D01*
X152787007Y-79524075D01*
X152730000Y-79556988D01*
X152730000Y-77883012D01*
X152787007Y-77915925D01*
X152914174Y-77950000D01*
X153045826Y-77950000D01*
X153172993Y-77915925D01*
X153230000Y-77883012D01*
X153230000Y-79556988D01*
G37*
%TD.AperFunction*%
%TA.AperFunction,Conductor*%
G36*
X132610000Y-47776988D02*
G01*
X132552993Y-47744075D01*
X132425826Y-47710000D01*
X132294174Y-47710000D01*
X132167007Y-47744075D01*
X132110000Y-47776988D01*
X132110000Y-46103012D01*
X132167007Y-46135925D01*
X132294174Y-46170000D01*
X132425826Y-46170000D01*
X132552993Y-46135925D01*
X132610000Y-46103012D01*
X132610000Y-47776988D01*
G37*
%TD.AperFunction*%
%TA.AperFunction,Conductor*%
G36*
X153630000Y-47746988D02*
G01*
X153572993Y-47714075D01*
X153445826Y-47680000D01*
X153314174Y-47680000D01*
X153187007Y-47714075D01*
X153130000Y-47746988D01*
X153130000Y-46073012D01*
X153187007Y-46105925D01*
X153314174Y-46140000D01*
X153445826Y-46140000D01*
X153572993Y-46105925D01*
X153630000Y-46073012D01*
X153630000Y-47746988D01*
G37*
%TD.AperFunction*%
%TA.AperFunction,Conductor*%
G36*
X132750000Y-37606988D02*
G01*
X132692993Y-37574075D01*
X132565826Y-37540000D01*
X132434174Y-37540000D01*
X132307007Y-37574075D01*
X132250000Y-37606988D01*
X132250000Y-35933012D01*
X132307007Y-35965925D01*
X132434174Y-36000000D01*
X132565826Y-36000000D01*
X132692993Y-35965925D01*
X132750000Y-35933012D01*
X132750000Y-37606988D01*
G37*
%TD.AperFunction*%
%TA.AperFunction,Conductor*%
G36*
X153770000Y-37576988D02*
G01*
X153712993Y-37544075D01*
X153585826Y-37510000D01*
X153454174Y-37510000D01*
X153327007Y-37544075D01*
X153270000Y-37576988D01*
X153270000Y-35903012D01*
X153327007Y-35935925D01*
X153454174Y-35970000D01*
X153585826Y-35970000D01*
X153712993Y-35935925D01*
X153770000Y-35903012D01*
X153770000Y-37576988D01*
G37*
%TD.AperFunction*%
%TA.AperFunction,Conductor*%
G36*
X155666231Y-20980185D02*
G01*
X155711986Y-21032989D01*
X155723192Y-21084500D01*
X155723192Y-110259192D01*
X155703507Y-110326231D01*
X155650703Y-110371986D01*
X155599192Y-110383192D01*
X104272401Y-110383192D01*
X104205362Y-110363507D01*
X104159607Y-110310703D01*
X104149663Y-110241545D01*
X104178688Y-110177989D01*
X104201277Y-110157617D01*
X104371401Y-110038495D01*
X104538495Y-109871401D01*
X104674035Y-109677830D01*
X104773903Y-109463663D01*
X104835063Y-109235408D01*
X104855659Y-109000000D01*
X104835063Y-108764592D01*
X104773903Y-108536337D01*
X104674035Y-108322171D01*
X104538495Y-108128599D01*
X104538494Y-108128597D01*
X104371402Y-107961506D01*
X104371395Y-107961501D01*
X104177834Y-107825967D01*
X104177830Y-107825965D01*
X104106727Y-107792809D01*
X103963663Y-107726097D01*
X103963659Y-107726096D01*
X103963655Y-107726094D01*
X103735413Y-107664938D01*
X103735403Y-107664936D01*
X103500001Y-107644341D01*
X103499999Y-107644341D01*
X103264596Y-107664936D01*
X103264586Y-107664938D01*
X103036344Y-107726094D01*
X103036335Y-107726098D01*
X102822171Y-107825964D01*
X102822169Y-107825965D01*
X102628600Y-107961503D01*
X102506284Y-108083819D01*
X102444961Y-108117303D01*
X102375269Y-108112319D01*
X102319336Y-108070447D01*
X102302421Y-108039470D01*
X102253354Y-107907913D01*
X102253350Y-107907906D01*
X102167190Y-107792812D01*
X102167187Y-107792809D01*
X102052093Y-107706649D01*
X102052086Y-107706645D01*
X101917379Y-107656403D01*
X101917372Y-107656401D01*
X101857844Y-107650000D01*
X101210000Y-107650000D01*
X101210000Y-108566988D01*
X101152993Y-108534075D01*
X101025826Y-108500000D01*
X100894174Y-108500000D01*
X100767007Y-108534075D01*
X100710000Y-108566988D01*
X100710000Y-107650000D01*
X100062155Y-107650000D01*
X100002627Y-107656401D01*
X100002620Y-107656403D01*
X99867913Y-107706645D01*
X99867906Y-107706649D01*
X99752812Y-107792809D01*
X99752809Y-107792812D01*
X99666649Y-107907906D01*
X99666645Y-107907913D01*
X99616403Y-108042620D01*
X99616401Y-108042627D01*
X99610000Y-108102155D01*
X99610000Y-108750000D01*
X100526988Y-108750000D01*
X100494075Y-108807007D01*
X100460000Y-108934174D01*
X100460000Y-109065826D01*
X100494075Y-109192993D01*
X100526988Y-109250000D01*
X99610000Y-109250000D01*
X99610000Y-109897844D01*
X99616401Y-109957372D01*
X99616403Y-109957379D01*
X99666645Y-110092086D01*
X99666647Y-110092089D01*
X99736111Y-110184880D01*
X99760529Y-110250345D01*
X99745678Y-110318618D01*
X99696273Y-110368024D01*
X99636845Y-110383192D01*
X62374500Y-110383192D01*
X62307461Y-110363507D01*
X62261706Y-110310703D01*
X62250500Y-110259192D01*
X62250500Y-104499994D01*
X84994357Y-104499994D01*
X84994357Y-104500005D01*
X85014890Y-104747812D01*
X85014892Y-104747824D01*
X85075936Y-104988881D01*
X85175826Y-105216606D01*
X85311833Y-105424782D01*
X85311836Y-105424785D01*
X85480256Y-105607738D01*
X85676491Y-105760474D01*
X85895190Y-105878828D01*
X86130386Y-105959571D01*
X86375665Y-106000500D01*
X86624335Y-106000500D01*
X86869614Y-105959571D01*
X87104810Y-105878828D01*
X87323509Y-105760474D01*
X87519744Y-105607738D01*
X87688164Y-105424785D01*
X87824173Y-105216607D01*
X87924063Y-104988881D01*
X87985108Y-104747821D01*
X88005643Y-104500000D01*
X88005643Y-104499994D01*
X91494357Y-104499994D01*
X91494357Y-104500005D01*
X91514890Y-104747812D01*
X91514892Y-104747824D01*
X91575936Y-104988881D01*
X91675826Y-105216606D01*
X91811833Y-105424782D01*
X91811836Y-105424785D01*
X91980256Y-105607738D01*
X92176491Y-105760474D01*
X92395190Y-105878828D01*
X92630386Y-105959571D01*
X92875665Y-106000500D01*
X93124335Y-106000500D01*
X93369614Y-105959571D01*
X93604810Y-105878828D01*
X93823509Y-105760474D01*
X94019744Y-105607738D01*
X94188164Y-105424785D01*
X94324173Y-105216607D01*
X94424063Y-104988881D01*
X94485108Y-104747821D01*
X94505643Y-104500000D01*
X94485108Y-104252179D01*
X94424063Y-104011119D01*
X94324173Y-103783393D01*
X94188166Y-103575217D01*
X94166557Y-103551744D01*
X94019744Y-103392262D01*
X93823509Y-103239526D01*
X93823507Y-103239525D01*
X93823506Y-103239524D01*
X93604811Y-103121172D01*
X93604802Y-103121169D01*
X93369616Y-103040429D01*
X93124335Y-102999500D01*
X92875665Y-102999500D01*
X92630383Y-103040429D01*
X92395197Y-103121169D01*
X92395188Y-103121172D01*
X92176493Y-103239524D01*
X91980257Y-103392261D01*
X91811833Y-103575217D01*
X91675826Y-103783393D01*
X91575936Y-104011118D01*
X91514892Y-104252175D01*
X91514890Y-104252187D01*
X91494357Y-104499994D01*
X88005643Y-104499994D01*
X87985108Y-104252179D01*
X87924063Y-104011119D01*
X87824173Y-103783393D01*
X87688166Y-103575217D01*
X87666557Y-103551744D01*
X87519744Y-103392262D01*
X87323509Y-103239526D01*
X87323507Y-103239525D01*
X87323506Y-103239524D01*
X87104811Y-103121172D01*
X87104802Y-103121169D01*
X86869616Y-103040429D01*
X86624335Y-102999500D01*
X86375665Y-102999500D01*
X86130383Y-103040429D01*
X85895197Y-103121169D01*
X85895188Y-103121172D01*
X85676493Y-103239524D01*
X85480257Y-103392261D01*
X85311833Y-103575217D01*
X85175826Y-103783393D01*
X85075936Y-104011118D01*
X85014892Y-104252175D01*
X85014890Y-104252187D01*
X84994357Y-104499994D01*
X62250500Y-104499994D01*
X62250500Y-99999994D01*
X84994859Y-99999994D01*
X84994859Y-100000005D01*
X85015385Y-100247729D01*
X85015387Y-100247738D01*
X85076412Y-100488717D01*
X85176266Y-100716364D01*
X85276564Y-100869882D01*
X85976212Y-100170234D01*
X85987482Y-100212292D01*
X86059890Y-100337708D01*
X86162292Y-100440110D01*
X86287708Y-100512518D01*
X86329765Y-100523787D01*
X85629942Y-101223609D01*
X85676768Y-101260055D01*
X85676770Y-101260056D01*
X85895385Y-101378364D01*
X85895396Y-101378369D01*
X86130506Y-101459083D01*
X86375707Y-101500000D01*
X86624293Y-101500000D01*
X86869493Y-101459083D01*
X87104603Y-101378369D01*
X87104614Y-101378364D01*
X87323228Y-101260057D01*
X87323231Y-101260055D01*
X87370056Y-101223609D01*
X86670234Y-100523787D01*
X86712292Y-100512518D01*
X86837708Y-100440110D01*
X86940110Y-100337708D01*
X87012518Y-100212292D01*
X87023787Y-100170235D01*
X87723434Y-100869882D01*
X87823731Y-100716369D01*
X87923587Y-100488717D01*
X87984612Y-100247738D01*
X87984614Y-100247729D01*
X88005141Y-100000005D01*
X88005141Y-99999994D01*
X91494859Y-99999994D01*
X91494859Y-100000005D01*
X91515385Y-100247729D01*
X91515387Y-100247738D01*
X91576412Y-100488717D01*
X91676266Y-100716364D01*
X91776564Y-100869882D01*
X92476212Y-100170234D01*
X92487482Y-100212292D01*
X92559890Y-100337708D01*
X92662292Y-100440110D01*
X92787708Y-100512518D01*
X92829765Y-100523787D01*
X92129942Y-101223609D01*
X92176768Y-101260055D01*
X92176770Y-101260056D01*
X92395385Y-101378364D01*
X92395396Y-101378369D01*
X92630506Y-101459083D01*
X92875707Y-101500000D01*
X93124293Y-101500000D01*
X93369493Y-101459083D01*
X93604603Y-101378369D01*
X93604614Y-101378364D01*
X93823228Y-101260057D01*
X93823231Y-101260055D01*
X93870056Y-101223609D01*
X93170234Y-100523787D01*
X93212292Y-100512518D01*
X93337708Y-100440110D01*
X93440110Y-100337708D01*
X93512518Y-100212292D01*
X93523787Y-100170235D01*
X94223434Y-100869882D01*
X94323731Y-100716369D01*
X94423587Y-100488717D01*
X94484612Y-100247738D01*
X94484614Y-100247729D01*
X94505141Y-100000005D01*
X94505141Y-99999994D01*
X94484614Y-99752270D01*
X94484612Y-99752261D01*
X94423587Y-99511282D01*
X94323731Y-99283630D01*
X94223434Y-99130116D01*
X93523787Y-99829764D01*
X93512518Y-99787708D01*
X93440110Y-99662292D01*
X93337708Y-99559890D01*
X93212292Y-99487482D01*
X93170235Y-99476212D01*
X93870057Y-98776390D01*
X93870056Y-98776389D01*
X93823229Y-98739943D01*
X93604614Y-98621635D01*
X93604603Y-98621630D01*
X93369493Y-98540916D01*
X93124293Y-98500000D01*
X92875707Y-98500000D01*
X92630506Y-98540916D01*
X92395396Y-98621630D01*
X92395390Y-98621632D01*
X92176761Y-98739949D01*
X92129942Y-98776388D01*
X92129942Y-98776390D01*
X92829765Y-99476212D01*
X92787708Y-99487482D01*
X92662292Y-99559890D01*
X92559890Y-99662292D01*
X92487482Y-99787708D01*
X92476212Y-99829764D01*
X91776564Y-99130116D01*
X91676267Y-99283632D01*
X91576412Y-99511282D01*
X91515387Y-99752261D01*
X91515385Y-99752270D01*
X91494859Y-99999994D01*
X88005141Y-99999994D01*
X87984614Y-99752270D01*
X87984612Y-99752261D01*
X87923587Y-99511282D01*
X87823731Y-99283630D01*
X87723434Y-99130116D01*
X87023787Y-99829764D01*
X87012518Y-99787708D01*
X86940110Y-99662292D01*
X86837708Y-99559890D01*
X86712292Y-99487482D01*
X86670235Y-99476212D01*
X87370057Y-98776390D01*
X87370056Y-98776389D01*
X87323229Y-98739943D01*
X87104614Y-98621635D01*
X87104603Y-98621630D01*
X86869493Y-98540916D01*
X86624293Y-98500000D01*
X86375707Y-98500000D01*
X86130506Y-98540916D01*
X85895396Y-98621630D01*
X85895390Y-98621632D01*
X85676761Y-98739949D01*
X85629942Y-98776388D01*
X85629942Y-98776390D01*
X86329765Y-99476212D01*
X86287708Y-99487482D01*
X86162292Y-99559890D01*
X86059890Y-99662292D01*
X85987482Y-99787708D01*
X85976212Y-99829764D01*
X85276564Y-99130116D01*
X85176267Y-99283632D01*
X85076412Y-99511282D01*
X85015387Y-99752261D01*
X85015385Y-99752270D01*
X84994859Y-99999994D01*
X62250500Y-99999994D01*
X62250500Y-96602135D01*
X102149500Y-96602135D01*
X102149500Y-98397870D01*
X102149501Y-98397876D01*
X102155908Y-98457483D01*
X102206202Y-98592328D01*
X102206206Y-98592335D01*
X102292452Y-98707544D01*
X102292455Y-98707547D01*
X102407664Y-98793793D01*
X102407671Y-98793797D01*
X102542517Y-98844091D01*
X102542516Y-98844091D01*
X102549444Y-98844835D01*
X102602127Y-98850500D01*
X104397872Y-98850499D01*
X104457483Y-98844091D01*
X104592331Y-98793796D01*
X104707546Y-98707546D01*
X104793796Y-98592331D01*
X104842810Y-98460916D01*
X104884681Y-98404984D01*
X104950145Y-98380566D01*
X105018418Y-98395417D01*
X105046673Y-98416569D01*
X105168599Y-98538495D01*
X105256296Y-98599901D01*
X105362165Y-98674032D01*
X105362167Y-98674033D01*
X105362170Y-98674035D01*
X105576337Y-98773903D01*
X105576343Y-98773904D01*
X105576344Y-98773905D01*
X105631285Y-98788626D01*
X105804592Y-98835063D01*
X105981034Y-98850500D01*
X106039999Y-98855659D01*
X106040000Y-98855659D01*
X106040001Y-98855659D01*
X106098966Y-98850500D01*
X106275408Y-98835063D01*
X106503663Y-98773903D01*
X106717830Y-98674035D01*
X106911401Y-98538495D01*
X107078495Y-98371401D01*
X107208425Y-98185842D01*
X107263002Y-98142217D01*
X107332500Y-98135023D01*
X107394855Y-98166546D01*
X107411575Y-98185842D01*
X107541500Y-98371395D01*
X107541505Y-98371401D01*
X107708599Y-98538495D01*
X107796296Y-98599901D01*
X107902165Y-98674032D01*
X107902167Y-98674033D01*
X107902170Y-98674035D01*
X108116337Y-98773903D01*
X108116343Y-98773904D01*
X108116344Y-98773905D01*
X108171285Y-98788626D01*
X108344592Y-98835063D01*
X108521034Y-98850500D01*
X108579999Y-98855659D01*
X108580000Y-98855659D01*
X108580001Y-98855659D01*
X108638966Y-98850500D01*
X108815408Y-98835063D01*
X109043663Y-98773903D01*
X109257830Y-98674035D01*
X109451401Y-98538495D01*
X109618495Y-98371401D01*
X109754035Y-98177830D01*
X109853903Y-97963663D01*
X109915063Y-97735408D01*
X109935659Y-97500000D01*
X109915063Y-97264592D01*
X109853903Y-97036337D01*
X109754035Y-96822171D01*
X109748425Y-96814158D01*
X109618494Y-96628597D01*
X109451402Y-96461506D01*
X109451395Y-96461501D01*
X109449251Y-96460000D01*
X109374518Y-96407671D01*
X109257834Y-96325967D01*
X109257830Y-96325965D01*
X109257828Y-96325964D01*
X109043663Y-96226097D01*
X109043659Y-96226096D01*
X109043655Y-96226094D01*
X108815413Y-96164938D01*
X108815403Y-96164936D01*
X108580001Y-96144341D01*
X108579999Y-96144341D01*
X108344596Y-96164936D01*
X108344586Y-96164938D01*
X108116344Y-96226094D01*
X108116335Y-96226098D01*
X107902171Y-96325964D01*
X107902169Y-96325965D01*
X107708597Y-96461505D01*
X107541505Y-96628597D01*
X107411575Y-96814158D01*
X107356998Y-96857783D01*
X107287500Y-96864977D01*
X107225145Y-96833454D01*
X107208425Y-96814158D01*
X107078494Y-96628597D01*
X106911402Y-96461506D01*
X106911395Y-96461501D01*
X106909251Y-96460000D01*
X106834518Y-96407671D01*
X106717834Y-96325967D01*
X106717830Y-96325965D01*
X106717828Y-96325964D01*
X106503663Y-96226097D01*
X106503659Y-96226096D01*
X106503655Y-96226094D01*
X106275413Y-96164938D01*
X106275403Y-96164936D01*
X106040001Y-96144341D01*
X106039999Y-96144341D01*
X105804596Y-96164936D01*
X105804586Y-96164938D01*
X105576344Y-96226094D01*
X105576335Y-96226098D01*
X105362171Y-96325964D01*
X105362169Y-96325965D01*
X105168600Y-96461503D01*
X105046673Y-96583430D01*
X104985350Y-96616914D01*
X104915658Y-96611930D01*
X104859725Y-96570058D01*
X104842810Y-96539081D01*
X104793797Y-96407671D01*
X104793793Y-96407664D01*
X104707547Y-96292455D01*
X104707544Y-96292452D01*
X104592335Y-96206206D01*
X104592328Y-96206202D01*
X104457482Y-96155908D01*
X104457483Y-96155908D01*
X104397883Y-96149501D01*
X104397881Y-96149500D01*
X104397873Y-96149500D01*
X104397864Y-96149500D01*
X102602129Y-96149500D01*
X102602123Y-96149501D01*
X102542516Y-96155908D01*
X102407671Y-96206202D01*
X102407664Y-96206206D01*
X102292455Y-96292452D01*
X102292452Y-96292455D01*
X102206206Y-96407664D01*
X102206202Y-96407671D01*
X102155908Y-96542517D01*
X102149501Y-96602116D01*
X102149500Y-96602135D01*
X62250500Y-96602135D01*
X62250500Y-93749994D01*
X81744357Y-93749994D01*
X81744357Y-93750005D01*
X81764890Y-93997812D01*
X81764892Y-93997824D01*
X81825936Y-94238881D01*
X81925826Y-94466606D01*
X82061833Y-94674782D01*
X82094245Y-94709991D01*
X82230256Y-94857738D01*
X82426491Y-95010474D01*
X82506543Y-95053796D01*
X82630403Y-95120826D01*
X82645190Y-95128828D01*
X82880386Y-95209571D01*
X83125665Y-95250500D01*
X83374335Y-95250500D01*
X83619614Y-95209571D01*
X83854810Y-95128828D01*
X84073509Y-95010474D01*
X84269744Y-94857738D01*
X84438164Y-94674785D01*
X84574173Y-94466607D01*
X84674063Y-94238881D01*
X84735108Y-93997821D01*
X84735109Y-93997812D01*
X84755643Y-93750005D01*
X84755643Y-93749994D01*
X88244357Y-93749994D01*
X88244357Y-93750005D01*
X88264890Y-93997812D01*
X88264892Y-93997824D01*
X88325936Y-94238881D01*
X88425826Y-94466606D01*
X88561833Y-94674782D01*
X88594245Y-94709991D01*
X88730256Y-94857738D01*
X88926491Y-95010474D01*
X89006543Y-95053796D01*
X89130403Y-95120826D01*
X89145190Y-95128828D01*
X89380386Y-95209571D01*
X89625665Y-95250500D01*
X89874335Y-95250500D01*
X90119614Y-95209571D01*
X90354810Y-95128828D01*
X90573509Y-95010474D01*
X90769744Y-94857738D01*
X90938164Y-94674785D01*
X91074173Y-94466607D01*
X91174063Y-94238881D01*
X91235108Y-93997821D01*
X91235109Y-93997812D01*
X91255643Y-93750005D01*
X91255643Y-93749994D01*
X91235109Y-93502187D01*
X91235107Y-93502175D01*
X91174063Y-93261118D01*
X91074173Y-93033393D01*
X90938166Y-92825217D01*
X90896630Y-92780097D01*
X90769744Y-92642262D01*
X90573509Y-92489526D01*
X90573507Y-92489525D01*
X90573506Y-92489524D01*
X90354811Y-92371172D01*
X90354802Y-92371169D01*
X90119616Y-92290429D01*
X89874335Y-92249500D01*
X89625665Y-92249500D01*
X89380383Y-92290429D01*
X89145197Y-92371169D01*
X89145188Y-92371172D01*
X88926493Y-92489524D01*
X88730257Y-92642261D01*
X88561833Y-92825217D01*
X88425826Y-93033393D01*
X88325936Y-93261118D01*
X88264892Y-93502175D01*
X88264890Y-93502187D01*
X88244357Y-93749994D01*
X84755643Y-93749994D01*
X84735109Y-93502187D01*
X84735107Y-93502175D01*
X84674063Y-93261118D01*
X84574173Y-93033393D01*
X84438166Y-92825217D01*
X84396630Y-92780097D01*
X84269744Y-92642262D01*
X84073509Y-92489526D01*
X84073507Y-92489525D01*
X84073506Y-92489524D01*
X83854811Y-92371172D01*
X83854802Y-92371169D01*
X83619616Y-92290429D01*
X83374335Y-92249500D01*
X83125665Y-92249500D01*
X82880383Y-92290429D01*
X82645197Y-92371169D01*
X82645188Y-92371172D01*
X82426493Y-92489524D01*
X82230257Y-92642261D01*
X82061833Y-92825217D01*
X81925826Y-93033393D01*
X81825936Y-93261118D01*
X81764892Y-93502175D01*
X81764890Y-93502187D01*
X81744357Y-93749994D01*
X62250500Y-93749994D01*
X62250500Y-89249994D01*
X81744859Y-89249994D01*
X81744859Y-89250005D01*
X81765385Y-89497729D01*
X81765387Y-89497738D01*
X81826412Y-89738717D01*
X81926266Y-89966364D01*
X82026564Y-90119882D01*
X82726212Y-89420234D01*
X82737482Y-89462292D01*
X82809890Y-89587708D01*
X82912292Y-89690110D01*
X83037708Y-89762518D01*
X83079765Y-89773787D01*
X82379942Y-90473609D01*
X82426768Y-90510055D01*
X82426770Y-90510056D01*
X82645385Y-90628364D01*
X82645396Y-90628369D01*
X82880506Y-90709083D01*
X83125707Y-90750000D01*
X83374293Y-90750000D01*
X83619493Y-90709083D01*
X83854603Y-90628369D01*
X83854614Y-90628364D01*
X84073228Y-90510057D01*
X84073231Y-90510055D01*
X84120056Y-90473609D01*
X83420234Y-89773787D01*
X83462292Y-89762518D01*
X83587708Y-89690110D01*
X83690110Y-89587708D01*
X83762518Y-89462292D01*
X83773787Y-89420235D01*
X84473434Y-90119882D01*
X84573731Y-89966369D01*
X84673587Y-89738717D01*
X84734612Y-89497738D01*
X84734614Y-89497729D01*
X84755141Y-89250005D01*
X84755141Y-89249994D01*
X88244859Y-89249994D01*
X88244859Y-89250005D01*
X88265385Y-89497729D01*
X88265387Y-89497738D01*
X88326412Y-89738717D01*
X88426266Y-89966364D01*
X88526564Y-90119882D01*
X89226212Y-89420234D01*
X89237482Y-89462292D01*
X89309890Y-89587708D01*
X89412292Y-89690110D01*
X89537708Y-89762518D01*
X89579765Y-89773787D01*
X88879942Y-90473609D01*
X88926768Y-90510055D01*
X88926770Y-90510056D01*
X89145385Y-90628364D01*
X89145396Y-90628369D01*
X89380506Y-90709083D01*
X89625707Y-90750000D01*
X89874293Y-90750000D01*
X90119493Y-90709083D01*
X90354603Y-90628369D01*
X90354614Y-90628364D01*
X90573228Y-90510057D01*
X90573231Y-90510055D01*
X90620056Y-90473609D01*
X89920234Y-89773787D01*
X89962292Y-89762518D01*
X90087708Y-89690110D01*
X90190110Y-89587708D01*
X90262518Y-89462292D01*
X90273787Y-89420235D01*
X90973434Y-90119882D01*
X91073731Y-89966369D01*
X91173587Y-89738717D01*
X91208175Y-89602135D01*
X95649500Y-89602135D01*
X95649500Y-91397870D01*
X95649501Y-91397876D01*
X95655908Y-91457483D01*
X95706202Y-91592328D01*
X95706206Y-91592335D01*
X95792452Y-91707544D01*
X95792455Y-91707547D01*
X95907664Y-91793793D01*
X95907671Y-91793797D01*
X95907674Y-91793798D01*
X96039598Y-91843002D01*
X96095531Y-91884873D01*
X96119949Y-91950337D01*
X96105098Y-92018610D01*
X96083947Y-92046865D01*
X95961886Y-92168926D01*
X95826400Y-92362420D01*
X95826399Y-92362422D01*
X95726570Y-92576507D01*
X95726567Y-92576513D01*
X95669364Y-92789999D01*
X95669364Y-92790000D01*
X96566988Y-92790000D01*
X96534075Y-92847007D01*
X96500000Y-92974174D01*
X96500000Y-93105826D01*
X96534075Y-93232993D01*
X96566988Y-93290000D01*
X95669364Y-93290000D01*
X95726567Y-93503486D01*
X95726570Y-93503492D01*
X95826399Y-93717578D01*
X95961894Y-93911082D01*
X96128917Y-94078105D01*
X96322421Y-94213600D01*
X96536507Y-94313429D01*
X96536516Y-94313433D01*
X96750000Y-94370634D01*
X96750000Y-93473012D01*
X96807007Y-93505925D01*
X96934174Y-93540000D01*
X97065826Y-93540000D01*
X97192993Y-93505925D01*
X97250000Y-93473012D01*
X97250000Y-94370633D01*
X97463483Y-94313433D01*
X97463492Y-94313429D01*
X97677578Y-94213600D01*
X97871082Y-94078105D01*
X98038105Y-93911082D01*
X98173600Y-93717578D01*
X98273429Y-93503492D01*
X98273432Y-93503486D01*
X98330636Y-93290000D01*
X97433012Y-93290000D01*
X97465925Y-93232993D01*
X97500000Y-93105826D01*
X97500000Y-92974174D01*
X97465925Y-92847007D01*
X97433012Y-92790000D01*
X98330636Y-92790000D01*
X98330635Y-92789999D01*
X98273432Y-92576513D01*
X98273429Y-92576507D01*
X98173600Y-92362422D01*
X98173599Y-92362420D01*
X98038113Y-92168926D01*
X98038108Y-92168920D01*
X97916053Y-92046865D01*
X97882568Y-91985542D01*
X97887552Y-91915850D01*
X97929424Y-91859917D01*
X97960400Y-91843002D01*
X98092331Y-91793796D01*
X98207546Y-91707546D01*
X98293796Y-91592331D01*
X98344091Y-91457483D01*
X98350500Y-91397873D01*
X98350499Y-89602128D01*
X98344091Y-89542517D01*
X98327386Y-89497729D01*
X98293797Y-89407671D01*
X98293793Y-89407664D01*
X98207547Y-89292455D01*
X98207544Y-89292452D01*
X98092335Y-89206206D01*
X98092328Y-89206202D01*
X97957482Y-89155908D01*
X97957483Y-89155908D01*
X97897883Y-89149501D01*
X97897881Y-89149500D01*
X97897873Y-89149500D01*
X97897864Y-89149500D01*
X96102129Y-89149500D01*
X96102123Y-89149501D01*
X96042516Y-89155908D01*
X95907671Y-89206202D01*
X95907664Y-89206206D01*
X95792455Y-89292452D01*
X95792452Y-89292455D01*
X95706206Y-89407664D01*
X95706202Y-89407671D01*
X95655908Y-89542517D01*
X95651050Y-89587708D01*
X95649501Y-89602123D01*
X95649500Y-89602135D01*
X91208175Y-89602135D01*
X91234612Y-89497738D01*
X91234614Y-89497729D01*
X91255141Y-89250005D01*
X91255141Y-89249994D01*
X91234614Y-89002270D01*
X91234612Y-89002261D01*
X91173587Y-88761282D01*
X91073731Y-88533630D01*
X90973434Y-88380116D01*
X90273787Y-89079764D01*
X90262518Y-89037708D01*
X90190110Y-88912292D01*
X90087708Y-88809890D01*
X89962292Y-88737482D01*
X89920235Y-88726212D01*
X90620057Y-88026390D01*
X90620056Y-88026389D01*
X90573229Y-87989943D01*
X90354614Y-87871635D01*
X90354603Y-87871630D01*
X90119493Y-87790916D01*
X89874293Y-87750000D01*
X89625707Y-87750000D01*
X89380506Y-87790916D01*
X89145396Y-87871630D01*
X89145390Y-87871632D01*
X88926761Y-87989949D01*
X88879942Y-88026388D01*
X88879942Y-88026390D01*
X89579765Y-88726212D01*
X89537708Y-88737482D01*
X89412292Y-88809890D01*
X89309890Y-88912292D01*
X89237482Y-89037708D01*
X89226212Y-89079764D01*
X88526564Y-88380116D01*
X88426267Y-88533632D01*
X88326412Y-88761282D01*
X88265387Y-89002261D01*
X88265385Y-89002270D01*
X88244859Y-89249994D01*
X84755141Y-89249994D01*
X84734614Y-89002270D01*
X84734612Y-89002261D01*
X84673587Y-88761282D01*
X84573731Y-88533630D01*
X84473434Y-88380116D01*
X83773787Y-89079764D01*
X83762518Y-89037708D01*
X83690110Y-88912292D01*
X83587708Y-88809890D01*
X83462292Y-88737482D01*
X83420235Y-88726212D01*
X84120057Y-88026390D01*
X84120056Y-88026389D01*
X84073229Y-87989943D01*
X83854614Y-87871635D01*
X83854603Y-87871630D01*
X83619493Y-87790916D01*
X83374293Y-87750000D01*
X83125707Y-87750000D01*
X82880506Y-87790916D01*
X82645396Y-87871630D01*
X82645390Y-87871632D01*
X82426761Y-87989949D01*
X82379942Y-88026388D01*
X82379942Y-88026390D01*
X83079765Y-88726212D01*
X83037708Y-88737482D01*
X82912292Y-88809890D01*
X82809890Y-88912292D01*
X82737482Y-89037708D01*
X82726212Y-89079764D01*
X82026564Y-88380116D01*
X81926267Y-88533632D01*
X81826412Y-88761282D01*
X81765387Y-89002261D01*
X81765385Y-89002270D01*
X81744859Y-89249994D01*
X62250500Y-89249994D01*
X62250500Y-86119995D01*
X74294732Y-86119995D01*
X74294732Y-86120004D01*
X74313777Y-86374154D01*
X74366677Y-86605925D01*
X74370492Y-86622637D01*
X74463607Y-86859888D01*
X74591041Y-87080612D01*
X74749950Y-87279877D01*
X74936783Y-87453232D01*
X75147366Y-87596805D01*
X75147371Y-87596807D01*
X75147372Y-87596808D01*
X75147373Y-87596809D01*
X75269328Y-87655538D01*
X75376992Y-87707387D01*
X75376993Y-87707387D01*
X75376996Y-87707389D01*
X75620542Y-87782513D01*
X75872565Y-87820500D01*
X76127435Y-87820500D01*
X76379458Y-87782513D01*
X76623004Y-87707389D01*
X76852634Y-87596805D01*
X77063217Y-87453232D01*
X77250050Y-87279877D01*
X77408959Y-87080612D01*
X77536393Y-86859888D01*
X77629508Y-86622637D01*
X77686222Y-86374157D01*
X77705268Y-86120000D01*
X77699103Y-86037738D01*
X77686222Y-85865845D01*
X77660838Y-85754632D01*
X77629508Y-85617363D01*
X77536393Y-85380112D01*
X77408959Y-85159388D01*
X77250050Y-84960123D01*
X77063217Y-84786768D01*
X76852634Y-84643195D01*
X76852630Y-84643193D01*
X76852627Y-84643191D01*
X76852626Y-84643190D01*
X76623006Y-84532612D01*
X76623008Y-84532612D01*
X76379466Y-84457489D01*
X76379462Y-84457488D01*
X76379458Y-84457487D01*
X76258231Y-84439214D01*
X76127440Y-84419500D01*
X76127435Y-84419500D01*
X75872565Y-84419500D01*
X75872559Y-84419500D01*
X75730866Y-84440858D01*
X75620542Y-84457487D01*
X75620539Y-84457488D01*
X75620533Y-84457489D01*
X75376992Y-84532612D01*
X75147373Y-84643190D01*
X75147372Y-84643191D01*
X74936782Y-84786768D01*
X74749952Y-84960121D01*
X74749950Y-84960123D01*
X74591041Y-85159388D01*
X74463608Y-85380109D01*
X74370492Y-85617362D01*
X74370490Y-85617369D01*
X74313777Y-85865845D01*
X74294732Y-86119995D01*
X62250500Y-86119995D01*
X62250500Y-81999994D01*
X66494357Y-81999994D01*
X66494357Y-82000005D01*
X66514890Y-82247812D01*
X66514892Y-82247824D01*
X66575936Y-82488881D01*
X66675826Y-82716606D01*
X66811833Y-82924782D01*
X66811836Y-82924785D01*
X66980256Y-83107738D01*
X67176491Y-83260474D01*
X67395190Y-83378828D01*
X67630386Y-83459571D01*
X67875665Y-83500500D01*
X68124335Y-83500500D01*
X68369614Y-83459571D01*
X68604810Y-83378828D01*
X68823509Y-83260474D01*
X69019744Y-83107738D01*
X69188164Y-82924785D01*
X69324173Y-82716607D01*
X69424063Y-82488881D01*
X69485108Y-82247821D01*
X69487043Y-82224470D01*
X69495700Y-82119995D01*
X79794732Y-82119995D01*
X79794732Y-82120004D01*
X79813777Y-82374154D01*
X79861985Y-82585369D01*
X79870492Y-82622637D01*
X79963607Y-82859888D01*
X80091041Y-83080612D01*
X80249950Y-83279877D01*
X80436783Y-83453232D01*
X80647366Y-83596805D01*
X80647371Y-83596807D01*
X80647372Y-83596808D01*
X80647373Y-83596809D01*
X80769328Y-83655538D01*
X80876992Y-83707387D01*
X80876993Y-83707387D01*
X80876996Y-83707389D01*
X81120542Y-83782513D01*
X81372565Y-83820500D01*
X81627435Y-83820500D01*
X81879458Y-83782513D01*
X82123004Y-83707389D01*
X82352634Y-83596805D01*
X82563217Y-83453232D01*
X82750050Y-83279877D01*
X82908959Y-83080612D01*
X83036393Y-82859888D01*
X83129508Y-82622637D01*
X83186222Y-82374157D01*
X83194384Y-82265232D01*
X83205268Y-82120004D01*
X83205268Y-82119995D01*
X83186222Y-81865845D01*
X83171193Y-81800000D01*
X83129508Y-81617363D01*
X83036393Y-81380112D01*
X82908959Y-81159388D01*
X82750050Y-80960123D01*
X82563217Y-80786768D01*
X82352634Y-80643195D01*
X82352630Y-80643193D01*
X82352627Y-80643191D01*
X82352626Y-80643190D01*
X82123006Y-80532612D01*
X82123008Y-80532612D01*
X81879466Y-80457489D01*
X81879462Y-80457488D01*
X81879458Y-80457487D01*
X81758231Y-80439214D01*
X81627440Y-80419500D01*
X81627435Y-80419500D01*
X81372565Y-80419500D01*
X81372559Y-80419500D01*
X81215609Y-80443157D01*
X81120542Y-80457487D01*
X81120539Y-80457488D01*
X81120533Y-80457489D01*
X80876992Y-80532612D01*
X80647373Y-80643190D01*
X80647372Y-80643191D01*
X80436782Y-80786768D01*
X80249952Y-80960121D01*
X80249950Y-80960123D01*
X80091041Y-81159388D01*
X79963608Y-81380109D01*
X79870492Y-81617362D01*
X79870490Y-81617369D01*
X79813777Y-81865845D01*
X79794732Y-82119995D01*
X69495700Y-82119995D01*
X69505643Y-82000005D01*
X69505643Y-81999994D01*
X69485109Y-81752187D01*
X69485107Y-81752175D01*
X69424063Y-81511118D01*
X69324173Y-81283393D01*
X69188166Y-81075217D01*
X69117759Y-80998735D01*
X69019744Y-80892262D01*
X68823509Y-80739526D01*
X68823507Y-80739525D01*
X68823506Y-80739524D01*
X68604811Y-80621172D01*
X68604802Y-80621169D01*
X68369616Y-80540429D01*
X68124335Y-80499500D01*
X67875665Y-80499500D01*
X67630383Y-80540429D01*
X67395197Y-80621169D01*
X67395188Y-80621172D01*
X67176493Y-80739524D01*
X66980257Y-80892261D01*
X66811833Y-81075217D01*
X66675826Y-81283393D01*
X66575936Y-81511118D01*
X66514892Y-81752175D01*
X66514890Y-81752187D01*
X66494357Y-81999994D01*
X62250500Y-81999994D01*
X62250500Y-76999994D01*
X66494859Y-76999994D01*
X66494859Y-77000005D01*
X66515385Y-77247729D01*
X66515387Y-77247738D01*
X66576412Y-77488717D01*
X66676266Y-77716364D01*
X66776564Y-77869882D01*
X67517037Y-77129409D01*
X67534075Y-77192993D01*
X67599901Y-77307007D01*
X67692993Y-77400099D01*
X67807007Y-77465925D01*
X67870590Y-77482962D01*
X67129942Y-78223609D01*
X67176768Y-78260055D01*
X67176770Y-78260056D01*
X67395385Y-78378364D01*
X67395396Y-78378369D01*
X67630506Y-78459083D01*
X67875707Y-78500000D01*
X68124293Y-78500000D01*
X68369493Y-78459083D01*
X68604603Y-78378369D01*
X68604614Y-78378364D01*
X68823228Y-78260057D01*
X68823231Y-78260055D01*
X68870056Y-78223609D01*
X68129409Y-77482962D01*
X68192993Y-77465925D01*
X68307007Y-77400099D01*
X68400099Y-77307007D01*
X68465925Y-77192993D01*
X68482962Y-77129409D01*
X69223434Y-77869882D01*
X69323731Y-77716369D01*
X69423587Y-77488717D01*
X69484612Y-77247738D01*
X69484614Y-77247729D01*
X69505141Y-77000005D01*
X69505141Y-76999994D01*
X69484614Y-76752270D01*
X69484612Y-76752261D01*
X69423587Y-76511282D01*
X69323731Y-76283630D01*
X69223434Y-76130116D01*
X68482962Y-76870589D01*
X68465925Y-76807007D01*
X68400099Y-76692993D01*
X68307007Y-76599901D01*
X68192993Y-76534075D01*
X68129410Y-76517037D01*
X68870057Y-75776390D01*
X68870056Y-75776389D01*
X68823229Y-75739943D01*
X68604614Y-75621635D01*
X68604603Y-75621630D01*
X68369493Y-75540916D01*
X68124293Y-75500000D01*
X67875707Y-75500000D01*
X67630506Y-75540916D01*
X67395396Y-75621630D01*
X67395390Y-75621632D01*
X67176761Y-75739949D01*
X67129942Y-75776388D01*
X67129942Y-75776390D01*
X67870590Y-76517037D01*
X67807007Y-76534075D01*
X67692993Y-76599901D01*
X67599901Y-76692993D01*
X67534075Y-76807007D01*
X67517037Y-76870589D01*
X66776564Y-76130116D01*
X66676267Y-76283632D01*
X66576412Y-76511282D01*
X66515387Y-76752261D01*
X66515385Y-76752270D01*
X66494859Y-76999994D01*
X62250500Y-76999994D01*
X62250500Y-71999994D01*
X66494859Y-71999994D01*
X66494859Y-72000005D01*
X66515385Y-72247729D01*
X66515387Y-72247738D01*
X66576412Y-72488717D01*
X66676266Y-72716364D01*
X66776564Y-72869882D01*
X67517037Y-72129409D01*
X67534075Y-72192993D01*
X67599901Y-72307007D01*
X67692993Y-72400099D01*
X67807007Y-72465925D01*
X67870590Y-72482962D01*
X67129942Y-73223609D01*
X67176768Y-73260055D01*
X67176770Y-73260056D01*
X67395385Y-73378364D01*
X67395396Y-73378369D01*
X67630506Y-73459083D01*
X67875707Y-73500000D01*
X68124293Y-73500000D01*
X68369493Y-73459083D01*
X68604603Y-73378369D01*
X68604614Y-73378364D01*
X68823228Y-73260057D01*
X68823231Y-73260055D01*
X68870056Y-73223609D01*
X68129409Y-72482962D01*
X68192993Y-72465925D01*
X68307007Y-72400099D01*
X68400099Y-72307007D01*
X68465925Y-72192993D01*
X68482962Y-72129409D01*
X69223434Y-72869882D01*
X69323731Y-72716369D01*
X69423587Y-72488717D01*
X69484612Y-72247738D01*
X69484614Y-72247729D01*
X69505141Y-72000005D01*
X69505141Y-71999994D01*
X69484614Y-71752270D01*
X69484612Y-71752261D01*
X69423587Y-71511282D01*
X69323731Y-71283630D01*
X69223434Y-71130116D01*
X68482962Y-71870589D01*
X68465925Y-71807007D01*
X68400099Y-71692993D01*
X68307007Y-71599901D01*
X68192993Y-71534075D01*
X68129410Y-71517037D01*
X68766452Y-70879995D01*
X74294732Y-70879995D01*
X74294732Y-70880004D01*
X74313777Y-71134154D01*
X74347894Y-71283632D01*
X74370492Y-71382637D01*
X74463607Y-71619888D01*
X74591041Y-71840612D01*
X74749950Y-72039877D01*
X74936783Y-72213232D01*
X75147366Y-72356805D01*
X75147371Y-72356807D01*
X75147372Y-72356808D01*
X75147373Y-72356809D01*
X75237061Y-72400000D01*
X75376992Y-72467387D01*
X75376993Y-72467387D01*
X75376996Y-72467389D01*
X75620542Y-72542513D01*
X75872565Y-72580500D01*
X76127435Y-72580500D01*
X76379458Y-72542513D01*
X76623004Y-72467389D01*
X76833696Y-72365925D01*
X76852626Y-72356809D01*
X76852626Y-72356808D01*
X76852634Y-72356805D01*
X77063217Y-72213232D01*
X77250050Y-72039877D01*
X77408959Y-71840612D01*
X77536393Y-71619888D01*
X77629508Y-71382637D01*
X77686222Y-71134157D01*
X77694384Y-71025232D01*
X77705268Y-70880004D01*
X77705268Y-70879995D01*
X77686222Y-70625845D01*
X77685261Y-70621635D01*
X77629508Y-70377363D01*
X77536393Y-70140112D01*
X77408959Y-69919388D01*
X77250050Y-69720123D01*
X77063217Y-69546768D01*
X76852634Y-69403195D01*
X76852630Y-69403193D01*
X76852627Y-69403191D01*
X76852626Y-69403190D01*
X76623006Y-69292612D01*
X76623008Y-69292612D01*
X76379466Y-69217489D01*
X76379462Y-69217488D01*
X76379458Y-69217487D01*
X76258231Y-69199214D01*
X76127440Y-69179500D01*
X76127435Y-69179500D01*
X75872565Y-69179500D01*
X75872559Y-69179500D01*
X75715609Y-69203157D01*
X75620542Y-69217487D01*
X75620539Y-69217488D01*
X75620533Y-69217489D01*
X75376992Y-69292612D01*
X75147373Y-69403190D01*
X75147372Y-69403191D01*
X74936782Y-69546768D01*
X74749952Y-69720121D01*
X74749950Y-69720123D01*
X74591041Y-69919388D01*
X74463608Y-70140109D01*
X74370492Y-70377362D01*
X74370490Y-70377369D01*
X74313777Y-70625845D01*
X74294732Y-70879995D01*
X68766452Y-70879995D01*
X68870057Y-70776390D01*
X68870056Y-70776389D01*
X68823229Y-70739943D01*
X68604614Y-70621635D01*
X68604603Y-70621630D01*
X68369493Y-70540916D01*
X68124293Y-70500000D01*
X67875707Y-70500000D01*
X67630506Y-70540916D01*
X67395396Y-70621630D01*
X67395390Y-70621632D01*
X67176761Y-70739949D01*
X67129942Y-70776388D01*
X67129942Y-70776390D01*
X67870590Y-71517037D01*
X67807007Y-71534075D01*
X67692993Y-71599901D01*
X67599901Y-71692993D01*
X67534075Y-71807007D01*
X67517037Y-71870589D01*
X66776564Y-71130116D01*
X66676267Y-71283632D01*
X66576412Y-71511282D01*
X66515387Y-71752261D01*
X66515385Y-71752270D01*
X66494859Y-71999994D01*
X62250500Y-71999994D01*
X62250500Y-66999994D01*
X66494357Y-66999994D01*
X66494357Y-67000005D01*
X66514890Y-67247812D01*
X66514892Y-67247824D01*
X66575936Y-67488881D01*
X66675826Y-67716606D01*
X66811833Y-67924782D01*
X66811836Y-67924785D01*
X66980256Y-68107738D01*
X67176491Y-68260474D01*
X67395190Y-68378828D01*
X67630386Y-68459571D01*
X67875665Y-68500500D01*
X68124335Y-68500500D01*
X68369614Y-68459571D01*
X68604810Y-68378828D01*
X68823509Y-68260474D01*
X69019744Y-68107738D01*
X69188164Y-67924785D01*
X69324173Y-67716607D01*
X69424063Y-67488881D01*
X69485108Y-67247821D01*
X69487491Y-67219060D01*
X69505643Y-67000005D01*
X69505643Y-66999994D01*
X69495700Y-66879995D01*
X79794732Y-66879995D01*
X79794732Y-66880004D01*
X79813777Y-67134154D01*
X79861311Y-67342416D01*
X79870492Y-67382637D01*
X79963607Y-67619888D01*
X80091041Y-67840612D01*
X80249950Y-68039877D01*
X80436783Y-68213232D01*
X80647366Y-68356805D01*
X80647371Y-68356807D01*
X80647372Y-68356808D01*
X80647373Y-68356809D01*
X80693101Y-68378830D01*
X80876992Y-68467387D01*
X80876993Y-68467387D01*
X80876996Y-68467389D01*
X81120542Y-68542513D01*
X81372565Y-68580500D01*
X81627435Y-68580500D01*
X81879458Y-68542513D01*
X82123004Y-68467389D01*
X82352634Y-68356805D01*
X82563217Y-68213232D01*
X82750050Y-68039877D01*
X82908959Y-67840612D01*
X83036393Y-67619888D01*
X83129508Y-67382637D01*
X83186222Y-67134157D01*
X83196275Y-67000005D01*
X83205268Y-66880004D01*
X83205268Y-66879995D01*
X83186222Y-66625845D01*
X83176807Y-66584596D01*
X83129508Y-66377363D01*
X83036393Y-66140112D01*
X82908959Y-65919388D01*
X82750050Y-65720123D01*
X82563217Y-65546768D01*
X82352634Y-65403195D01*
X82352630Y-65403193D01*
X82352627Y-65403191D01*
X82352626Y-65403190D01*
X82123006Y-65292612D01*
X82123008Y-65292612D01*
X81879466Y-65217489D01*
X81879462Y-65217488D01*
X81879458Y-65217487D01*
X81758231Y-65199214D01*
X81627440Y-65179500D01*
X81627435Y-65179500D01*
X81372565Y-65179500D01*
X81372559Y-65179500D01*
X81215609Y-65203157D01*
X81120542Y-65217487D01*
X81120539Y-65217488D01*
X81120533Y-65217489D01*
X80876992Y-65292612D01*
X80647373Y-65403190D01*
X80647372Y-65403191D01*
X80436782Y-65546768D01*
X80249952Y-65720121D01*
X80249950Y-65720123D01*
X80091041Y-65919388D01*
X79963608Y-66140109D01*
X79870492Y-66377362D01*
X79870490Y-66377369D01*
X79813777Y-66625845D01*
X79794732Y-66879995D01*
X69495700Y-66879995D01*
X69485109Y-66752187D01*
X69485107Y-66752175D01*
X69424063Y-66511118D01*
X69324173Y-66283393D01*
X69188166Y-66075217D01*
X69153428Y-66037482D01*
X69019744Y-65892262D01*
X68823509Y-65739526D01*
X68823507Y-65739525D01*
X68823506Y-65739524D01*
X68604811Y-65621172D01*
X68604802Y-65621169D01*
X68369616Y-65540429D01*
X68124335Y-65499500D01*
X67875665Y-65499500D01*
X67630383Y-65540429D01*
X67395197Y-65621169D01*
X67395188Y-65621172D01*
X67176493Y-65739524D01*
X67091644Y-65805565D01*
X66980256Y-65892262D01*
X66975092Y-65897872D01*
X66811833Y-66075217D01*
X66675826Y-66283393D01*
X66575936Y-66511118D01*
X66514892Y-66752175D01*
X66514890Y-66752187D01*
X66494357Y-66999994D01*
X62250500Y-66999994D01*
X62250500Y-46599999D01*
X65964341Y-46599999D01*
X65964341Y-46600000D01*
X65984936Y-46835403D01*
X65984938Y-46835413D01*
X66046094Y-47063655D01*
X66046096Y-47063659D01*
X66046097Y-47063663D01*
X66117356Y-47216477D01*
X66145965Y-47277830D01*
X66145967Y-47277834D01*
X66281501Y-47471395D01*
X66281506Y-47471402D01*
X66448597Y-47638493D01*
X66448603Y-47638498D01*
X66634158Y-47768425D01*
X66677783Y-47823002D01*
X66684977Y-47892500D01*
X66653454Y-47954855D01*
X66634158Y-47971575D01*
X66448597Y-48101505D01*
X66281505Y-48268597D01*
X66145965Y-48462169D01*
X66145964Y-48462171D01*
X66061416Y-48643486D01*
X66047427Y-48673486D01*
X66046098Y-48676335D01*
X66046094Y-48676344D01*
X65984938Y-48904586D01*
X65984936Y-48904596D01*
X65964341Y-49139999D01*
X65964341Y-49140000D01*
X65984936Y-49375403D01*
X65984938Y-49375413D01*
X66046094Y-49603655D01*
X66046096Y-49603659D01*
X66046097Y-49603663D01*
X66069413Y-49653664D01*
X66145965Y-49817830D01*
X66145967Y-49817834D01*
X66203150Y-49899499D01*
X66266156Y-49989481D01*
X66281501Y-50011395D01*
X66281506Y-50011402D01*
X66448597Y-50178493D01*
X66448603Y-50178498D01*
X66634158Y-50308425D01*
X66677783Y-50363002D01*
X66684977Y-50432500D01*
X66653454Y-50494855D01*
X66634158Y-50511575D01*
X66448597Y-50641505D01*
X66281505Y-50808597D01*
X66145965Y-51002169D01*
X66145964Y-51002171D01*
X66046098Y-51216335D01*
X66046094Y-51216344D01*
X65984938Y-51444586D01*
X65984936Y-51444596D01*
X65964341Y-51679999D01*
X65964341Y-51680000D01*
X65984936Y-51915403D01*
X65984938Y-51915413D01*
X66046094Y-52143655D01*
X66046096Y-52143659D01*
X66046097Y-52143663D01*
X66099334Y-52257830D01*
X66145965Y-52357830D01*
X66145967Y-52357834D01*
X66281501Y-52551395D01*
X66281506Y-52551402D01*
X66448597Y-52718493D01*
X66448603Y-52718498D01*
X66634158Y-52848425D01*
X66677783Y-52903002D01*
X66684977Y-52972500D01*
X66653454Y-53034855D01*
X66634158Y-53051575D01*
X66448597Y-53181505D01*
X66281505Y-53348597D01*
X66145965Y-53542169D01*
X66145964Y-53542171D01*
X66046098Y-53756335D01*
X66046094Y-53756344D01*
X65984938Y-53984586D01*
X65984936Y-53984596D01*
X65964341Y-54219999D01*
X65964341Y-54220000D01*
X65984936Y-54455403D01*
X65984938Y-54455413D01*
X66046094Y-54683655D01*
X66046096Y-54683659D01*
X66046097Y-54683663D01*
X66129808Y-54863181D01*
X66145965Y-54897830D01*
X66145967Y-54897834D01*
X66281501Y-55091395D01*
X66281506Y-55091402D01*
X66448597Y-55258493D01*
X66448603Y-55258498D01*
X66634158Y-55388425D01*
X66677783Y-55443002D01*
X66684977Y-55512500D01*
X66653454Y-55574855D01*
X66634158Y-55591575D01*
X66448597Y-55721505D01*
X66281505Y-55888597D01*
X66145965Y-56082169D01*
X66145964Y-56082171D01*
X66046098Y-56296335D01*
X66046094Y-56296344D01*
X65984938Y-56524586D01*
X65984936Y-56524596D01*
X65964341Y-56759999D01*
X65964341Y-56760000D01*
X65984936Y-56995403D01*
X65984938Y-56995413D01*
X66046094Y-57223655D01*
X66046096Y-57223659D01*
X66046097Y-57223663D01*
X66110684Y-57362169D01*
X66145965Y-57437830D01*
X66145967Y-57437834D01*
X66281501Y-57631395D01*
X66281506Y-57631402D01*
X66448597Y-57798493D01*
X66448603Y-57798498D01*
X66634158Y-57928425D01*
X66677783Y-57983002D01*
X66684977Y-58052500D01*
X66653454Y-58114855D01*
X66634158Y-58131575D01*
X66448597Y-58261505D01*
X66281505Y-58428597D01*
X66145965Y-58622169D01*
X66145964Y-58622171D01*
X66046098Y-58836335D01*
X66046094Y-58836344D01*
X65984938Y-59064586D01*
X65984936Y-59064596D01*
X65964341Y-59299999D01*
X65964341Y-59300000D01*
X65984936Y-59535403D01*
X65984938Y-59535413D01*
X66046094Y-59763655D01*
X66046096Y-59763659D01*
X66046097Y-59763663D01*
X66086956Y-59851285D01*
X66145965Y-59977830D01*
X66145967Y-59977834D01*
X66153237Y-59988216D01*
X66260179Y-60140945D01*
X66281501Y-60171395D01*
X66281506Y-60171402D01*
X66448597Y-60338493D01*
X66448603Y-60338498D01*
X66634158Y-60468425D01*
X66677783Y-60523002D01*
X66684977Y-60592500D01*
X66653454Y-60654855D01*
X66634158Y-60671575D01*
X66448597Y-60801505D01*
X66281505Y-60968597D01*
X66145965Y-61162169D01*
X66145964Y-61162171D01*
X66046098Y-61376335D01*
X66046094Y-61376344D01*
X65984938Y-61604586D01*
X65984936Y-61604596D01*
X65964341Y-61839999D01*
X65964341Y-61840000D01*
X65984936Y-62075403D01*
X65984938Y-62075413D01*
X66046094Y-62303655D01*
X66046096Y-62303659D01*
X66046097Y-62303663D01*
X66069413Y-62353664D01*
X66145965Y-62517830D01*
X66145967Y-62517834D01*
X66180975Y-62567830D01*
X66281505Y-62711401D01*
X66448599Y-62878495D01*
X66520011Y-62928498D01*
X66642165Y-63014032D01*
X66642167Y-63014033D01*
X66642170Y-63014035D01*
X66856337Y-63113903D01*
X67084592Y-63175063D01*
X67272918Y-63191539D01*
X67319999Y-63195659D01*
X67320000Y-63195659D01*
X67320001Y-63195659D01*
X67359234Y-63192226D01*
X67555408Y-63175063D01*
X67783663Y-63113903D01*
X67997830Y-63014035D01*
X68191401Y-62878495D01*
X68358495Y-62711401D01*
X68494035Y-62517830D01*
X68593903Y-62303663D01*
X68655063Y-62075408D01*
X68675659Y-61840000D01*
X68655063Y-61604592D01*
X68593903Y-61376337D01*
X68494035Y-61162171D01*
X68424014Y-61062169D01*
X68358494Y-60968597D01*
X68191402Y-60801506D01*
X68191396Y-60801501D01*
X68005842Y-60671575D01*
X67962217Y-60616998D01*
X67955023Y-60547500D01*
X67986546Y-60485145D01*
X68005842Y-60468425D01*
X68057268Y-60432416D01*
X68191401Y-60338495D01*
X68358495Y-60171401D01*
X68494035Y-59977830D01*
X68593903Y-59763663D01*
X68655063Y-59535408D01*
X68675659Y-59300000D01*
X68655063Y-59064592D01*
X68593903Y-58836337D01*
X68494035Y-58622171D01*
X68476990Y-58597827D01*
X68358494Y-58428597D01*
X68191402Y-58261506D01*
X68191396Y-58261501D01*
X68005842Y-58131575D01*
X67962217Y-58076998D01*
X67955023Y-58007500D01*
X67986546Y-57945145D01*
X68005842Y-57928425D01*
X68068450Y-57884586D01*
X68191401Y-57798495D01*
X68358495Y-57631401D01*
X68494035Y-57437830D01*
X68496707Y-57432097D01*
X68542878Y-57379658D01*
X68609091Y-57360500D01*
X69425500Y-57360500D01*
X69492539Y-57380185D01*
X69538294Y-57432989D01*
X69549500Y-57484500D01*
X69549500Y-64269057D01*
X69578673Y-64377930D01*
X69590423Y-64421783D01*
X69590426Y-64421790D01*
X69669475Y-64558709D01*
X69669478Y-64558713D01*
X69669480Y-64558716D01*
X69781284Y-64670520D01*
X69781286Y-64670521D01*
X69781290Y-64670524D01*
X69907974Y-64743664D01*
X69918216Y-64749577D01*
X70070943Y-64790500D01*
X70229057Y-64790500D01*
X79193331Y-64790500D01*
X79193347Y-64790501D01*
X79200943Y-64790501D01*
X79359054Y-64790501D01*
X79359057Y-64790501D01*
X79511785Y-64749577D01*
X79583512Y-64708165D01*
X79648716Y-64670520D01*
X79760520Y-64558716D01*
X79760520Y-64558714D01*
X79770724Y-64548511D01*
X79770728Y-64548506D01*
X85098506Y-59220728D01*
X85098511Y-59220724D01*
X85108714Y-59210520D01*
X85108716Y-59210520D01*
X85187819Y-59131417D01*
X85249142Y-59097932D01*
X85318834Y-59102916D01*
X85374767Y-59144788D01*
X85399184Y-59210252D01*
X85399500Y-59219098D01*
X85399500Y-74370846D01*
X85380494Y-74436818D01*
X85334211Y-74510477D01*
X85334209Y-74510481D01*
X85274633Y-74680737D01*
X85274630Y-74680750D01*
X85254435Y-74859996D01*
X85254435Y-74860003D01*
X85274630Y-75039249D01*
X85274631Y-75039254D01*
X85334211Y-75209523D01*
X85430184Y-75362262D01*
X85557738Y-75489816D01*
X85710478Y-75585789D01*
X85812920Y-75621635D01*
X85880745Y-75645368D01*
X85880750Y-75645369D01*
X86059996Y-75665565D01*
X86060000Y-75665565D01*
X86060004Y-75665565D01*
X86239249Y-75645369D01*
X86239252Y-75645368D01*
X86239255Y-75645368D01*
X86409522Y-75585789D01*
X86562262Y-75489816D01*
X86689816Y-75362262D01*
X86785789Y-75209522D01*
X86845368Y-75039255D01*
X86860386Y-74905965D01*
X86865565Y-74860003D01*
X86865565Y-74859996D01*
X86845369Y-74680750D01*
X86845367Y-74680742D01*
X86785788Y-74510476D01*
X86689815Y-74357737D01*
X86636819Y-74304741D01*
X86603334Y-74243418D01*
X86600500Y-74217060D01*
X86600500Y-57877469D01*
X86620185Y-57810430D01*
X86672989Y-57764675D01*
X86742147Y-57754731D01*
X86805703Y-57783756D01*
X86841542Y-57836515D01*
X86876710Y-57937021D01*
X86935133Y-58030000D01*
X86972684Y-58089762D01*
X87100238Y-58217316D01*
X87252978Y-58313289D01*
X87423245Y-58372868D01*
X87543039Y-58386364D01*
X87591150Y-58402196D01*
X87673216Y-58449577D01*
X87825943Y-58490501D01*
X87825945Y-58490501D01*
X87991654Y-58490501D01*
X87991670Y-58490500D01*
X89646092Y-58490500D01*
X89713131Y-58510185D01*
X89758886Y-58562989D01*
X89768830Y-58632147D01*
X89758474Y-58666905D01*
X89726098Y-58736335D01*
X89726094Y-58736344D01*
X89664938Y-58964586D01*
X89664936Y-58964596D01*
X89644341Y-59199999D01*
X89644341Y-59200000D01*
X89664936Y-59435403D01*
X89664938Y-59435413D01*
X89726094Y-59663655D01*
X89726096Y-59663659D01*
X89726097Y-59663663D01*
X89796044Y-59813664D01*
X89825965Y-59877830D01*
X89825967Y-59877834D01*
X89961501Y-60071395D01*
X89961506Y-60071402D01*
X90128597Y-60238493D01*
X90128603Y-60238498D01*
X90314158Y-60368425D01*
X90357783Y-60423002D01*
X90364977Y-60492500D01*
X90333454Y-60554855D01*
X90314158Y-60571575D01*
X90128597Y-60701505D01*
X89961505Y-60868597D01*
X89825965Y-61062169D01*
X89825964Y-61062171D01*
X89726098Y-61276335D01*
X89726094Y-61276344D01*
X89664938Y-61504586D01*
X89664936Y-61504596D01*
X89644341Y-61739999D01*
X89644341Y-61740000D01*
X89664936Y-61975403D01*
X89664938Y-61975413D01*
X89726094Y-62203655D01*
X89726096Y-62203659D01*
X89726097Y-62203663D01*
X89796044Y-62353664D01*
X89825965Y-62417830D01*
X89825967Y-62417834D01*
X89961501Y-62611395D01*
X89961506Y-62611402D01*
X90128597Y-62778493D01*
X90128603Y-62778498D01*
X90314158Y-62908425D01*
X90357783Y-62963002D01*
X90364977Y-63032500D01*
X90333454Y-63094855D01*
X90314158Y-63111575D01*
X90128597Y-63241505D01*
X89961505Y-63408597D01*
X89825965Y-63602169D01*
X89825964Y-63602171D01*
X89726098Y-63816335D01*
X89726094Y-63816344D01*
X89664938Y-64044586D01*
X89664936Y-64044596D01*
X89644341Y-64279999D01*
X89644341Y-64280000D01*
X89664936Y-64515403D01*
X89664938Y-64515413D01*
X89726094Y-64743655D01*
X89726096Y-64743659D01*
X89726097Y-64743663D01*
X89782841Y-64865351D01*
X89825965Y-64957830D01*
X89825967Y-64957834D01*
X89961501Y-65151395D01*
X89961506Y-65151402D01*
X90128597Y-65318493D01*
X90128603Y-65318498D01*
X90314158Y-65448425D01*
X90357783Y-65503002D01*
X90364977Y-65572500D01*
X90333454Y-65634855D01*
X90314158Y-65651575D01*
X90128597Y-65781505D01*
X89961505Y-65948597D01*
X89825965Y-66142169D01*
X89825964Y-66142171D01*
X89726098Y-66356335D01*
X89726094Y-66356344D01*
X89664938Y-66584586D01*
X89664936Y-66584596D01*
X89644341Y-66819999D01*
X89644341Y-66820000D01*
X89664936Y-67055403D01*
X89664938Y-67055413D01*
X89726094Y-67283655D01*
X89726096Y-67283659D01*
X89726097Y-67283663D01*
X89810721Y-67465139D01*
X89825965Y-67497830D01*
X89825967Y-67497834D01*
X89961501Y-67691395D01*
X89961506Y-67691402D01*
X90128597Y-67858493D01*
X90128603Y-67858498D01*
X90314158Y-67988425D01*
X90357783Y-68043002D01*
X90364977Y-68112500D01*
X90333454Y-68174855D01*
X90314158Y-68191575D01*
X90128597Y-68321505D01*
X89961505Y-68488597D01*
X89825965Y-68682169D01*
X89825964Y-68682171D01*
X89726098Y-68896335D01*
X89726094Y-68896344D01*
X89664938Y-69124586D01*
X89664936Y-69124596D01*
X89644341Y-69359999D01*
X89644341Y-69360000D01*
X89664936Y-69595403D01*
X89664938Y-69595413D01*
X89726094Y-69823655D01*
X89726096Y-69823659D01*
X89726097Y-69823663D01*
X89825965Y-70037830D01*
X89825967Y-70037834D01*
X89961501Y-70231395D01*
X89961506Y-70231402D01*
X90128597Y-70398493D01*
X90128603Y-70398498D01*
X90314594Y-70528730D01*
X90358219Y-70583307D01*
X90365413Y-70652805D01*
X90333890Y-70715160D01*
X90314595Y-70731880D01*
X90128922Y-70861890D01*
X90128920Y-70861891D01*
X89961891Y-71028920D01*
X89961886Y-71028926D01*
X89826400Y-71222420D01*
X89826399Y-71222422D01*
X89726570Y-71436507D01*
X89726567Y-71436513D01*
X89669364Y-71649999D01*
X89669364Y-71650000D01*
X90566988Y-71650000D01*
X90534075Y-71707007D01*
X90500000Y-71834174D01*
X90500000Y-71965826D01*
X90534075Y-72092993D01*
X90566988Y-72150000D01*
X89669364Y-72150000D01*
X89726567Y-72363486D01*
X89726570Y-72363492D01*
X89826399Y-72577578D01*
X89961894Y-72771082D01*
X90128917Y-72938105D01*
X90314595Y-73068119D01*
X90358219Y-73122696D01*
X90365412Y-73192195D01*
X90333890Y-73254549D01*
X90314595Y-73271269D01*
X90128594Y-73401508D01*
X89961505Y-73568597D01*
X89825965Y-73762169D01*
X89825964Y-73762171D01*
X89726098Y-73976335D01*
X89726094Y-73976344D01*
X89664938Y-74204586D01*
X89664936Y-74204596D01*
X89644341Y-74439999D01*
X89644341Y-74440000D01*
X89664936Y-74675403D01*
X89664938Y-74675413D01*
X89726094Y-74903655D01*
X89726096Y-74903659D01*
X89726097Y-74903663D01*
X89797653Y-75057115D01*
X89825965Y-75117830D01*
X89825967Y-75117834D01*
X89889522Y-75208599D01*
X89961505Y-75311401D01*
X90128599Y-75478495D01*
X90217745Y-75540916D01*
X90322165Y-75614032D01*
X90322167Y-75614033D01*
X90322170Y-75614035D01*
X90536337Y-75713903D01*
X90764592Y-75775063D01*
X90952918Y-75791539D01*
X90999999Y-75795659D01*
X91000000Y-75795659D01*
X91000001Y-75795659D01*
X91039234Y-75792226D01*
X91235408Y-75775063D01*
X91463663Y-75713903D01*
X91677830Y-75614035D01*
X91871401Y-75478495D01*
X92038495Y-75311401D01*
X92174035Y-75117830D01*
X92176707Y-75112097D01*
X92222878Y-75059658D01*
X92289091Y-75040500D01*
X99201947Y-75040500D01*
X99263950Y-75057115D01*
X99268211Y-75059575D01*
X99268212Y-75059575D01*
X99268215Y-75059577D01*
X99420943Y-75100501D01*
X99420945Y-75100501D01*
X99429003Y-75101562D01*
X99428712Y-75103767D01*
X99484628Y-75120186D01*
X99494903Y-75127555D01*
X99497737Y-75129815D01*
X99497738Y-75129816D01*
X99650478Y-75225789D01*
X99820745Y-75285368D01*
X99820750Y-75285369D01*
X99999996Y-75305565D01*
X100000000Y-75305565D01*
X100000004Y-75305565D01*
X100179249Y-75285369D01*
X100179252Y-75285368D01*
X100179255Y-75285368D01*
X100349522Y-75225789D01*
X100502262Y-75129816D01*
X100629816Y-75002262D01*
X100725789Y-74849522D01*
X100785368Y-74679255D01*
X100785801Y-74675413D01*
X100805565Y-74500003D01*
X100805565Y-74499996D01*
X100785369Y-74320750D01*
X100785368Y-74320745D01*
X100725788Y-74150476D01*
X100686582Y-74088080D01*
X100629816Y-73997738D01*
X100502262Y-73870184D01*
X100453427Y-73839499D01*
X100349523Y-73774211D01*
X100179254Y-73714631D01*
X100179249Y-73714630D01*
X100000004Y-73694435D01*
X99999996Y-73694435D01*
X99820750Y-73714630D01*
X99820737Y-73714633D01*
X99650479Y-73774209D01*
X99576819Y-73820493D01*
X99510848Y-73839499D01*
X99353347Y-73839499D01*
X99353331Y-73839500D01*
X92289091Y-73839500D01*
X92222052Y-73819815D01*
X92176711Y-73767909D01*
X92174037Y-73762175D01*
X92174034Y-73762170D01*
X92174033Y-73762169D01*
X92038495Y-73568599D01*
X92038494Y-73568597D01*
X91871402Y-73401506D01*
X91871401Y-73401505D01*
X91685405Y-73271269D01*
X91641781Y-73216692D01*
X91634588Y-73147193D01*
X91666110Y-73084839D01*
X91685405Y-73068119D01*
X91871082Y-72938105D01*
X92038105Y-72771082D01*
X92173600Y-72577578D01*
X92273429Y-72363492D01*
X92273432Y-72363486D01*
X92330636Y-72150000D01*
X91433012Y-72150000D01*
X91465925Y-72092993D01*
X91500000Y-71965826D01*
X91500000Y-71834174D01*
X91465925Y-71707007D01*
X91433012Y-71650000D01*
X92330636Y-71650000D01*
X92330635Y-71649999D01*
X92273432Y-71436513D01*
X92273429Y-71436507D01*
X92173600Y-71222422D01*
X92173599Y-71222420D01*
X92038113Y-71028926D01*
X92038108Y-71028920D01*
X91871078Y-70861890D01*
X91685405Y-70731879D01*
X91641780Y-70677302D01*
X91634588Y-70607804D01*
X91666110Y-70545449D01*
X91685406Y-70528730D01*
X91726437Y-70500000D01*
X91871401Y-70398495D01*
X92038495Y-70231401D01*
X92174035Y-70037830D01*
X92273903Y-69823663D01*
X92335063Y-69595408D01*
X92355659Y-69360000D01*
X92335063Y-69124592D01*
X92273903Y-68896337D01*
X92174035Y-68682171D01*
X92126449Y-68614210D01*
X92038494Y-68488597D01*
X91871402Y-68321506D01*
X91871396Y-68321501D01*
X91685842Y-68191575D01*
X91642217Y-68136998D01*
X91635023Y-68067500D01*
X91666546Y-68005145D01*
X91685842Y-67988425D01*
X91776733Y-67924782D01*
X91871401Y-67858495D01*
X92038495Y-67691401D01*
X92174035Y-67497830D01*
X92273903Y-67283663D01*
X92335063Y-67055408D01*
X92355659Y-66820000D01*
X92335063Y-66584592D01*
X92281223Y-66383655D01*
X92273905Y-66356344D01*
X92273904Y-66356343D01*
X92273903Y-66356337D01*
X92174035Y-66142171D01*
X92172594Y-66140112D01*
X92038494Y-65948597D01*
X91871402Y-65781506D01*
X91871396Y-65781501D01*
X91685842Y-65651575D01*
X91642217Y-65596998D01*
X91635023Y-65527500D01*
X91666546Y-65465145D01*
X91685842Y-65448425D01*
X91827088Y-65349523D01*
X91871401Y-65318495D01*
X92038495Y-65151401D01*
X92174035Y-64957830D01*
X92273903Y-64743663D01*
X92335063Y-64515408D01*
X92355659Y-64280000D01*
X92355152Y-64274210D01*
X92348637Y-64199735D01*
X92335063Y-64044592D01*
X92279899Y-63838716D01*
X92273905Y-63816344D01*
X92273904Y-63816343D01*
X92273903Y-63816337D01*
X92174035Y-63602171D01*
X92163179Y-63586666D01*
X92038494Y-63408597D01*
X91871402Y-63241506D01*
X91871396Y-63241501D01*
X91685842Y-63111575D01*
X91642217Y-63056998D01*
X91635023Y-62987500D01*
X91666546Y-62925145D01*
X91685842Y-62908425D01*
X91728589Y-62878493D01*
X91871401Y-62778495D01*
X92038495Y-62611401D01*
X92174035Y-62417830D01*
X92273903Y-62203663D01*
X92335063Y-61975408D01*
X92355659Y-61740000D01*
X92335063Y-61504592D01*
X92273903Y-61276337D01*
X92174035Y-61062171D01*
X92143525Y-61018597D01*
X92038494Y-60868597D01*
X91871402Y-60701506D01*
X91871396Y-60701501D01*
X91685842Y-60571575D01*
X91642217Y-60516998D01*
X91635023Y-60447500D01*
X91666546Y-60385145D01*
X91685842Y-60368425D01*
X91784905Y-60299060D01*
X91871401Y-60238495D01*
X92038495Y-60071401D01*
X92174035Y-59877830D01*
X92273903Y-59663663D01*
X92335063Y-59435408D01*
X92355659Y-59200000D01*
X92335063Y-58964592D01*
X92273903Y-58736337D01*
X92241525Y-58666904D01*
X92231034Y-58597827D01*
X92259554Y-58534043D01*
X92318030Y-58495804D01*
X92353908Y-58490500D01*
X95151284Y-58490500D01*
X95218323Y-58510185D01*
X95264078Y-58562989D01*
X95274504Y-58600617D01*
X95294630Y-58779249D01*
X95294631Y-58779254D01*
X95354211Y-58949523D01*
X95426514Y-59064592D01*
X95450184Y-59102262D01*
X95577738Y-59229816D01*
X95730478Y-59325789D01*
X95900745Y-59385368D01*
X95987669Y-59395161D01*
X96052080Y-59422226D01*
X96061465Y-59430700D01*
X97063181Y-60432416D01*
X97096666Y-60493739D01*
X97099500Y-60520097D01*
X97099500Y-60706761D01*
X97080494Y-60772733D01*
X97044211Y-60830476D01*
X96984631Y-61000745D01*
X96984630Y-61000750D01*
X96964435Y-61179996D01*
X96964435Y-61180003D01*
X96984630Y-61359249D01*
X96984631Y-61359254D01*
X97044211Y-61529523D01*
X97122794Y-61654586D01*
X97140184Y-61682262D01*
X97267738Y-61809816D01*
X97420478Y-61905789D01*
X97557666Y-61953793D01*
X97590745Y-61965368D01*
X97590750Y-61965369D01*
X97769996Y-61985565D01*
X97770000Y-61985565D01*
X97770004Y-61985565D01*
X97949249Y-61965369D01*
X97949252Y-61965368D01*
X97949255Y-61965368D01*
X98119522Y-61905789D01*
X98272262Y-61809816D01*
X98399816Y-61682262D01*
X98495789Y-61529522D01*
X98555368Y-61359255D01*
X98564711Y-61276335D01*
X98575565Y-61180003D01*
X98575565Y-61179996D01*
X98555369Y-61000750D01*
X98555368Y-61000745D01*
X98503147Y-60851506D01*
X98495789Y-60830478D01*
X98399816Y-60677738D01*
X98336819Y-60614741D01*
X98303334Y-60553418D01*
X98300500Y-60527060D01*
X98300500Y-60309059D01*
X98300501Y-60309046D01*
X98300501Y-60140945D01*
X98300501Y-60140943D01*
X98259577Y-59988215D01*
X98230459Y-59937782D01*
X98180520Y-59851284D01*
X98068716Y-59739480D01*
X98068715Y-59739479D01*
X98064385Y-59735149D01*
X98064374Y-59735139D01*
X97031416Y-58702181D01*
X96997931Y-58640858D01*
X97002915Y-58571166D01*
X97044787Y-58515233D01*
X97110251Y-58490816D01*
X97119097Y-58490500D01*
X112958331Y-58490500D01*
X112958347Y-58490501D01*
X112965943Y-58490501D01*
X113124054Y-58490501D01*
X113124057Y-58490501D01*
X113276785Y-58449577D01*
X113339500Y-58413368D01*
X113413716Y-58370520D01*
X113525520Y-58258716D01*
X113525520Y-58258714D01*
X113535724Y-58248511D01*
X113535728Y-58248506D01*
X114955117Y-56829116D01*
X115016438Y-56795633D01*
X115086130Y-56800617D01*
X115142063Y-56842489D01*
X115162795Y-56890377D01*
X115163536Y-56890179D01*
X115164878Y-56895190D01*
X115164912Y-56895267D01*
X115164936Y-56895405D01*
X115226094Y-57123655D01*
X115226096Y-57123659D01*
X115226097Y-57123663D01*
X115296044Y-57273664D01*
X115325965Y-57337830D01*
X115325967Y-57337834D01*
X115461501Y-57531395D01*
X115461506Y-57531402D01*
X115628597Y-57698493D01*
X115628603Y-57698498D01*
X115814158Y-57828425D01*
X115857783Y-57883002D01*
X115864977Y-57952500D01*
X115833454Y-58014855D01*
X115814158Y-58031575D01*
X115628597Y-58161505D01*
X115461505Y-58328597D01*
X115325965Y-58522169D01*
X115325964Y-58522171D01*
X115226098Y-58736335D01*
X115226094Y-58736344D01*
X115164938Y-58964586D01*
X115164936Y-58964596D01*
X115144341Y-59199999D01*
X115144341Y-59200000D01*
X115164936Y-59435403D01*
X115164938Y-59435413D01*
X115226094Y-59663655D01*
X115226096Y-59663659D01*
X115226097Y-59663663D01*
X115296044Y-59813664D01*
X115325965Y-59877830D01*
X115325967Y-59877834D01*
X115461501Y-60071395D01*
X115461506Y-60071402D01*
X115628597Y-60238493D01*
X115628603Y-60238498D01*
X115814158Y-60368425D01*
X115857783Y-60423002D01*
X115864977Y-60492500D01*
X115833454Y-60554855D01*
X115814158Y-60571575D01*
X115628597Y-60701505D01*
X115461505Y-60868597D01*
X115325965Y-61062169D01*
X115325964Y-61062171D01*
X115226098Y-61276335D01*
X115226094Y-61276344D01*
X115164938Y-61504586D01*
X115164936Y-61504596D01*
X115144341Y-61739999D01*
X115144341Y-61740000D01*
X115164936Y-61975403D01*
X115164938Y-61975413D01*
X115226094Y-62203655D01*
X115226096Y-62203659D01*
X115226097Y-62203663D01*
X115296044Y-62353664D01*
X115325965Y-62417830D01*
X115325967Y-62417834D01*
X115461501Y-62611395D01*
X115461506Y-62611402D01*
X115628597Y-62778493D01*
X115628603Y-62778498D01*
X115814158Y-62908425D01*
X115857783Y-62963002D01*
X115864977Y-63032500D01*
X115833454Y-63094855D01*
X115814158Y-63111575D01*
X115628597Y-63241505D01*
X115461505Y-63408597D01*
X115325965Y-63602169D01*
X115325964Y-63602171D01*
X115226098Y-63816335D01*
X115226094Y-63816344D01*
X115164938Y-64044586D01*
X115164936Y-64044596D01*
X115144341Y-64279999D01*
X115144341Y-64280000D01*
X115164936Y-64515403D01*
X115164938Y-64515413D01*
X115226094Y-64743655D01*
X115226096Y-64743659D01*
X115226097Y-64743663D01*
X115282841Y-64865351D01*
X115325965Y-64957830D01*
X115325967Y-64957834D01*
X115461501Y-65151395D01*
X115461506Y-65151402D01*
X115628597Y-65318493D01*
X115628603Y-65318498D01*
X115814158Y-65448425D01*
X115857783Y-65503002D01*
X115864977Y-65572500D01*
X115833454Y-65634855D01*
X115814158Y-65651575D01*
X115628597Y-65781505D01*
X115461505Y-65948597D01*
X115325965Y-66142169D01*
X115325964Y-66142171D01*
X115226098Y-66356335D01*
X115226094Y-66356344D01*
X115164938Y-66584586D01*
X115164936Y-66584596D01*
X115144341Y-66819999D01*
X115144341Y-66820000D01*
X115164936Y-67055403D01*
X115164938Y-67055413D01*
X115226094Y-67283655D01*
X115226096Y-67283659D01*
X115226097Y-67283663D01*
X115310721Y-67465139D01*
X115325965Y-67497830D01*
X115325967Y-67497834D01*
X115461501Y-67691395D01*
X115461506Y-67691402D01*
X115628597Y-67858493D01*
X115628603Y-67858498D01*
X115814158Y-67988425D01*
X115857783Y-68043002D01*
X115864977Y-68112500D01*
X115833454Y-68174855D01*
X115814158Y-68191575D01*
X115628597Y-68321505D01*
X115461505Y-68488597D01*
X115325965Y-68682169D01*
X115325964Y-68682171D01*
X115226098Y-68896335D01*
X115226094Y-68896344D01*
X115164938Y-69124586D01*
X115164936Y-69124596D01*
X115144341Y-69359999D01*
X115144341Y-69360000D01*
X115164936Y-69595403D01*
X115164938Y-69595413D01*
X115226094Y-69823655D01*
X115226096Y-69823659D01*
X115226097Y-69823663D01*
X115325965Y-70037830D01*
X115325967Y-70037834D01*
X115461501Y-70231395D01*
X115461506Y-70231402D01*
X115628597Y-70398493D01*
X115628603Y-70398498D01*
X115814594Y-70528730D01*
X115858219Y-70583307D01*
X115865413Y-70652805D01*
X115833890Y-70715160D01*
X115814595Y-70731880D01*
X115628922Y-70861890D01*
X115628920Y-70861891D01*
X115461891Y-71028920D01*
X115461886Y-71028926D01*
X115326400Y-71222420D01*
X115326399Y-71222422D01*
X115226570Y-71436507D01*
X115226567Y-71436513D01*
X115169364Y-71649999D01*
X115169364Y-71650000D01*
X116066988Y-71650000D01*
X116034075Y-71707007D01*
X116000000Y-71834174D01*
X116000000Y-71965826D01*
X116034075Y-72092993D01*
X116066988Y-72150000D01*
X115169364Y-72150000D01*
X115226567Y-72363486D01*
X115226570Y-72363492D01*
X115326399Y-72577578D01*
X115461894Y-72771082D01*
X115628917Y-72938105D01*
X115814595Y-73068119D01*
X115858219Y-73122696D01*
X115865412Y-73192195D01*
X115833890Y-73254549D01*
X115814595Y-73271269D01*
X115628594Y-73401508D01*
X115461505Y-73568597D01*
X115325965Y-73762169D01*
X115325964Y-73762171D01*
X115226098Y-73976335D01*
X115226094Y-73976344D01*
X115164938Y-74204586D01*
X115164936Y-74204596D01*
X115144341Y-74439999D01*
X115144341Y-74440000D01*
X115164936Y-74675403D01*
X115164938Y-74675413D01*
X115226094Y-74903655D01*
X115226096Y-74903659D01*
X115226097Y-74903663D01*
X115297653Y-75057115D01*
X115325965Y-75117830D01*
X115325967Y-75117834D01*
X115389522Y-75208599D01*
X115461505Y-75311401D01*
X115628599Y-75478495D01*
X115717745Y-75540916D01*
X115822165Y-75614032D01*
X115822167Y-75614033D01*
X115822170Y-75614035D01*
X116036337Y-75713903D01*
X116264592Y-75775063D01*
X116452918Y-75791539D01*
X116499999Y-75795659D01*
X116500000Y-75795659D01*
X116500001Y-75795659D01*
X116539234Y-75792226D01*
X116735408Y-75775063D01*
X116963663Y-75713903D01*
X117177830Y-75614035D01*
X117371401Y-75478495D01*
X117538495Y-75311401D01*
X117674035Y-75117830D01*
X117773903Y-74903663D01*
X117835063Y-74675408D01*
X117855659Y-74440000D01*
X117835063Y-74204592D01*
X117773903Y-73976337D01*
X117674035Y-73762171D01*
X117674034Y-73762169D01*
X117538494Y-73568597D01*
X117371402Y-73401506D01*
X117371401Y-73401505D01*
X117185405Y-73271269D01*
X117141781Y-73216692D01*
X117134588Y-73147193D01*
X117166110Y-73084839D01*
X117185405Y-73068119D01*
X117371082Y-72938105D01*
X117538105Y-72771082D01*
X117673600Y-72577578D01*
X117773429Y-72363492D01*
X117773432Y-72363486D01*
X117830636Y-72150000D01*
X116933012Y-72150000D01*
X116965925Y-72092993D01*
X117000000Y-71965826D01*
X117000000Y-71834174D01*
X116965925Y-71707007D01*
X116933012Y-71650000D01*
X117830636Y-71650000D01*
X117830635Y-71649999D01*
X117773432Y-71436513D01*
X117773429Y-71436507D01*
X117673600Y-71222422D01*
X117673599Y-71222420D01*
X117538113Y-71028926D01*
X117538108Y-71028920D01*
X117371078Y-70861890D01*
X117185405Y-70731879D01*
X117141780Y-70677302D01*
X117134588Y-70607804D01*
X117166110Y-70545449D01*
X117185406Y-70528730D01*
X117226437Y-70500000D01*
X117371401Y-70398495D01*
X117538495Y-70231401D01*
X117674035Y-70037830D01*
X117773903Y-69823663D01*
X117835063Y-69595408D01*
X117855659Y-69360000D01*
X117835063Y-69124592D01*
X117773903Y-68896337D01*
X117674035Y-68682171D01*
X117626449Y-68614210D01*
X117538494Y-68488597D01*
X117371402Y-68321506D01*
X117371396Y-68321501D01*
X117185842Y-68191575D01*
X117142217Y-68136998D01*
X117135023Y-68067500D01*
X117166546Y-68005145D01*
X117185842Y-67988425D01*
X117276733Y-67924782D01*
X117371401Y-67858495D01*
X117538495Y-67691401D01*
X117674035Y-67497830D01*
X117773903Y-67283663D01*
X117835063Y-67055408D01*
X117855659Y-66820000D01*
X117853222Y-66792154D01*
X117866987Y-66723657D01*
X117915601Y-66673473D01*
X117983629Y-66657538D01*
X118049473Y-66680911D01*
X118064431Y-66693666D01*
X118713181Y-67342416D01*
X118746666Y-67403739D01*
X118749500Y-67430097D01*
X118749500Y-78584801D01*
X118749499Y-78584819D01*
X118749499Y-78750525D01*
X118749498Y-78750525D01*
X118790423Y-78903256D01*
X118811092Y-78939056D01*
X118811094Y-78939058D01*
X118869479Y-79040185D01*
X118869481Y-79040188D01*
X118988349Y-79159056D01*
X118988355Y-79159061D01*
X119019208Y-79189914D01*
X119052693Y-79251237D01*
X119047709Y-79320929D01*
X119036521Y-79343567D01*
X118944211Y-79490476D01*
X118884631Y-79660745D01*
X118884630Y-79660750D01*
X118864435Y-79839996D01*
X118864435Y-79840003D01*
X118884630Y-80019249D01*
X118884631Y-80019254D01*
X118944211Y-80189523D01*
X119002554Y-80282374D01*
X119040184Y-80342262D01*
X119167738Y-80469816D01*
X119320478Y-80565789D01*
X119490745Y-80625368D01*
X119577669Y-80635161D01*
X119642080Y-80662226D01*
X119651465Y-80670700D01*
X121168916Y-82188151D01*
X121202401Y-82249474D01*
X121205235Y-82275832D01*
X121205235Y-84729065D01*
X121205234Y-84729083D01*
X121205234Y-84894789D01*
X121205233Y-84894789D01*
X121246158Y-85047520D01*
X121275093Y-85097635D01*
X121275094Y-85097639D01*
X121275095Y-85097639D01*
X121299658Y-85140185D01*
X121325214Y-85184449D01*
X121325216Y-85184452D01*
X121444084Y-85303320D01*
X121444090Y-85303325D01*
X121705396Y-85564632D01*
X121738881Y-85625955D01*
X121733897Y-85695647D01*
X121692025Y-85751580D01*
X121658669Y-85769355D01*
X121530478Y-85814210D01*
X121377737Y-85910184D01*
X121250184Y-86037737D01*
X121154211Y-86190476D01*
X121094631Y-86360745D01*
X121094630Y-86360750D01*
X121074435Y-86539996D01*
X121074435Y-86540003D01*
X121094630Y-86719249D01*
X121094631Y-86719254D01*
X121154211Y-86889523D01*
X121230592Y-87011082D01*
X121250184Y-87042262D01*
X121377738Y-87169816D01*
X121530478Y-87265789D01*
X121700745Y-87325368D01*
X121787669Y-87335161D01*
X121852080Y-87362226D01*
X121861465Y-87370700D01*
X124583181Y-90092416D01*
X124616666Y-90153739D01*
X124619500Y-90180097D01*
X124619500Y-94373330D01*
X124619499Y-94373348D01*
X124619499Y-94380943D01*
X124619499Y-94539057D01*
X124623771Y-94555000D01*
X124653897Y-94667432D01*
X124652234Y-94737282D01*
X124613071Y-94795144D01*
X124548843Y-94822648D01*
X124479941Y-94811061D01*
X124446441Y-94787206D01*
X124266819Y-94607584D01*
X124233334Y-94546261D01*
X124230500Y-94519903D01*
X124230500Y-92569060D01*
X124230501Y-92569047D01*
X124230501Y-92400944D01*
X124230501Y-92400943D01*
X124189577Y-92248216D01*
X124185746Y-92241580D01*
X124110524Y-92111290D01*
X124110518Y-92111282D01*
X123337590Y-91338355D01*
X123337588Y-91338352D01*
X123218717Y-91219481D01*
X123218716Y-91219480D01*
X123131904Y-91169360D01*
X123131904Y-91169359D01*
X123131900Y-91169358D01*
X123081785Y-91140423D01*
X122929057Y-91099499D01*
X122770943Y-91099499D01*
X122763347Y-91099499D01*
X122763331Y-91099500D01*
X121460391Y-91099500D01*
X121393352Y-91079815D01*
X121347597Y-91027011D01*
X121337653Y-90957853D01*
X121343633Y-90934422D01*
X121344091Y-90932483D01*
X121350500Y-90872873D01*
X121350499Y-89077128D01*
X121344091Y-89017517D01*
X121338404Y-89002270D01*
X121293797Y-88882671D01*
X121293793Y-88882664D01*
X121207547Y-88767455D01*
X121207544Y-88767452D01*
X121092335Y-88681206D01*
X121092328Y-88681202D01*
X120957482Y-88630908D01*
X120957483Y-88630908D01*
X120897883Y-88624501D01*
X120897881Y-88624500D01*
X120897873Y-88624500D01*
X120897864Y-88624500D01*
X119102129Y-88624500D01*
X119102123Y-88624501D01*
X119042516Y-88630908D01*
X118907671Y-88681202D01*
X118907664Y-88681206D01*
X118792455Y-88767452D01*
X118792452Y-88767455D01*
X118706206Y-88882664D01*
X118706202Y-88882671D01*
X118655908Y-89017517D01*
X118649501Y-89077116D01*
X118649501Y-89077123D01*
X118649500Y-89077135D01*
X118649500Y-90872870D01*
X118649501Y-90872876D01*
X118655908Y-90932483D01*
X118706202Y-91067328D01*
X118706206Y-91067335D01*
X118792452Y-91182544D01*
X118792455Y-91182547D01*
X118907664Y-91268793D01*
X118907671Y-91268797D01*
X119039081Y-91317810D01*
X119095015Y-91359681D01*
X119119432Y-91425145D01*
X119104580Y-91493418D01*
X119083430Y-91521673D01*
X118961503Y-91643600D01*
X118825965Y-91837169D01*
X118825964Y-91837171D01*
X118726098Y-92051335D01*
X118726094Y-92051344D01*
X118664938Y-92279586D01*
X118664936Y-92279596D01*
X118644341Y-92514999D01*
X118644341Y-92515000D01*
X118664936Y-92750403D01*
X118664938Y-92750413D01*
X118726094Y-92978655D01*
X118726096Y-92978659D01*
X118726097Y-92978663D01*
X118785394Y-93105826D01*
X118825965Y-93192830D01*
X118825967Y-93192834D01*
X118961501Y-93386395D01*
X118961506Y-93386402D01*
X119128597Y-93553493D01*
X119128603Y-93553498D01*
X119314594Y-93683730D01*
X119358219Y-93738307D01*
X119365413Y-93807805D01*
X119333890Y-93870160D01*
X119314595Y-93886880D01*
X119128922Y-94016890D01*
X119128920Y-94016891D01*
X118961891Y-94183920D01*
X118961886Y-94183926D01*
X118826400Y-94377420D01*
X118826399Y-94377422D01*
X118726570Y-94591507D01*
X118726567Y-94591513D01*
X118669364Y-94804999D01*
X118669364Y-94805000D01*
X119566988Y-94805000D01*
X119534075Y-94862007D01*
X119500000Y-94989174D01*
X119500000Y-95120826D01*
X119534075Y-95247993D01*
X119566988Y-95305000D01*
X118669364Y-95305000D01*
X118726567Y-95518486D01*
X118726570Y-95518492D01*
X118826399Y-95732578D01*
X118961894Y-95926082D01*
X119128917Y-96093105D01*
X119322421Y-96228600D01*
X119536507Y-96328429D01*
X119536516Y-96328433D01*
X119750000Y-96385634D01*
X119750000Y-95488012D01*
X119807007Y-95520925D01*
X119934174Y-95555000D01*
X120065826Y-95555000D01*
X120192993Y-95520925D01*
X120250000Y-95488012D01*
X120250000Y-96385633D01*
X120463483Y-96328433D01*
X120463492Y-96328429D01*
X120677578Y-96228600D01*
X120871082Y-96093105D01*
X121038105Y-95926082D01*
X121173600Y-95732578D01*
X121273429Y-95518492D01*
X121273432Y-95518486D01*
X121330636Y-95305000D01*
X120433012Y-95305000D01*
X120465925Y-95247993D01*
X120500000Y-95120826D01*
X120500000Y-94989174D01*
X120465925Y-94862007D01*
X120433012Y-94805000D01*
X121330636Y-94805000D01*
X121330635Y-94804999D01*
X121273432Y-94591513D01*
X121273429Y-94591507D01*
X121173600Y-94377422D01*
X121173599Y-94377420D01*
X121038113Y-94183926D01*
X121038108Y-94183920D01*
X120871078Y-94016890D01*
X120685405Y-93886879D01*
X120641780Y-93832302D01*
X120634588Y-93762804D01*
X120666110Y-93700449D01*
X120685406Y-93683730D01*
X120871401Y-93553495D01*
X121038495Y-93386401D01*
X121174035Y-93192830D01*
X121273903Y-92978663D01*
X121335063Y-92750408D01*
X121355659Y-92515000D01*
X121355659Y-92514997D01*
X121348687Y-92435307D01*
X121362454Y-92366807D01*
X121411069Y-92316624D01*
X121472215Y-92300500D01*
X122549903Y-92300500D01*
X122616942Y-92320185D01*
X122637584Y-92336819D01*
X122993181Y-92692416D01*
X123026666Y-92753739D01*
X123029500Y-92780097D01*
X123029500Y-94733330D01*
X123029499Y-94733348D01*
X123029499Y-94899054D01*
X123029498Y-94899054D01*
X123029499Y-94899057D01*
X123070423Y-95051785D01*
X123071584Y-95053796D01*
X123075457Y-95060504D01*
X123149477Y-95188712D01*
X123149481Y-95188717D01*
X123268349Y-95307585D01*
X123268355Y-95307590D01*
X124049298Y-96088533D01*
X124082783Y-96149856D01*
X124084837Y-96162330D01*
X124094630Y-96249249D01*
X124154210Y-96419521D01*
X124180591Y-96461506D01*
X124250184Y-96572262D01*
X124377738Y-96699816D01*
X124530478Y-96795789D01*
X124700656Y-96855337D01*
X124700745Y-96855368D01*
X124700750Y-96855369D01*
X124879996Y-96875565D01*
X124880000Y-96875565D01*
X124880004Y-96875565D01*
X125059249Y-96855369D01*
X125059252Y-96855368D01*
X125059255Y-96855368D01*
X125229522Y-96795789D01*
X125382262Y-96699816D01*
X125509816Y-96572262D01*
X125605789Y-96419522D01*
X125665368Y-96249255D01*
X125665369Y-96249249D01*
X125686345Y-96063081D01*
X125688739Y-96063350D01*
X125705250Y-96007123D01*
X125758054Y-95961368D01*
X125827212Y-95951424D01*
X125890768Y-95980449D01*
X125897246Y-95986481D01*
X126735139Y-96824374D01*
X126735149Y-96824385D01*
X126739479Y-96828715D01*
X126739480Y-96828716D01*
X126851284Y-96940520D01*
X126938095Y-96990639D01*
X126938097Y-96990641D01*
X126976151Y-97012611D01*
X126988215Y-97019577D01*
X127140943Y-97060500D01*
X127299057Y-97060500D01*
X129510909Y-97060500D01*
X129577948Y-97080185D01*
X129623292Y-97132097D01*
X129625965Y-97137830D01*
X129625966Y-97137831D01*
X129761501Y-97331395D01*
X129761506Y-97331402D01*
X129928597Y-97498493D01*
X129928603Y-97498498D01*
X130114594Y-97628730D01*
X130158219Y-97683307D01*
X130165413Y-97752805D01*
X130133890Y-97815160D01*
X130114595Y-97831880D01*
X129928922Y-97961890D01*
X129928920Y-97961891D01*
X129761891Y-98128920D01*
X129761886Y-98128926D01*
X129626400Y-98322420D01*
X129626399Y-98322422D01*
X129526570Y-98536507D01*
X129526567Y-98536513D01*
X129469364Y-98749999D01*
X129469364Y-98750000D01*
X130366988Y-98750000D01*
X130334075Y-98807007D01*
X130300000Y-98934174D01*
X130300000Y-99065826D01*
X130334075Y-99192993D01*
X130366988Y-99250000D01*
X129469364Y-99250000D01*
X129526567Y-99463486D01*
X129526570Y-99463492D01*
X129626399Y-99677578D01*
X129761894Y-99871082D01*
X129928917Y-100038105D01*
X130122421Y-100173600D01*
X130336507Y-100273429D01*
X130336516Y-100273433D01*
X130550000Y-100330634D01*
X130550000Y-99433012D01*
X130607007Y-99465925D01*
X130734174Y-99500000D01*
X130865826Y-99500000D01*
X130992993Y-99465925D01*
X131050000Y-99433012D01*
X131050000Y-100330633D01*
X131263483Y-100273433D01*
X131263492Y-100273429D01*
X131477578Y-100173600D01*
X131671082Y-100038105D01*
X131838105Y-99871082D01*
X131973600Y-99677578D01*
X132073429Y-99463492D01*
X132073432Y-99463486D01*
X132130636Y-99250000D01*
X131233012Y-99250000D01*
X131265925Y-99192993D01*
X131300000Y-99065826D01*
X131300000Y-98934174D01*
X131265925Y-98807007D01*
X131233012Y-98750000D01*
X132130636Y-98750000D01*
X132130635Y-98749999D01*
X132073432Y-98536513D01*
X132073429Y-98536507D01*
X131973600Y-98322422D01*
X131973599Y-98322420D01*
X131838113Y-98128926D01*
X131838108Y-98128920D01*
X131671078Y-97961890D01*
X131485405Y-97831879D01*
X131441780Y-97777302D01*
X131434588Y-97707804D01*
X131466110Y-97645449D01*
X131485406Y-97628730D01*
X131671401Y-97498495D01*
X131838495Y-97331401D01*
X131974035Y-97137830D01*
X132073903Y-96923663D01*
X132135063Y-96695408D01*
X132155659Y-96460000D01*
X132135063Y-96224592D01*
X132073903Y-95996337D01*
X131974035Y-95782171D01*
X131974034Y-95782169D01*
X131838494Y-95588597D01*
X131671402Y-95421506D01*
X131671396Y-95421501D01*
X131485842Y-95291575D01*
X131442217Y-95236998D01*
X131435023Y-95167500D01*
X131466546Y-95105145D01*
X131485842Y-95088425D01*
X131597167Y-95010474D01*
X131671401Y-94958495D01*
X131838495Y-94791401D01*
X131974035Y-94597830D01*
X132073903Y-94383663D01*
X132135063Y-94155408D01*
X132155659Y-93920000D01*
X132135063Y-93684592D01*
X132073903Y-93456337D01*
X131974035Y-93242171D01*
X131939486Y-93192830D01*
X131838496Y-93048600D01*
X131823289Y-93033393D01*
X131716567Y-92926671D01*
X131683084Y-92865351D01*
X131688068Y-92795659D01*
X131729939Y-92739725D01*
X131760915Y-92722810D01*
X131892331Y-92673796D01*
X132007546Y-92587546D01*
X132093796Y-92472331D01*
X132144091Y-92337483D01*
X132150500Y-92277873D01*
X132150499Y-90482128D01*
X132144091Y-90422517D01*
X132118069Y-90352749D01*
X132093797Y-90287671D01*
X132093793Y-90287664D01*
X132007547Y-90172455D01*
X132007544Y-90172452D01*
X131892335Y-90086206D01*
X131892328Y-90086202D01*
X131757482Y-90035908D01*
X131757483Y-90035908D01*
X131697883Y-90029501D01*
X131697881Y-90029500D01*
X131697873Y-90029500D01*
X131697864Y-90029500D01*
X129902129Y-90029500D01*
X129902123Y-90029501D01*
X129842516Y-90035908D01*
X129707671Y-90086202D01*
X129707664Y-90086206D01*
X129592455Y-90172452D01*
X129592452Y-90172455D01*
X129506206Y-90287664D01*
X129506202Y-90287671D01*
X129455908Y-90422517D01*
X129450416Y-90473609D01*
X129449501Y-90482123D01*
X129449500Y-90482135D01*
X129449500Y-90655500D01*
X129429815Y-90722539D01*
X129377011Y-90768294D01*
X129325500Y-90779500D01*
X128670098Y-90779500D01*
X128603059Y-90759815D01*
X128582417Y-90743181D01*
X128283601Y-90444365D01*
X128250116Y-90383042D01*
X128255100Y-90313350D01*
X128296972Y-90257417D01*
X128357400Y-90233464D01*
X128429249Y-90225369D01*
X128429252Y-90225368D01*
X128429255Y-90225368D01*
X128599522Y-90165789D01*
X128752262Y-90069816D01*
X128879816Y-89942262D01*
X128975789Y-89789522D01*
X129035368Y-89619255D01*
X129037298Y-89602127D01*
X129055565Y-89440003D01*
X129055565Y-89439996D01*
X129035369Y-89260750D01*
X129035368Y-89260745D01*
X129031610Y-89250005D01*
X128975789Y-89090478D01*
X128967397Y-89077123D01*
X128936582Y-89028080D01*
X128879816Y-88937738D01*
X128752262Y-88810184D01*
X128741117Y-88803181D01*
X128599523Y-88714211D01*
X128429254Y-88654631D01*
X128429249Y-88654630D01*
X128250004Y-88634435D01*
X128249996Y-88634435D01*
X128070750Y-88654630D01*
X128070745Y-88654631D01*
X127900476Y-88714211D01*
X127747736Y-88810185D01*
X127744903Y-88812445D01*
X127742724Y-88813334D01*
X127741842Y-88813889D01*
X127741744Y-88813734D01*
X127680217Y-88838855D01*
X127667588Y-88839500D01*
X127630098Y-88839500D01*
X127563059Y-88819815D01*
X127542417Y-88803181D01*
X127230700Y-88491465D01*
X127197215Y-88430142D01*
X127195163Y-88417686D01*
X127185368Y-88330745D01*
X127125789Y-88160478D01*
X127029816Y-88007738D01*
X126902262Y-87880184D01*
X126807276Y-87820500D01*
X126749523Y-87784211D01*
X126579254Y-87724631D01*
X126579249Y-87724630D01*
X126400004Y-87704435D01*
X126399996Y-87704435D01*
X126220750Y-87724630D01*
X126220745Y-87724631D01*
X126050476Y-87784211D01*
X125897734Y-87880186D01*
X125897731Y-87880188D01*
X125896245Y-87881675D01*
X125895049Y-87882327D01*
X125892290Y-87884528D01*
X125891904Y-87884044D01*
X125834916Y-87915150D01*
X125765225Y-87910155D01*
X125720896Y-87881661D01*
X123171416Y-85332181D01*
X123137931Y-85270858D01*
X123142915Y-85201166D01*
X123184787Y-85145233D01*
X123250251Y-85120816D01*
X123259097Y-85120500D01*
X129713557Y-85120500D01*
X129780596Y-85140185D01*
X129801238Y-85156819D01*
X136228793Y-91584374D01*
X136228803Y-91584385D01*
X136233133Y-91588715D01*
X136233134Y-91588716D01*
X136344938Y-91700520D01*
X136428417Y-91748716D01*
X136481869Y-91779577D01*
X136634597Y-91820501D01*
X136650909Y-91820501D01*
X136717948Y-91840186D01*
X136763289Y-91892092D01*
X136765963Y-91897827D01*
X136765967Y-91897834D01*
X136873450Y-92051335D01*
X136901501Y-92091396D01*
X136901506Y-92091402D01*
X137023430Y-92213326D01*
X137056915Y-92274649D01*
X137051931Y-92344341D01*
X137010059Y-92400274D01*
X136979083Y-92417189D01*
X136847669Y-92466203D01*
X136847664Y-92466206D01*
X136732455Y-92552452D01*
X136732452Y-92552455D01*
X136646206Y-92667664D01*
X136646202Y-92667671D01*
X136595908Y-92802517D01*
X136589501Y-92862116D01*
X136589501Y-92862123D01*
X136589500Y-92862135D01*
X136589500Y-94657870D01*
X136589501Y-94657876D01*
X136595908Y-94717483D01*
X136646202Y-94852328D01*
X136646206Y-94852335D01*
X136732452Y-94967544D01*
X136732455Y-94967547D01*
X136847664Y-95053793D01*
X136847671Y-95053797D01*
X136982517Y-95104091D01*
X136982516Y-95104091D01*
X136989444Y-95104835D01*
X137042127Y-95110500D01*
X138837872Y-95110499D01*
X138897483Y-95104091D01*
X139032331Y-95053796D01*
X139147546Y-94967546D01*
X139233796Y-94852331D01*
X139284091Y-94717483D01*
X139290500Y-94657873D01*
X139290499Y-92862128D01*
X139284091Y-92802517D01*
X139281533Y-92795659D01*
X139233797Y-92667671D01*
X139233793Y-92667664D01*
X139147547Y-92552455D01*
X139147544Y-92552452D01*
X139032335Y-92466206D01*
X139032328Y-92466202D01*
X138900917Y-92417189D01*
X138844983Y-92375318D01*
X138820566Y-92309853D01*
X138835418Y-92241580D01*
X138856563Y-92213332D01*
X138978495Y-92091401D01*
X139114035Y-91897830D01*
X139213903Y-91683663D01*
X139275063Y-91455408D01*
X139295659Y-91220000D01*
X139295613Y-91219479D01*
X139282302Y-91067331D01*
X139275063Y-90984592D01*
X139228626Y-90811285D01*
X139213905Y-90756344D01*
X139213904Y-90756343D01*
X139213903Y-90756337D01*
X139114035Y-90542171D01*
X139091548Y-90510055D01*
X138978494Y-90348597D01*
X138811402Y-90181506D01*
X138811396Y-90181501D01*
X138625842Y-90051575D01*
X138582217Y-89996998D01*
X138575023Y-89927500D01*
X138606546Y-89865145D01*
X138625842Y-89848425D01*
X138695000Y-89800000D01*
X138811401Y-89718495D01*
X138978495Y-89551401D01*
X139114035Y-89357830D01*
X139213903Y-89143663D01*
X139275063Y-88915408D01*
X139295659Y-88680000D01*
X139275063Y-88444592D01*
X139213903Y-88216337D01*
X139114035Y-88002171D01*
X139105478Y-87989949D01*
X138978494Y-87808597D01*
X138811402Y-87641506D01*
X138811401Y-87641505D01*
X138625405Y-87511269D01*
X138581781Y-87456692D01*
X138574588Y-87387193D01*
X138606110Y-87324839D01*
X138625405Y-87308119D01*
X138811082Y-87178105D01*
X138978105Y-87011082D01*
X139113600Y-86817578D01*
X139213429Y-86603492D01*
X139213432Y-86603486D01*
X139270636Y-86390000D01*
X138373012Y-86390000D01*
X138405925Y-86332993D01*
X138440000Y-86205826D01*
X138440000Y-86074174D01*
X138405925Y-85947007D01*
X138373012Y-85890000D01*
X139270636Y-85890000D01*
X139270635Y-85889999D01*
X139213432Y-85676513D01*
X139213429Y-85676507D01*
X139113600Y-85462422D01*
X139113599Y-85462420D01*
X138978113Y-85268926D01*
X138978108Y-85268920D01*
X138811082Y-85101894D01*
X138617578Y-84966399D01*
X138403492Y-84866570D01*
X138403486Y-84866567D01*
X138190000Y-84809364D01*
X138190000Y-85706988D01*
X138132993Y-85674075D01*
X138005826Y-85640000D01*
X137874174Y-85640000D01*
X137747007Y-85674075D01*
X137690000Y-85706988D01*
X137690000Y-84809364D01*
X137689999Y-84809364D01*
X137476513Y-84866567D01*
X137476507Y-84866570D01*
X137262422Y-84966399D01*
X137262420Y-84966400D01*
X137068926Y-85101886D01*
X137068920Y-85101891D01*
X136901891Y-85268920D01*
X136901886Y-85268926D01*
X136766400Y-85462420D01*
X136766399Y-85462422D01*
X136666570Y-85676507D01*
X136666567Y-85676513D01*
X136609364Y-85889999D01*
X136609364Y-85890000D01*
X137506988Y-85890000D01*
X137474075Y-85947007D01*
X137440000Y-86074174D01*
X137440000Y-86205826D01*
X137474075Y-86332993D01*
X137506988Y-86390000D01*
X136550598Y-86390000D01*
X136483559Y-86370315D01*
X136462917Y-86353681D01*
X134841643Y-84732407D01*
X134808158Y-84671084D01*
X134813142Y-84601392D01*
X134855014Y-84545459D01*
X134888367Y-84527685D01*
X134979522Y-84495789D01*
X135132262Y-84399816D01*
X135259816Y-84272262D01*
X135355789Y-84119522D01*
X135415368Y-83949255D01*
X135425161Y-83862329D01*
X135452226Y-83797918D01*
X135460690Y-83788543D01*
X138108713Y-81140521D01*
X138108716Y-81140520D01*
X138220520Y-81028716D01*
X138270639Y-80941904D01*
X138299577Y-80891785D01*
X138340500Y-80739057D01*
X138340500Y-80580943D01*
X138340500Y-79092155D01*
X151630000Y-79092155D01*
X151630000Y-79740000D01*
X152546988Y-79740000D01*
X152514075Y-79797007D01*
X152480000Y-79924174D01*
X152480000Y-80055826D01*
X152514075Y-80182993D01*
X152546988Y-80240000D01*
X151630000Y-80240000D01*
X151630000Y-80887844D01*
X151636401Y-80947372D01*
X151636403Y-80947379D01*
X151686645Y-81082086D01*
X151686649Y-81082093D01*
X151772809Y-81197187D01*
X151772812Y-81197190D01*
X151887906Y-81283350D01*
X151887913Y-81283354D01*
X152022620Y-81333596D01*
X152022627Y-81333598D01*
X152082155Y-81339999D01*
X152082172Y-81340000D01*
X152730000Y-81340000D01*
X152730000Y-80423012D01*
X152787007Y-80455925D01*
X152914174Y-80490000D01*
X153045826Y-80490000D01*
X153172993Y-80455925D01*
X153230000Y-80423012D01*
X153230000Y-81340000D01*
X153877828Y-81340000D01*
X153877844Y-81339999D01*
X153937372Y-81333598D01*
X153937379Y-81333596D01*
X154072086Y-81283354D01*
X154072093Y-81283350D01*
X154187187Y-81197190D01*
X154187190Y-81197187D01*
X154273350Y-81082093D01*
X154273354Y-81082086D01*
X154323596Y-80947379D01*
X154323598Y-80947372D01*
X154329999Y-80887844D01*
X154330000Y-80887827D01*
X154330000Y-80240000D01*
X153413012Y-80240000D01*
X153445925Y-80182993D01*
X153480000Y-80055826D01*
X153480000Y-79924174D01*
X153445925Y-79797007D01*
X153413012Y-79740000D01*
X154330000Y-79740000D01*
X154330000Y-79092172D01*
X154329999Y-79092155D01*
X154323598Y-79032627D01*
X154323596Y-79032620D01*
X154273354Y-78897913D01*
X154273350Y-78897906D01*
X154187190Y-78782812D01*
X154187187Y-78782809D01*
X154072093Y-78696649D01*
X154072086Y-78696645D01*
X153940013Y-78647385D01*
X153884079Y-78605514D01*
X153859662Y-78540049D01*
X153874514Y-78471776D01*
X153895665Y-78443521D01*
X154018108Y-78321078D01*
X154153600Y-78127578D01*
X154253429Y-77913492D01*
X154253432Y-77913486D01*
X154310636Y-77700000D01*
X153413012Y-77700000D01*
X153445925Y-77642993D01*
X153480000Y-77515826D01*
X153480000Y-77384174D01*
X153445925Y-77257007D01*
X153413012Y-77200000D01*
X154310636Y-77200000D01*
X154310635Y-77199999D01*
X154253432Y-76986513D01*
X154253429Y-76986507D01*
X154153600Y-76772422D01*
X154153599Y-76772420D01*
X154018113Y-76578926D01*
X154018108Y-76578920D01*
X153851082Y-76411894D01*
X153657578Y-76276399D01*
X153443492Y-76176570D01*
X153443486Y-76176567D01*
X153230000Y-76119364D01*
X153230000Y-77016988D01*
X153172993Y-76984075D01*
X153045826Y-76950000D01*
X152914174Y-76950000D01*
X152787007Y-76984075D01*
X152730000Y-77016988D01*
X152730000Y-76119364D01*
X152729999Y-76119364D01*
X152516513Y-76176567D01*
X152516507Y-76176570D01*
X152302422Y-76276399D01*
X152302420Y-76276400D01*
X152108926Y-76411886D01*
X152108920Y-76411891D01*
X151941891Y-76578920D01*
X151941886Y-76578926D01*
X151806400Y-76772420D01*
X151806399Y-76772422D01*
X151706570Y-76986507D01*
X151706567Y-76986513D01*
X151649364Y-77199999D01*
X151649364Y-77200000D01*
X152546988Y-77200000D01*
X152514075Y-77257007D01*
X152480000Y-77384174D01*
X152480000Y-77515826D01*
X152514075Y-77642993D01*
X152546988Y-77700000D01*
X151649364Y-77700000D01*
X151706567Y-77913486D01*
X151706570Y-77913492D01*
X151806399Y-78127578D01*
X151941894Y-78321082D01*
X152064334Y-78443522D01*
X152097819Y-78504845D01*
X152092835Y-78574537D01*
X152050963Y-78630470D01*
X152019987Y-78647385D01*
X151887911Y-78696646D01*
X151887906Y-78696649D01*
X151772812Y-78782809D01*
X151772809Y-78782812D01*
X151686649Y-78897906D01*
X151686645Y-78897913D01*
X151636403Y-79032620D01*
X151636401Y-79032627D01*
X151630000Y-79092155D01*
X138340500Y-79092155D01*
X138340500Y-78780943D01*
X138340500Y-72730943D01*
X138299577Y-72578216D01*
X138255289Y-72501506D01*
X138220524Y-72441290D01*
X138220521Y-72441286D01*
X138220520Y-72441284D01*
X138108716Y-72329480D01*
X138108715Y-72329479D01*
X138104385Y-72325149D01*
X138104374Y-72325139D01*
X135638718Y-69859483D01*
X135638716Y-69859481D01*
X135501785Y-69780423D01*
X135349057Y-69739499D01*
X135190943Y-69739499D01*
X135076397Y-69770192D01*
X135038214Y-69780423D01*
X134901284Y-69859481D01*
X134901281Y-69859483D01*
X129317584Y-75443181D01*
X129256261Y-75476666D01*
X129229903Y-75479500D01*
X127029091Y-75479500D01*
X126962052Y-75459815D01*
X126916711Y-75407909D01*
X126914037Y-75402175D01*
X126914034Y-75402170D01*
X126914033Y-75402169D01*
X126779142Y-75209523D01*
X126778494Y-75208597D01*
X126611402Y-75041506D01*
X126611396Y-75041501D01*
X126425842Y-74911575D01*
X126382217Y-74856998D01*
X126375023Y-74787500D01*
X126406546Y-74725145D01*
X126425842Y-74708425D01*
X126467502Y-74679254D01*
X126611401Y-74578495D01*
X126778495Y-74411401D01*
X126914035Y-74217830D01*
X127013903Y-74003663D01*
X127075063Y-73775408D01*
X127095659Y-73540000D01*
X127075063Y-73304592D01*
X127021566Y-73104937D01*
X127013905Y-73076344D01*
X127013904Y-73076343D01*
X127013903Y-73076337D01*
X126914035Y-72862171D01*
X126872087Y-72802262D01*
X126778494Y-72668597D01*
X126611402Y-72501506D01*
X126611396Y-72501501D01*
X126425842Y-72371575D01*
X126382217Y-72316998D01*
X126375023Y-72247500D01*
X126406546Y-72185145D01*
X126425842Y-72168425D01*
X126448026Y-72152891D01*
X126611401Y-72038495D01*
X126778495Y-71871401D01*
X126914035Y-71677830D01*
X127013903Y-71463663D01*
X127075063Y-71235408D01*
X127095659Y-71000000D01*
X127075063Y-70764592D01*
X127013903Y-70536337D01*
X126914035Y-70322171D01*
X126850479Y-70231402D01*
X126778494Y-70128597D01*
X126611402Y-69961506D01*
X126611396Y-69961501D01*
X126425842Y-69831575D01*
X126382217Y-69776998D01*
X126375023Y-69707500D01*
X126406546Y-69645145D01*
X126425842Y-69628425D01*
X126542460Y-69546768D01*
X126611401Y-69498495D01*
X126778495Y-69331401D01*
X126914035Y-69137830D01*
X127013903Y-68923663D01*
X127075063Y-68695408D01*
X127095659Y-68460000D01*
X127095621Y-68459571D01*
X127083542Y-68321505D01*
X127075063Y-68224592D01*
X127013903Y-67996337D01*
X126914035Y-67782171D01*
X126869252Y-67718213D01*
X126778494Y-67588597D01*
X126611402Y-67421506D01*
X126611396Y-67421501D01*
X126425842Y-67291575D01*
X126382217Y-67236998D01*
X126375023Y-67167500D01*
X126406546Y-67105145D01*
X126425842Y-67088425D01*
X126479372Y-67050943D01*
X126611401Y-66958495D01*
X126778495Y-66791401D01*
X126914035Y-66597830D01*
X127013903Y-66383663D01*
X127075063Y-66155408D01*
X127095659Y-65920000D01*
X127095605Y-65919388D01*
X127083542Y-65781505D01*
X127075063Y-65684592D01*
X127013903Y-65456337D01*
X126914035Y-65242171D01*
X126896751Y-65217487D01*
X126778496Y-65048600D01*
X126729892Y-64999996D01*
X126656567Y-64926671D01*
X126623084Y-64865351D01*
X126628068Y-64795659D01*
X126669939Y-64739725D01*
X126700915Y-64722810D01*
X126832331Y-64673796D01*
X126947546Y-64587546D01*
X127033796Y-64472331D01*
X127084091Y-64337483D01*
X127090500Y-64277873D01*
X127090499Y-62482128D01*
X127084091Y-62422517D01*
X127082344Y-62417834D01*
X127033797Y-62287671D01*
X127033793Y-62287664D01*
X126947547Y-62172455D01*
X126947544Y-62172452D01*
X126832335Y-62086206D01*
X126832328Y-62086202D01*
X126697482Y-62035908D01*
X126697483Y-62035908D01*
X126637883Y-62029501D01*
X126637881Y-62029500D01*
X126637873Y-62029500D01*
X126637864Y-62029500D01*
X124842129Y-62029500D01*
X124842123Y-62029501D01*
X124782516Y-62035908D01*
X124647671Y-62086202D01*
X124647664Y-62086206D01*
X124532455Y-62172452D01*
X124532452Y-62172455D01*
X124446206Y-62287664D01*
X124446202Y-62287671D01*
X124395908Y-62422517D01*
X124389501Y-62482116D01*
X124389501Y-62482123D01*
X124389500Y-62482135D01*
X124389500Y-64277870D01*
X124389501Y-64277876D01*
X124395908Y-64337483D01*
X124446202Y-64472328D01*
X124446206Y-64472335D01*
X124532452Y-64587544D01*
X124532455Y-64587547D01*
X124647664Y-64673793D01*
X124647671Y-64673797D01*
X124779081Y-64722810D01*
X124835015Y-64764681D01*
X124859432Y-64830145D01*
X124844580Y-64898418D01*
X124823430Y-64926673D01*
X124701503Y-65048600D01*
X124565965Y-65242169D01*
X124565964Y-65242171D01*
X124490878Y-65403195D01*
X124467171Y-65454035D01*
X124466098Y-65456335D01*
X124466094Y-65456344D01*
X124404938Y-65684586D01*
X124404936Y-65684596D01*
X124384341Y-65919999D01*
X124384341Y-65920000D01*
X124404936Y-66155403D01*
X124404938Y-66155413D01*
X124466094Y-66383655D01*
X124466096Y-66383659D01*
X124466097Y-66383663D01*
X124550820Y-66565351D01*
X124565965Y-66597830D01*
X124565967Y-66597834D01*
X124701501Y-66791395D01*
X124701506Y-66791402D01*
X124868597Y-66958493D01*
X124868603Y-66958498D01*
X125054158Y-67088425D01*
X125097783Y-67143002D01*
X125104977Y-67212500D01*
X125073454Y-67274855D01*
X125054158Y-67291575D01*
X124868597Y-67421505D01*
X124701505Y-67588597D01*
X124565965Y-67782169D01*
X124565964Y-67782171D01*
X124499464Y-67924782D01*
X124467171Y-67994035D01*
X124466098Y-67996335D01*
X124466094Y-67996344D01*
X124404938Y-68224586D01*
X124404936Y-68224596D01*
X124384341Y-68459999D01*
X124384341Y-68460000D01*
X124404936Y-68695403D01*
X124404938Y-68695413D01*
X124466094Y-68923655D01*
X124466096Y-68923659D01*
X124466097Y-68923663D01*
X124559789Y-69124586D01*
X124565965Y-69137830D01*
X124565967Y-69137834D01*
X124701501Y-69331395D01*
X124701506Y-69331402D01*
X124868597Y-69498493D01*
X124868603Y-69498498D01*
X125054158Y-69628425D01*
X125097783Y-69683002D01*
X125104977Y-69752500D01*
X125073454Y-69814855D01*
X125054158Y-69831575D01*
X124868597Y-69961505D01*
X124701505Y-70128597D01*
X124565965Y-70322169D01*
X124565964Y-70322171D01*
X124483041Y-70500000D01*
X124467171Y-70534035D01*
X124466098Y-70536335D01*
X124466094Y-70536344D01*
X124404938Y-70764586D01*
X124404936Y-70764596D01*
X124384341Y-70999999D01*
X124384341Y-71000000D01*
X124404936Y-71235403D01*
X124404938Y-71235413D01*
X124466094Y-71463655D01*
X124466096Y-71463659D01*
X124466097Y-71463663D01*
X124498931Y-71534075D01*
X124565965Y-71677830D01*
X124565967Y-71677834D01*
X124701501Y-71871395D01*
X124701506Y-71871402D01*
X124868597Y-72038493D01*
X124868603Y-72038498D01*
X125054158Y-72168425D01*
X125097783Y-72223002D01*
X125104977Y-72292500D01*
X125073454Y-72354855D01*
X125054158Y-72371575D01*
X124868597Y-72501505D01*
X124701505Y-72668597D01*
X124565965Y-72862169D01*
X124565964Y-72862171D01*
X124466098Y-73076335D01*
X124466094Y-73076344D01*
X124404938Y-73304586D01*
X124404936Y-73304596D01*
X124384341Y-73539999D01*
X124384341Y-73540000D01*
X124404936Y-73775403D01*
X124404938Y-73775413D01*
X124466094Y-74003655D01*
X124466096Y-74003659D01*
X124466097Y-74003663D01*
X124534557Y-74150476D01*
X124565965Y-74217830D01*
X124565967Y-74217834D01*
X124701501Y-74411395D01*
X124701506Y-74411402D01*
X124868597Y-74578493D01*
X124868603Y-74578498D01*
X125054158Y-74708425D01*
X125097783Y-74763002D01*
X125104977Y-74832500D01*
X125073454Y-74894855D01*
X125054158Y-74911575D01*
X124868597Y-75041505D01*
X124701505Y-75208597D01*
X124565965Y-75402169D01*
X124565964Y-75402171D01*
X124480342Y-75585788D01*
X124467171Y-75614035D01*
X124466098Y-75616335D01*
X124466094Y-75616344D01*
X124404938Y-75844586D01*
X124404936Y-75844596D01*
X124384341Y-76079999D01*
X124384341Y-76080000D01*
X124404936Y-76315403D01*
X124404938Y-76315413D01*
X124466094Y-76543655D01*
X124466096Y-76543659D01*
X124466097Y-76543663D01*
X124529906Y-76680501D01*
X124565965Y-76757830D01*
X124565967Y-76757834D01*
X124600399Y-76807007D01*
X124701505Y-76951401D01*
X124868599Y-77118495D01*
X125043848Y-77241206D01*
X125054594Y-77248730D01*
X125098219Y-77303307D01*
X125105413Y-77372805D01*
X125073890Y-77435160D01*
X125054595Y-77451880D01*
X124868922Y-77581890D01*
X124868920Y-77581891D01*
X124701891Y-77748920D01*
X124701886Y-77748926D01*
X124566400Y-77942420D01*
X124566399Y-77942422D01*
X124466570Y-78156507D01*
X124466567Y-78156513D01*
X124409364Y-78369999D01*
X124409364Y-78370000D01*
X125306988Y-78370000D01*
X125274075Y-78427007D01*
X125240000Y-78554174D01*
X125240000Y-78685826D01*
X125274075Y-78812993D01*
X125306988Y-78870000D01*
X124409364Y-78870000D01*
X124466567Y-79083486D01*
X124466570Y-79083492D01*
X124566399Y-79297578D01*
X124701894Y-79491082D01*
X124868917Y-79658105D01*
X125062421Y-79793600D01*
X125276507Y-79893429D01*
X125276516Y-79893433D01*
X125490000Y-79950634D01*
X125490000Y-79053012D01*
X125547007Y-79085925D01*
X125674174Y-79120000D01*
X125805826Y-79120000D01*
X125932993Y-79085925D01*
X125990000Y-79053012D01*
X125990000Y-79950633D01*
X126203483Y-79893433D01*
X126203492Y-79893429D01*
X126417578Y-79793600D01*
X126611082Y-79658105D01*
X126778105Y-79491082D01*
X126913600Y-79297578D01*
X127013429Y-79083492D01*
X127013432Y-79083486D01*
X127070636Y-78870000D01*
X126173012Y-78870000D01*
X126205925Y-78812993D01*
X126240000Y-78685826D01*
X126240000Y-78554174D01*
X126205925Y-78427007D01*
X126173012Y-78370000D01*
X127070636Y-78370000D01*
X127070635Y-78369999D01*
X127013432Y-78156513D01*
X127013429Y-78156507D01*
X126913600Y-77942422D01*
X126913599Y-77942420D01*
X126778113Y-77748926D01*
X126778108Y-77748920D01*
X126611078Y-77581890D01*
X126425405Y-77451879D01*
X126381780Y-77397302D01*
X126374588Y-77327804D01*
X126406110Y-77265449D01*
X126425406Y-77248730D01*
X126426836Y-77247729D01*
X126611401Y-77118495D01*
X126778495Y-76951401D01*
X126914035Y-76757830D01*
X126916707Y-76752097D01*
X126962878Y-76699658D01*
X127029091Y-76680500D01*
X129443331Y-76680500D01*
X129443347Y-76680501D01*
X129450943Y-76680501D01*
X129609055Y-76680501D01*
X129609057Y-76680501D01*
X129628145Y-76675386D01*
X129697992Y-76677045D01*
X129755857Y-76716206D01*
X129783363Y-76780433D01*
X129771780Y-76849336D01*
X129747922Y-76882840D01*
X126361286Y-80269478D01*
X126249481Y-80381282D01*
X126249477Y-80381287D01*
X126222386Y-80428213D01*
X126222385Y-80428215D01*
X126170423Y-80518215D01*
X126129499Y-80670943D01*
X126129499Y-80670945D01*
X126129499Y-80839046D01*
X126129500Y-80839059D01*
X126129500Y-81217587D01*
X126109815Y-81284626D01*
X126102450Y-81294896D01*
X126100186Y-81297734D01*
X126004211Y-81450476D01*
X125944631Y-81620745D01*
X125944630Y-81620750D01*
X125924435Y-81799996D01*
X125924435Y-81800003D01*
X125944630Y-81979249D01*
X125944631Y-81979254D01*
X126004211Y-82149523D01*
X126028483Y-82188151D01*
X126100184Y-82302262D01*
X126227738Y-82429816D01*
X126380478Y-82525789D01*
X126550745Y-82585368D01*
X126550750Y-82585369D01*
X126729996Y-82605565D01*
X126730000Y-82605565D01*
X126730004Y-82605565D01*
X126909249Y-82585369D01*
X126909252Y-82585368D01*
X126909255Y-82585368D01*
X127079522Y-82525789D01*
X127232262Y-82429816D01*
X127359816Y-82302262D01*
X127455789Y-82149522D01*
X127515368Y-81979255D01*
X127528146Y-81865845D01*
X127535565Y-81800003D01*
X127535565Y-81799996D01*
X127515369Y-81620750D01*
X127515368Y-81620745D01*
X127455788Y-81450476D01*
X127405221Y-81369999D01*
X127359816Y-81297738D01*
X127359814Y-81297736D01*
X127359813Y-81297734D01*
X127357550Y-81294896D01*
X127356659Y-81292715D01*
X127356111Y-81291842D01*
X127356264Y-81291745D01*
X127331144Y-81230209D01*
X127330500Y-81217587D01*
X127330500Y-81050096D01*
X127350185Y-80983057D01*
X127366814Y-80962420D01*
X130471132Y-77858102D01*
X130532451Y-77824620D01*
X130602143Y-77829604D01*
X130658076Y-77871476D01*
X130678584Y-77913692D01*
X130686567Y-77943485D01*
X130686570Y-77943492D01*
X130786399Y-78157578D01*
X130921894Y-78351082D01*
X131044334Y-78473522D01*
X131077819Y-78534845D01*
X131072835Y-78604537D01*
X131030963Y-78660470D01*
X130999987Y-78677385D01*
X130867911Y-78726646D01*
X130867906Y-78726649D01*
X130752812Y-78812809D01*
X130752809Y-78812812D01*
X130666649Y-78927906D01*
X130666645Y-78927913D01*
X130616403Y-79062620D01*
X130616401Y-79062627D01*
X130610000Y-79122155D01*
X130610000Y-79770000D01*
X131526988Y-79770000D01*
X131494075Y-79827007D01*
X131460000Y-79954174D01*
X131460000Y-80085826D01*
X131494075Y-80212993D01*
X131526988Y-80270000D01*
X130610000Y-80270000D01*
X130610000Y-80917844D01*
X130616401Y-80977372D01*
X130616403Y-80977379D01*
X130666645Y-81112086D01*
X130666649Y-81112093D01*
X130752809Y-81227187D01*
X130752812Y-81227190D01*
X130867906Y-81313350D01*
X130867913Y-81313354D01*
X131002620Y-81363596D01*
X131002627Y-81363598D01*
X131062155Y-81369999D01*
X131062172Y-81370000D01*
X131710000Y-81370000D01*
X131710000Y-80453012D01*
X131767007Y-80485925D01*
X131894174Y-80520000D01*
X132025826Y-80520000D01*
X132152993Y-80485925D01*
X132210000Y-80453012D01*
X132210000Y-81370000D01*
X132857828Y-81370000D01*
X132857844Y-81369999D01*
X132917372Y-81363598D01*
X132917379Y-81363596D01*
X133052086Y-81313354D01*
X133052093Y-81313350D01*
X133167187Y-81227190D01*
X133167190Y-81227187D01*
X133253350Y-81112093D01*
X133253354Y-81112086D01*
X133303596Y-80977379D01*
X133303598Y-80977372D01*
X133309999Y-80917844D01*
X133310000Y-80917827D01*
X133310000Y-80270000D01*
X132393012Y-80270000D01*
X132425925Y-80212993D01*
X132460000Y-80085826D01*
X132460000Y-79954174D01*
X132425925Y-79827007D01*
X132393012Y-79770000D01*
X133310000Y-79770000D01*
X133310000Y-79122172D01*
X133309999Y-79122155D01*
X133303598Y-79062627D01*
X133303596Y-79062620D01*
X133253354Y-78927913D01*
X133253350Y-78927906D01*
X133167190Y-78812812D01*
X133167187Y-78812809D01*
X133052093Y-78726649D01*
X133052086Y-78726645D01*
X132920013Y-78677385D01*
X132864079Y-78635514D01*
X132839662Y-78570049D01*
X132854514Y-78501776D01*
X132875665Y-78473521D01*
X132998108Y-78351078D01*
X133133600Y-78157578D01*
X133233429Y-77943492D01*
X133233432Y-77943486D01*
X133290636Y-77730000D01*
X132393012Y-77730000D01*
X132425925Y-77672993D01*
X132460000Y-77545826D01*
X132460000Y-77414174D01*
X132425925Y-77287007D01*
X132393012Y-77230000D01*
X133290636Y-77230000D01*
X133290635Y-77229999D01*
X133233432Y-77016513D01*
X133233429Y-77016507D01*
X133133600Y-76802422D01*
X133133599Y-76802420D01*
X132998113Y-76608926D01*
X132998108Y-76608920D01*
X132831082Y-76441894D01*
X132637578Y-76306399D01*
X132423492Y-76206570D01*
X132423485Y-76206567D01*
X132393692Y-76198584D01*
X132334031Y-76162218D01*
X132303503Y-76099371D01*
X132311798Y-76029996D01*
X132338100Y-75991134D01*
X135198536Y-73130698D01*
X135259857Y-73097215D01*
X135272310Y-73095163D01*
X135359255Y-73085368D01*
X135529522Y-73025789D01*
X135682262Y-72929816D01*
X135809816Y-72802262D01*
X135905789Y-72649522D01*
X135965368Y-72479255D01*
X135966705Y-72467389D01*
X135985565Y-72300003D01*
X135985565Y-72299996D01*
X135975060Y-72206760D01*
X135987115Y-72137938D01*
X136034464Y-72086559D01*
X136102074Y-72068935D01*
X136168480Y-72090662D01*
X136185961Y-72105196D01*
X137103181Y-73022416D01*
X137136666Y-73083739D01*
X137139500Y-73110097D01*
X137139500Y-80359902D01*
X137119815Y-80426941D01*
X137103181Y-80447583D01*
X134611465Y-82939298D01*
X134550142Y-82972783D01*
X134537668Y-82974837D01*
X134450750Y-82984630D01*
X134280478Y-83044210D01*
X134127737Y-83140184D01*
X134000184Y-83267737D01*
X133904209Y-83420480D01*
X133872314Y-83511631D01*
X133831593Y-83568407D01*
X133766640Y-83594154D01*
X133698078Y-83580698D01*
X133667592Y-83558357D01*
X133437590Y-83328355D01*
X133437588Y-83328352D01*
X133318717Y-83209481D01*
X133318709Y-83209475D01*
X133198692Y-83140184D01*
X133198689Y-83140183D01*
X133181785Y-83130423D01*
X133029057Y-83089499D01*
X132870943Y-83089499D01*
X132863347Y-83089499D01*
X132863331Y-83089500D01*
X123434500Y-83089500D01*
X123367461Y-83069815D01*
X123321706Y-83017011D01*
X123310500Y-82965500D01*
X123310500Y-67870945D01*
X123310498Y-67870936D01*
X123307165Y-67858495D01*
X123306338Y-67855408D01*
X123269577Y-67718215D01*
X123223577Y-67638541D01*
X123207048Y-67609912D01*
X123190521Y-67581285D01*
X123074385Y-67465149D01*
X123074374Y-67465139D01*
X117832766Y-62223531D01*
X117799281Y-62162208D01*
X117800672Y-62103757D01*
X117810062Y-62068712D01*
X117835063Y-61975408D01*
X117855659Y-61740000D01*
X117835063Y-61504592D01*
X117773903Y-61276337D01*
X117674035Y-61062171D01*
X117643525Y-61018597D01*
X117538494Y-60868597D01*
X117371402Y-60701506D01*
X117371396Y-60701501D01*
X117185842Y-60571575D01*
X117142217Y-60516998D01*
X117135023Y-60447500D01*
X117166546Y-60385145D01*
X117185842Y-60368425D01*
X117284905Y-60299060D01*
X117371401Y-60238495D01*
X117538495Y-60071401D01*
X117674035Y-59877830D01*
X117773903Y-59663663D01*
X117835063Y-59435408D01*
X117855659Y-59200000D01*
X117835063Y-58964592D01*
X117800671Y-58836239D01*
X117802334Y-58766393D01*
X117832763Y-58716470D01*
X121222416Y-55326819D01*
X121283739Y-55293334D01*
X121310097Y-55290500D01*
X132927588Y-55290500D01*
X132994627Y-55310185D01*
X133004903Y-55317555D01*
X133007736Y-55319814D01*
X133007738Y-55319816D01*
X133160478Y-55415789D01*
X133272951Y-55455145D01*
X133330745Y-55475368D01*
X133330750Y-55475369D01*
X133392086Y-55482280D01*
X133456500Y-55509346D01*
X133496056Y-55566941D01*
X133498193Y-55636778D01*
X133462235Y-55696684D01*
X133399597Y-55727640D01*
X133378203Y-55729500D01*
X129146669Y-55729500D01*
X129146653Y-55729499D01*
X129139057Y-55729499D01*
X128980943Y-55729499D01*
X128901010Y-55750917D01*
X128828216Y-55770422D01*
X128796732Y-55788600D01*
X128796731Y-55788599D01*
X128691287Y-55849477D01*
X128691282Y-55849481D01*
X128579481Y-55961282D01*
X128579479Y-55961285D01*
X128529361Y-56048094D01*
X128529359Y-56048096D01*
X128500425Y-56098209D01*
X128500424Y-56098210D01*
X128492206Y-56128881D01*
X128459499Y-56250943D01*
X128459499Y-56250945D01*
X128459499Y-56409054D01*
X128459498Y-56409054D01*
X128463662Y-56424592D01*
X128500423Y-56561785D01*
X128502886Y-56566050D01*
X128519500Y-56628052D01*
X128519500Y-63390943D01*
X128519500Y-63549057D01*
X128533732Y-63602169D01*
X128560423Y-63701783D01*
X128560426Y-63701790D01*
X128639475Y-63838709D01*
X128639479Y-63838714D01*
X128639480Y-63838716D01*
X128751284Y-63950520D01*
X128751286Y-63950521D01*
X128751290Y-63950524D01*
X128888209Y-64029573D01*
X128888216Y-64029577D01*
X129040943Y-64070500D01*
X130565500Y-64070500D01*
X130632539Y-64090185D01*
X130678294Y-64142989D01*
X130689500Y-64194500D01*
X130689500Y-65977870D01*
X130689501Y-65977876D01*
X130695908Y-66037483D01*
X130746202Y-66172328D01*
X130746206Y-66172335D01*
X130832452Y-66287544D01*
X130832455Y-66287547D01*
X130947664Y-66373793D01*
X130947671Y-66373797D01*
X131079081Y-66422810D01*
X131135015Y-66464681D01*
X131159432Y-66530145D01*
X131144580Y-66598418D01*
X131123430Y-66626673D01*
X131001503Y-66748600D01*
X130865965Y-66942169D01*
X130865964Y-66942171D01*
X130766098Y-67156335D01*
X130766094Y-67156344D01*
X130704938Y-67384586D01*
X130704936Y-67384596D01*
X130684341Y-67619999D01*
X130684341Y-67620000D01*
X130704936Y-67855403D01*
X130704936Y-67855406D01*
X130704937Y-67855408D01*
X130704938Y-67855410D01*
X130766094Y-68083655D01*
X130766096Y-68083659D01*
X130766097Y-68083663D01*
X130843707Y-68250097D01*
X130865965Y-68297830D01*
X130865967Y-68297834D01*
X130945484Y-68411395D01*
X131001505Y-68491401D01*
X131168599Y-68658495D01*
X131247914Y-68714032D01*
X131362165Y-68794032D01*
X131362167Y-68794033D01*
X131362170Y-68794035D01*
X131576337Y-68893903D01*
X131576343Y-68893904D01*
X131576344Y-68893905D01*
X131585413Y-68896335D01*
X131804592Y-68955063D01*
X131992918Y-68971539D01*
X132039999Y-68975659D01*
X132040000Y-68975659D01*
X132040001Y-68975659D01*
X132079234Y-68972226D01*
X132275408Y-68955063D01*
X132503663Y-68893903D01*
X132717830Y-68794035D01*
X132911401Y-68658495D01*
X133078495Y-68491401D01*
X133214035Y-68297830D01*
X133313903Y-68083663D01*
X133375063Y-67855408D01*
X133395659Y-67620000D01*
X133375063Y-67384592D01*
X133313903Y-67156337D01*
X133214035Y-66942171D01*
X133170505Y-66880004D01*
X133078496Y-66748600D01*
X133023562Y-66693666D01*
X132956567Y-66626671D01*
X132923084Y-66565351D01*
X132928068Y-66495659D01*
X132969939Y-66439725D01*
X133000915Y-66422810D01*
X133132331Y-66373796D01*
X133247546Y-66287546D01*
X133333796Y-66172331D01*
X133384091Y-66037483D01*
X133390500Y-65977873D01*
X133390499Y-65169094D01*
X133410183Y-65102057D01*
X133462987Y-65056302D01*
X133532146Y-65046358D01*
X133595702Y-65075383D01*
X133602180Y-65081415D01*
X137879298Y-69358533D01*
X137912783Y-69419856D01*
X137914837Y-69432330D01*
X137924630Y-69519249D01*
X137984210Y-69689521D01*
X138023783Y-69752500D01*
X138080184Y-69842262D01*
X138207738Y-69969816D01*
X138298080Y-70026582D01*
X138315981Y-70037830D01*
X138360478Y-70065789D01*
X138530745Y-70125368D01*
X138530750Y-70125369D01*
X138709996Y-70145565D01*
X138710000Y-70145565D01*
X138710004Y-70145565D01*
X138889249Y-70125369D01*
X138889252Y-70125368D01*
X138889255Y-70125368D01*
X139059522Y-70065789D01*
X139212262Y-69969816D01*
X139339816Y-69842262D01*
X139435789Y-69689522D01*
X139495368Y-69519255D01*
X139497707Y-69498495D01*
X139515565Y-69340003D01*
X139515565Y-69339996D01*
X139495369Y-69160750D01*
X139495368Y-69160745D01*
X139482719Y-69124596D01*
X139435789Y-68990478D01*
X139339816Y-68837738D01*
X139212262Y-68710184D01*
X139167680Y-68682171D01*
X139059521Y-68614210D01*
X138889249Y-68554630D01*
X138802330Y-68544837D01*
X138737916Y-68517770D01*
X138728533Y-68509298D01*
X135219231Y-64999996D01*
X149194435Y-64999996D01*
X149194435Y-65000003D01*
X149214630Y-65179249D01*
X149214631Y-65179254D01*
X149274211Y-65349523D01*
X149307936Y-65403195D01*
X149370184Y-65502262D01*
X149497738Y-65629816D01*
X149584904Y-65684586D01*
X149641460Y-65720123D01*
X149650478Y-65725789D01*
X149809694Y-65781501D01*
X149820745Y-65785368D01*
X149820750Y-65785369D01*
X149999996Y-65805565D01*
X150000000Y-65805565D01*
X150000004Y-65805565D01*
X150179249Y-65785369D01*
X150179252Y-65785368D01*
X150179255Y-65785368D01*
X150349522Y-65725789D01*
X150502262Y-65629816D01*
X150629816Y-65502262D01*
X150725789Y-65349522D01*
X150785368Y-65179255D01*
X150795161Y-65092329D01*
X150822226Y-65027918D01*
X150830690Y-65018543D01*
X151437820Y-64411414D01*
X151499142Y-64377930D01*
X151568834Y-64382914D01*
X151624767Y-64424786D01*
X151649184Y-64490250D01*
X151649500Y-64499096D01*
X151649500Y-65897870D01*
X151649501Y-65897876D01*
X151655908Y-65957483D01*
X151706202Y-66092328D01*
X151706206Y-66092335D01*
X151792452Y-66207544D01*
X151792455Y-66207547D01*
X151907664Y-66293793D01*
X151907671Y-66293797D01*
X152039081Y-66342810D01*
X152095015Y-66384681D01*
X152119432Y-66450145D01*
X152104580Y-66518418D01*
X152083430Y-66546673D01*
X151961503Y-66668600D01*
X151825965Y-66862169D01*
X151825964Y-66862171D01*
X151726098Y-67076335D01*
X151726094Y-67076344D01*
X151664938Y-67304586D01*
X151664936Y-67304596D01*
X151644341Y-67539999D01*
X151644341Y-67540000D01*
X151664936Y-67775403D01*
X151664938Y-67775413D01*
X151726094Y-68003655D01*
X151726096Y-68003659D01*
X151726097Y-68003663D01*
X151800125Y-68162416D01*
X151825965Y-68217830D01*
X151825967Y-68217834D01*
X151923279Y-68356809D01*
X151961505Y-68411401D01*
X152128599Y-68578495D01*
X152179607Y-68614211D01*
X152322165Y-68714032D01*
X152322167Y-68714033D01*
X152322170Y-68714035D01*
X152536337Y-68813903D01*
X152764592Y-68875063D01*
X152952918Y-68891539D01*
X152999999Y-68895659D01*
X153000000Y-68895659D01*
X153000001Y-68895659D01*
X153039234Y-68892226D01*
X153235408Y-68875063D01*
X153463663Y-68813903D01*
X153677830Y-68714035D01*
X153871401Y-68578495D01*
X154038495Y-68411401D01*
X154174035Y-68217830D01*
X154273903Y-68003663D01*
X154335063Y-67775408D01*
X154355659Y-67540000D01*
X154335063Y-67304592D01*
X154273903Y-67076337D01*
X154174035Y-66862171D01*
X154124482Y-66791402D01*
X154038496Y-66668600D01*
X153995739Y-66625843D01*
X153916567Y-66546671D01*
X153883084Y-66485351D01*
X153888068Y-66415659D01*
X153929939Y-66359725D01*
X153960915Y-66342810D01*
X154092331Y-66293796D01*
X154207546Y-66207546D01*
X154293796Y-66092331D01*
X154344091Y-65957483D01*
X154350500Y-65897873D01*
X154350499Y-64102128D01*
X154345299Y-64053757D01*
X154344091Y-64042516D01*
X154293797Y-63907671D01*
X154293793Y-63907664D01*
X154207547Y-63792455D01*
X154207544Y-63792452D01*
X154092335Y-63706206D01*
X154092328Y-63706202D01*
X153957482Y-63655908D01*
X153957483Y-63655908D01*
X153897883Y-63649501D01*
X153897881Y-63649500D01*
X153897873Y-63649500D01*
X153897865Y-63649500D01*
X152499096Y-63649500D01*
X152432057Y-63629815D01*
X152386302Y-63577011D01*
X152376358Y-63507853D01*
X152405383Y-63444297D01*
X152411415Y-63437819D01*
X152458291Y-63390943D01*
X153780520Y-62068716D01*
X153814131Y-62010500D01*
X153824524Y-61992499D01*
X153875091Y-61944284D01*
X153931911Y-61930499D01*
X154197871Y-61930499D01*
X154197872Y-61930499D01*
X154257483Y-61924091D01*
X154392331Y-61873796D01*
X154507546Y-61787546D01*
X154593796Y-61672331D01*
X154644091Y-61537483D01*
X154650500Y-61477873D01*
X154650499Y-59682128D01*
X154644091Y-59622517D01*
X154630250Y-59585408D01*
X154593797Y-59487671D01*
X154593793Y-59487664D01*
X154507547Y-59372455D01*
X154507544Y-59372452D01*
X154392335Y-59286206D01*
X154392328Y-59286202D01*
X154260917Y-59237189D01*
X154204983Y-59195318D01*
X154180566Y-59129853D01*
X154195418Y-59061580D01*
X154216563Y-59033332D01*
X154338495Y-58911401D01*
X154474035Y-58717830D01*
X154573903Y-58503663D01*
X154635063Y-58275408D01*
X154655659Y-58040000D01*
X154635063Y-57804592D01*
X154573903Y-57576337D01*
X154474035Y-57362171D01*
X154471930Y-57359164D01*
X154338494Y-57168597D01*
X154171402Y-57001506D01*
X154171395Y-57001501D01*
X154162693Y-56995408D01*
X154092082Y-56945965D01*
X153977834Y-56865967D01*
X153977830Y-56865965D01*
X153935221Y-56846096D01*
X153763663Y-56766097D01*
X153763659Y-56766096D01*
X153763655Y-56766094D01*
X153535413Y-56704938D01*
X153535403Y-56704936D01*
X153300001Y-56684341D01*
X153299999Y-56684341D01*
X153064596Y-56704936D01*
X153064586Y-56704938D01*
X152836344Y-56766094D01*
X152836335Y-56766098D01*
X152622171Y-56865964D01*
X152622169Y-56865965D01*
X152428597Y-57001505D01*
X152261505Y-57168597D01*
X152125965Y-57362169D01*
X152125964Y-57362171D01*
X152026098Y-57576335D01*
X152026094Y-57576344D01*
X151964938Y-57804586D01*
X151964936Y-57804596D01*
X151944341Y-58039999D01*
X151944341Y-58040000D01*
X151964936Y-58275403D01*
X151964938Y-58275413D01*
X152026094Y-58503655D01*
X152026096Y-58503659D01*
X152026097Y-58503663D01*
X152086010Y-58632147D01*
X152125965Y-58717830D01*
X152125967Y-58717834D01*
X152208949Y-58836344D01*
X152261501Y-58911396D01*
X152261506Y-58911402D01*
X152383430Y-59033326D01*
X152416915Y-59094649D01*
X152411931Y-59164341D01*
X152370059Y-59220274D01*
X152339083Y-59237189D01*
X152207669Y-59286203D01*
X152207664Y-59286206D01*
X152092455Y-59372452D01*
X152092452Y-59372455D01*
X152006206Y-59487664D01*
X152006202Y-59487671D01*
X151955908Y-59622517D01*
X151951486Y-59663655D01*
X151949501Y-59682123D01*
X151949500Y-59682135D01*
X151949500Y-61477870D01*
X151949501Y-61477876D01*
X151955908Y-61537483D01*
X152006202Y-61672328D01*
X152006206Y-61672335D01*
X152092452Y-61787544D01*
X152092453Y-61787544D01*
X152092454Y-61787546D01*
X152122202Y-61809815D01*
X152132741Y-61817705D01*
X152174611Y-61873639D01*
X152179595Y-61943331D01*
X152146110Y-62004652D01*
X149981465Y-64169298D01*
X149920142Y-64202783D01*
X149907668Y-64204837D01*
X149820750Y-64214630D01*
X149650478Y-64274210D01*
X149497737Y-64370184D01*
X149370184Y-64497737D01*
X149274211Y-64650476D01*
X149214631Y-64820745D01*
X149214630Y-64820750D01*
X149194435Y-64999996D01*
X135219231Y-64999996D01*
X134566819Y-64347584D01*
X134533334Y-64286261D01*
X134530500Y-64259903D01*
X134530500Y-63390945D01*
X134530500Y-63390943D01*
X134489577Y-63238216D01*
X134417806Y-63113903D01*
X134410524Y-63101290D01*
X134410518Y-63101282D01*
X134298717Y-62989481D01*
X134298709Y-62989475D01*
X134161790Y-62910426D01*
X134161786Y-62910424D01*
X134161784Y-62910423D01*
X134009057Y-62869500D01*
X134009056Y-62869500D01*
X129844500Y-62869500D01*
X129777461Y-62849815D01*
X129731706Y-62797011D01*
X129720500Y-62745500D01*
X129720500Y-57054500D01*
X129740185Y-56987461D01*
X129792989Y-56941706D01*
X129844500Y-56930500D01*
X131320241Y-56930500D01*
X131387280Y-56950185D01*
X131433035Y-57002989D01*
X131442979Y-57072147D01*
X131413954Y-57135703D01*
X131407922Y-57142181D01*
X131301505Y-57248597D01*
X131165965Y-57442169D01*
X131165964Y-57442171D01*
X131066098Y-57656335D01*
X131066094Y-57656344D01*
X131004938Y-57884586D01*
X131004936Y-57884596D01*
X130984341Y-58119999D01*
X130984341Y-58120000D01*
X131004936Y-58355403D01*
X131004938Y-58355413D01*
X131066094Y-58583655D01*
X131066096Y-58583659D01*
X131066097Y-58583663D01*
X131107368Y-58672169D01*
X131165965Y-58797830D01*
X131165967Y-58797834D01*
X131227937Y-58886335D01*
X131301501Y-58991396D01*
X131301506Y-58991402D01*
X131423430Y-59113326D01*
X131456915Y-59174649D01*
X131451931Y-59244341D01*
X131410059Y-59300274D01*
X131379083Y-59317189D01*
X131247669Y-59366203D01*
X131247664Y-59366206D01*
X131132455Y-59452452D01*
X131132452Y-59452455D01*
X131046206Y-59567664D01*
X131046202Y-59567671D01*
X130995908Y-59702517D01*
X130989501Y-59762116D01*
X130989501Y-59762123D01*
X130989500Y-59762135D01*
X130989500Y-61557870D01*
X130989501Y-61557876D01*
X130995908Y-61617483D01*
X131046202Y-61752328D01*
X131046206Y-61752335D01*
X131132452Y-61867544D01*
X131132455Y-61867547D01*
X131247664Y-61953793D01*
X131247671Y-61953797D01*
X131382517Y-62004091D01*
X131382516Y-62004091D01*
X131387735Y-62004652D01*
X131442127Y-62010500D01*
X133237872Y-62010499D01*
X133297483Y-62004091D01*
X133432331Y-61953796D01*
X133547546Y-61867546D01*
X133633796Y-61752331D01*
X133684091Y-61617483D01*
X133690500Y-61557873D01*
X133690499Y-59762128D01*
X133684091Y-59702517D01*
X133676486Y-59682128D01*
X133633797Y-59567671D01*
X133633793Y-59567664D01*
X133547547Y-59452455D01*
X133547544Y-59452452D01*
X133432335Y-59366206D01*
X133432328Y-59366202D01*
X133300917Y-59317189D01*
X133244983Y-59275318D01*
X133220566Y-59209853D01*
X133235418Y-59141580D01*
X133256563Y-59113332D01*
X133378495Y-58991401D01*
X133514035Y-58797830D01*
X133613903Y-58583663D01*
X133675063Y-58355408D01*
X133695659Y-58120000D01*
X133675063Y-57884592D01*
X133613903Y-57656337D01*
X133514035Y-57442171D01*
X133510998Y-57437834D01*
X133378496Y-57248600D01*
X133346907Y-57217011D01*
X133272075Y-57142179D01*
X133238592Y-57080859D01*
X133243576Y-57011167D01*
X133285447Y-56955233D01*
X133350911Y-56930816D01*
X133359758Y-56930500D01*
X135633331Y-56930500D01*
X135633347Y-56930501D01*
X135640943Y-56930501D01*
X135799054Y-56930501D01*
X135799057Y-56930501D01*
X135951785Y-56889577D01*
X136027094Y-56846097D01*
X136033344Y-56842489D01*
X136088709Y-56810524D01*
X136088708Y-56810524D01*
X136088716Y-56810520D01*
X136200520Y-56698716D01*
X136200521Y-56698714D01*
X136680520Y-56218716D01*
X136759577Y-56081784D01*
X136800501Y-55929057D01*
X136800501Y-55770942D01*
X136800501Y-55763347D01*
X136800500Y-55763329D01*
X136800500Y-50390945D01*
X136800500Y-50390943D01*
X136759577Y-50238216D01*
X136753965Y-50228495D01*
X136680524Y-50101290D01*
X136680518Y-50101282D01*
X136568717Y-49989481D01*
X136568709Y-49989475D01*
X136431790Y-49910426D01*
X136431786Y-49910424D01*
X136431784Y-49910423D01*
X136279057Y-49869500D01*
X136279056Y-49869500D01*
X121510097Y-49869500D01*
X121443058Y-49849815D01*
X121422416Y-49833181D01*
X117851689Y-46262454D01*
X117819596Y-46206867D01*
X117774911Y-46040099D01*
X117773905Y-46036344D01*
X117773904Y-46036343D01*
X117773903Y-46036337D01*
X117674035Y-45822171D01*
X117673925Y-45822013D01*
X117538494Y-45628597D01*
X117371401Y-45461505D01*
X117371396Y-45461501D01*
X117185842Y-45331575D01*
X117142217Y-45276998D01*
X117135023Y-45207500D01*
X117166546Y-45145145D01*
X117185842Y-45128425D01*
X117210814Y-45110939D01*
X117371401Y-44998495D01*
X117538495Y-44831401D01*
X117674035Y-44637830D01*
X117773903Y-44423663D01*
X117835063Y-44195408D01*
X117855659Y-43960000D01*
X117835063Y-43724592D01*
X117773903Y-43496337D01*
X117674035Y-43282171D01*
X117673925Y-43282013D01*
X117538494Y-43088597D01*
X117449895Y-42999999D01*
X122144341Y-42999999D01*
X122144341Y-43000000D01*
X122164936Y-43235403D01*
X122164938Y-43235413D01*
X122226094Y-43463655D01*
X122226096Y-43463659D01*
X122226097Y-43463663D01*
X122310225Y-43644075D01*
X122325965Y-43677830D01*
X122325967Y-43677834D01*
X122434281Y-43832521D01*
X122461505Y-43871401D01*
X122628599Y-44038495D01*
X122753320Y-44125826D01*
X122814594Y-44168730D01*
X122858219Y-44223307D01*
X122865413Y-44292805D01*
X122833890Y-44355160D01*
X122814595Y-44371880D01*
X122628922Y-44501890D01*
X122628920Y-44501891D01*
X122461891Y-44668920D01*
X122461886Y-44668926D01*
X122326400Y-44862420D01*
X122326399Y-44862422D01*
X122226570Y-45076507D01*
X122226567Y-45076513D01*
X122169364Y-45289999D01*
X122169364Y-45290000D01*
X123066988Y-45290000D01*
X123034075Y-45347007D01*
X123000000Y-45474174D01*
X123000000Y-45605826D01*
X123034075Y-45732993D01*
X123066988Y-45790000D01*
X122169364Y-45790000D01*
X122226567Y-46003486D01*
X122226570Y-46003492D01*
X122326399Y-46217578D01*
X122461894Y-46411082D01*
X122628917Y-46578105D01*
X122822421Y-46713600D01*
X123036507Y-46813429D01*
X123036516Y-46813433D01*
X123250000Y-46870634D01*
X123250000Y-45973012D01*
X123307007Y-46005925D01*
X123434174Y-46040000D01*
X123565826Y-46040000D01*
X123692993Y-46005925D01*
X123750000Y-45973012D01*
X123750000Y-46870633D01*
X123963483Y-46813433D01*
X123963492Y-46813429D01*
X124177578Y-46713600D01*
X124371082Y-46578105D01*
X124538105Y-46411082D01*
X124673600Y-46217578D01*
X124773429Y-46003492D01*
X124773432Y-46003486D01*
X124830636Y-45790000D01*
X123933012Y-45790000D01*
X123965925Y-45732993D01*
X124000000Y-45605826D01*
X124000000Y-45474174D01*
X123965925Y-45347007D01*
X123933012Y-45290000D01*
X124830636Y-45290000D01*
X124830635Y-45289999D01*
X124773432Y-45076513D01*
X124773429Y-45076507D01*
X124673600Y-44862422D01*
X124673599Y-44862420D01*
X124538113Y-44668926D01*
X124538108Y-44668920D01*
X124371078Y-44501890D01*
X124185405Y-44371879D01*
X124141780Y-44317302D01*
X124134588Y-44247804D01*
X124166110Y-44185449D01*
X124185406Y-44168730D01*
X124205029Y-44154990D01*
X124371401Y-44038495D01*
X124538495Y-43871401D01*
X124674035Y-43677830D01*
X124773903Y-43463663D01*
X124835063Y-43235408D01*
X124855659Y-43000000D01*
X124835063Y-42764592D01*
X124800671Y-42636239D01*
X124802334Y-42566393D01*
X124832763Y-42516470D01*
X125212416Y-42136819D01*
X125273739Y-42103334D01*
X125300097Y-42100500D01*
X125775499Y-42100500D01*
X125842538Y-42120185D01*
X125888293Y-42172989D01*
X125899499Y-42224500D01*
X125899499Y-42269054D01*
X125899498Y-42269054D01*
X125908043Y-42300943D01*
X125940423Y-42421785D01*
X125940424Y-42421787D01*
X125940423Y-42421787D01*
X125944736Y-42429256D01*
X125944737Y-42429257D01*
X126019477Y-42558712D01*
X126019481Y-42558717D01*
X126138349Y-42677585D01*
X126138355Y-42677590D01*
X127615755Y-44154990D01*
X127649240Y-44216313D01*
X127645116Y-44283625D01*
X127614631Y-44370747D01*
X127594435Y-44549996D01*
X127594435Y-44550003D01*
X127614630Y-44729249D01*
X127614631Y-44729254D01*
X127674211Y-44899523D01*
X127756991Y-45031265D01*
X127770184Y-45052262D01*
X127897738Y-45179816D01*
X127936346Y-45204075D01*
X128036792Y-45267190D01*
X128050478Y-45275789D01*
X128193873Y-45325965D01*
X128220745Y-45335368D01*
X128220750Y-45335369D01*
X128399996Y-45355565D01*
X128400000Y-45355565D01*
X128400004Y-45355565D01*
X128579249Y-45335369D01*
X128579252Y-45335368D01*
X128579255Y-45335368D01*
X128749522Y-45275789D01*
X128902262Y-45179816D01*
X129029816Y-45052262D01*
X129125789Y-44899522D01*
X129170357Y-44772155D01*
X131010000Y-44772155D01*
X131010000Y-45420000D01*
X131926988Y-45420000D01*
X131894075Y-45477007D01*
X131860000Y-45604174D01*
X131860000Y-45735826D01*
X131894075Y-45862993D01*
X131926988Y-45920000D01*
X131010000Y-45920000D01*
X131010000Y-46567844D01*
X131016401Y-46627372D01*
X131016403Y-46627379D01*
X131066645Y-46762086D01*
X131066649Y-46762093D01*
X131152809Y-46877187D01*
X131152812Y-46877190D01*
X131267906Y-46963350D01*
X131267913Y-46963354D01*
X131399986Y-47012614D01*
X131455920Y-47054485D01*
X131480337Y-47119949D01*
X131465486Y-47188222D01*
X131444335Y-47216477D01*
X131321886Y-47338926D01*
X131186400Y-47532420D01*
X131186399Y-47532422D01*
X131086570Y-47746507D01*
X131086567Y-47746513D01*
X131029364Y-47959999D01*
X131029364Y-47960000D01*
X131926988Y-47960000D01*
X131894075Y-48017007D01*
X131860000Y-48144174D01*
X131860000Y-48275826D01*
X131894075Y-48402993D01*
X131926988Y-48460000D01*
X131029364Y-48460000D01*
X131086567Y-48673486D01*
X131086570Y-48673492D01*
X131186399Y-48887578D01*
X131321894Y-49081082D01*
X131488917Y-49248105D01*
X131682421Y-49383600D01*
X131896507Y-49483429D01*
X131896516Y-49483433D01*
X132110000Y-49540634D01*
X132110000Y-48643012D01*
X132167007Y-48675925D01*
X132294174Y-48710000D01*
X132425826Y-48710000D01*
X132552993Y-48675925D01*
X132610000Y-48643012D01*
X132610000Y-49540633D01*
X132823483Y-49483433D01*
X132823492Y-49483429D01*
X133037578Y-49383600D01*
X133231082Y-49248105D01*
X133398105Y-49081082D01*
X133533600Y-48887578D01*
X133633429Y-48673492D01*
X133633432Y-48673486D01*
X133690636Y-48460000D01*
X132793012Y-48460000D01*
X132825925Y-48402993D01*
X132860000Y-48275826D01*
X132860000Y-48144174D01*
X132825925Y-48017007D01*
X132793012Y-47960000D01*
X133690636Y-47960000D01*
X133690635Y-47959999D01*
X133633432Y-47746513D01*
X133633429Y-47746507D01*
X133533600Y-47532422D01*
X133533599Y-47532420D01*
X133398113Y-47338926D01*
X133398108Y-47338920D01*
X133275665Y-47216477D01*
X133242180Y-47155154D01*
X133247164Y-47085462D01*
X133289036Y-47029529D01*
X133320013Y-47012614D01*
X133452086Y-46963354D01*
X133452093Y-46963350D01*
X133567187Y-46877190D01*
X133567190Y-46877187D01*
X133653350Y-46762093D01*
X133653354Y-46762086D01*
X133703596Y-46627379D01*
X133703598Y-46627372D01*
X133709999Y-46567844D01*
X133710000Y-46567827D01*
X133710000Y-45920000D01*
X132793012Y-45920000D01*
X132825925Y-45862993D01*
X132860000Y-45735826D01*
X132860000Y-45604174D01*
X132825925Y-45477007D01*
X132793012Y-45420000D01*
X133710000Y-45420000D01*
X133710000Y-44772172D01*
X133709999Y-44772155D01*
X133706773Y-44742155D01*
X152030000Y-44742155D01*
X152030000Y-45390000D01*
X152946988Y-45390000D01*
X152914075Y-45447007D01*
X152880000Y-45574174D01*
X152880000Y-45705826D01*
X152914075Y-45832993D01*
X152946988Y-45890000D01*
X152030000Y-45890000D01*
X152030000Y-46537844D01*
X152036401Y-46597372D01*
X152036403Y-46597379D01*
X152086645Y-46732086D01*
X152086649Y-46732093D01*
X152172809Y-46847187D01*
X152172812Y-46847190D01*
X152287906Y-46933350D01*
X152287913Y-46933354D01*
X152419986Y-46982614D01*
X152475920Y-47024485D01*
X152500337Y-47089949D01*
X152485486Y-47158222D01*
X152464335Y-47186477D01*
X152341886Y-47308926D01*
X152206400Y-47502420D01*
X152206399Y-47502422D01*
X152106570Y-47716507D01*
X152106567Y-47716513D01*
X152049364Y-47929999D01*
X152049364Y-47930000D01*
X152946988Y-47930000D01*
X152914075Y-47987007D01*
X152880000Y-48114174D01*
X152880000Y-48245826D01*
X152914075Y-48372993D01*
X152946988Y-48430000D01*
X152049364Y-48430000D01*
X152106567Y-48643486D01*
X152106570Y-48643492D01*
X152206399Y-48857578D01*
X152341894Y-49051082D01*
X152508917Y-49218105D01*
X152702421Y-49353600D01*
X152916507Y-49453429D01*
X152916516Y-49453433D01*
X153130000Y-49510634D01*
X153130000Y-48613012D01*
X153187007Y-48645925D01*
X153314174Y-48680000D01*
X153445826Y-48680000D01*
X153572993Y-48645925D01*
X153630000Y-48613012D01*
X153630000Y-49510633D01*
X153843483Y-49453433D01*
X153843492Y-49453429D01*
X154057578Y-49353600D01*
X154251082Y-49218105D01*
X154418105Y-49051082D01*
X154553600Y-48857578D01*
X154653429Y-48643492D01*
X154653432Y-48643486D01*
X154710636Y-48430000D01*
X153813012Y-48430000D01*
X153845925Y-48372993D01*
X153880000Y-48245826D01*
X153880000Y-48114174D01*
X153845925Y-47987007D01*
X153813012Y-47930000D01*
X154710636Y-47930000D01*
X154710635Y-47929999D01*
X154653432Y-47716513D01*
X154653429Y-47716507D01*
X154553600Y-47502422D01*
X154553599Y-47502420D01*
X154418113Y-47308926D01*
X154418108Y-47308920D01*
X154295665Y-47186477D01*
X154262180Y-47125154D01*
X154267164Y-47055462D01*
X154309036Y-46999529D01*
X154340013Y-46982614D01*
X154472086Y-46933354D01*
X154472093Y-46933350D01*
X154587187Y-46847190D01*
X154587190Y-46847187D01*
X154673350Y-46732093D01*
X154673354Y-46732086D01*
X154723596Y-46597379D01*
X154723598Y-46597372D01*
X154729999Y-46537844D01*
X154730000Y-46537827D01*
X154730000Y-45890000D01*
X153813012Y-45890000D01*
X153845925Y-45832993D01*
X153880000Y-45705826D01*
X153880000Y-45574174D01*
X153845925Y-45447007D01*
X153813012Y-45390000D01*
X154730000Y-45390000D01*
X154730000Y-44742172D01*
X154729999Y-44742155D01*
X154723598Y-44682627D01*
X154723596Y-44682620D01*
X154673354Y-44547913D01*
X154673350Y-44547906D01*
X154587190Y-44432812D01*
X154587187Y-44432809D01*
X154472093Y-44346649D01*
X154472086Y-44346645D01*
X154337379Y-44296403D01*
X154337372Y-44296401D01*
X154277844Y-44290000D01*
X153630000Y-44290000D01*
X153630000Y-45206988D01*
X153572993Y-45174075D01*
X153445826Y-45140000D01*
X153314174Y-45140000D01*
X153187007Y-45174075D01*
X153130000Y-45206988D01*
X153130000Y-44290000D01*
X152482155Y-44290000D01*
X152422627Y-44296401D01*
X152422620Y-44296403D01*
X152287913Y-44346645D01*
X152287906Y-44346649D01*
X152172812Y-44432809D01*
X152172809Y-44432812D01*
X152086649Y-44547906D01*
X152086645Y-44547913D01*
X152036403Y-44682620D01*
X152036401Y-44682627D01*
X152030000Y-44742155D01*
X133706773Y-44742155D01*
X133703598Y-44712627D01*
X133703596Y-44712620D01*
X133653354Y-44577913D01*
X133653350Y-44577906D01*
X133567190Y-44462812D01*
X133567187Y-44462809D01*
X133452093Y-44376649D01*
X133452086Y-44376645D01*
X133317379Y-44326403D01*
X133317372Y-44326401D01*
X133257844Y-44320000D01*
X132610000Y-44320000D01*
X132610000Y-45236988D01*
X132552993Y-45204075D01*
X132425826Y-45170000D01*
X132294174Y-45170000D01*
X132167007Y-45204075D01*
X132110000Y-45236988D01*
X132110000Y-44320000D01*
X131462155Y-44320000D01*
X131402627Y-44326401D01*
X131402620Y-44326403D01*
X131267913Y-44376645D01*
X131267906Y-44376649D01*
X131152812Y-44462809D01*
X131152809Y-44462812D01*
X131066649Y-44577906D01*
X131066645Y-44577913D01*
X131016403Y-44712620D01*
X131016401Y-44712627D01*
X131010000Y-44772155D01*
X129170357Y-44772155D01*
X129185368Y-44729255D01*
X129187242Y-44712627D01*
X129205565Y-44550003D01*
X129205565Y-44549996D01*
X129185369Y-44370750D01*
X129185368Y-44370745D01*
X129169851Y-44326401D01*
X129125789Y-44200478D01*
X129122606Y-44195413D01*
X129029815Y-44047737D01*
X128966732Y-43984654D01*
X128934639Y-43929069D01*
X128899577Y-43798215D01*
X128868527Y-43744435D01*
X128868527Y-43744434D01*
X128820524Y-43661290D01*
X128820521Y-43661286D01*
X128820520Y-43661284D01*
X128708716Y-43549480D01*
X128708715Y-43549479D01*
X128704385Y-43545149D01*
X128704374Y-43545139D01*
X127211964Y-42052729D01*
X127178479Y-41991406D01*
X127183463Y-41921714D01*
X127194646Y-41899084D01*
X127225789Y-41849522D01*
X127285368Y-41679255D01*
X127286688Y-41667546D01*
X127300051Y-41548938D01*
X127327117Y-41484524D01*
X127384712Y-41444969D01*
X127454549Y-41442831D01*
X127510952Y-41475140D01*
X127628917Y-41593105D01*
X127822421Y-41728600D01*
X128036507Y-41828429D01*
X128036516Y-41828433D01*
X128250000Y-41885634D01*
X128250000Y-40988012D01*
X128307007Y-41020925D01*
X128434174Y-41055000D01*
X128565826Y-41055000D01*
X128692993Y-41020925D01*
X128750000Y-40988012D01*
X128750000Y-41885633D01*
X128963483Y-41828433D01*
X128963492Y-41828429D01*
X129177578Y-41728600D01*
X129371082Y-41593105D01*
X129538105Y-41426082D01*
X129673600Y-41232578D01*
X129773429Y-41018492D01*
X129773432Y-41018486D01*
X129830636Y-40805000D01*
X128933012Y-40805000D01*
X128957760Y-40762135D01*
X151379500Y-40762135D01*
X151379500Y-42557870D01*
X151379501Y-42557876D01*
X151385908Y-42617483D01*
X151436202Y-42752328D01*
X151436206Y-42752335D01*
X151522452Y-42867544D01*
X151522455Y-42867547D01*
X151637664Y-42953793D01*
X151637671Y-42953797D01*
X151772517Y-43004091D01*
X151772516Y-43004091D01*
X151779444Y-43004835D01*
X151832127Y-43010500D01*
X153627872Y-43010499D01*
X153687483Y-43004091D01*
X153822331Y-42953796D01*
X153937546Y-42867546D01*
X154023796Y-42752331D01*
X154074091Y-42617483D01*
X154080500Y-42557873D01*
X154080499Y-40762128D01*
X154074091Y-40702517D01*
X154043622Y-40620826D01*
X154023797Y-40567671D01*
X154023793Y-40567664D01*
X153937547Y-40452455D01*
X153937544Y-40452452D01*
X153822335Y-40366206D01*
X153822328Y-40366202D01*
X153687482Y-40315908D01*
X153687483Y-40315908D01*
X153627883Y-40309501D01*
X153627881Y-40309500D01*
X153627873Y-40309500D01*
X153627864Y-40309500D01*
X151832129Y-40309500D01*
X151832123Y-40309501D01*
X151772516Y-40315908D01*
X151637671Y-40366202D01*
X151637664Y-40366206D01*
X151522455Y-40452452D01*
X151522452Y-40452455D01*
X151436206Y-40567664D01*
X151436202Y-40567671D01*
X151385908Y-40702517D01*
X151379501Y-40762116D01*
X151379501Y-40762123D01*
X151379500Y-40762135D01*
X128957760Y-40762135D01*
X128965925Y-40747993D01*
X129000000Y-40620826D01*
X129000000Y-40489174D01*
X128965925Y-40362007D01*
X128933012Y-40305000D01*
X129830636Y-40305000D01*
X129830635Y-40304999D01*
X129773432Y-40091513D01*
X129773429Y-40091507D01*
X129673600Y-39877422D01*
X129673599Y-39877420D01*
X129538113Y-39683926D01*
X129538108Y-39683920D01*
X129371078Y-39516890D01*
X129185405Y-39386879D01*
X129141780Y-39332302D01*
X129134588Y-39262804D01*
X129166110Y-39200449D01*
X129185406Y-39183730D01*
X129210439Y-39166202D01*
X129371401Y-39053495D01*
X129538495Y-38886401D01*
X129674035Y-38692830D01*
X129773903Y-38478663D01*
X129835063Y-38250408D01*
X129855659Y-38015000D01*
X129835063Y-37779592D01*
X129783246Y-37586206D01*
X129773905Y-37551344D01*
X129773904Y-37551343D01*
X129773903Y-37551337D01*
X129674035Y-37337171D01*
X129662669Y-37320939D01*
X129538496Y-37143600D01*
X129537051Y-37142155D01*
X131150000Y-37142155D01*
X131150000Y-37790000D01*
X132066988Y-37790000D01*
X132034075Y-37847007D01*
X132000000Y-37974174D01*
X132000000Y-38105826D01*
X132034075Y-38232993D01*
X132066988Y-38290000D01*
X131150000Y-38290000D01*
X131150000Y-38937844D01*
X131156401Y-38997372D01*
X131156403Y-38997379D01*
X131206645Y-39132086D01*
X131206649Y-39132093D01*
X131292809Y-39247187D01*
X131292812Y-39247190D01*
X131407906Y-39333350D01*
X131407913Y-39333354D01*
X131542620Y-39383596D01*
X131542627Y-39383598D01*
X131602155Y-39389999D01*
X131602172Y-39390000D01*
X132250000Y-39390000D01*
X132250000Y-38473012D01*
X132307007Y-38505925D01*
X132434174Y-38540000D01*
X132565826Y-38540000D01*
X132692993Y-38505925D01*
X132750000Y-38473012D01*
X132750000Y-39390000D01*
X133397828Y-39390000D01*
X133397844Y-39389999D01*
X133457372Y-39383598D01*
X133457379Y-39383596D01*
X133592086Y-39333354D01*
X133592093Y-39333350D01*
X133707187Y-39247190D01*
X133707190Y-39247187D01*
X133793350Y-39132093D01*
X133793354Y-39132086D01*
X133843596Y-38997379D01*
X133843598Y-38997372D01*
X133849999Y-38937844D01*
X133850000Y-38937827D01*
X133850000Y-38290000D01*
X132933012Y-38290000D01*
X132965925Y-38232993D01*
X133000000Y-38105826D01*
X133000000Y-37974174D01*
X132965925Y-37847007D01*
X132933012Y-37790000D01*
X133850000Y-37790000D01*
X133850000Y-37142172D01*
X133849999Y-37142155D01*
X133846773Y-37112155D01*
X152170000Y-37112155D01*
X152170000Y-37760000D01*
X153086988Y-37760000D01*
X153054075Y-37817007D01*
X153020000Y-37944174D01*
X153020000Y-38075826D01*
X153054075Y-38202993D01*
X153086988Y-38260000D01*
X152170000Y-38260000D01*
X152170000Y-38907844D01*
X152176401Y-38967372D01*
X152176403Y-38967379D01*
X152226645Y-39102086D01*
X152226649Y-39102093D01*
X152312809Y-39217187D01*
X152312812Y-39217190D01*
X152427906Y-39303350D01*
X152427913Y-39303354D01*
X152562620Y-39353596D01*
X152562627Y-39353598D01*
X152622155Y-39359999D01*
X152622172Y-39360000D01*
X153270000Y-39360000D01*
X153270000Y-38443012D01*
X153327007Y-38475925D01*
X153454174Y-38510000D01*
X153585826Y-38510000D01*
X153712993Y-38475925D01*
X153770000Y-38443012D01*
X153770000Y-39360000D01*
X154417828Y-39360000D01*
X154417844Y-39359999D01*
X154477372Y-39353598D01*
X154477379Y-39353596D01*
X154612086Y-39303354D01*
X154612093Y-39303350D01*
X154727187Y-39217190D01*
X154727190Y-39217187D01*
X154813350Y-39102093D01*
X154813354Y-39102086D01*
X154863596Y-38967379D01*
X154863598Y-38967372D01*
X154869999Y-38907844D01*
X154870000Y-38907827D01*
X154870000Y-38260000D01*
X153953012Y-38260000D01*
X153985925Y-38202993D01*
X154020000Y-38075826D01*
X154020000Y-37944174D01*
X153985925Y-37817007D01*
X153953012Y-37760000D01*
X154870000Y-37760000D01*
X154870000Y-37112172D01*
X154869999Y-37112155D01*
X154863598Y-37052627D01*
X154863596Y-37052620D01*
X154813354Y-36917913D01*
X154813350Y-36917906D01*
X154727190Y-36802812D01*
X154727187Y-36802809D01*
X154612093Y-36716649D01*
X154612086Y-36716645D01*
X154480013Y-36667385D01*
X154424079Y-36625514D01*
X154399662Y-36560049D01*
X154414514Y-36491776D01*
X154435665Y-36463521D01*
X154558108Y-36341078D01*
X154693600Y-36147578D01*
X154793429Y-35933492D01*
X154793432Y-35933486D01*
X154850636Y-35720000D01*
X153953012Y-35720000D01*
X153985925Y-35662993D01*
X154020000Y-35535826D01*
X154020000Y-35404174D01*
X153985925Y-35277007D01*
X153953012Y-35220000D01*
X154850636Y-35220000D01*
X154850635Y-35219999D01*
X154793432Y-35006513D01*
X154793429Y-35006507D01*
X154693600Y-34792422D01*
X154693599Y-34792420D01*
X154558113Y-34598926D01*
X154558108Y-34598920D01*
X154391082Y-34431894D01*
X154197578Y-34296399D01*
X153983492Y-34196570D01*
X153983486Y-34196567D01*
X153770000Y-34139364D01*
X153770000Y-35036988D01*
X153712993Y-35004075D01*
X153585826Y-34970000D01*
X153454174Y-34970000D01*
X153327007Y-35004075D01*
X153270000Y-35036988D01*
X153270000Y-34139364D01*
X153269999Y-34139364D01*
X153056513Y-34196567D01*
X153056507Y-34196570D01*
X152842422Y-34296399D01*
X152842420Y-34296400D01*
X152648926Y-34431886D01*
X152648920Y-34431891D01*
X152481891Y-34598920D01*
X152481886Y-34598926D01*
X152346400Y-34792420D01*
X152346399Y-34792422D01*
X152246570Y-35006507D01*
X152246567Y-35006513D01*
X152189364Y-35219999D01*
X152189364Y-35220000D01*
X153086988Y-35220000D01*
X153054075Y-35277007D01*
X153020000Y-35404174D01*
X153020000Y-35535826D01*
X153054075Y-35662993D01*
X153086988Y-35720000D01*
X152189364Y-35720000D01*
X152246567Y-35933486D01*
X152246570Y-35933492D01*
X152346399Y-36147578D01*
X152481894Y-36341082D01*
X152604334Y-36463522D01*
X152637819Y-36524845D01*
X152632835Y-36594537D01*
X152590963Y-36650470D01*
X152559987Y-36667385D01*
X152427911Y-36716646D01*
X152427906Y-36716649D01*
X152312812Y-36802809D01*
X152312809Y-36802812D01*
X152226649Y-36917906D01*
X152226645Y-36917913D01*
X152176403Y-37052620D01*
X152176401Y-37052627D01*
X152170000Y-37112155D01*
X133846773Y-37112155D01*
X133843598Y-37082627D01*
X133843596Y-37082620D01*
X133793354Y-36947913D01*
X133793350Y-36947906D01*
X133707190Y-36832812D01*
X133707187Y-36832809D01*
X133592093Y-36746649D01*
X133592086Y-36746645D01*
X133460013Y-36697385D01*
X133404079Y-36655514D01*
X133379662Y-36590049D01*
X133394514Y-36521776D01*
X133415665Y-36493521D01*
X133538108Y-36371078D01*
X133673600Y-36177578D01*
X133773429Y-35963492D01*
X133773432Y-35963486D01*
X133830636Y-35750000D01*
X132933012Y-35750000D01*
X132965925Y-35692993D01*
X133000000Y-35565826D01*
X133000000Y-35434174D01*
X132965925Y-35307007D01*
X132933012Y-35250000D01*
X133830636Y-35250000D01*
X133830635Y-35249999D01*
X133773432Y-35036513D01*
X133773429Y-35036507D01*
X133673600Y-34822422D01*
X133673599Y-34822420D01*
X133538113Y-34628926D01*
X133538108Y-34628920D01*
X133371082Y-34461894D01*
X133177578Y-34326399D01*
X132963492Y-34226570D01*
X132963486Y-34226567D01*
X132750000Y-34169364D01*
X132750000Y-35066988D01*
X132692993Y-35034075D01*
X132565826Y-35000000D01*
X132434174Y-35000000D01*
X132307007Y-35034075D01*
X132250000Y-35066988D01*
X132250000Y-34169364D01*
X132249999Y-34169364D01*
X132036513Y-34226567D01*
X132036507Y-34226570D01*
X131822422Y-34326399D01*
X131822420Y-34326400D01*
X131628926Y-34461886D01*
X131628920Y-34461891D01*
X131461891Y-34628920D01*
X131461886Y-34628926D01*
X131326400Y-34822420D01*
X131326399Y-34822422D01*
X131226570Y-35036507D01*
X131226567Y-35036513D01*
X131169364Y-35249999D01*
X131169364Y-35250000D01*
X132066988Y-35250000D01*
X132034075Y-35307007D01*
X132000000Y-35434174D01*
X132000000Y-35565826D01*
X132034075Y-35692993D01*
X132066988Y-35750000D01*
X131169364Y-35750000D01*
X131226567Y-35963486D01*
X131226570Y-35963492D01*
X131326399Y-36177578D01*
X131461894Y-36371082D01*
X131584334Y-36493522D01*
X131617819Y-36554845D01*
X131612835Y-36624537D01*
X131570963Y-36680470D01*
X131539987Y-36697385D01*
X131407911Y-36746646D01*
X131407906Y-36746649D01*
X131292812Y-36832809D01*
X131292809Y-36832812D01*
X131206649Y-36947906D01*
X131206645Y-36947913D01*
X131156403Y-37082620D01*
X131156401Y-37082627D01*
X131150000Y-37142155D01*
X129537051Y-37142155D01*
X129494799Y-37099903D01*
X129416567Y-37021671D01*
X129383084Y-36960351D01*
X129388068Y-36890659D01*
X129429939Y-36834725D01*
X129460915Y-36817810D01*
X129592331Y-36768796D01*
X129707546Y-36682546D01*
X129793796Y-36567331D01*
X129844091Y-36432483D01*
X129850500Y-36372873D01*
X129850499Y-34577128D01*
X129844302Y-34519480D01*
X129844091Y-34517516D01*
X129793797Y-34382671D01*
X129793793Y-34382664D01*
X129707547Y-34267455D01*
X129707544Y-34267452D01*
X129592335Y-34181206D01*
X129592328Y-34181202D01*
X129457482Y-34130908D01*
X129457483Y-34130908D01*
X129397883Y-34124501D01*
X129397881Y-34124500D01*
X129397873Y-34124500D01*
X129397864Y-34124500D01*
X127602129Y-34124500D01*
X127602123Y-34124501D01*
X127542516Y-34130908D01*
X127407671Y-34181202D01*
X127407664Y-34181206D01*
X127292455Y-34267452D01*
X127292452Y-34267455D01*
X127206206Y-34382664D01*
X127206202Y-34382671D01*
X127155908Y-34517517D01*
X127149501Y-34577116D01*
X127149501Y-34577123D01*
X127149500Y-34577135D01*
X127149500Y-36372870D01*
X127149501Y-36372876D01*
X127155908Y-36432483D01*
X127206202Y-36567328D01*
X127206206Y-36567335D01*
X127292452Y-36682544D01*
X127292455Y-36682547D01*
X127407664Y-36768793D01*
X127407671Y-36768797D01*
X127539081Y-36817810D01*
X127595015Y-36859681D01*
X127619432Y-36925145D01*
X127604580Y-36993418D01*
X127583430Y-37021673D01*
X127461503Y-37143600D01*
X127325965Y-37337169D01*
X127325964Y-37337171D01*
X127226098Y-37551335D01*
X127226094Y-37551344D01*
X127164938Y-37779586D01*
X127164936Y-37779596D01*
X127144341Y-38014999D01*
X127144341Y-38015000D01*
X127164936Y-38250403D01*
X127164938Y-38250413D01*
X127226094Y-38478655D01*
X127226096Y-38478659D01*
X127226097Y-38478663D01*
X127305541Y-38649030D01*
X127325965Y-38692830D01*
X127325967Y-38692834D01*
X127461501Y-38886395D01*
X127461506Y-38886402D01*
X127628597Y-39053493D01*
X127628603Y-39053498D01*
X127697994Y-39102086D01*
X127740848Y-39132093D01*
X127814594Y-39183730D01*
X127858219Y-39238307D01*
X127865413Y-39307805D01*
X127833890Y-39370160D01*
X127814595Y-39386880D01*
X127628922Y-39516890D01*
X127628920Y-39516891D01*
X127461891Y-39683920D01*
X127461886Y-39683926D01*
X127326400Y-39877420D01*
X127326399Y-39877422D01*
X127226570Y-40091507D01*
X127226567Y-40091513D01*
X127169364Y-40304999D01*
X127169364Y-40305000D01*
X128066988Y-40305000D01*
X128034075Y-40362007D01*
X128000000Y-40489174D01*
X128000000Y-40620826D01*
X128034075Y-40747993D01*
X128066988Y-40805000D01*
X127169363Y-40805000D01*
X127149996Y-40830239D01*
X127093567Y-40871441D01*
X127023821Y-40875595D01*
X126985649Y-40859745D01*
X126849523Y-40774211D01*
X126679254Y-40714631D01*
X126679249Y-40714630D01*
X126500004Y-40694435D01*
X126499996Y-40694435D01*
X126320750Y-40714630D01*
X126320745Y-40714631D01*
X126150476Y-40774211D01*
X125997736Y-40870185D01*
X125994903Y-40872445D01*
X125992724Y-40873334D01*
X125991842Y-40873889D01*
X125991744Y-40873734D01*
X125930217Y-40898855D01*
X125917588Y-40899500D01*
X124974499Y-40899500D01*
X124907460Y-40879815D01*
X124861705Y-40827011D01*
X124850499Y-40775500D01*
X124850499Y-39562129D01*
X124850498Y-39562123D01*
X124850497Y-39562116D01*
X124844091Y-39502517D01*
X124843221Y-39500185D01*
X124793797Y-39367671D01*
X124793793Y-39367664D01*
X124707547Y-39252455D01*
X124707544Y-39252452D01*
X124592335Y-39166206D01*
X124592328Y-39166202D01*
X124457482Y-39115908D01*
X124457483Y-39115908D01*
X124397883Y-39109501D01*
X124397881Y-39109500D01*
X124397873Y-39109500D01*
X124397864Y-39109500D01*
X122602129Y-39109500D01*
X122602123Y-39109501D01*
X122542516Y-39115908D01*
X122407671Y-39166202D01*
X122407664Y-39166206D01*
X122292455Y-39252452D01*
X122292452Y-39252455D01*
X122206206Y-39367664D01*
X122206202Y-39367671D01*
X122155908Y-39502517D01*
X122151271Y-39545655D01*
X122149501Y-39562123D01*
X122149500Y-39562135D01*
X122149500Y-41357870D01*
X122149501Y-41357876D01*
X122155908Y-41417483D01*
X122206202Y-41552328D01*
X122206206Y-41552335D01*
X122292452Y-41667544D01*
X122292455Y-41667547D01*
X122407664Y-41753793D01*
X122407671Y-41753797D01*
X122539081Y-41802810D01*
X122595015Y-41844681D01*
X122619432Y-41910145D01*
X122604580Y-41978418D01*
X122583430Y-42006673D01*
X122461503Y-42128600D01*
X122325965Y-42322169D01*
X122325964Y-42322171D01*
X122226098Y-42536335D01*
X122226094Y-42536344D01*
X122164938Y-42764586D01*
X122164936Y-42764596D01*
X122144341Y-42999999D01*
X117449895Y-42999999D01*
X117371402Y-42921506D01*
X117371396Y-42921501D01*
X117185842Y-42791575D01*
X117142217Y-42736998D01*
X117135023Y-42667500D01*
X117166546Y-42605145D01*
X117185842Y-42588425D01*
X117315356Y-42497738D01*
X117371401Y-42458495D01*
X117538495Y-42291401D01*
X117674035Y-42097830D01*
X117773903Y-41883663D01*
X117835063Y-41655408D01*
X117855659Y-41420000D01*
X117835063Y-41184592D01*
X117784996Y-40997738D01*
X117773905Y-40956344D01*
X117773904Y-40956343D01*
X117773903Y-40956337D01*
X117674035Y-40742171D01*
X117673924Y-40742013D01*
X117538496Y-40548600D01*
X117479070Y-40489174D01*
X117416567Y-40426671D01*
X117383084Y-40365351D01*
X117388068Y-40295659D01*
X117429939Y-40239725D01*
X117460915Y-40222810D01*
X117592331Y-40173796D01*
X117707546Y-40087546D01*
X117793796Y-39972331D01*
X117844091Y-39837483D01*
X117850500Y-39777873D01*
X117850499Y-37982128D01*
X117844335Y-37924786D01*
X117844091Y-37922516D01*
X117793797Y-37787671D01*
X117793793Y-37787664D01*
X117707546Y-37672454D01*
X117707544Y-37672452D01*
X117592335Y-37586206D01*
X117592328Y-37586202D01*
X117457482Y-37535908D01*
X117457483Y-37535908D01*
X117397883Y-37529501D01*
X117397881Y-37529500D01*
X117397873Y-37529500D01*
X117397864Y-37529500D01*
X115602129Y-37529500D01*
X115602123Y-37529501D01*
X115542516Y-37535908D01*
X115407671Y-37586202D01*
X115407664Y-37586206D01*
X115292455Y-37672452D01*
X115292454Y-37672454D01*
X115206206Y-37787664D01*
X115206202Y-37787671D01*
X115155908Y-37922517D01*
X115150355Y-37974174D01*
X115149501Y-37982123D01*
X115149500Y-37982135D01*
X115149500Y-39777870D01*
X115149501Y-39777876D01*
X115155908Y-39837483D01*
X115206202Y-39972328D01*
X115206206Y-39972335D01*
X115292452Y-40087544D01*
X115292455Y-40087547D01*
X115407664Y-40173793D01*
X115407671Y-40173797D01*
X115539081Y-40222810D01*
X115595015Y-40264681D01*
X115619432Y-40330145D01*
X115604580Y-40398418D01*
X115583430Y-40426673D01*
X115461503Y-40548600D01*
X115325965Y-40742169D01*
X115325964Y-40742171D01*
X115248681Y-40907905D01*
X115202508Y-40960344D01*
X115136299Y-40979500D01*
X115080943Y-40979500D01*
X114928216Y-41020423D01*
X114928209Y-41020426D01*
X114791290Y-41099475D01*
X114791282Y-41099481D01*
X114679481Y-41211282D01*
X114679475Y-41211290D01*
X114600426Y-41348209D01*
X114600423Y-41348216D01*
X114559500Y-41500943D01*
X114559500Y-47033330D01*
X114559499Y-47033348D01*
X114559499Y-47199054D01*
X114559498Y-47199054D01*
X114600424Y-47351789D01*
X114600425Y-47351790D01*
X114620541Y-47386631D01*
X114620542Y-47386632D01*
X114679477Y-47488712D01*
X114679481Y-47488717D01*
X114798349Y-47607585D01*
X114798355Y-47607590D01*
X115335139Y-48144374D01*
X115335160Y-48144397D01*
X115345865Y-48155102D01*
X115379350Y-48216425D01*
X115374366Y-48286117D01*
X115359761Y-48313904D01*
X115356474Y-48318599D01*
X115328936Y-48357929D01*
X115325964Y-48362173D01*
X115226097Y-48576335D01*
X115226094Y-48576344D01*
X115164938Y-48804586D01*
X115164936Y-48804596D01*
X115144341Y-49039999D01*
X115144341Y-49040000D01*
X115164936Y-49275403D01*
X115164938Y-49275413D01*
X115226094Y-49503655D01*
X115226096Y-49503659D01*
X115226097Y-49503663D01*
X115296044Y-49653664D01*
X115325965Y-49717830D01*
X115325967Y-49717834D01*
X115461501Y-49911395D01*
X115461506Y-49911402D01*
X115628597Y-50078493D01*
X115628603Y-50078498D01*
X115814158Y-50208425D01*
X115857783Y-50263002D01*
X115864977Y-50332500D01*
X115833454Y-50394855D01*
X115814158Y-50411575D01*
X115628597Y-50541505D01*
X115461505Y-50708597D01*
X115325965Y-50902169D01*
X115325964Y-50902171D01*
X115226098Y-51116335D01*
X115226094Y-51116344D01*
X115164938Y-51344586D01*
X115164936Y-51344596D01*
X115144341Y-51579999D01*
X115144341Y-51580000D01*
X115164936Y-51815403D01*
X115164938Y-51815413D01*
X115199327Y-51943756D01*
X115197664Y-52013606D01*
X115167233Y-52063530D01*
X112367584Y-54863181D01*
X112306261Y-54896666D01*
X112279903Y-54899500D01*
X92321266Y-54899500D01*
X92254227Y-54879815D01*
X92208472Y-54827011D01*
X92198528Y-54757853D01*
X92208882Y-54723098D01*
X92273903Y-54583663D01*
X92335063Y-54355408D01*
X92355659Y-54120000D01*
X92335063Y-53884592D01*
X92300766Y-53756593D01*
X92302429Y-53686743D01*
X92341592Y-53628881D01*
X92405820Y-53601377D01*
X92420541Y-53600500D01*
X93913331Y-53600500D01*
X93913347Y-53600501D01*
X93920943Y-53600501D01*
X94079054Y-53600501D01*
X94079057Y-53600501D01*
X94231785Y-53559577D01*
X94301200Y-53519500D01*
X94368716Y-53480520D01*
X94480520Y-53368716D01*
X94480521Y-53368714D01*
X94980520Y-52868716D01*
X95059577Y-52731784D01*
X95100501Y-52579057D01*
X95100501Y-52420942D01*
X95100501Y-52413347D01*
X95100500Y-52413329D01*
X95100500Y-34920945D01*
X95100500Y-34920943D01*
X95059577Y-34768216D01*
X95048437Y-34748920D01*
X94980524Y-34631290D01*
X94980518Y-34631282D01*
X94868717Y-34519481D01*
X94868709Y-34519475D01*
X94731790Y-34440426D01*
X94731786Y-34440424D01*
X94731784Y-34440423D01*
X94579057Y-34399500D01*
X94579056Y-34399500D01*
X90586670Y-34399500D01*
X90586654Y-34399499D01*
X90579058Y-34399499D01*
X90420943Y-34399499D01*
X90362859Y-34415063D01*
X90268214Y-34440423D01*
X90268209Y-34440426D01*
X90131290Y-34519475D01*
X90131282Y-34519481D01*
X89287584Y-35363181D01*
X89226261Y-35396666D01*
X89199903Y-35399500D01*
X86082412Y-35399500D01*
X86015373Y-35379815D01*
X86005097Y-35372445D01*
X86002263Y-35370185D01*
X86002262Y-35370184D01*
X85911243Y-35312993D01*
X85849521Y-35274210D01*
X85701849Y-35222538D01*
X85679255Y-35214632D01*
X85679254Y-35214631D01*
X85679249Y-35214630D01*
X85610616Y-35206897D01*
X85546202Y-35179830D01*
X85506647Y-35122235D01*
X85500500Y-35083677D01*
X85500500Y-28559059D01*
X85500501Y-28559046D01*
X85500501Y-28390943D01*
X85500501Y-28390942D01*
X85459577Y-28238215D01*
X85380520Y-28101284D01*
X85268716Y-27989480D01*
X85268715Y-27989479D01*
X85264385Y-27985149D01*
X85264374Y-27985139D01*
X83912766Y-26633531D01*
X83879281Y-26572208D01*
X83880672Y-26513757D01*
X83881863Y-26509309D01*
X83915063Y-26385408D01*
X83935659Y-26150000D01*
X83915063Y-25914592D01*
X83853903Y-25686337D01*
X83832295Y-25639999D01*
X131224341Y-25639999D01*
X131224341Y-25640000D01*
X131244936Y-25875403D01*
X131244938Y-25875413D01*
X131306094Y-26103655D01*
X131306096Y-26103659D01*
X131306097Y-26103663D01*
X131344393Y-26185788D01*
X131405965Y-26317830D01*
X131405967Y-26317834D01*
X131453286Y-26385412D01*
X131541505Y-26511401D01*
X131708599Y-26678495D01*
X131787914Y-26734032D01*
X131902165Y-26814032D01*
X131902167Y-26814033D01*
X131902170Y-26814035D01*
X132116337Y-26913903D01*
X132116343Y-26913904D01*
X132116344Y-26913905D01*
X132171285Y-26928626D01*
X132344592Y-26975063D01*
X132532918Y-26991539D01*
X132579999Y-26995659D01*
X132580000Y-26995659D01*
X132580001Y-26995659D01*
X132619234Y-26992226D01*
X132815408Y-26975063D01*
X133043663Y-26913903D01*
X133257830Y-26814035D01*
X133451401Y-26678495D01*
X133618495Y-26511401D01*
X133754035Y-26317830D01*
X133853903Y-26103663D01*
X133915063Y-25875408D01*
X133935659Y-25640000D01*
X133928660Y-25559999D01*
X152184341Y-25559999D01*
X152184341Y-25560000D01*
X152204936Y-25795403D01*
X152204938Y-25795413D01*
X152266094Y-26023655D01*
X152266096Y-26023659D01*
X152266097Y-26023663D01*
X152325009Y-26149999D01*
X152365965Y-26237830D01*
X152365967Y-26237834D01*
X152421984Y-26317834D01*
X152501505Y-26431401D01*
X152668599Y-26598495D01*
X152690263Y-26613664D01*
X152862165Y-26734032D01*
X152862167Y-26734033D01*
X152862170Y-26734035D01*
X153076337Y-26833903D01*
X153076343Y-26833904D01*
X153076344Y-26833905D01*
X153131285Y-26848626D01*
X153304592Y-26895063D01*
X153476976Y-26910145D01*
X153539999Y-26915659D01*
X153540000Y-26915659D01*
X153540001Y-26915659D01*
X153579234Y-26912226D01*
X153775408Y-26895063D01*
X154003663Y-26833903D01*
X154217830Y-26734035D01*
X154411401Y-26598495D01*
X154578495Y-26431401D01*
X154714035Y-26237830D01*
X154813903Y-26023663D01*
X154875063Y-25795408D01*
X154895659Y-25560000D01*
X154875063Y-25324592D01*
X154817692Y-25110478D01*
X154813905Y-25096344D01*
X154813904Y-25096343D01*
X154813903Y-25096337D01*
X154714035Y-24882171D01*
X154677633Y-24830184D01*
X154578496Y-24688600D01*
X154536569Y-24646673D01*
X154456567Y-24566671D01*
X154423084Y-24505351D01*
X154428068Y-24435659D01*
X154469939Y-24379725D01*
X154500915Y-24362810D01*
X154632331Y-24313796D01*
X154747546Y-24227546D01*
X154833796Y-24112331D01*
X154884091Y-23977483D01*
X154890500Y-23917873D01*
X154890499Y-22122128D01*
X154884091Y-22062517D01*
X154833796Y-21927669D01*
X154833795Y-21927668D01*
X154833793Y-21927664D01*
X154747547Y-21812455D01*
X154747544Y-21812452D01*
X154632335Y-21726206D01*
X154632328Y-21726202D01*
X154497482Y-21675908D01*
X154497483Y-21675908D01*
X154437883Y-21669501D01*
X154437881Y-21669500D01*
X154437873Y-21669500D01*
X154437864Y-21669500D01*
X152642129Y-21669500D01*
X152642123Y-21669501D01*
X152582516Y-21675908D01*
X152447671Y-21726202D01*
X152447664Y-21726206D01*
X152332455Y-21812452D01*
X152332452Y-21812455D01*
X152246206Y-21927664D01*
X152246202Y-21927671D01*
X152195908Y-22062517D01*
X152189501Y-22122116D01*
X152189501Y-22122123D01*
X152189500Y-22122135D01*
X152189500Y-23917870D01*
X152189501Y-23917876D01*
X152195908Y-23977483D01*
X152246202Y-24112328D01*
X152246206Y-24112335D01*
X152332452Y-24227544D01*
X152332455Y-24227547D01*
X152447664Y-24313793D01*
X152447671Y-24313797D01*
X152579081Y-24362810D01*
X152635015Y-24404681D01*
X152659432Y-24470145D01*
X152644580Y-24538418D01*
X152623430Y-24566673D01*
X152501503Y-24688600D01*
X152365965Y-24882169D01*
X152365964Y-24882171D01*
X152266098Y-25096335D01*
X152266094Y-25096344D01*
X152204938Y-25324586D01*
X152204936Y-25324596D01*
X152184341Y-25559999D01*
X133928660Y-25559999D01*
X133915063Y-25404592D01*
X133867007Y-25225241D01*
X133853905Y-25176344D01*
X133853904Y-25176343D01*
X133853903Y-25176337D01*
X133754035Y-24962171D01*
X133752864Y-24960499D01*
X133618496Y-24768600D01*
X133584107Y-24734211D01*
X133496567Y-24646671D01*
X133463084Y-24585351D01*
X133468068Y-24515659D01*
X133509939Y-24459725D01*
X133540915Y-24442810D01*
X133672331Y-24393796D01*
X133787546Y-24307546D01*
X133873796Y-24192331D01*
X133924091Y-24057483D01*
X133930500Y-23997873D01*
X133930499Y-22202128D01*
X133924091Y-22142517D01*
X133916486Y-22122128D01*
X133873797Y-22007671D01*
X133873793Y-22007664D01*
X133787547Y-21892455D01*
X133787544Y-21892452D01*
X133672335Y-21806206D01*
X133672328Y-21806202D01*
X133537482Y-21755908D01*
X133537483Y-21755908D01*
X133477883Y-21749501D01*
X133477881Y-21749500D01*
X133477873Y-21749500D01*
X133477864Y-21749500D01*
X131682129Y-21749500D01*
X131682123Y-21749501D01*
X131622516Y-21755908D01*
X131487671Y-21806202D01*
X131487664Y-21806206D01*
X131372455Y-21892452D01*
X131372452Y-21892455D01*
X131286206Y-22007664D01*
X131286202Y-22007671D01*
X131235908Y-22142517D01*
X131229501Y-22202116D01*
X131229501Y-22202123D01*
X131229500Y-22202135D01*
X131229500Y-23997870D01*
X131229501Y-23997876D01*
X131235908Y-24057483D01*
X131286202Y-24192328D01*
X131286206Y-24192335D01*
X131372452Y-24307544D01*
X131372455Y-24307547D01*
X131487664Y-24393793D01*
X131487671Y-24393797D01*
X131619081Y-24442810D01*
X131675015Y-24484681D01*
X131699432Y-24550145D01*
X131684580Y-24618418D01*
X131663430Y-24646673D01*
X131541503Y-24768600D01*
X131405965Y-24962169D01*
X131405964Y-24962171D01*
X131306098Y-25176335D01*
X131306094Y-25176344D01*
X131244938Y-25404586D01*
X131244936Y-25404596D01*
X131224341Y-25639999D01*
X83832295Y-25639999D01*
X83754035Y-25472171D01*
X83751993Y-25469255D01*
X83618496Y-25278600D01*
X83565137Y-25225241D01*
X83496567Y-25156671D01*
X83463084Y-25095351D01*
X83468068Y-25025659D01*
X83509939Y-24969725D01*
X83540915Y-24952810D01*
X83672331Y-24903796D01*
X83787546Y-24817546D01*
X83873796Y-24702331D01*
X83924091Y-24567483D01*
X83930500Y-24507873D01*
X83930499Y-22712128D01*
X83924091Y-22652517D01*
X83873796Y-22517669D01*
X83873795Y-22517668D01*
X83873793Y-22517664D01*
X83787547Y-22402455D01*
X83787544Y-22402452D01*
X83672335Y-22316206D01*
X83672328Y-22316202D01*
X83537482Y-22265908D01*
X83537483Y-22265908D01*
X83477883Y-22259501D01*
X83477881Y-22259500D01*
X83477873Y-22259500D01*
X83477864Y-22259500D01*
X81682129Y-22259500D01*
X81682123Y-22259501D01*
X81622516Y-22265908D01*
X81487671Y-22316202D01*
X81487664Y-22316206D01*
X81372455Y-22402452D01*
X81372452Y-22402455D01*
X81286206Y-22517664D01*
X81286202Y-22517671D01*
X81235908Y-22652517D01*
X81229501Y-22712116D01*
X81229501Y-22712123D01*
X81229500Y-22712135D01*
X81229500Y-22885500D01*
X81209815Y-22952539D01*
X81157011Y-22998294D01*
X81105500Y-23009500D01*
X80410940Y-23009500D01*
X80370019Y-23020464D01*
X80370019Y-23020465D01*
X80332751Y-23030451D01*
X80258214Y-23050423D01*
X80258209Y-23050426D01*
X80121290Y-23129475D01*
X80121282Y-23129481D01*
X79319479Y-23931284D01*
X79298878Y-23966967D01*
X79290170Y-23982051D01*
X79240423Y-24068215D01*
X79199499Y-24220943D01*
X79199499Y-24220945D01*
X79199499Y-24389046D01*
X79199500Y-24389059D01*
X79199500Y-25158202D01*
X79179815Y-25225241D01*
X79127011Y-25270996D01*
X79057853Y-25280940D01*
X78994297Y-25251915D01*
X78956523Y-25193137D01*
X78952280Y-25172085D01*
X78945369Y-25110750D01*
X78945368Y-25110745D01*
X78896023Y-24969725D01*
X78885789Y-24940478D01*
X78789816Y-24787738D01*
X78662262Y-24660184D01*
X78640761Y-24646674D01*
X78509523Y-24564211D01*
X78339254Y-24504631D01*
X78339249Y-24504630D01*
X78160004Y-24484435D01*
X78159996Y-24484435D01*
X77980750Y-24504630D01*
X77980745Y-24504631D01*
X77810476Y-24564211D01*
X77657737Y-24660184D01*
X77530184Y-24787737D01*
X77434211Y-24940476D01*
X77374631Y-25110745D01*
X77374630Y-25110750D01*
X77354435Y-25289996D01*
X77354435Y-25290003D01*
X77374630Y-25469249D01*
X77374631Y-25469254D01*
X77434211Y-25639523D01*
X77530185Y-25792263D01*
X77532445Y-25795097D01*
X77533334Y-25797275D01*
X77533889Y-25798158D01*
X77533734Y-25798255D01*
X77558855Y-25859783D01*
X77559500Y-25872412D01*
X77559500Y-28910903D01*
X77539815Y-28977942D01*
X77487011Y-29023697D01*
X77417853Y-29033641D01*
X77354297Y-29004616D01*
X77347819Y-28998584D01*
X76832766Y-28483531D01*
X76799281Y-28422208D01*
X76800672Y-28363757D01*
X76820363Y-28290268D01*
X76835063Y-28235408D01*
X76855659Y-28000000D01*
X76835063Y-27764592D01*
X76773903Y-27536337D01*
X76674035Y-27322171D01*
X76580434Y-27188495D01*
X76538496Y-27128600D01*
X76538495Y-27128599D01*
X76416567Y-27006671D01*
X76383084Y-26945351D01*
X76388068Y-26875659D01*
X76429939Y-26819725D01*
X76460915Y-26802810D01*
X76592331Y-26753796D01*
X76707546Y-26667546D01*
X76793796Y-26552331D01*
X76844091Y-26417483D01*
X76850500Y-26357873D01*
X76850499Y-24562128D01*
X76844091Y-24502517D01*
X76798043Y-24379057D01*
X76793797Y-24367671D01*
X76793793Y-24367664D01*
X76707547Y-24252455D01*
X76707544Y-24252452D01*
X76592335Y-24166206D01*
X76592328Y-24166202D01*
X76457482Y-24115908D01*
X76457483Y-24115908D01*
X76397883Y-24109501D01*
X76397881Y-24109500D01*
X76397873Y-24109500D01*
X76397864Y-24109500D01*
X74602129Y-24109500D01*
X74602123Y-24109501D01*
X74542516Y-24115908D01*
X74407671Y-24166202D01*
X74407664Y-24166206D01*
X74292455Y-24252452D01*
X74292452Y-24252455D01*
X74206206Y-24367664D01*
X74206202Y-24367671D01*
X74155908Y-24502516D01*
X74150749Y-24550507D01*
X74124011Y-24615058D01*
X74066618Y-24654906D01*
X74013577Y-24660471D01*
X73960004Y-24654435D01*
X73959996Y-24654435D01*
X73780750Y-24674630D01*
X73780745Y-24674631D01*
X73610476Y-24734211D01*
X73457737Y-24830184D01*
X73330184Y-24957737D01*
X73234211Y-25110476D01*
X73174631Y-25280745D01*
X73174630Y-25280750D01*
X73154435Y-25459996D01*
X73154435Y-25460003D01*
X73174630Y-25639249D01*
X73174631Y-25639254D01*
X73234211Y-25809523D01*
X73275610Y-25875408D01*
X73330184Y-25962262D01*
X73457738Y-26089816D01*
X73610478Y-26185789D01*
X73759203Y-26237830D01*
X73780745Y-26245368D01*
X73780750Y-26245369D01*
X73959996Y-26265565D01*
X73960000Y-26265565D01*
X73960001Y-26265565D01*
X73968430Y-26264615D01*
X74013577Y-26259528D01*
X74082397Y-26271582D01*
X74133777Y-26318930D01*
X74150750Y-26369494D01*
X74155909Y-26417483D01*
X74206202Y-26552328D01*
X74206206Y-26552335D01*
X74292452Y-26667544D01*
X74292455Y-26667547D01*
X74407664Y-26753793D01*
X74407671Y-26753797D01*
X74539081Y-26802810D01*
X74595015Y-26844681D01*
X74619432Y-26910145D01*
X74604580Y-26978418D01*
X74583430Y-27006673D01*
X74461503Y-27128600D01*
X74325965Y-27322169D01*
X74325964Y-27322171D01*
X74226098Y-27536335D01*
X74226094Y-27536344D01*
X74164938Y-27764586D01*
X74164936Y-27764596D01*
X74144341Y-27999999D01*
X74144341Y-28000000D01*
X74164936Y-28235403D01*
X74164938Y-28235413D01*
X74226094Y-28463655D01*
X74226096Y-28463659D01*
X74226097Y-28463663D01*
X74270575Y-28559046D01*
X74325965Y-28677830D01*
X74325967Y-28677834D01*
X74461501Y-28871395D01*
X74461506Y-28871402D01*
X74628597Y-29038493D01*
X74628603Y-29038498D01*
X74814158Y-29168425D01*
X74857783Y-29223002D01*
X74864977Y-29292500D01*
X74833454Y-29354855D01*
X74814158Y-29371575D01*
X74628597Y-29501505D01*
X74461505Y-29668597D01*
X74325965Y-29862169D01*
X74325964Y-29862171D01*
X74226098Y-30076335D01*
X74226094Y-30076344D01*
X74164938Y-30304586D01*
X74164936Y-30304596D01*
X74144341Y-30539999D01*
X74144341Y-30540000D01*
X74164936Y-30775403D01*
X74164938Y-30775413D01*
X74226094Y-31003655D01*
X74226096Y-31003659D01*
X74226097Y-31003663D01*
X74298839Y-31159658D01*
X74325965Y-31217830D01*
X74325967Y-31217834D01*
X74461501Y-31411395D01*
X74461506Y-31411402D01*
X74628597Y-31578493D01*
X74628603Y-31578498D01*
X74814158Y-31708425D01*
X74857783Y-31763002D01*
X74864977Y-31832500D01*
X74833454Y-31894855D01*
X74814158Y-31911575D01*
X74628597Y-32041505D01*
X74461505Y-32208597D01*
X74325965Y-32402169D01*
X74325964Y-32402171D01*
X74226098Y-32616335D01*
X74226094Y-32616344D01*
X74164938Y-32844586D01*
X74164936Y-32844596D01*
X74144341Y-33079999D01*
X74144341Y-33080000D01*
X74164936Y-33315403D01*
X74164938Y-33315413D01*
X74226094Y-33543655D01*
X74226096Y-33543659D01*
X74226097Y-33543663D01*
X74298839Y-33699658D01*
X74325965Y-33757830D01*
X74325967Y-33757834D01*
X74461501Y-33951395D01*
X74461506Y-33951402D01*
X74628597Y-34118493D01*
X74628603Y-34118498D01*
X74698925Y-34167738D01*
X74796306Y-34235925D01*
X74814594Y-34248730D01*
X74858219Y-34303307D01*
X74865413Y-34372805D01*
X74833890Y-34435160D01*
X74814595Y-34451880D01*
X74628922Y-34581890D01*
X74628920Y-34581891D01*
X74461891Y-34748920D01*
X74461886Y-34748926D01*
X74326400Y-34942420D01*
X74326399Y-34942422D01*
X74226570Y-35156507D01*
X74226567Y-35156513D01*
X74169364Y-35369999D01*
X74169364Y-35370000D01*
X75066988Y-35370000D01*
X75034075Y-35427007D01*
X75000000Y-35554174D01*
X75000000Y-35685826D01*
X75034075Y-35812993D01*
X75066988Y-35870000D01*
X74169364Y-35870000D01*
X74226567Y-36083486D01*
X74226570Y-36083492D01*
X74326399Y-36297578D01*
X74461894Y-36491082D01*
X74628917Y-36658105D01*
X74814595Y-36788119D01*
X74858219Y-36842696D01*
X74865412Y-36912195D01*
X74833890Y-36974549D01*
X74814595Y-36991269D01*
X74628594Y-37121508D01*
X74461505Y-37288597D01*
X74325965Y-37482169D01*
X74325964Y-37482171D01*
X74226098Y-37696335D01*
X74226094Y-37696344D01*
X74164938Y-37924586D01*
X74164936Y-37924596D01*
X74144341Y-38159999D01*
X74144341Y-38160000D01*
X74164936Y-38395403D01*
X74164938Y-38395413D01*
X74199327Y-38523756D01*
X74197664Y-38593606D01*
X74167234Y-38643529D01*
X74131287Y-38679477D01*
X74131286Y-38679478D01*
X74131284Y-38679480D01*
X74075382Y-38735381D01*
X74019481Y-38791282D01*
X74019480Y-38791284D01*
X74002357Y-38820943D01*
X73940423Y-38928215D01*
X73899499Y-39080943D01*
X73899499Y-39080945D01*
X73899499Y-39249046D01*
X73899500Y-39249059D01*
X73899500Y-44199902D01*
X73879815Y-44266941D01*
X73863181Y-44287583D01*
X68884432Y-49266332D01*
X68823109Y-49299817D01*
X68753417Y-49294833D01*
X68697484Y-49252961D01*
X68673067Y-49187497D01*
X68673223Y-49167843D01*
X68675659Y-49140000D01*
X68675659Y-49139999D01*
X68670504Y-49081082D01*
X68655063Y-48904592D01*
X68620671Y-48776239D01*
X68622334Y-48706393D01*
X68652763Y-48656470D01*
X71538506Y-45770728D01*
X71538511Y-45770724D01*
X71548714Y-45760520D01*
X71548716Y-45760520D01*
X71660520Y-45648716D01*
X71739577Y-45511784D01*
X71780500Y-45359057D01*
X71780500Y-30839854D01*
X71799507Y-30773881D01*
X71880788Y-30644524D01*
X71900969Y-30586850D01*
X71940368Y-30474255D01*
X71946992Y-30415464D01*
X71960565Y-30295003D01*
X71960565Y-30294996D01*
X71940369Y-30115750D01*
X71940368Y-30115745D01*
X71926581Y-30076344D01*
X71880789Y-29945478D01*
X71784816Y-29792738D01*
X71657262Y-29665184D01*
X71574449Y-29613149D01*
X71504523Y-29569211D01*
X71334254Y-29509631D01*
X71334249Y-29509630D01*
X71155004Y-29489435D01*
X71154996Y-29489435D01*
X70975750Y-29509630D01*
X70975745Y-29509631D01*
X70805476Y-29569211D01*
X70652737Y-29665184D01*
X70525184Y-29792737D01*
X70429211Y-29945476D01*
X70369631Y-30115745D01*
X70369630Y-30115750D01*
X70349435Y-30294996D01*
X70349435Y-30295003D01*
X70369630Y-30474249D01*
X70369631Y-30474254D01*
X70429211Y-30644523D01*
X70525184Y-30797262D01*
X70543181Y-30815259D01*
X70576666Y-30876582D01*
X70579500Y-30902940D01*
X70579500Y-44979902D01*
X70559815Y-45046941D01*
X70543181Y-45067583D01*
X68884432Y-46726332D01*
X68823109Y-46759817D01*
X68753417Y-46754833D01*
X68697484Y-46712961D01*
X68673067Y-46647497D01*
X68673223Y-46627843D01*
X68675659Y-46600000D01*
X68675659Y-46599999D01*
X68659438Y-46414596D01*
X68655063Y-46364592D01*
X68595653Y-46142867D01*
X68593905Y-46136344D01*
X68593904Y-46136343D01*
X68593903Y-46136337D01*
X68494035Y-45922171D01*
X68494034Y-45922169D01*
X68358496Y-45728600D01*
X68300416Y-45670520D01*
X68236179Y-45606283D01*
X68202696Y-45544963D01*
X68207680Y-45475271D01*
X68249551Y-45419337D01*
X68280529Y-45402422D01*
X68412086Y-45353354D01*
X68412093Y-45353350D01*
X68527187Y-45267190D01*
X68527190Y-45267187D01*
X68613350Y-45152093D01*
X68613354Y-45152086D01*
X68663596Y-45017379D01*
X68663598Y-45017372D01*
X68669999Y-44957844D01*
X68670000Y-44957827D01*
X68670000Y-44310000D01*
X67753012Y-44310000D01*
X67785925Y-44252993D01*
X67820000Y-44125826D01*
X67820000Y-43994174D01*
X67785925Y-43867007D01*
X67753012Y-43810000D01*
X68670000Y-43810000D01*
X68670000Y-43162172D01*
X68669999Y-43162155D01*
X68663598Y-43102627D01*
X68663596Y-43102620D01*
X68613354Y-42967913D01*
X68613350Y-42967906D01*
X68527190Y-42852812D01*
X68527187Y-42852809D01*
X68412093Y-42766649D01*
X68412086Y-42766645D01*
X68277379Y-42716403D01*
X68277372Y-42716401D01*
X68217844Y-42710000D01*
X67570000Y-42710000D01*
X67570000Y-43626988D01*
X67512993Y-43594075D01*
X67385826Y-43560000D01*
X67254174Y-43560000D01*
X67127007Y-43594075D01*
X67070000Y-43626988D01*
X67070000Y-42710000D01*
X66422155Y-42710000D01*
X66362627Y-42716401D01*
X66362620Y-42716403D01*
X66227913Y-42766645D01*
X66227906Y-42766649D01*
X66112812Y-42852809D01*
X66112809Y-42852812D01*
X66026649Y-42967906D01*
X66026645Y-42967913D01*
X65976403Y-43102620D01*
X65976401Y-43102627D01*
X65970000Y-43162155D01*
X65970000Y-43810000D01*
X66886988Y-43810000D01*
X66854075Y-43867007D01*
X66820000Y-43994174D01*
X66820000Y-44125826D01*
X66854075Y-44252993D01*
X66886988Y-44310000D01*
X65970000Y-44310000D01*
X65970000Y-44957844D01*
X65976401Y-45017372D01*
X65976403Y-45017379D01*
X66026645Y-45152086D01*
X66026649Y-45152093D01*
X66112809Y-45267187D01*
X66112812Y-45267190D01*
X66227906Y-45353350D01*
X66227913Y-45353354D01*
X66359470Y-45402421D01*
X66415403Y-45444292D01*
X66439821Y-45509756D01*
X66424970Y-45578029D01*
X66403819Y-45606284D01*
X66281503Y-45728600D01*
X66145965Y-45922169D01*
X66145964Y-45922171D01*
X66046098Y-46136335D01*
X66046094Y-46136344D01*
X65984938Y-46364586D01*
X65984936Y-46364596D01*
X65964341Y-46599999D01*
X62250500Y-46599999D01*
X62250500Y-21084500D01*
X62270185Y-21017461D01*
X62322989Y-20971706D01*
X62374500Y-20960500D01*
X155599192Y-20960500D01*
X155666231Y-20980185D01*
G37*
%TD.AperFunction*%
%TD*%
M02*
