%TF.GenerationSoftware,KiCad,Pcbnew,8.0.6*%
%TF.CreationDate,2025-01-02T11:45:37+01:00*%
%TF.ProjectId,Pcb pami 2025,50636220-7061-46d6-9920-323032352e6b,rev?*%
%TF.SameCoordinates,Original*%
%TF.FileFunction,Drillmap*%
%TF.FilePolarity,Positive*%
%FSLAX45Y45*%
G04 Gerber Fmt 4.5, Leading zero omitted, Abs format (unit mm)*
G04 Created by KiCad (PCBNEW 8.0.6) date 2025-01-02 11:45:37*
%MOMM*%
%LPD*%
G01*
G04 APERTURE LIST*
%ADD10C,0.050000*%
%ADD11C,0.200000*%
G04 APERTURE END LIST*
D10*
X6175000Y-2046000D02*
X15622369Y-2046000D01*
X15622369Y-11088369D01*
X6175000Y-11088369D01*
X6175000Y-2046000D01*
D11*
X6433277Y-11402353D02*
X6433277Y-11202353D01*
X6433277Y-11202353D02*
X6480896Y-11202353D01*
X6480896Y-11202353D02*
X6509467Y-11211877D01*
X6509467Y-11211877D02*
X6528515Y-11230924D01*
X6528515Y-11230924D02*
X6538039Y-11249972D01*
X6538039Y-11249972D02*
X6547562Y-11288067D01*
X6547562Y-11288067D02*
X6547562Y-11316639D01*
X6547562Y-11316639D02*
X6538039Y-11354734D01*
X6538039Y-11354734D02*
X6528515Y-11373781D01*
X6528515Y-11373781D02*
X6509467Y-11392829D01*
X6509467Y-11392829D02*
X6480896Y-11402353D01*
X6480896Y-11402353D02*
X6433277Y-11402353D01*
X6633277Y-11402353D02*
X6633277Y-11269020D01*
X6633277Y-11307115D02*
X6642801Y-11288067D01*
X6642801Y-11288067D02*
X6652324Y-11278543D01*
X6652324Y-11278543D02*
X6671372Y-11269020D01*
X6671372Y-11269020D02*
X6690420Y-11269020D01*
X6757086Y-11402353D02*
X6757086Y-11269020D01*
X6757086Y-11202353D02*
X6747562Y-11211877D01*
X6747562Y-11211877D02*
X6757086Y-11221401D01*
X6757086Y-11221401D02*
X6766610Y-11211877D01*
X6766610Y-11211877D02*
X6757086Y-11202353D01*
X6757086Y-11202353D02*
X6757086Y-11221401D01*
X6880896Y-11402353D02*
X6861848Y-11392829D01*
X6861848Y-11392829D02*
X6852324Y-11373781D01*
X6852324Y-11373781D02*
X6852324Y-11202353D01*
X6985658Y-11402353D02*
X6966610Y-11392829D01*
X6966610Y-11392829D02*
X6957086Y-11373781D01*
X6957086Y-11373781D02*
X6957086Y-11202353D01*
X7214229Y-11402353D02*
X7214229Y-11202353D01*
X7214229Y-11202353D02*
X7280896Y-11345210D01*
X7280896Y-11345210D02*
X7347562Y-11202353D01*
X7347562Y-11202353D02*
X7347562Y-11402353D01*
X7528515Y-11402353D02*
X7528515Y-11297591D01*
X7528515Y-11297591D02*
X7518991Y-11278543D01*
X7518991Y-11278543D02*
X7499943Y-11269020D01*
X7499943Y-11269020D02*
X7461848Y-11269020D01*
X7461848Y-11269020D02*
X7442801Y-11278543D01*
X7528515Y-11392829D02*
X7509467Y-11402353D01*
X7509467Y-11402353D02*
X7461848Y-11402353D01*
X7461848Y-11402353D02*
X7442801Y-11392829D01*
X7442801Y-11392829D02*
X7433277Y-11373781D01*
X7433277Y-11373781D02*
X7433277Y-11354734D01*
X7433277Y-11354734D02*
X7442801Y-11335686D01*
X7442801Y-11335686D02*
X7461848Y-11326162D01*
X7461848Y-11326162D02*
X7509467Y-11326162D01*
X7509467Y-11326162D02*
X7528515Y-11316639D01*
X7623753Y-11269020D02*
X7623753Y-11469020D01*
X7623753Y-11278543D02*
X7642801Y-11269020D01*
X7642801Y-11269020D02*
X7680896Y-11269020D01*
X7680896Y-11269020D02*
X7699943Y-11278543D01*
X7699943Y-11278543D02*
X7709467Y-11288067D01*
X7709467Y-11288067D02*
X7718991Y-11307115D01*
X7718991Y-11307115D02*
X7718991Y-11364258D01*
X7718991Y-11364258D02*
X7709467Y-11383305D01*
X7709467Y-11383305D02*
X7699943Y-11392829D01*
X7699943Y-11392829D02*
X7680896Y-11402353D01*
X7680896Y-11402353D02*
X7642801Y-11402353D01*
X7642801Y-11402353D02*
X7623753Y-11392829D01*
X7804705Y-11383305D02*
X7814229Y-11392829D01*
X7814229Y-11392829D02*
X7804705Y-11402353D01*
X7804705Y-11402353D02*
X7795182Y-11392829D01*
X7795182Y-11392829D02*
X7804705Y-11383305D01*
X7804705Y-11383305D02*
X7804705Y-11402353D01*
X7804705Y-11278543D02*
X7814229Y-11288067D01*
X7814229Y-11288067D02*
X7804705Y-11297591D01*
X7804705Y-11297591D02*
X7795182Y-11288067D01*
X7795182Y-11288067D02*
X7804705Y-11278543D01*
X7804705Y-11278543D02*
X7804705Y-11297591D01*
M02*
