M48
; DRILL file {KiCad 8.0.6} date 2025-01-02T11:50:36+0100
; FORMAT={-:-/ absolute / inch / decimal}
; #@! TF.CreationDate,2025-01-02T11:50:36+01:00
; #@! TF.GenerationSoftware,Kicad,Pcbnew,8.0.6
; #@! TF.FileFunction,Plated,1,2,PTH
FMAT,2
INCH
; #@! TA.AperFunction,Plated,PTH,ViaDrill
T1C0.0118
; #@! TA.AperFunction,Plated,PTH,ComponentDrill
T2C0.0394
; #@! TA.AperFunction,Plated,PTH,ComponentDrill
T3C0.0433
; #@! TA.AperFunction,Plated,PTH,ComponentDrill
T4C0.0472
%
G90
G05
T1
X2.8014Y-1.1927
X2.9118Y-1.0024
X3.0772Y-0.9957
X3.0811Y-1.365
X3.189Y-1.6634
X3.1906Y-1.185
X3.2874Y-1.6929
X3.3661Y-1.4173
X3.3882Y-2.9472
X3.4055Y-1.4764
X3.4169Y-1.8772
X3.4203Y-2.0423
X3.4489Y-2.2672
X3.5177Y-1.8772
X3.7827Y-2.3071
X3.8492Y-2.4087
X3.937Y-2.9331
X4.6839Y-1.974
X4.7114Y-3.1433
X4.7984Y-3.4071
X4.9165Y-3.7823
X4.9764Y-3.4846
X4.9803Y-1.6339
X4.9894Y-3.2205
X5.0492Y-3.5213
X5.0551Y-1.7539
X5.2563Y-2.1531
X5.3004Y-3.298
X5.322Y-2.8465
X5.461Y-2.7299
X5.9055Y-2.5591
T2
X2.6504Y-1.7346
X2.6504Y-1.8346
X2.6504Y-1.9346
X2.6504Y-2.0346
X2.6504Y-2.1346
X2.6504Y-2.2346
X2.6504Y-2.3346
X2.6504Y-2.4346
X2.6772Y-2.6378
X2.6772Y-2.8346
X2.6772Y-3.0315
X2.6772Y-3.2283
X2.9724Y-1.0024
X2.9724Y-1.1024
X2.9724Y-1.2024
X2.9724Y-1.3024
X2.9724Y-1.4024
X2.9724Y-1.5024
X3.0512Y-1.7366
X3.0512Y-1.8366
X3.0512Y-1.9366
X3.0512Y-2.0366
X3.0512Y-2.1366
X3.0512Y-2.2366
X3.0512Y-2.3366
X3.0512Y-2.4366
X3.2512Y-0.9295
X3.2512Y-1.0295
X3.2512Y-1.1295
X3.2512Y-1.2295
X3.2512Y-1.3295
X3.2512Y-1.4295
X3.5827Y-1.5307
X3.5827Y-1.6307
X3.5827Y-1.7307
X3.5827Y-1.8307
X3.5827Y-1.9307
X3.5827Y-2.0307
X3.5827Y-2.1307
X3.5827Y-2.2307
X3.5827Y-2.3307
X3.5827Y-2.4307
X3.5827Y-2.5307
X3.5827Y-2.6307
X3.5827Y-2.7307
X3.5827Y-2.8307
X3.5827Y-2.9307
X3.8189Y-3.563
X3.8189Y-3.663
X3.9748Y-4.2913
X4.0748Y-3.8386
X4.0748Y-4.2913
X4.1748Y-3.8386
X4.2748Y-3.8386
X4.5866Y-1.5307
X4.5866Y-1.6307
X4.5866Y-1.7307
X4.5866Y-1.8307
X4.5866Y-1.9307
X4.5866Y-2.0307
X4.5866Y-2.1307
X4.5866Y-2.2307
X4.5866Y-2.3307
X4.5866Y-2.4307
X4.5866Y-2.5307
X4.5866Y-2.6307
X4.5866Y-2.7307
X4.5866Y-2.8307
X4.5866Y-2.9307
X4.7244Y-3.5423
X4.7244Y-3.6423
X4.7244Y-3.7423
X4.8622Y-1.5929
X4.8622Y-1.6929
X4.8622Y-1.7929
X4.9504Y-2.4953
X4.9504Y-2.5953
X4.9504Y-2.6953
X4.9504Y-2.7953
X4.9504Y-2.8953
X4.9504Y-2.9953
X4.9504Y-3.0953
X5.0591Y-1.3967
X5.0591Y-1.4967
X5.0591Y-1.5967
X5.1496Y-3.5976
X5.1496Y-3.6976
X5.1496Y-3.7976
X5.1496Y-3.8976
X5.1953Y-3.0504
X5.1953Y-3.1504
X5.1984Y-2.5622
X5.1984Y-2.6622
X5.2102Y-2.2882
X5.2102Y-2.3882
X5.211Y-1.798
X5.211Y-1.898
X5.2165Y-1.3976
X5.2165Y-1.4976
X5.2197Y-0.9094
X5.2197Y-1.0094
X5.4307Y-3.3913
X5.4307Y-3.4913
X5.4307Y-3.5913
X5.4307Y-3.6913
X6.013Y-1.6402
X6.0228Y-3.0492
X6.0228Y-3.1492
X6.0236Y-2.5591
X6.0236Y-2.6591
X6.0354Y-2.285
X6.0354Y-2.385
X6.0386Y-1.7969
X6.0386Y-1.8969
X6.0441Y-1.3965
X6.0441Y-1.4965
X6.0449Y-0.9063
X6.0449Y-1.0063
T3
X3.2776Y-3.5138
X3.2776Y-3.6909
X3.4055Y-3.937
X3.4055Y-4.1142
X3.5335Y-3.5138
X3.5335Y-3.6909
X3.6614Y-3.937
X3.6614Y-4.1142
T4
X2.9921Y-2.7906
X2.9921Y-3.3906
X3.2087Y-2.6331
X3.2087Y-3.2331
M30
